<svg width="16" height="16" viewBox="0 0 16 16" fill="none" xmlns="http://www.w3.org/2000/svg">
<g id="Archive">
<path id="Vector" d="M14 3H2C1.73478 3 1.48043 3.10536 1.29289 3.29289C1.10536 3.48043 1 3.73478 1 4V5.5C1 5.76522 1.10536 6.01957 1.29289 6.20711C1.48043 6.39464 1.73478 6.5 2 6.5V12C2 12.2652 2.10536 12.5196 2.29289 12.7071C2.48043 12.8946 2.73478 13 3 13H13C13.2652 13 13.5196 12.8946 13.7071 12.7071C13.8946 12.5196 14 12.2652 14 12V6.5C14.2652 6.5 14.5196 6.39464 14.7071 6.20711C14.8946 6.01957 15 5.76522 15 5.5V4C15 3.73478 14.8946 3.48043 14.7071 3.29289C14.5196 3.10536 14.2652 3 14 3ZM13 12H3V6.5H13V12ZM14 5.5H2V4H14V5.5ZM6 8.5C6 8.36739 6.05268 8.24021 6.14645 8.14645C6.24021 8.05268 6.36739 8 6.5 8H9.5C9.63261 8 9.75979 8.05268 9.85355 8.14645C9.94732 8.24021 10 8.36739 10 8.5C10 8.63261 9.94732 8.75979 9.85355 8.85355C9.75979 8.94732 9.63261 9 9.5 9H6.5C6.36739 9 6.24021 8.94732 6.14645 8.85355C6.05268 8.75979 6 8.63261 6 8.5Z" fill="#3B3B3B"/>
</g>
</svg>
