<svg width="17" height="16" viewBox="0 0 17 16" fill="none" xmlns="http://www.w3.org/2000/svg">
<g id="ArrowsClockwise">
<path id="Vector" d="M14.5 2.9998V5.9998C14.5 6.13241 14.4473 6.25959 14.3536 6.35335C14.2598 6.44712 14.1326 6.4998 14 6.4998H11C10.8674 6.4998 10.7402 6.44712 10.6464 6.35335C10.5527 6.25959 10.5 6.13241 10.5 5.9998C10.5 5.86719 10.5527 5.74002 10.6464 5.64625C10.7402 5.55248 10.8674 5.4998 11 5.4998H12.7931L11.8787 4.58543C10.9495 3.65193 9.6878 3.12527 8.37063 3.12105H8.3425C7.03636 3.11799 5.78151 3.62922 4.84937 4.54418C4.75389 4.63331 4.62731 4.68155 4.49672 4.67855C4.36612 4.67555 4.24189 4.62157 4.15059 4.52815C4.05929 4.43472 4.00817 4.30928 4.00818 4.17865C4.00819 4.04803 4.05932 3.92259 4.15062 3.82918C5.28033 2.72505 6.79988 2.11098 8.37952 2.12022C9.95916 2.12946 11.4714 2.76128 12.5881 3.87855L13.5 4.79293V2.9998C13.5 2.86719 13.5527 2.74002 13.6464 2.64625C13.7402 2.55248 13.8674 2.4998 14 2.4998C14.1326 2.4998 14.2598 2.55248 14.3536 2.64625C14.4473 2.74002 14.5 2.86719 14.5 2.9998ZM12.1506 11.4554C11.2093 12.3749 9.94337 12.8863 8.62747 12.8786C7.31156 12.8709 6.05175 12.3447 5.12125 11.4142L4.20688 10.4998H6C6.13261 10.4998 6.25979 10.4471 6.35355 10.3534C6.44732 10.2596 6.5 10.1324 6.5 9.9998C6.5 9.86719 6.44732 9.74002 6.35355 9.64625C6.25979 9.55248 6.13261 9.4998 6 9.4998H3C2.86739 9.4998 2.74021 9.55248 2.64645 9.64625C2.55268 9.74002 2.5 9.86719 2.5 9.9998V12.9998C2.5 13.1324 2.55268 13.2596 2.64645 13.3534C2.74021 13.4471 2.86739 13.4998 3 13.4998C3.13261 13.4998 3.25979 13.4471 3.35355 13.3534C3.44732 13.2596 3.5 13.1324 3.5 12.9998V11.2067L4.41438 12.1211C5.52951 13.2418 7.044 13.8739 8.625 13.8786H8.65812C10.2257 13.8826 11.7317 13.2689 12.85 12.1704C12.9413 12.077 12.9924 11.9516 12.9924 11.8209C12.9925 11.6903 12.9413 11.5649 12.85 11.4715C12.7587 11.378 12.6345 11.324 12.5039 11.3211C12.3733 11.3181 12.2467 11.3663 12.1512 11.4554H12.1506Z" fill="#606060"/>
</g>
</svg>
