<svg width="16" height="16" viewBox="0 0 16 16" fill="none" xmlns="http://www.w3.org/2000/svg">
<path d="M14.5 3.5H4.5V2.5C4.5 2.36739 4.44732 2.24021 4.35355 2.14645C4.25979 2.05268 4.13261 2 4 2H3C2.46957 2 1.96086 2.21071 1.58579 2.58579C1.21071 2.96086 1 3.46957 1 4V11C1 11.5304 1.21071 12.0391 1.58579 12.4142C1.96086 12.7893 2.46957 13 3 13H14.5C14.6326 13 14.7598 12.9473 14.8536 12.8536C14.9473 12.7598 15 12.6326 15 12.5V4C15 3.86739 14.9473 3.74021 14.8536 3.64645C14.7598 3.55268 14.6326 3.5 14.5 3.5ZM2 4C2 3.73478 2.10536 3.48043 2.29289 3.29289C2.48043 3.10536 2.73478 3 3 3H3.5V9H3C2.64884 8.99952 2.30382 9.09203 2 9.26812V4ZM14 12H3C2.73478 12 2.48043 11.8946 2.29289 11.7071C2.10536 11.5196 2 11.2652 2 11C2 10.7348 2.10536 10.4804 2.29289 10.2929C2.48043 10.1054 2.73478 10 3 10H4C4.13261 10 4.25979 9.94732 4.35355 9.85355C4.44732 9.75979 4.5 9.63261 4.5 9.5V4.5H14V12ZM6.5 8.5C6.36739 8.5 6.24021 8.55268 6.14645 8.64645C6.05268 8.74021 6 8.86739 6 9C6 9.13261 6.05268 9.25979 6.14645 9.35355C6.24021 9.44732 6.36739 9.5 6.5 9.5H7.5V10C7.5 10.1326 7.55268 10.2598 7.64645 10.3536C7.74021 10.4473 7.86739 10.5 8 10.5C8.13261 10.5 8.25979 10.4473 8.35355 10.3536C8.44732 10.2598 8.5 10.1326 8.5 10V9.5H10V10C10 10.1326 10.0527 10.2598 10.1464 10.3536C10.2402 10.4473 10.3674 10.5 10.5 10.5C10.6326 10.5 10.7598 10.4473 10.8536 10.3536C10.9473 10.2598 11 10.1326 11 10V9.5H12C12.1326 9.5 12.2598 9.44732 12.3536 9.35355C12.4473 9.25979 12.5 9.13261 12.5 9C12.5 8.86739 12.4473 8.74021 12.3536 8.64645C12.2598 8.55268 12.1326 8.5 12 8.5H11V7.5H12C12.1326 7.5 12.2598 7.44732 12.3536 7.35355C12.4473 7.25979 12.5 7.13261 12.5 7C12.5 6.86739 12.4473 6.74021 12.3536 6.64645C12.2598 6.55268 12.1326 6.5 12 6.5H11V6C11 5.86739 10.9473 5.74021 10.8536 5.64645C10.7598 5.55268 10.6326 5.5 10.5 5.5C10.3674 5.5 10.2402 5.55268 10.1464 5.64645C10.0527 5.74021 10 5.86739 10 6V6.5H8.5V6C8.5 5.86739 8.44732 5.74021 8.35355 5.64645C8.25979 5.55268 8.13261 5.5 8 5.5C7.86739 5.5 7.74021 5.55268 7.64645 5.64645C7.55268 5.74021 7.5 5.86739 7.5 6V6.5H6.5C6.36739 6.5 6.24021 6.55268 6.14645 6.64645C6.05268 6.74021 6 6.86739 6 7C6 7.13261 6.05268 7.25979 6.14645 7.35355C6.24021 7.44732 6.36739 7.5 6.5 7.5H7.5V8.5H6.5ZM8.5 7.5H10V8.5H8.5V7.5Z" fill="#161819"/>
</svg>
