<svg width="20" height="20" viewBox="0 0 20 20" fill="none" xmlns="http://www.w3.org/2000/svg">
<g id="Checks">
<path id="Vector" d="M11.6884 6.69613L4.68837 13.5711C4.57147 13.6861 4.41407 13.7506 4.25009 13.7506C4.08612 13.7506 3.92871 13.6861 3.81181 13.5711L0.811812 10.625C0.753282 10.5675 0.706661 10.499 0.674611 10.4234C0.642562 10.3478 0.625711 10.2667 0.625022 10.1846C0.624333 10.1025 0.639818 10.0211 0.670594 9.94498C0.70137 9.86888 0.746834 9.79958 0.80439 9.74105C0.861946 9.68252 0.930467 9.6359 1.00604 9.60385C1.08161 9.5718 1.16276 9.55495 1.24485 9.55426C1.32693 9.55357 1.40835 9.56906 1.48445 9.59984C1.56055 9.63061 1.62984 9.67608 1.68837 9.73363L4.25009 12.2493L10.8126 5.80394C10.9309 5.6877 11.0905 5.62323 11.2564 5.62469C11.3385 5.62542 11.4197 5.64231 11.4953 5.67441C11.5709 5.7065 11.6394 5.75317 11.697 5.81176C11.7545 5.87034 11.8 5.93968 11.8307 6.01583C11.8615 6.09198 11.8769 6.17344 11.8762 6.25556C11.8755 6.33768 11.8586 6.41886 11.8265 6.49445C11.7944 6.57004 11.7477 6.63858 11.6892 6.69613H11.6884ZM19.1962 5.81176C19.1387 5.75313 19.0701 5.70642 18.9945 5.6743C18.9189 5.64217 18.8378 5.62526 18.7556 5.62454C18.6735 5.62381 18.592 5.63928 18.5159 5.67007C18.4397 5.70085 18.3704 5.74634 18.3118 5.80394L11.7493 12.2493L10.2782 10.8039C10.1599 10.6878 10.0003 10.6234 9.83453 10.625C9.66875 10.6265 9.51037 10.6938 9.39423 10.8121C9.2781 10.9305 9.21372 11.0901 9.21526 11.2558C9.21679 11.4216 9.28413 11.58 9.40244 11.6961L11.311 13.5711C11.4279 13.6861 11.5853 13.7506 11.7493 13.7506C11.9133 13.7506 12.0707 13.6861 12.1876 13.5711L19.1876 6.69613C19.2463 6.63865 19.293 6.57017 19.3252 6.4946C19.3574 6.41903 19.3744 6.33786 19.3752 6.25573C19.376 6.17359 19.3606 6.0921 19.3299 6.01592C19.2992 5.93974 19.2537 5.87037 19.1962 5.81176Z" fill="#34C759"/>
</g>
</svg>
