<svg width="16" height="16" viewBox="0 0 16 16" fill="none" xmlns="http://www.w3.org/2000/svg">
<g id="Check">
<path id="Vector" d="M14.5306 5.0313L6.5306 13.0313C6.46092 13.1012 6.37813 13.1567 6.28696 13.1946C6.1958 13.2324 6.09806 13.2519 5.99935 13.2519C5.90064 13.2519 5.8029 13.2324 5.71173 13.1946C5.62057 13.1567 5.53778 13.1012 5.4681 13.0313L1.9681 9.5313C1.89833 9.46154 1.84299 9.37871 1.80524 9.28756C1.76748 9.19641 1.74805 9.09871 1.74805 9.00005C1.74805 8.90139 1.76748 8.80369 1.80524 8.71254C1.84299 8.62139 1.89833 8.53857 1.9681 8.4688C2.03786 8.39904 2.12069 8.3437 2.21184 8.30594C2.30299 8.26818 2.40069 8.24875 2.49935 8.24875C2.59801 8.24875 2.69571 8.26818 2.78686 8.30594C2.87801 8.3437 2.96083 8.39904 3.0306 8.4688L5.99997 11.4382L13.4693 3.97005C13.6102 3.82915 13.8013 3.75 14.0006 3.75C14.1999 3.75 14.391 3.82915 14.5318 3.97005C14.6727 4.11095 14.7519 4.30204 14.7519 4.5013C14.7519 4.70056 14.6727 4.89165 14.5318 5.03255L14.5306 5.0313Z" fill="#D4D4D4"/>
</g>
</svg>
