<svg width="160" height="120" viewBox="0 0 160 120" fill="none" xmlns="http://www.w3.org/2000/svg">
<path fill-rule="evenodd" clip-rule="evenodd" d="M88.3641 2.68824C71.5139 0.309342 54.0933 2.3573 40.7429 11.3501C22.0572 23.9368 1.16264 39.6228 3.76451 59.6743C6.55824 81.2046 8.29454 100.416 31.392 109.875C54.5971 119.378 115.559 121.909 137.974 111.141C159.251 100.919 156.879 76.8766 155.264 56.2664C154.02 40.4048 133.131 33.4089 119.464 22.464C109.559 14.5311 101.835 4.59008 88.3641 2.68824Z" fill="#FEF9C2"/>
<circle cx="56.2027" cy="30.1363" r="12.1519" fill="#FFF085"/>
<circle cx="80.001" cy="65.1484" r="36" fill="#FFF085"/>
<circle cx="77.1436" cy="65.1484" r="35.7143" fill="white" stroke="#A65F00" stroke-width="0.571429"/>
<path d="M74.1237 69.8836L76.1359 52.2327L81.613 53.1985L77.4669 70.4731L74.1237 69.8836ZM74.4575 77.9735C73.6276 77.8271 72.9567 77.4032 72.4447 76.7018C71.9565 76.0045 71.7856 75.2409 71.9319 74.4111C72.0782 73.5812 72.4979 72.934 73.191 72.4695C73.912 71.9854 74.6874 71.8165 75.5173 71.9629C76.3235 72.105 76.9707 72.5247 77.4589 73.222C77.9513 73.8956 78.1244 74.6473 77.978 75.4772C77.8317 76.307 77.4099 76.9661 76.7126 77.4543C76.0153 77.9426 75.2636 78.1156 74.4575 77.9735Z" fill="#A65F00"/>
<circle cx="131.392" cy="63.796" r="4.3038" fill="#FFF085"/>
<circle cx="104.304" cy="106.076" r="6.07595" fill="#FFF085"/>
</svg>
