<svg width="316" height="316" viewBox="0 0 316 316" fill="none" xmlns="http://www.w3.org/2000/svg">
<path fill-rule="evenodd" clip-rule="evenodd" d="M174.519 44.8067C141.24 40.1084 106.835 44.1531 80.4675 61.9139C43.5633 86.7726 2.2966 117.753 7.43527 157.354C12.9529 199.877 16.3821 237.818 61.9995 256.5C107.83 275.269 228.23 280.268 272.5 259C314.522 238.812 309.836 191.329 306.646 150.624C304.191 119.297 262.933 105.48 235.943 83.8639C216.38 68.1964 201.125 48.5629 174.519 44.8067Z" fill="#EBF8FF"/>
<circle cx="111" cy="99" r="24" fill="#DEEFF8"/>
<circle cx="158" cy="168.159" r="71.1" fill="#CCE0EA"/>
<circle cx="152.357" cy="168.159" r="70.5357" fill="white" stroke="#3F3D56" stroke-width="1.12857"/>
<path d="M146.428 177.329L150.402 142.468L161.219 144.375L153.031 178.493L146.428 177.329ZM147.087 193.306C145.448 193.017 144.123 192.18 143.112 190.795C142.148 189.417 141.81 187.909 142.099 186.27C142.388 184.631 143.217 183.353 144.586 182.436C146.01 181.48 147.541 181.146 149.18 181.435C150.772 181.716 152.051 182.545 153.015 183.922C153.987 185.252 154.329 186.737 154.04 188.376C153.751 190.015 152.918 191.317 151.541 192.281C150.164 193.245 148.679 193.587 147.087 193.306Z" fill="#2962A5"/>
<circle cx="259.5" cy="165.5" r="8.5" fill="#DEEFF8"/>
<circle cx="206" cy="249" r="12" fill="#DEEFF8"/>
</svg>
