<svg width="12" height="12" viewBox="0 0 12 12" fill="none" xmlns="http://www.w3.org/2000/svg">
<g id="Checks">
<path id="Vector" d="M7.14415 4.15123L2.94415 8.27623C2.83896 8.37958 2.69739 8.43748 2.54993 8.43748C2.40246 8.43748 2.2609 8.37958 2.15571 8.27623L0.355708 6.50857C0.302984 6.4568 0.260973 6.39516 0.232074 6.32715C0.203175 6.25915 0.187954 6.18611 0.187279 6.11223C0.185917 5.963 0.243889 5.81935 0.348442 5.71287C0.400212 5.66015 0.461859 5.61813 0.529864 5.58924C0.59787 5.56034 0.670901 5.54512 0.744789 5.54444C0.894012 5.54308 1.03766 5.60105 1.14415 5.7056L2.5504 7.08654L6.35618 3.34873C6.46259 3.24418 6.60619 3.18618 6.75537 3.1875C6.90455 3.18882 7.04709 3.24934 7.15165 3.35576C7.2562 3.46218 7.31419 3.60577 7.31288 3.75495C7.31156 3.90413 7.25103 4.04668 7.14461 4.15123H7.14415ZM11.6512 3.35435C11.5994 3.30145 11.5377 3.25929 11.4695 3.2303C11.4014 3.2013 11.3282 3.18604 11.2542 3.18539C11.1802 3.18473 11.1067 3.1987 11.0381 3.22649C10.9695 3.25428 10.907 3.29534 10.8543 3.34732L7.04993 7.08654L6.68055 6.72373C6.57413 6.61918 6.43054 6.56118 6.28136 6.5625C6.13218 6.56382 5.98964 6.62434 5.88508 6.73076C5.78053 6.83718 5.72253 6.98077 5.72385 7.12995C5.72517 7.27913 5.7857 7.42168 5.89211 7.52623L6.65571 8.27623C6.7609 8.37958 6.90246 8.43748 7.04993 8.43748C7.19739 8.43748 7.33896 8.37958 7.44414 8.27623L11.6441 4.15123C11.6968 4.09946 11.7388 4.03782 11.7677 3.96982C11.7966 3.90183 11.8118 3.82882 11.8124 3.75495C11.8131 3.68108 11.7992 3.60781 11.7715 3.53932C11.7438 3.47083 11.7029 3.40845 11.6512 3.35576V3.35435Z" fill="#F5F3EF"/>
</g>
</svg>
