<svg width="324" height="324" viewBox="0 0 324 324" fill="none" xmlns="http://www.w3.org/2000/svg">
<g opacity="0.4">
<path opacity="0.3" d="M299.368 214.175C318.484 225.191 318.484 243.011 299.692 254.027L196.984 313.643C178.192 324.659 147.412 324.659 128.296 313.643L24.616 254.027C5.50004 243.011 5.50004 225.191 24.292 214.175L127 154.559C145.792 143.543 176.572 143.543 195.688 154.559L299.368 214.175Z" fill="#161819"/>
</g>
<path d="M313.623 203.812H10.3594V214.505C10.3594 221.633 15.2194 228.76 24.6154 234.268L127.971 293.885C147.087 304.901 177.867 304.901 196.659 293.885L299.367 234.268C308.763 228.76 313.623 221.633 313.623 214.505V203.812Z" fill="url(#paint0_linear_1627_29537)"/>
<path d="M299.368 183.722C318.484 194.738 318.484 212.558 299.692 223.574L196.984 283.19C178.192 294.206 147.412 294.206 128.296 283.19L24.616 223.574C5.50004 212.558 5.50004 194.738 24.292 183.722L127 124.106C145.792 113.09 176.572 113.09 195.688 124.106L299.368 183.722Z" fill="#3B3B3B"/>
<path d="M270.38 191.865C285.284 200.613 285.608 214.545 270.704 223.293L189.38 270.597C174.476 279.345 150.176 279.345 134.948 270.597L53.2998 223.293C38.3958 214.545 38.0718 200.613 53.2998 191.865L134.624 144.561C149.528 135.813 173.828 135.813 189.056 144.561L270.38 191.865Z" stroke="#D4D4D4" stroke-width="1.63" stroke-miterlimit="10"/>
<path d="M263.086 165.578H60.9102V205.106C60.9102 209.966 64.1502 214.826 70.6302 218.39L139.318 258.242C151.954 265.694 172.69 265.694 185.326 258.242L254.014 218.39C260.17 214.826 263.41 209.966 263.41 205.106V165.578H263.086Z" fill="url(#paint1_linear_1627_29537)"/>
<path d="M226.147 156.502C234.895 161.686 235.219 170.11 226.147 174.97L178.195 202.834C169.447 208.018 154.867 208.018 146.119 202.834L97.8432 174.97C89.0952 169.786 88.7712 161.686 97.8432 156.502L145.795 128.638C154.543 123.454 169.123 123.454 177.871 128.638L226.147 156.502Z" fill="url(#paint2_linear_1627_29537)"/>
<path d="M270.536 150.021C285.44 158.769 285.764 172.701 270.86 181.449L189.536 228.753C174.632 237.501 150.332 237.501 135.104 228.753L53.4561 181.449C38.5521 172.701 38.2281 158.769 53.4561 150.021L134.78 102.717C149.684 93.9692 173.984 93.9692 189.212 102.717L270.536 150.021Z" stroke="#D4D4D4" stroke-width="1.63" stroke-miterlimit="10"/>
<path d="M226.147 162.986C234.895 168.17 235.219 176.594 226.147 181.454L178.195 209.318C169.447 214.502 154.867 214.502 146.119 209.318L97.8432 181.454C89.0952 176.27 88.7712 168.17 97.8432 162.986L145.795 135.122C154.543 129.938 169.123 129.938 177.871 135.122L226.147 162.986Z" fill="#F5F3EF"/>
<path d="M253.689 152.613L184.677 112.761C172.041 105.309 151.305 105.309 138.993 112.761L70.3051 152.613C57.6691 160.065 57.6691 171.729 70.3051 179.181L139.317 218.709C151.953 226.161 172.689 226.161 185.325 218.709L254.013 178.857C266.325 171.729 266.325 159.741 253.689 152.613ZM226.149 174.969L178.197 202.833C169.449 208.017 154.869 208.017 146.121 202.833L97.8451 174.969C89.0971 169.785 88.7731 161.685 97.8451 156.501L145.797 128.637C154.545 123.453 169.125 123.453 177.873 128.637L226.149 156.501C234.897 161.685 234.897 169.785 226.149 174.969Z" fill="#606060"/>
<path d="M161.677 107.25V108.87C170.101 108.87 177.877 110.814 183.709 114.054L252.721 153.906C258.229 157.146 261.469 161.358 261.469 165.894C261.469 170.43 258.553 174.642 252.721 177.558L184.033 217.41C178.201 220.974 170.425 222.594 162.001 222.594C153.577 222.594 145.801 220.65 139.969 217.41L71.2808 177.558C65.7728 174.318 62.5328 170.106 62.5328 165.57C62.5328 161.034 65.4488 156.822 71.2808 153.582L139.969 113.73C145.801 110.166 153.577 108.546 162.001 108.546V107.25M161.677 107.25C153.253 107.25 145.153 109.194 138.673 112.758L69.9848 152.61C57.3488 160.062 57.3488 171.726 69.9848 179.178L139.321 218.706C145.801 222.27 153.901 224.214 162.325 224.214C170.749 224.214 178.849 222.27 185.329 218.706L254.017 178.854C266.653 171.402 266.653 159.738 253.693 152.286L184.681 112.758C178.201 108.87 170.101 107.25 161.677 107.25Z" fill="url(#paint3_linear_1627_29537)"/>
<path opacity="0.2" d="M243.646 63.1875L182.086 27.5475C170.746 21.0675 152.602 21.0675 141.262 27.5475L80.0256 63.1875C74.5176 66.4275 71.6016 70.6395 71.6016 75.1755L91.0416 165.571C91.0416 168.811 93.3096 172.376 97.8456 174.968L146.122 202.831C154.87 208.015 169.45 208.015 178.198 202.831L226.15 174.968C230.686 172.376 232.63 169.135 232.63 165.571L252.07 75.1755C252.07 70.9635 249.478 66.4275 243.646 63.1875Z" fill="url(#paint4_linear_1627_29537)"/>
<path d="M103.027 131.882C103.564 131.882 103.999 131.446 103.999 130.91C103.999 130.373 103.564 129.938 103.027 129.938C102.49 129.938 102.055 130.373 102.055 130.91C102.055 131.446 102.49 131.882 103.027 131.882Z" fill="white"/>
<path d="M194.069 138.678C194.606 138.678 195.041 138.243 195.041 137.706C195.041 137.17 194.606 136.734 194.069 136.734C193.532 136.734 193.097 137.17 193.097 137.706C193.097 138.243 193.532 138.678 194.069 138.678Z" fill="white"/>
<path d="M214.156 127.335C214.692 127.335 215.128 126.899 215.128 126.363C215.128 125.826 214.692 125.391 214.156 125.391C213.619 125.391 213.184 125.826 213.184 126.363C213.184 126.899 213.619 127.335 214.156 127.335Z" fill="white"/>
<path d="M130.57 176.913C131.106 176.913 131.542 176.478 131.542 175.941C131.542 175.404 131.106 174.969 130.57 174.969C130.033 174.969 129.598 175.404 129.598 175.941C129.598 176.478 130.033 176.913 130.57 176.913Z" fill="white"/>
<path d="M196.988 95.2565C197.524 95.2565 197.96 94.8213 197.96 94.2845C197.96 93.7477 197.524 93.3125 196.988 93.3125C196.451 93.3125 196.016 93.7477 196.016 94.2845C196.016 94.8213 196.451 95.2565 196.988 95.2565Z" fill="white"/>
<path d="M113.718 96.2409C114.255 96.2409 114.69 95.8057 114.69 95.2689C114.69 94.7321 114.255 94.2969 113.718 94.2969C113.181 94.2969 112.746 94.7321 112.746 95.2689C112.746 95.8057 113.181 96.2409 113.718 96.2409Z" fill="white"/>
<path d="M144.175 74.8502C144.712 74.8502 145.147 74.415 145.147 73.8782C145.147 73.3414 144.712 72.9062 144.175 72.9062C143.638 72.9062 143.203 73.3414 143.203 73.8782C143.203 74.415 143.638 74.8502 144.175 74.8502Z" fill="white"/>
<path opacity="0.4" d="M98.4917 123.125H99.7877C100.112 123.125 100.436 123.449 100.436 123.773V162.329C100.436 162.653 100.112 162.977 99.7877 162.977H98.4917C98.1677 162.977 97.8438 162.653 97.8438 162.329V123.773C98.1677 123.449 98.1677 123.125 98.4917 123.125Z" fill="url(#paint5_linear_1627_29537)"/>
<path opacity="0.4" d="M224.203 109.844H225.499C225.823 109.844 226.147 110.168 226.147 110.492V149.048C226.147 149.372 225.823 149.696 225.499 149.696H224.203C223.879 149.696 223.555 149.372 223.555 149.048V110.492C223.555 110.168 223.879 109.844 224.203 109.844Z" fill="url(#paint6_linear_1627_29537)"/>
<path opacity="0.4" d="M136.726 149.047H138.022C138.346 149.047 138.67 149.371 138.67 149.695V188.251C138.67 188.575 138.346 188.899 138.022 188.899H136.726C136.402 188.899 136.078 188.575 136.078 188.251V149.695C136.078 149.371 136.402 149.047 136.726 149.047Z" fill="url(#paint7_linear_1627_29537)"/>
<path opacity="0.4" d="M136.398 83.5938H137.694C138.018 83.5938 138.342 83.9178 138.342 84.2418V122.798C138.342 123.122 138.018 123.446 137.694 123.446H136.398C136.074 123.446 135.75 123.122 135.75 122.798V84.2418C135.75 83.9178 136.074 83.5938 136.398 83.5938Z" fill="url(#paint8_linear_1627_29537)"/>
<path d="M42 210V166" stroke="#D4D4D4" stroke-width="2"/>
<path d="M162 278V236" stroke="#D4D4D4" stroke-width="2"/>
<path d="M282 208V166" stroke="#D4D4D4" stroke-width="2"/>
<path d="M216.635 101.516L200.553 64.5211C199.613 62.3685 198.186 60.4509 196.58 59.1832L168.978 37.5088C167.371 36.2534 165.719 35.7521 164.38 36.1157L141.434 42.4631C140.101 42.839 139.192 44.048 138.904 45.8278L134.049 76.4803C133.772 78.2687 134.139 80.4793 135.071 82.6343L151.153 119.629C152.093 121.781 153.521 123.7 155.126 124.967L182.728 146.641C184.336 147.897 185.987 148.397 187.326 148.035L210.273 141.688C211.606 141.311 212.515 140.102 212.802 138.322L217.657 107.67C217.935 105.882 217.568 103.671 216.635 101.516ZM176.021 69.5141C176.162 68.6215 176.617 68.0166 177.285 67.8317C177.953 67.6476 178.779 67.8983 179.583 68.5287C180.386 69.1599 181.101 70.119 181.568 71.1957C182.037 72.2724 182.22 73.3786 182.079 74.2712L178.35 97.8175C178.208 98.7093 177.754 99.3142 177.086 99.4991C176.418 99.684 175.591 99.4333 174.788 98.8022C173.985 98.1718 173.27 97.2126 172.802 96.1351C172.334 95.0584 172.15 93.9523 172.291 93.0604L176.021 69.5141ZM172.124 115.621C171.225 114.916 170.394 113.93 169.734 112.789C169.075 111.648 168.617 110.402 168.42 109.21C168.222 108.018 168.293 106.933 168.623 106.092C168.953 105.251 169.528 104.692 170.276 104.485C171.023 104.279 171.908 104.433 172.821 104.931C173.733 105.428 174.63 106.246 175.4 107.279C176.17 108.313 176.777 109.518 177.145 110.739C177.513 111.961 177.625 113.145 177.466 114.143C177.255 115.481 176.573 116.389 175.571 116.666C174.569 116.943 173.329 116.567 172.124 115.621Z" fill="#272727"/>
<path d="M216.629 101.526L200.547 64.5312L177.853 78.8024L193.935 115.797L216.629 101.526Z" fill="url(#paint9_linear_1627_29537)"/>
<path d="M200.55 64.5131L200.254 63.875L177.56 78.1462L177.856 78.7843L200.55 64.5131Z" fill="#272727"/>
<path d="M200.254 63.8875L199.931 63.2656L177.236 77.5368L177.56 78.1587L200.254 63.8875Z" fill="#272727"/>
<path d="M199.933 63.2588L199.583 62.6562L176.888 76.9274L177.237 77.53L199.933 63.2588Z" fill="#272727"/>
<path d="M199.58 62.6598L199.207 62.0781L176.513 76.3493L176.885 76.931L199.58 62.6598Z" fill="#272727"/>
<path d="M199.208 62.0882L198.813 61.5312L176.119 75.8024L176.514 76.3594L199.208 62.0882Z" fill="#272727"/>
<path d="M198.814 61.5142L198.399 60.9844L175.705 75.2556L176.119 75.7854L198.814 61.5142Z" fill="#272727"/>
<path d="M198.398 60.9864L197.965 60.4844L175.271 74.7556L175.704 75.2576L198.398 60.9864Z" fill="#272727"/>
<path d="M197.965 60.4851L197.517 60.0156L174.822 74.2868L175.271 74.7563L197.965 60.4851Z" fill="#272727"/>
<path d="M197.515 60.0144L197.052 59.5781L174.357 73.8493L174.82 74.2856L197.515 60.0144Z" fill="#272727"/>
<path d="M197.051 59.571L196.575 59.1719L173.88 73.4431L174.356 73.8422L197.051 59.571Z" fill="#272727"/>
<path d="M196.574 59.19L168.972 37.5156L146.278 51.7868L173.88 73.4612L196.574 59.19Z" fill="#272727"/>
<path d="M168.972 37.5097L168.489 37.1562L145.794 51.4274L146.278 51.7809L168.972 37.5097Z" fill="#272727"/>
<path d="M168.489 37.1524L168.005 36.8438L145.31 51.1149L145.794 51.4236L168.489 37.1524Z" fill="#272727"/>
<path d="M168.006 36.8552L167.524 36.5938L144.83 50.8649L145.311 51.1264L168.006 36.8552Z" fill="#272727"/>
<path d="M167.526 36.5885L167.047 36.375L144.353 50.6462L144.831 50.8597L167.526 36.5885Z" fill="#272727"/>
<path d="M167.043 36.3694L166.571 36.2031L143.876 50.4743L144.349 50.6406L167.043 36.3694Z" fill="#272727"/>
<path d="M166.574 36.1965L166.11 36.0781L143.415 50.3493L143.88 50.4677L166.574 36.1965Z" fill="#272727"/>
<path d="M166.107 36.0837L165.653 36.0156L142.958 50.2868L143.413 50.3549L166.107 36.0837Z" fill="#272727"/>
<path d="M165.654 36.0186L165.212 36L142.517 50.2712L142.959 50.2898L165.654 36.0186Z" fill="#272727"/>
<path d="M165.212 36L164.784 36.0317L142.09 50.3029L142.517 50.2712L165.212 36Z" fill="#272727"/>
<path d="M164.784 36.0312L164.374 36.1148L141.68 50.386L142.09 50.3024L164.784 36.0312Z" fill="#272727"/>
<path d="M164.375 36.125L141.429 42.4724L118.734 56.7436L141.681 50.3962L164.375 36.125Z" fill="#272727"/>
<path d="M141.428 42.4688L141.041 42.6057L118.347 56.8768L118.734 56.7399L141.428 42.4688Z" fill="#272727"/>
<path d="M141.043 42.5938L140.682 42.7802L117.987 57.0514L118.348 56.8649L141.043 42.5938Z" fill="#272727"/>
<path d="M140.678 42.7969L140.346 43.0297L117.652 57.3009L117.984 57.0681L140.678 42.7969Z" fill="#272727"/>
<path d="M140.35 43.0156L140.047 43.2933L117.352 57.5645L117.656 57.2868L140.35 43.0156Z" fill="#272727"/>
<path d="M140.048 43.2812L139.774 43.603L117.079 57.8742L117.353 57.5524L140.048 43.2812Z" fill="#272727"/>
<path d="M139.771 43.625L139.529 43.9893L116.834 58.2605L117.076 57.8962L139.771 43.625Z" fill="#272727"/>
<path d="M139.529 43.9844L139.32 44.3881L116.625 58.6593L116.835 58.2556L139.529 43.9844Z" fill="#272727"/>
<path d="M139.321 44.3906L139.145 44.8346L116.451 59.1058L116.626 58.6618L139.321 44.3906Z" fill="#272727"/>
<path d="M139.147 44.8281L139.006 45.3085L116.312 59.5797L116.453 59.0993L139.147 44.8281Z" fill="#272727"/>
<path d="M139.007 45.3125L138.903 45.8292L116.209 60.1004L116.313 59.5837L139.007 45.3125Z" fill="#272727"/>
<path d="M138.903 45.8281L134.048 76.4806L111.354 90.7518L116.208 60.0993L138.903 45.8281Z" fill="#272727"/>
<path d="M134.047 76.4844L133.983 77.0328L111.289 91.304L111.353 90.7556L134.047 76.4844Z" fill="#272727"/>
<path d="M133.981 77.0156L133.955 77.5865L111.261 91.8577L111.287 91.2868L133.981 77.0156Z" fill="#272727"/>
<path d="M133.953 77.6094L133.966 78.2003L111.271 92.4715L111.259 91.8806L133.953 77.6094Z" fill="#272727"/>
<path d="M133.966 78.2031L134.015 78.8111L111.32 93.0823L111.271 92.4743L133.966 78.2031Z" fill="#272727"/>
<path d="M134.016 78.7969L134.102 79.418L111.407 93.6892L111.322 93.0681L134.016 78.7969Z" fill="#272727"/>
<path d="M134.103 79.4219L134.225 80.0546L111.53 94.3258L111.408 93.6931L134.103 79.4219Z" fill="#272727"/>
<path d="M134.224 80.0469L134.382 80.6873L111.687 94.9585L111.529 94.3181L134.224 80.0469Z" fill="#272727"/>
<path d="M134.379 80.6875L134.572 81.3334L111.878 95.6046L111.685 94.9587L134.379 80.6875Z" fill="#272727"/>
<path d="M134.575 81.3281L134.803 81.9763L112.109 96.2475L111.88 95.5993L134.575 81.3281Z" fill="#272727"/>
<path d="M134.805 81.9844L135.067 82.6318L112.373 96.903L112.111 96.2556L134.805 81.9844Z" fill="#272727"/>
<path d="M135.071 82.625L151.153 119.619L128.458 133.891L112.376 96.8962L135.071 82.625Z" fill="#272727"/>
<path d="M151.149 119.625L151.445 120.263L128.75 134.534L128.455 133.896L151.149 119.625Z" fill="#272727"/>
<path d="M151.446 120.266L151.77 120.888L129.075 135.159L128.751 134.537L151.446 120.266Z" fill="#272727"/>
<path d="M151.767 120.891L152.116 121.493L129.421 135.764L129.072 135.162L151.767 120.891Z" fill="#272727"/>
<path d="M152.114 121.5L152.487 122.082L129.792 136.353L129.419 135.771L152.114 121.5Z" fill="#272727"/>
<path d="M152.489 122.078L152.884 122.635L130.189 136.906L129.794 136.349L152.489 122.078Z" fill="#272727"/>
<path d="M152.883 122.625L153.298 123.156L130.604 137.427L130.189 136.896L152.883 122.625Z" fill="#272727"/>
<path d="M153.301 123.156L153.734 123.657L131.04 137.929L130.607 137.427L153.301 123.156Z" fill="#272727"/>
<path d="M153.735 123.672L154.184 124.141L131.489 138.413L131.04 137.943L153.735 123.672Z" fill="#272727"/>
<path d="M154.181 124.141L154.644 124.577L131.949 138.848L131.486 138.412L154.181 124.141Z" fill="#272727"/>
<path d="M154.646 124.562L155.121 124.962L132.427 139.233L131.951 138.834L154.646 124.562Z" fill="#272727"/>
<path d="M155.121 124.953L182.723 146.628L160.029 160.899L132.427 139.224L155.121 124.953Z" fill="#272727"/>
<path d="M182.723 146.641L183.207 146.994L160.512 161.265L160.029 160.912L182.723 146.641Z" fill="#272727"/>
<path d="M183.208 147L183.692 147.309L160.997 161.58L160.513 161.271L183.208 147Z" fill="#272727"/>
<path d="M183.692 147.297L184.174 147.558L161.48 161.83L160.997 161.568L183.692 147.297Z" fill="#272727"/>
<path d="M184.168 147.578L184.647 147.792L161.952 162.064L161.474 161.849L184.168 147.578Z" fill="#272727"/>
<path d="M184.653 147.781L185.125 147.947L162.431 162.218L161.958 162.052L184.653 147.781Z" fill="#272727"/>
<path d="M185.125 147.953L185.59 148.071L162.896 162.343L162.431 162.224L185.125 147.953Z" fill="#272727"/>
<path d="M185.586 148.062L186.041 148.131L163.346 162.402L162.892 162.334L185.586 148.062Z" fill="#272727"/>
<path d="M186.044 148.141L186.486 148.159L163.791 162.43L163.349 162.412L186.044 148.141Z" fill="#272727"/>
<path d="M186.484 148.157L186.911 148.125L164.217 162.396L163.789 162.428L186.484 148.157Z" fill="#272727"/>
<path d="M186.913 148.114L187.323 148.031L164.629 162.302L164.219 162.385L186.913 148.114Z" fill="#272727"/>
<path d="M187.323 148.035L210.27 141.688L187.576 155.959L164.629 162.306L187.323 148.035Z" fill="#272727"/>
<path d="M210.268 141.685L210.654 141.547L187.96 155.818L187.573 155.956L210.268 141.685Z" fill="#272727"/>
<path d="M210.654 141.546L211.015 141.359L188.321 155.631L187.96 155.817L210.654 141.546Z" fill="#272727"/>
<path d="M211.014 141.373L211.346 141.141L188.652 155.412L188.32 155.645L211.014 141.373Z" fill="#272727"/>
<path d="M211.347 141.121L211.651 140.844L188.956 155.115L188.653 155.393L211.347 141.121Z" fill="#272727"/>
<path d="M211.653 140.869L211.927 140.547L189.232 154.818L188.958 155.14L211.653 140.869Z" fill="#A8A8A8"/>
<path d="M211.924 140.535L212.166 140.172L189.471 154.443L189.229 154.807L211.924 140.535Z" fill="#A8A8A8"/>
<path d="M212.163 140.186L212.373 139.781L189.678 154.052L189.469 154.457L212.163 140.186Z" fill="#A8A8A8"/>
<path d="M212.379 139.756L212.555 139.312L189.86 153.584L189.685 154.028L212.379 139.756Z" fill="#A8A8A8"/>
<path d="M212.55 139.324L212.69 138.844L189.996 153.115L189.855 153.595L212.55 139.324Z" fill="#898989"/>
<path d="M212.7 138.829L212.804 138.312L190.11 152.584L190.005 153.1L212.7 138.829Z" fill="#898989"/>
<path d="M212.794 138.324L217.649 107.672L194.955 121.943L190.1 152.596L212.794 138.324Z" fill="url(#paint10_linear_1627_29537)"/>
<path d="M217.655 107.673L217.719 107.125L195.025 121.396L194.961 121.945L217.655 107.673Z" fill="#3B3B3B"/>
<path d="M217.717 107.118L217.743 106.547L195.048 120.818L195.023 121.389L217.717 107.118Z" fill="#3B3B3B"/>
<path d="M217.743 106.56L217.731 105.969L195.037 120.24L195.048 120.831L217.743 106.56Z" fill="#3B3B3B"/>
<path d="M217.729 105.967L217.68 105.359L194.985 119.631L195.035 120.239L217.729 105.967Z" fill="#3B3B3B"/>
<path d="M217.681 105.356L217.595 104.734L194.9 119.006L194.986 119.627L217.681 105.356Z" fill="#3B3B3B"/>
<path d="M217.596 104.726L217.474 104.094L194.779 118.365L194.901 118.998L217.596 104.726Z" fill="#3C3C3C"/>
<path d="M217.471 104.094L217.313 103.453L194.619 117.724L194.776 118.365L217.471 104.094Z" fill="#3C3C3C"/>
<path d="M217.314 103.458L217.121 102.812L194.427 117.084L194.62 117.73L217.314 103.458Z" fill="#3C3C3C"/>
<path d="M217.123 102.804L216.895 102.156L194.201 116.427L194.429 117.076L217.123 102.804Z" fill="#3C3C3C"/>
<path d="M216.892 102.163L216.629 101.516L193.935 115.787L194.197 116.434L216.892 102.163Z" fill="#363635"/>
<path d="M176.018 69.5248L176.07 69.2656L153.376 83.5368L153.324 83.7959L176.018 69.5248Z" fill="#606060"/>
<path d="M176.072 69.2562L176.142 69.0156L153.447 83.2868L153.377 83.5274L176.072 69.2562Z" fill="#606060"/>
<path d="M176.138 69.0189L176.225 68.7969L153.53 83.0681L153.443 83.2901L176.138 69.0189Z" fill="#606060"/>
<path d="M176.226 68.7964L176.331 68.5938L153.637 82.8649L153.532 83.0676L176.226 68.7964Z" fill="#606060"/>
<path d="M176.327 68.588L176.447 68.4062L153.753 82.6774L153.633 82.8592L176.327 68.588Z" fill="#606060"/>
<path d="M176.447 68.4109L176.584 68.25L153.89 82.5212L153.753 82.6821L176.447 68.4109Z" fill="#606060"/>
<path d="M176.588 68.233L176.74 68.0938L154.045 82.3649L153.893 82.5042L176.588 68.233Z" fill="#272727"/>
<path d="M176.74 68.1153L176.907 68L154.212 82.2712L154.046 82.3864L176.74 68.1153Z" fill="#272727"/>
<path d="M176.904 67.9834L177.084 67.8906L154.39 82.1618L154.209 82.2546L176.904 67.9834Z" fill="#272727"/>
<path d="M177.087 67.8962L177.281 67.8281L154.587 82.0993L154.393 82.1674L177.087 67.8962Z" fill="#272727"/>
<path d="M177.283 67.8386L177.488 67.7969L154.793 82.0681L154.589 82.1098L177.283 67.8386Z" fill="#272727"/>
<path d="M177.482 67.7983L177.695 67.7812L155.001 82.0524L154.788 82.0695L177.482 67.7983Z" fill="#272727"/>
<path d="M177.696 67.7812L177.917 67.7898L155.222 82.0609L155.001 82.0524L177.696 67.7812Z" fill="#272727"/>
<path d="M177.922 67.7812L178.149 67.8153L155.454 82.0865L155.228 82.0524L177.922 67.7812Z" fill="#272727"/>
<path d="M178.15 67.8125L178.381 67.8713L155.687 82.1425L155.455 82.0837L178.15 67.8125Z" fill="#272727"/>
<path d="M178.379 67.8594L178.615 67.9429L155.921 82.2141L155.685 82.1306L178.379 67.8594Z" fill="#272727"/>
<path d="M178.614 67.9688L178.853 68.0763L156.158 82.3475L155.919 82.2399L178.614 67.9688Z" fill="#272727"/>
<path d="M178.852 68.0625L179.094 68.1932L156.399 82.4644L156.158 82.3337L178.852 68.0625Z" fill="#272727"/>
<path d="M179.095 68.2031L179.337 68.3578L156.642 82.629L156.4 82.4743L179.095 68.2031Z" fill="#272727"/>
<path d="M179.336 68.3594L179.577 68.5373L156.883 82.8085L156.642 82.6306L179.336 68.3594Z" fill="#272727"/>
<path d="M179.578 68.5312L179.816 68.73L157.122 83.0012L156.884 82.8024L179.578 68.5312Z" fill="#272727"/>
<path d="M179.817 68.7344L180.049 68.9517L157.354 83.2229L157.122 83.0056L179.817 68.7344Z" fill="#272727"/>
<path d="M180.052 68.9531L180.276 69.1875L157.582 83.4587L157.357 83.2243L180.052 68.9531Z" fill="#272727"/>
<path d="M180.274 69.1719L180.49 69.4225L157.796 83.6937L157.58 83.4431L180.274 69.1719Z" fill="#272727"/>
<path d="M180.492 69.4219L180.7 69.6872L158.005 83.9584L157.798 83.6931L180.492 69.4219Z" fill="#272727"/>
<path d="M180.696 69.7031L180.894 69.9816L158.198 84.2528L158.001 83.9743L180.696 69.7031Z" fill="#272727"/>
<path d="M180.892 69.9688L181.077 70.2596L158.383 84.5308L158.197 84.2399L180.892 69.9688Z" fill="#272727"/>
<path d="M181.078 70.2656L181.253 70.5665L158.559 84.8377L158.384 84.5368L181.078 70.2656Z" fill="#272727"/>
<path d="M181.254 70.5625L181.416 70.8734L158.721 85.1446L158.56 84.8337L181.254 70.5625Z" fill="#272727"/>
<path d="M181.418 70.875L181.566 71.1945L158.872 85.4656L158.724 85.1462L181.418 70.875Z" fill="#272727"/>
<path d="M181.563 71.2031L181.695 71.5272L159 85.7984L158.869 85.4743L181.563 71.2031Z" fill="#272727"/>
<path d="M181.7 71.5156L181.814 71.839L159.119 86.1101L159.005 85.7868L181.7 71.5156Z" fill="#272727"/>
<path d="M181.814 71.8438L181.91 72.1671L159.216 86.4383L159.119 86.1149L181.814 71.8438Z" fill="#272727"/>
<path d="M181.907 72.1719L181.986 72.4921L159.292 86.7633L159.212 86.4431L181.907 72.1719Z" fill="#272727"/>
<path d="M181.985 72.5L182.046 72.8156L159.352 87.0868L159.29 86.7712L181.985 72.5Z" fill="#272727"/>
<path d="M182.047 72.7969L182.09 73.1078L159.395 87.379L159.353 87.0681L182.047 72.7969Z" fill="#272727"/>
<path d="M182.09 73.1094L182.115 73.4134L159.421 87.6845L159.396 87.3806L182.09 73.1094Z" fill="#272727"/>
<path d="M182.114 73.4062L182.119 73.701L159.424 87.9721L159.419 87.6774L182.114 73.4062Z" fill="#272727"/>
<path d="M182.122 73.7031L182.108 73.9885L159.414 88.2597L159.427 87.9743L182.122 73.7031Z" fill="#272727"/>
<path d="M182.11 73.9844L182.077 74.2582L159.383 88.5294L159.415 88.2556L182.11 73.9844Z" fill="#272727"/>
<path d="M182.071 74.2812L178.341 97.8276L155.647 112.099L159.376 88.5524L182.071 74.2812Z" fill="#272727"/>
<path d="M178.347 97.8125L178.295 98.0709L155.601 112.342L155.653 112.084L178.347 97.8125Z" fill="#272727"/>
<path d="M178.294 98.0781L178.225 98.3195L155.53 112.591L155.6 112.349L178.294 98.0781Z" fill="#272727"/>
<path d="M178.221 98.3281L178.133 98.5501L155.439 112.821L155.526 112.599L178.221 98.3281Z" fill="#272727"/>
<path d="M178.132 98.5469L178.027 98.7495L155.333 113.021L155.437 112.818L178.132 98.5469Z" fill="#272727"/>
<path d="M178.033 98.7344L177.913 98.9161L155.219 113.187L155.339 113.006L178.033 98.7344Z" fill="#272727"/>
<path d="M177.908 98.9219L177.772 99.0828L155.077 113.354L155.214 113.193L177.908 98.9219Z" fill="#272727"/>
<path d="M177.771 99.0938L177.619 99.2322L154.925 113.503L155.077 113.365L177.771 99.0938Z" fill="#272727"/>
<path d="M177.622 99.2344L177.455 99.3504L154.76 113.622L154.928 113.506L177.622 99.2344Z" fill="#272727"/>
<path d="M177.459 99.3281L177.279 99.4202L154.584 113.691L154.764 113.599L177.459 99.3281Z" fill="#272727"/>
<path d="M177.277 99.4375L177.083 99.5056L154.389 113.777L154.583 113.709L177.277 99.4375Z" fill="#272727"/>
<path d="M177.081 99.5L176.876 99.5425L154.182 113.814L154.387 113.771L177.081 99.5Z" fill="#272727"/>
<path d="M176.875 99.5469L176.662 99.5631L153.968 113.834L154.181 113.818L176.875 99.5469Z" fill="#282828"/>
<path d="M176.663 99.5554L176.442 99.5469L153.747 113.818L153.969 113.827L176.663 99.5554Z" fill="#282828"/>
<path d="M176.438 99.5497L176.212 99.5156L153.517 113.787L153.744 113.821L176.438 99.5497Z" fill="#282828"/>
<path d="M176.213 99.5119L175.981 99.4531L153.287 113.724L153.518 113.783L176.213 99.5119Z" fill="#282828"/>
<path d="M175.982 99.4578L175.746 99.375L153.052 113.646L153.288 113.729L175.982 99.4578Z" fill="#5C5C5B"/>
<path d="M175.747 99.3731L175.508 99.2656L152.814 113.537L153.053 113.644L175.747 99.3731Z" fill="#282828"/>
<path d="M175.511 99.2565L175.271 99.125L152.576 113.396L152.817 113.528L175.511 99.2565Z" fill="#282828"/>
<path d="M175.27 99.1235L175.028 98.9688L152.333 113.24L152.575 113.395L175.27 99.1235Z" fill="#282828"/>
<path d="M175.023 98.9748L174.782 98.7969L152.087 113.068L152.329 113.246L175.023 98.9748Z" fill="#282828"/>
<path d="M174.781 98.8082L174.543 98.6094L151.849 112.881L152.087 113.079L174.781 98.8082Z" fill="#282828"/>
<path d="M174.545 98.608L174.314 98.3906L151.619 112.662L151.851 112.879L174.545 98.608Z" fill="#282828"/>
<path d="M174.311 98.3906L174.086 98.1562L151.392 112.427L151.616 112.662L174.311 98.3906Z" fill="#282828"/>
<path d="M174.092 98.1569L173.875 97.9062L151.181 112.177L151.397 112.428L174.092 98.1569Z" fill="#282828"/>
<path d="M173.868 97.9052L173.66 97.6406L150.966 111.912L151.173 112.176L173.868 97.9052Z" fill="#282828"/>
<path d="M173.667 97.6378L173.47 97.3594L150.775 111.631L150.973 111.909L173.667 97.6378Z" fill="#282828"/>
<path d="M173.468 97.3533L173.282 97.0625L150.587 111.334L150.773 111.625L173.468 97.3533Z" fill="#282828"/>
<path d="M173.28 97.0673L173.106 96.7656L150.412 111.037L150.586 111.338L173.28 97.0673Z" fill="#282828"/>
<path d="M173.107 96.7641L172.946 96.4531L150.251 110.724L150.413 111.035L173.107 96.7641Z" fill="#282828"/>
<path d="M172.949 96.4445L172.801 96.125L150.107 110.396L150.254 110.716L172.949 96.4445Z" fill="#282828"/>
<path d="M172.8 96.1358L172.668 95.8125L149.974 110.084L150.106 110.407L172.8 96.1358Z" fill="#282828"/>
<path d="M172.662 95.8241L172.548 95.5L149.853 109.771L149.968 110.095L172.662 95.8241Z" fill="#282828"/>
<path d="M172.551 95.4788L172.453 95.1562L149.759 109.427L149.856 109.75L172.551 95.4788Z" fill="#282828"/>
<path d="M172.455 95.1796L172.375 94.8594L149.681 109.131L149.76 109.451L172.455 95.1796Z" fill="#282828"/>
<path d="M172.374 94.8476L172.313 94.5312L149.619 108.802L149.68 109.119L172.374 94.8476Z" fill="#282828"/>
<path d="M172.308 94.5297L172.266 94.2188L149.572 108.49L149.614 108.801L172.308 94.5297Z" fill="#282828"/>
<path d="M172.271 94.2251L172.246 93.9219L149.552 108.193L149.577 108.496L172.271 94.2251Z" fill="#282828"/>
<path d="M172.248 93.9205L172.243 93.625L149.548 107.896L149.554 108.192L172.248 93.9205Z" fill="#282828"/>
<path d="M172.245 93.6284L172.258 93.3438L149.564 107.615L149.55 107.9L172.245 93.6284Z" fill="#282828"/>
<path d="M172.253 93.3363L172.285 93.0625L149.591 107.334L149.559 107.608L172.253 93.3363Z" fill="#282828"/>
<path d="M172.287 93.0619L176.016 69.5156L153.322 83.7868L149.592 107.333L172.287 93.0619Z" fill="#282828"/>
<path d="M172.119 115.626L171.852 115.406L149.158 129.677L149.425 129.897L172.119 115.626Z" fill="#545454"/>
<path d="M171.849 115.409L171.586 115.172L148.892 129.443L149.154 129.68L171.849 115.409Z" fill="#545454"/>
<path d="M171.586 115.158L171.328 114.906L148.634 129.177L148.892 129.429L171.586 115.158Z" fill="#545454"/>
<path d="M171.33 114.922L171.078 114.656L148.384 128.927L148.636 129.193L171.33 114.922Z" fill="#545454"/>
<path d="M171.082 114.655L170.837 114.375L148.142 128.646L148.387 128.926L171.082 114.655Z" fill="#545454"/>
<path d="M170.837 114.371L170.599 114.078L147.904 128.349L148.142 128.642L170.837 114.371Z" fill="#545454"/>
<path d="M170.594 114.071L170.364 113.766L147.669 128.037L147.899 128.342L170.594 114.071Z" fill="#545454"/>
<path d="M170.366 113.769L170.145 113.453L147.451 127.724L147.672 128.041L170.366 113.769Z" fill="#545454"/>
<path d="M170.147 113.453L169.934 113.125L147.24 127.396L147.452 127.724L170.147 113.453Z" fill="#545454"/>
<path d="M169.933 113.134L169.731 112.797L147.037 127.068L147.239 127.405L169.933 113.134Z" fill="#545454"/>
<path d="M169.728 112.782L169.535 112.438L146.841 126.709L147.033 127.054L169.728 112.782Z" fill="#545454"/>
<path d="M169.539 112.445L169.36 112.094L146.665 126.365L146.845 126.716L169.539 112.445Z" fill="#545454"/>
<path d="M169.363 112.089L169.196 111.734L146.501 126.006L146.668 126.361L169.363 112.089Z" fill="#545454"/>
<path d="M169.189 111.749L169.035 111.391L146.341 125.662L146.494 126.02L169.189 111.749Z" fill="#545454"/>
<path d="M169.038 111.392L168.899 111.031L146.205 125.302L146.344 125.663L169.038 111.392Z" fill="#545454"/>
<path d="M168.9 111.019L168.775 110.656L146.08 124.927L146.206 125.29L168.9 111.019Z" fill="#545454"/>
<path d="M168.773 110.66L168.661 110.297L145.966 124.568L146.078 124.931L168.773 110.66Z" fill="#545454"/>
<path d="M168.66 110.285L168.563 109.922L145.869 124.193L145.965 124.556L168.66 110.285Z" fill="#545454"/>
<path d="M168.567 109.924L168.485 109.562L145.79 123.834L145.873 124.195L168.567 109.924Z" fill="#545454"/>
<path d="M168.482 109.562L168.415 109.203L145.72 123.474L145.788 123.833L168.482 109.562Z" fill="#545454"/>
<path d="M168.416 109.198L168.364 108.844L145.669 123.115L145.721 123.469L168.416 109.198Z" fill="#545454"/>
<path d="M168.363 108.863L168.328 108.516L145.634 122.787L145.669 123.134L168.363 108.863Z" fill="#545454"/>
<path d="M168.328 108.511L168.309 108.172L145.615 122.443L145.634 122.782L168.328 108.511Z" fill="#545454"/>
<path d="M168.312 108.174L168.309 107.844L145.615 122.115L145.618 122.445L168.312 108.174Z" fill="#545454"/>
<path d="M168.308 107.836L168.321 107.516L145.626 121.787L145.614 122.107L168.308 107.836Z" fill="#545454"/>
<path d="M168.319 107.529L168.348 107.219L145.654 121.49L145.625 121.8L168.319 107.529Z" fill="#545454"/>
<path d="M168.347 107.205L168.391 106.906L145.697 121.177L145.653 121.476L168.347 107.205Z" fill="#545454"/>
<path d="M168.392 106.911L168.453 106.625L145.758 120.896L145.698 121.182L168.392 106.911Z" fill="#545454"/>
<path d="M168.453 106.617L168.529 106.344L145.834 120.615L145.759 120.888L168.453 106.617Z" fill="#545454"/>
<path d="M168.526 106.354L168.617 106.094L145.923 120.365L145.831 120.625L168.526 106.354Z" fill="#545454"/>
<path d="M168.618 106.103L168.725 105.859L146.03 120.131L145.924 120.374L168.618 106.103Z" fill="#545454"/>
<path d="M168.722 105.836L168.843 105.609L146.148 119.881L146.028 120.107L168.722 105.836Z" fill="#545454"/>
<path d="M168.846 105.614L168.981 105.406L146.286 119.677L146.152 119.886L168.846 105.614Z" fill="#545454"/>
<path d="M168.979 105.41L169.126 105.219L146.432 119.49L146.284 119.681L168.979 105.41Z" fill="#545454"/>
<path d="M169.129 105.219L169.29 105.047L146.595 119.318L146.435 119.49L169.129 105.219Z" fill="#545454"/>
<path d="M169.289 105.059L169.462 104.906L146.767 119.177L146.594 119.331L169.289 105.059Z" fill="#545454"/>
<path d="M169.46 104.899L169.645 104.766L146.951 119.037L146.765 119.17L169.46 104.899Z" fill="#545454"/>
<path d="M169.646 104.754L169.844 104.641L147.149 118.912L146.952 119.026L169.646 104.754Z" fill="#272727"/>
<path d="M169.845 104.655L170.053 104.562L147.359 118.834L147.151 118.927L169.845 104.655Z" fill="#272727"/>
<path d="M170.051 104.557L170.27 104.484L147.575 118.756L147.357 118.828L170.051 104.557Z" fill="#272727"/>
<path d="M170.27 104.489L170.498 104.438L147.803 118.709L147.575 118.76L170.27 104.489Z" fill="#272727"/>
<path d="M170.5 104.436L170.736 104.406L148.042 118.677L147.805 118.708L170.5 104.436Z" fill="#272727"/>
<path d="M170.737 104.398L170.98 104.391L148.286 118.662L148.043 118.67L170.737 104.398Z" fill="#272727"/>
<path d="M170.981 104.391L171.23 104.404L148.536 118.675L148.287 118.662L170.981 104.391Z" fill="#272727"/>
<path d="M171.227 104.406L171.481 104.441L148.787 118.712L148.533 118.677L171.227 104.406Z" fill="#272727"/>
<path d="M171.485 104.438L171.744 104.493L149.05 118.764L148.79 118.709L171.485 104.438Z" fill="#272727"/>
<path d="M171.742 104.516L172.007 104.592L149.312 118.863L149.048 118.787L171.742 104.516Z" fill="#272727"/>
<path d="M172.009 104.578L172.276 104.676L149.582 118.947L149.314 118.849L172.009 104.578Z" fill="#272727"/>
<path d="M172.27 104.672L172.54 104.79L149.846 119.061L149.576 118.943L172.27 104.672Z" fill="#272727"/>
<path d="M172.543 104.797L172.817 104.935L150.122 119.207L149.849 119.068L172.543 104.797Z" fill="#272727"/>
<path d="M172.817 104.938L173.09 105.096L150.396 119.367L150.122 119.209L172.817 104.938Z" fill="#272727"/>
<path d="M173.09 105.094L173.362 105.272L150.668 119.543L150.396 119.365L173.09 105.094Z" fill="#272727"/>
<path d="M173.36 105.281L173.629 105.476L150.935 119.747L150.665 119.552L173.36 105.281Z" fill="#272727"/>
<path d="M173.629 105.469L173.896 105.681L151.201 119.953L150.935 119.74L173.629 105.469Z" fill="#272727"/>
<path d="M173.896 105.688L174.158 105.916L151.464 120.188L151.201 119.959L173.896 105.688Z" fill="#272727"/>
<path d="M174.157 105.906L174.415 106.152L151.721 120.423L151.462 120.177L174.157 105.906Z" fill="#272727"/>
<path d="M174.418 106.141L174.672 106.401L151.978 120.672L151.724 120.412L174.418 106.141Z" fill="#272727"/>
<path d="M174.668 106.422L174.916 106.697L152.222 120.968L151.974 120.693L174.668 106.422Z" fill="#272727"/>
<path d="M174.922 106.688L175.163 106.978L152.469 121.249L152.227 120.959L174.922 106.688Z" fill="#272727"/>
<path d="M175.16 106.984L175.395 107.288L152.701 121.559L152.466 121.256L175.16 106.984Z" fill="#272727"/>
<path d="M175.391 107.281L175.617 107.597L152.922 121.868L152.697 121.552L175.391 107.281Z" fill="#272727"/>
<path d="M175.626 107.594L175.842 107.918L153.147 122.189L152.931 121.865L175.626 107.594Z" fill="#272727"/>
<path d="M175.837 107.906L176.042 108.239L153.348 122.51L153.142 122.177L175.837 107.906Z" fill="#272727"/>
<path d="M176.043 108.25L176.237 108.59L153.543 122.862L153.349 122.521L176.043 108.25Z" fill="#272727"/>
<path d="M176.235 108.594L176.417 108.941L153.723 123.212L153.54 122.865L176.235 108.594Z" fill="#272727"/>
<path d="M176.418 108.938L176.589 109.289L153.895 123.561L153.724 123.209L176.418 108.938Z" fill="#272727"/>
<path d="M176.586 109.297L176.744 109.654L154.049 123.925L153.892 123.568L176.586 109.297Z" fill="#272727"/>
<path d="M176.747 109.656L176.892 110.017L154.197 124.289L154.052 123.927L176.747 109.656Z" fill="#272727"/>
<path d="M176.892 110.016L177.023 110.379L154.329 124.65L154.197 124.287L176.892 110.016Z" fill="#272727"/>
<path d="M177.024 110.391L177.141 110.756L154.447 125.028L154.33 124.662L177.024 110.391Z" fill="#272727"/>
<path d="M177.141 110.734L177.244 111.099L154.549 125.371L154.447 125.006L177.141 110.734Z" fill="#272727"/>
<path d="M177.246 111.094L177.333 111.456L154.639 125.727L154.552 125.365L177.246 111.094Z" fill="#272727"/>
<path d="M177.328 111.469L177.4 111.827L154.706 126.098L154.634 125.74L177.328 111.469Z" fill="#272727"/>
<path d="M177.399 111.828L177.455 112.182L154.761 126.453L154.705 126.099L177.399 111.828Z" fill="#272727"/>
<path d="M177.457 112.188L177.498 112.535L154.804 126.806L154.763 126.459L177.457 112.188Z" fill="#272727"/>
<path d="M177.496 112.531L177.521 112.872L154.826 127.144L154.802 126.802L177.496 112.531Z" fill="#272727"/>
<path d="M177.525 112.875L177.533 113.208L154.839 127.479L154.83 127.146L177.525 112.875Z" fill="#272727"/>
<path d="M177.532 113.203L177.525 113.528L154.83 127.799L154.837 127.474L177.532 113.203Z" fill="#272727"/>
<path d="M177.525 113.531L177.501 113.846L154.807 128.117L154.83 127.802L177.525 113.531Z" fill="#272727"/>
<path d="M177.5 113.844L177.461 114.149L154.766 128.42L154.806 128.115L177.5 113.844Z" fill="#272727"/>
<path d="M177.458 114.141L177.381 114.529L154.686 128.8L154.764 128.412L177.458 114.141Z" fill="#272727"/>
<path d="M177.384 114.531L177.279 114.893L154.585 129.164L154.689 128.802L177.384 114.531Z" fill="#272727"/>
<path d="M177.279 114.891L177.148 115.223L154.453 129.494L154.584 129.162L177.279 114.891Z" fill="#272727"/>
<path d="M177.148 115.219L176.991 115.523L154.297 129.794L154.453 129.49L177.148 115.219Z" fill="#272727"/>
<path d="M176.99 115.547L176.809 115.82L154.114 130.091L154.296 129.818L176.99 115.547Z" fill="#272727"/>
<path d="M176.809 115.797L176.604 116.037L153.909 130.309L154.114 130.068L176.809 115.797Z" fill="#272727"/>
<path d="M176.602 116.047L176.374 116.255L153.679 130.526L153.907 130.318L176.602 116.047Z" fill="#272727"/>
<path d="M176.379 116.266L176.129 116.44L153.435 130.711L153.685 130.537L176.379 116.266Z" fill="#272727"/>
<path d="M176.128 116.422L175.857 116.56L153.163 130.832L153.434 130.693L176.128 116.422Z" fill="#272727"/>
<path d="M175.857 116.562L175.567 116.665L152.872 130.936L153.163 130.834L175.857 116.562Z" fill="#545454"/>
<path d="M175.567 116.672L175.26 116.735L152.566 131.006L152.872 130.943L175.567 116.672Z" fill="#545454"/>
<path d="M175.258 116.734L174.938 116.759L152.244 131.03L152.564 131.006L175.258 116.734Z" fill="#545454"/>
<path d="M174.94 116.748L174.61 116.734L151.915 131.006L152.246 131.019L174.94 116.748Z" fill="#545454"/>
<path d="M174.602 116.754L174.262 116.703L151.568 130.974L151.908 131.025L174.602 116.754Z" fill="#545454"/>
<path d="M174.267 116.681L173.918 116.594L151.224 130.865L151.573 130.952L174.267 116.681Z" fill="#545454"/>
<path d="M173.92 116.61L173.567 116.484L150.872 130.756L151.226 130.881L173.92 116.61Z" fill="#545454"/>
<path d="M173.566 116.489L173.207 116.328L150.513 130.599L150.872 130.76L173.566 116.489Z" fill="#545454"/>
<path d="M173.206 116.321L172.845 116.125L150.15 130.396L150.512 130.593L173.206 116.321Z" fill="#545454"/>
<path d="M172.844 116.123L172.482 115.891L149.787 130.162L150.149 130.394L172.844 116.123Z" fill="#545454"/>
<path d="M172.48 115.892L172.117 115.625L149.423 129.896L149.785 130.163L172.48 115.892Z" fill="#545454"/>
<path d="M149.636 110.65C150.126 111.78 150.878 112.795 151.74 113.471C152.582 114.133 153.557 114.487 154.456 114.239L154.456 114.239C155.433 113.968 155.994 113.095 156.154 112.083L159.884 88.5368C160.043 87.5281 159.832 86.3353 159.344 85.2118L159.344 85.2116C158.853 84.0829 158.101 83.0683 157.24 82.3912L157.24 82.391C156.398 81.7302 155.422 81.3756 154.524 81.6233L154.524 81.6234C153.546 81.8941 152.986 82.7677 152.825 83.7797L149.096 107.326C148.936 108.334 149.147 109.526 149.636 110.65ZM149.636 110.65L150.107 110.401M149.636 110.65C149.636 110.65 149.636 110.65 149.636 110.65L150.107 110.401M150.107 110.401C149.638 109.324 149.455 108.218 149.596 107.326L153.325 83.7797C153.467 82.8871 153.921 82.2822 154.59 82.0974C155.257 81.9133 156.084 82.1639 156.887 82.7943M150.107 110.401C150.574 111.478 151.289 112.437 152.092 113.068C152.895 113.699 153.722 113.95 154.39 113.765L156.887 82.7943M156.887 82.7943C157.69 83.4255 158.405 84.3846 158.873 85.4614L156.887 82.7943ZM150.421 118.756C149.455 118.229 148.44 118.021 147.514 118.277L147.514 118.277C146.551 118.543 145.842 119.268 145.458 120.246L145.458 120.246C145.081 121.205 145.019 122.386 145.224 123.627L145.224 123.627L152.875 130.932L152.94 131.406C154.253 131.043 155.04 129.866 155.271 128.409C155.443 127.321 155.317 126.066 154.937 124.801L154.937 124.8C154.555 123.532 153.926 122.286 153.13 121.216L153.13 121.216C152.334 120.148 151.396 119.288 150.421 118.756ZM150.421 118.756L150.125 119.196L150.421 118.756C150.421 118.756 150.421 118.756 150.421 118.756ZM118.805 57.2022C117.78 57.492 116.977 58.435 116.709 60.0942L111.854 90.7452C111.595 92.4187 111.935 94.5432 112.847 96.651L128.929 133.644L118.805 57.2022ZM118.805 57.2022C118.806 57.2021 118.806 57.202 118.806 57.2018L141.748 50.8559C141.748 50.8558 141.749 50.8557 141.749 50.8556C142.859 50.5548 144.363 50.9536 145.931 52.1781C145.931 52.1782 145.931 52.1782 145.931 52.1783L173.531 73.8513C173.531 73.8514 173.531 73.8514 173.531 73.8514C175.079 75.0735 176.469 76.9357 177.387 79.0364L118.805 57.2022ZM132.784 138.83L160.385 160.503C160.385 160.503 160.385 160.503 160.385 160.503C161.952 161.728 163.457 162.126 164.567 161.826C164.567 161.826 164.568 161.826 164.568 161.826L187.509 155.48C187.51 155.48 187.51 155.48 187.511 155.48C188.536 155.189 189.339 154.245 189.607 152.586L194.461 121.937C194.721 120.264 194.38 118.139 193.469 116.031L132.784 138.83ZM132.784 138.83C131.236 137.609 129.847 135.746 128.929 133.645L132.784 138.83ZM145.724 123.476C145.527 122.284 145.597 121.199 145.927 120.357C146.258 119.517 146.833 118.957 147.58 118.751L145.724 123.476ZM177.387 79.037L193.469 116.03L177.387 79.037Z" fill="url(#paint11_linear_1627_29537)" stroke="url(#paint12_linear_1627_29537)"/>
<defs>
<linearGradient id="paint0_linear_1627_29537" x1="10.2994" y1="252.98" x2="313.684" y2="252.98" gradientUnits="userSpaceOnUse">
<stop stop-color="#606060"/>
<stop offset="1" stop-color="#D4D4D4"/>
</linearGradient>
<linearGradient id="paint1_linear_1627_29537" x1="60.8133" y1="214.766" x2="263.183" y2="214.766" gradientUnits="userSpaceOnUse">
<stop offset="0.389" stop-color="#161819"/>
<stop offset="0.5932" stop-color="#A8A8A8"/>
</linearGradient>
<linearGradient id="paint2_linear_1627_29537" x1="91.207" y1="165.748" x2="232.783" y2="165.748" gradientUnits="userSpaceOnUse">
<stop offset="0.389" stop-color="#161819"/>
<stop offset="0.5932" stop-color="#D4D4D4"/>
</linearGradient>
<linearGradient id="paint3_linear_1627_29537" x1="262.409" y1="174.858" x2="61.5929" y2="156.629" gradientUnits="userSpaceOnUse">
<stop stop-color="#D4D4D4"/>
<stop offset="1" stop-color="#272727"/>
</linearGradient>
<linearGradient id="paint4_linear_1627_29537" x1="161.998" y1="222.719" x2="161.998" y2="39.0709" gradientUnits="userSpaceOnUse">
<stop stop-color="#111314"/>
<stop offset="1" stop-color="white" stop-opacity="0"/>
</linearGradient>
<linearGradient id="paint5_linear_1627_29537" x1="99.222" y1="127.409" x2="99.222" y2="159.577" gradientUnits="userSpaceOnUse">
<stop offset="0.2578" stop-color="white"/>
<stop offset="1" stop-color="white" stop-opacity="0"/>
</linearGradient>
<linearGradient id="paint6_linear_1627_29537" x1="224.768" y1="114.127" x2="224.768" y2="146.321" gradientUnits="userSpaceOnUse">
<stop offset="0.2578" stop-color="white"/>
<stop offset="1" stop-color="white" stop-opacity="0"/>
</linearGradient>
<linearGradient id="paint7_linear_1627_29537" x1="137.191" y1="153.225" x2="137.191" y2="185.394" gradientUnits="userSpaceOnUse">
<stop offset="0.2578" stop-color="white"/>
<stop offset="1" stop-color="white" stop-opacity="0"/>
</linearGradient>
<linearGradient id="paint8_linear_1627_29537" x1="136.863" y1="87.7537" x2="136.863" y2="119.947" gradientUnits="userSpaceOnUse">
<stop offset="0.2578" stop-color="white"/>
<stop offset="1" stop-color="white" stop-opacity="0"/>
</linearGradient>
<linearGradient id="paint9_linear_1627_29537" x1="191.431" y1="75.0405" x2="215.368" y2="118.528" gradientUnits="userSpaceOnUse">
<stop stop-color="#272727"/>
<stop offset="1" stop-color="#3B3B3B"/>
</linearGradient>
<linearGradient id="paint10_linear_1627_29537" x1="205.666" y1="118.821" x2="205.666" y2="152.596" gradientUnits="userSpaceOnUse">
<stop stop-color="#3B3B3B"/>
<stop offset="1" stop-color="#8D8D8D"/>
</linearGradient>
<linearGradient id="paint11_linear_1627_29537" x1="172.332" y1="-9.44322" x2="171.516" y2="162.545" gradientUnits="userSpaceOnUse">
<stop stop-color="#272727"/>
<stop offset="1" stop-color="#C9C9C9"/>
</linearGradient>
<linearGradient id="paint12_linear_1627_29537" x1="162.039" y1="50.2656" x2="162.039" y2="162.416" gradientUnits="userSpaceOnUse">
<stop stop-color="#515151"/>
<stop offset="1" stop-color="#DDDDDD"/>
</linearGradient>
</defs>
</svg>
