<svg width="280" height="280" viewBox="0 0 280 280" fill="none" xmlns="http://www.w3.org/2000/svg">
<path d="M131.396 45.5162C131.396 45.5162 158.252 91.201 212.79 83.7309C267.329 76.2608 298.303 137.177 245.79 161.231C193.277 185.284 240.193 225.846 205.292 239.731C165.623 255.513 148.087 235.752 119.291 239.731C55.7369 248.512 10.5068 188.657 29.2907 161.231C62.2634 113.087 57.3964 122.409 50.2915 89.7291C43.1866 57.0496 112.017 8.0088 131.396 45.5162Z" fill="#EBF8FF"/>
<path d="M211.846 120.742L131.036 101.506C128.042 100.793 124.888 103.264 123.993 107.025L109.069 169.719C108.174 173.48 109.875 177.106 112.87 177.819L193.679 197.056C196.674 197.769 199.827 195.298 200.722 191.537L215.647 128.843C216.542 125.082 214.84 121.455 211.846 120.742Z" fill="#2962A5"/>
<rect x="155.575" y="125.273" width="34.7226" height="5.80235" rx="2.90118" transform="rotate(15 155.575 125.273)" fill="#3B7CC9"/>
<rect x="156.575" y="140.273" width="38.8851" height="3.92871" rx="1.96436" transform="rotate(15 156.575 140.273)" fill="#3B7CC9"/>
<path d="M164.719 106.952L68.3934 123.951C65.4147 124.476 63.5446 127.989 64.2165 131.796L77.8009 208.774C78.4727 212.581 81.4321 215.241 84.4108 214.715L180.737 197.717C183.715 197.191 185.586 193.679 184.914 189.871L171.329 112.894C170.657 109.086 167.698 106.426 164.719 106.952Z" fill="#C8DFFA"/>
<g clip-path="url(#clip0_423_7462)">
<path d="M119.707 135.915L120.165 139.172C120.21 139.496 120.125 139.825 119.928 140.086C119.732 140.347 119.439 140.519 119.115 140.565C118.791 140.61 118.462 140.525 118.201 140.329C117.94 140.132 117.768 139.839 117.722 139.515L117.264 136.258C117.219 135.934 117.304 135.606 117.501 135.344C117.697 135.083 117.99 134.911 118.314 134.865C118.638 134.82 118.967 134.905 119.228 135.102C119.489 135.299 119.661 135.591 119.707 135.915ZM123.989 141.826C124.149 141.804 124.304 141.75 124.443 141.667C124.583 141.585 124.705 141.476 124.803 141.346L126.782 138.719C126.979 138.458 127.064 138.128 127.019 137.804C126.973 137.479 126.801 137.186 126.539 136.989C126.277 136.792 125.948 136.707 125.623 136.752C125.299 136.798 125.006 136.971 124.809 137.232L122.833 139.862C122.686 140.057 122.6 140.291 122.586 140.534C122.572 140.778 122.631 141.02 122.754 141.23C122.878 141.441 123.061 141.609 123.281 141.715C123.501 141.822 123.747 141.86 123.989 141.826ZM129.458 143.263L126.201 143.721C125.877 143.766 125.585 143.939 125.388 144.2C125.191 144.461 125.106 144.79 125.151 145.114C125.197 145.438 125.369 145.73 125.63 145.927C125.892 146.124 126.22 146.209 126.544 146.163L129.801 145.706C130.125 145.66 130.418 145.488 130.615 145.227C130.812 144.965 130.897 144.637 130.851 144.313C130.806 143.989 130.633 143.696 130.372 143.499C130.111 143.302 129.782 143.217 129.458 143.263ZM125.854 148.831C125.725 148.734 125.577 148.662 125.42 148.622C125.263 148.581 125.1 148.572 124.939 148.594C124.778 148.617 124.624 148.671 124.484 148.753C124.344 148.836 124.222 148.945 124.124 149.074C124.027 149.204 123.955 149.352 123.915 149.509C123.874 149.666 123.865 149.829 123.887 149.99C123.91 150.151 123.964 150.305 124.046 150.445C124.129 150.585 124.238 150.707 124.367 150.805L126.994 152.784C127.256 152.981 127.585 153.067 127.91 153.021C128.234 152.975 128.527 152.803 128.725 152.541C128.922 152.279 129.007 151.95 128.961 151.626C128.916 151.301 128.743 151.008 128.481 150.811L125.854 148.831ZM120.603 151.15C120.279 151.196 119.986 151.368 119.789 151.629C119.592 151.89 119.507 152.219 119.553 152.543L120.011 155.8C120.056 156.124 120.229 156.417 120.49 156.613C120.751 156.81 121.08 156.895 121.404 156.85C121.728 156.804 122.02 156.632 122.217 156.371C122.414 156.109 122.499 155.781 122.453 155.457L121.996 152.2C121.95 151.876 121.778 151.583 121.517 151.386C121.255 151.19 120.927 151.105 120.603 151.15ZM114.915 150.369L112.936 152.996C112.738 153.257 112.653 153.587 112.699 153.911C112.744 154.236 112.917 154.529 113.179 154.726C113.44 154.923 113.77 155.008 114.094 154.963C114.419 154.917 114.712 154.744 114.909 154.483L116.889 151.856C117.086 151.594 117.171 151.265 117.125 150.94C117.08 150.616 116.907 150.323 116.645 150.125C116.384 149.928 116.054 149.843 115.73 149.889C115.405 149.934 115.112 150.107 114.915 150.369ZM114.566 146.601C114.521 146.277 114.348 145.985 114.087 145.788C113.826 145.591 113.497 145.506 113.173 145.552L109.916 146.009C109.592 146.055 109.3 146.227 109.103 146.488C108.906 146.75 108.821 147.078 108.867 147.402C108.912 147.726 109.084 148.019 109.346 148.216C109.607 148.413 109.936 148.498 110.26 148.452L113.517 147.994C113.841 147.949 114.133 147.776 114.33 147.515C114.527 147.254 114.612 146.925 114.566 146.601ZM112.721 138.934C112.459 138.737 112.13 138.652 111.805 138.698C111.481 138.743 111.188 138.916 110.99 139.177C110.793 139.439 110.708 139.768 110.754 140.093C110.799 140.417 110.972 140.71 111.234 140.908L113.863 142.884C114.125 143.081 114.454 143.166 114.779 143.121C115.103 143.075 115.396 142.902 115.593 142.641C115.791 142.379 115.876 142.05 115.83 141.725C115.785 141.401 115.612 141.108 115.35 140.91L112.721 138.934Z" fill="#5394E1"/>
</g>
<rect x="84" y="179.414" width="83" height="6.50195" rx="3.25098" transform="rotate(-10 84 179.414)" fill="#5394E1"/>
<rect x="87" y="193.859" width="39.4934" height="5.08619" rx="2.5431" transform="rotate(-10 87 193.859)" fill="#5394E1"/>
<defs>
<clipPath id="clip0_423_7462">
<rect width="26.3117" height="26.3117" fill="white" transform="translate(105 134.66) rotate(-8)"/>
</clipPath>
</defs>
</svg>
