<svg width="249" height="215" viewBox="0 0 249 215" fill="none" xmlns="http://www.w3.org/2000/svg">
<path d="M142.395 14.2857C142.395 14.2857 115.539 59.9706 61.0012 52.5005C6.46296 45.0303 -24.5117 105.947 28.0015 130C80.5146 154.054 33.5982 194.615 68.4999 208.5C108.168 224.282 125.705 204.521 154.501 208.5C218.055 217.282 263.285 157.427 244.501 130C211.528 81.8569 216.395 91.1781 223.5 58.4986C230.605 25.8191 161.774 -23.2217 142.395 14.2857Z" fill="#EBF8FF"/>
<path d="M125.142 60.9167C124.706 60.8889 124.296 60.6928 124.001 60.3695C123.706 60.0462 123.547 59.621 123.559 59.1833L123.681 42.6902C123.678 42.4609 123.721 42.2333 123.809 42.0211C123.896 41.8089 124.025 41.6164 124.188 41.455C124.351 41.2937 124.545 41.1668 124.758 41.082C124.971 40.9972 125.199 40.9562 125.428 40.9614L126.747 41.0203C126.975 41.0354 127.198 41.0965 127.403 41.2C127.607 41.3035 127.788 41.4473 127.935 41.6227C128.083 41.7981 128.193 42.0015 128.26 42.2206C128.326 42.4397 128.348 42.67 128.323 42.8977L126.883 59.3319C126.853 59.7694 126.655 60.1784 126.331 60.4737C126.007 60.7689 125.581 60.9276 125.142 60.9167Z" fill="#2962A5"/>
<path d="M179.584 187.003C179.147 187.031 178.738 187.227 178.442 187.55C178.147 187.874 177.989 188.299 178.001 188.737L178.122 205.23C178.119 205.459 178.163 205.687 178.25 205.899C178.337 206.111 178.466 206.304 178.629 206.465C178.792 206.626 178.986 206.753 179.199 206.838C179.412 206.923 179.64 206.964 179.87 206.959L181.188 206.9C181.417 206.885 181.64 206.823 181.844 206.72C182.048 206.616 182.23 206.473 182.377 206.297C182.524 206.122 182.634 205.918 182.701 205.699C182.768 205.48 182.789 205.25 182.765 205.022L181.325 188.588C181.295 188.151 181.097 187.742 180.772 187.446C180.448 187.151 180.022 186.992 179.584 187.003Z" fill="#2962A5"/>
<path d="M190.748 183.509C190.555 183.728 190.454 184.014 190.467 184.306C190.481 184.598 190.607 184.873 190.819 185.074L198.66 192.8C198.766 192.91 198.894 192.997 199.036 193.056C199.177 193.115 199.329 193.145 199.482 193.144C199.635 193.143 199.786 193.111 199.927 193.051C200.067 192.99 200.194 192.902 200.3 192.791L200.894 192.141C200.995 192.026 201.072 191.892 201.119 191.747C201.167 191.602 201.184 191.448 201.171 191.296C201.158 191.144 201.114 190.996 201.042 190.861C200.97 190.726 200.872 190.607 200.752 190.511L192.317 183.435C192.097 183.243 191.81 183.143 191.518 183.157C191.225 183.171 190.95 183.297 190.748 183.509Z" fill="#2962A5"/>
<path d="M185.705 186.606C185.516 186.701 185.37 186.865 185.3 187.065C185.23 187.265 185.24 187.484 185.328 187.677L188.499 194.998C188.541 195.101 188.604 195.194 188.682 195.272C188.761 195.35 188.855 195.411 188.958 195.452C189.061 195.493 189.172 195.513 189.283 195.51C189.393 195.508 189.503 195.483 189.604 195.437L190.18 195.162C190.279 195.112 190.367 195.043 190.438 194.958C190.509 194.873 190.563 194.775 190.595 194.669C190.628 194.563 190.638 194.452 190.627 194.342C190.615 194.231 190.581 194.125 190.527 194.028L186.78 186.982C186.683 186.793 186.518 186.649 186.318 186.578C186.118 186.508 185.898 186.518 185.705 186.606Z" fill="#2962A5"/>
<path d="M117.432 62.7041C117.163 62.7972 116.867 62.7796 116.611 62.6551C116.355 62.5305 116.159 62.3093 116.065 62.0401L112.364 51.9589C112.257 51.6723 112.268 51.3549 112.394 51.0762C112.521 50.7975 112.753 50.5803 113.039 50.4724L113.86 50.1816C114.001 50.1332 114.15 50.1145 114.299 50.1267C114.447 50.1389 114.592 50.1817 114.723 50.2526C114.854 50.3234 114.969 50.4206 115.061 50.5381C115.152 50.6556 115.218 50.7908 115.255 50.9353L118.135 61.307C118.215 61.5857 118.187 61.8841 118.057 62.143C117.926 62.4018 117.703 62.6022 117.432 62.7041Z" fill="#2962A5"/>
<path d="M113.372 68.8109C112.83 69.5522 111.67 69.5987 110.744 68.916L94.2946 56.7968C93.3121 56.0728 92.9727 54.8141 93.5481 54.0278L94.3502 52.9319C94.9257 52.1455 96.1842 52.1479 97.1191 52.9377L112.766 66.1528C113.647 66.8971 113.915 68.0696 113.372 68.8109Z" fill="#2962A5"/>
<path d="M206.847 89.7441L126.037 70.5076C123.043 69.7947 119.889 72.2656 118.994 76.0265L104.07 138.721C103.175 142.482 104.876 146.108 107.871 146.821L188.68 166.058C191.675 166.77 194.828 164.3 195.723 160.539L210.648 97.8445C211.543 94.0836 209.841 90.4569 206.847 89.7441Z" fill="#80B2ED"/>
<rect x="150.576" y="94.2754" width="34.7226" height="5.80235" rx="2.90118" transform="rotate(15 150.576 94.2754)" fill="white"/>
<rect x="151.576" y="109.275" width="38.8851" height="3.92871" rx="1.96436" transform="rotate(15 151.576 109.275)" fill="white"/>
<path d="M158.354 75.0417L62.0282 92.0404C59.0495 92.5661 57.1794 96.0785 57.8513 99.8857L71.4356 176.864C72.1075 180.671 75.0669 183.331 78.0456 182.805L174.372 165.807C177.35 165.281 179.22 161.768 178.548 157.961L164.964 80.9834C164.292 77.1762 161.333 74.516 158.354 75.0417Z" fill="#2962A5"/>
<rect x="79" y="156.332" width="86.779" height="9" rx="4.5" transform="rotate(-10 79 156.332)" fill="white"/>
</svg>
