<svg width="360" height="80" viewBox="0 0 360 80" fill="none" xmlns="http://www.w3.org/2000/svg">
<path d="M0 12C0 5.37258 5.37258 0 12 0H348C354.627 0 360 5.37258 360 12V80H0V12Z" fill="#FFF1F1"/>
<line x1="179.5" y1="9" x2="179.5" y2="58" stroke="#161819" stroke-dasharray="2 2"/>
<path d="M16.6464 38.6464C16.4512 38.8417 16.4512 39.1583 16.6464 39.3536L19.8284 42.5355C20.0237 42.7308 20.3403 42.7308 20.5355 42.5355C20.7308 42.3403 20.7308 42.0237 20.5355 41.8284L17.7071 39L20.5355 36.1716C20.7308 35.9763 20.7308 35.6597 20.5355 35.4645C20.3403 35.2692 20.0237 35.2692 19.8284 35.4645L16.6464 38.6464ZM162.354 39.3536C162.549 39.1583 162.549 38.8417 162.354 38.6464L159.172 35.4645C158.976 35.2692 158.66 35.2692 158.464 35.4645C158.269 35.6597 158.269 35.9763 158.464 36.1716L161.293 39L158.464 41.8284C158.269 42.0237 158.269 42.3403 158.464 42.5355C158.66 42.7308 158.976 42.7308 159.172 42.5355L162.354 39.3536ZM17 39.5H20.0208V38.5H17V39.5ZM26.0625 39.5H32.1042V38.5H26.0625V39.5ZM38.1458 39.5H44.1875V38.5H38.1458V39.5ZM50.2292 39.5H56.2708V38.5H50.2292V39.5ZM62.3125 39.5H68.3542V38.5H62.3125V39.5ZM74.3958 39.5H80.4375V38.5H74.3958V39.5ZM86.4792 39.5H92.5208V38.5H86.4792V39.5ZM98.5625 39.5H104.604V38.5H98.5625V39.5ZM110.646 39.5H116.687V38.5H110.646V39.5ZM122.729 39.5H128.771V38.5H122.729V39.5ZM134.812 39.5H140.854V38.5H134.812V39.5ZM146.896 39.5H152.937V38.5H146.896V39.5ZM158.979 39.5H162V38.5H158.979V39.5Z" fill="#A8A8A8"/>
<path d="M198.646 38.6464C198.451 38.8417 198.451 39.1583 198.646 39.3536L201.828 42.5355C202.024 42.7308 202.34 42.7308 202.536 42.5355C202.731 42.3403 202.731 42.0237 202.536 41.8284L199.707 39L202.536 36.1716C202.731 35.9763 202.731 35.6597 202.536 35.4645C202.34 35.2692 202.024 35.2692 201.828 35.4645L198.646 38.6464ZM344.354 39.3536C344.549 39.1583 344.549 38.8417 344.354 38.6465L341.172 35.4645C340.976 35.2692 340.66 35.2692 340.464 35.4645C340.269 35.6597 340.269 35.9763 340.464 36.1716L343.293 39L340.464 41.8284C340.269 42.0237 340.269 42.3403 340.464 42.5355C340.66 42.7308 340.976 42.7308 341.172 42.5355L344.354 39.3536ZM199 39.5L344 39.5L344 38.5L199 38.5L199 39.5Z" fill="#606060"/>
<path d="M149.75 72.1905C148.92 72.1905 148.188 71.9958 147.553 71.6063C146.918 71.2168 146.422 70.675 146.067 69.9807C145.72 69.2864 145.546 68.4779 145.546 67.555C145.546 66.6237 145.72 65.8151 146.067 65.1293C146.422 64.435 146.918 63.8932 147.553 63.5037C148.188 63.1142 148.92 62.9195 149.75 62.9195C150.622 62.9195 151.392 63.1481 152.061 63.6053C152.73 64.0625 153.213 64.6975 153.509 65.5103L152.226 65.8786L152.087 65.8532C151.892 65.3621 151.587 64.9854 151.172 64.7229C150.757 64.452 150.287 64.3165 149.763 64.3165C149.212 64.3165 148.73 64.452 148.315 64.7229C147.908 64.9854 147.591 65.3579 147.362 65.8405C147.134 66.3231 147.019 66.8946 147.019 67.555C147.019 68.2154 147.134 68.7869 147.362 69.2695C147.591 69.7521 147.908 70.1289 148.315 70.3998C148.73 70.6623 149.212 70.7935 149.763 70.7935C150.287 70.7935 150.757 70.658 151.172 70.3871C151.587 70.1162 151.892 69.7394 152.087 69.2568L152.226 69.2314L153.509 69.5997C153.213 70.4125 152.73 71.0475 152.061 71.5047C151.392 71.9619 150.622 72.1905 149.75 72.1905ZM160.686 65.5865V72H159.327V70.3617L159.695 70.3871C159.56 70.7596 159.365 71.0814 159.111 71.3523C158.857 71.6148 158.561 71.8222 158.222 71.9746C157.884 72.1185 157.515 72.1905 157.117 72.1905C156.66 72.1905 156.245 72.0931 155.873 71.8984C155.509 71.6952 155.217 71.3989 154.996 71.0094C154.776 70.6199 154.666 70.1373 154.666 69.5616V65.5865H156.127V69.1298C156.127 69.5277 156.182 69.8537 156.292 70.1077C156.41 70.3617 156.571 70.5522 156.774 70.6792C156.986 70.7977 157.227 70.857 157.498 70.857C157.752 70.857 158.011 70.7935 158.273 70.6665C158.544 70.531 158.768 70.3151 158.946 70.0188C159.132 69.7225 159.226 69.3203 159.226 68.8123V65.5865H160.686ZM164.924 72C164.298 72 163.798 71.8053 163.426 71.4158C163.053 71.0179 162.867 70.4845 162.867 69.8156V63.9228H164.327V69.6632C164.327 70.0019 164.412 70.2559 164.581 70.4252C164.759 70.5945 165.013 70.6792 165.343 70.6792H166.004L166.067 70.8189V72H164.924ZM161.775 66.8946V65.5865H166.067V66.8946H161.775ZM167.138 69.0663V67.6693H171.621V69.0663H167.138ZM175.883 72.1905C175.239 72.1905 174.672 72.0466 174.181 71.7587C173.69 71.4708 173.305 71.0729 173.025 70.5649C172.746 70.0484 172.606 69.4558 172.606 68.7869C172.606 68.1265 172.746 67.5423 173.025 67.0343C173.305 66.5178 173.69 66.1157 174.181 65.8278C174.672 65.5399 175.239 65.396 175.883 65.396C176.535 65.396 177.106 65.5399 177.597 65.8278C178.088 66.1157 178.474 66.5178 178.753 67.0343C179.032 67.5423 179.172 68.1265 179.172 68.7869C179.172 69.4558 179.032 70.0484 178.753 70.5649C178.474 71.0729 178.088 71.4708 177.597 71.7587C177.106 72.0466 176.535 72.1905 175.883 72.1905ZM175.883 70.8697C176.255 70.8697 176.577 70.785 176.848 70.6157C177.119 70.4464 177.331 70.2051 177.483 69.8918C177.635 69.5785 177.712 69.2145 177.712 68.7996C177.712 68.3678 177.635 67.9995 177.483 67.6947C177.331 67.3814 177.119 67.1401 176.848 66.9708C176.577 66.8015 176.255 66.7168 175.883 66.7168C175.519 66.7168 175.201 66.8015 174.93 66.9708C174.659 67.1401 174.448 67.3814 174.295 67.6947C174.143 67.9995 174.067 68.3636 174.067 68.7869C174.067 69.2102 174.143 69.5785 174.295 69.8918C174.448 70.2051 174.659 70.4464 174.93 70.6157C175.201 70.785 175.519 70.8697 175.883 70.8697ZM181.011 72V65.0404C181.011 64.3715 181.198 63.8424 181.57 63.4529C181.943 63.055 182.442 62.856 183.069 62.856H183.894V64.0371L183.831 64.1768H183.412C183.081 64.1768 182.84 64.2488 182.688 64.3927C182.544 64.5366 182.472 64.7779 182.472 65.1166V72H181.011ZM179.919 66.8946V65.5865H183.894V66.8946H179.919ZM185.662 72V65.0404C185.662 64.3715 185.848 63.8424 186.221 63.4529C186.594 63.055 187.093 62.856 187.72 62.856H188.545V64.0371L188.482 64.1768H188.063C187.732 64.1768 187.491 64.2488 187.339 64.3927C187.195 64.5366 187.123 64.7779 187.123 65.1166V72H185.662ZM184.57 66.8946V65.5865H188.545V66.8946H184.57ZM194.191 72L194.33 71.3523L196.604 65.5865H198.102V65.6881L195.524 72H194.191ZM194.089 72L191.511 65.6881V65.5865H193.009L195.27 71.3523L195.41 72H194.089ZM200.715 72.1905C200.274 72.1905 199.881 72.1058 199.533 71.9365C199.195 71.7672 198.928 71.5301 198.733 71.2253C198.539 70.9205 198.441 70.5734 198.441 70.1839C198.441 69.5828 198.649 69.1044 199.064 68.7488C199.478 68.3847 200.075 68.1731 200.854 68.1138L203.343 67.9106V69.1171L201.07 69.3076C200.664 69.3415 200.372 69.4261 200.194 69.5616C200.016 69.6971 199.927 69.8791 199.927 70.1077C199.927 70.3363 200.029 70.5226 200.232 70.6665C200.435 70.8104 200.693 70.8824 201.007 70.8824C201.337 70.8824 201.633 70.802 201.896 70.6411C202.167 70.4718 202.382 70.2559 202.543 69.9934C202.704 69.7309 202.785 69.4473 202.785 69.1425V68.0884C202.785 67.682 202.649 67.3476 202.378 67.0851C202.107 66.8142 201.752 66.6787 201.311 66.6787C200.939 66.6787 200.63 66.7718 200.384 66.9581C200.147 67.1359 199.995 67.3603 199.927 67.6312H199.787L198.543 67.3264C198.695 66.7507 199.013 66.285 199.495 65.9294C199.986 65.5738 200.596 65.396 201.324 65.396C202.23 65.396 202.937 65.6585 203.445 66.1834C203.953 66.6999 204.207 67.4322 204.207 68.3805V72H202.912V70.1331L203.432 70.2093C203.331 70.5734 203.149 70.9078 202.886 71.2126C202.624 71.5089 202.306 71.746 201.934 71.9238C201.57 72.1016 201.163 72.1905 200.715 72.1905ZM205.941 72V62.856L207.363 62.6782L207.401 62.7798V72H205.941ZM215.033 65.5865V72H213.674V70.3617L214.043 70.3871C213.907 70.7596 213.712 71.0814 213.458 71.3523C213.204 71.6148 212.908 71.8222 212.569 71.9746C212.231 72.1185 211.862 72.1905 211.464 72.1905C211.007 72.1905 210.592 72.0931 210.22 71.8984C209.856 71.6952 209.564 71.3989 209.344 71.0094C209.123 70.6199 209.013 70.1373 209.013 69.5616V65.5865H210.474V69.1298C210.474 69.5277 210.529 69.8537 210.639 70.1077C210.757 70.3617 210.918 70.5522 211.122 70.6792C211.333 70.7977 211.575 70.857 211.845 70.857C212.099 70.857 212.358 70.7935 212.62 70.6665C212.891 70.531 213.115 70.3151 213.293 70.0188C213.48 69.7225 213.573 69.3203 213.573 68.8123V65.5865H215.033ZM219.614 72.1905C218.962 72.1905 218.386 72.0466 217.887 71.7587C217.396 71.4708 217.011 71.0729 216.731 70.5649C216.452 70.0569 216.312 69.4642 216.312 68.7869C216.312 68.118 216.448 67.5296 216.718 67.0216C216.998 66.5051 217.379 66.1072 217.861 65.8278C218.353 65.5399 218.916 65.396 219.551 65.396C220.186 65.396 220.736 65.5442 221.202 65.8405C221.676 66.1284 222.044 66.5348 222.306 67.0597C222.577 67.5846 222.713 68.1985 222.713 68.9012V69.1425L222.522 69.333H216.998V68.1138H222.052L221.278 68.4059C221.269 68.0503 221.185 67.7455 221.024 67.4915C220.871 67.229 220.668 67.0301 220.414 66.8946C220.169 66.7507 219.889 66.6787 219.576 66.6787C219.237 66.6787 218.928 66.7591 218.649 66.92C218.369 67.0724 218.154 67.2883 218.001 67.5677C217.849 67.8386 217.773 68.1561 217.773 68.5202V69.0282C217.773 69.3753 217.853 69.6928 218.014 69.9807C218.183 70.2601 218.408 70.4845 218.687 70.6538C218.966 70.8231 219.275 70.9078 219.614 70.9078C219.936 70.9078 220.228 70.8231 220.49 70.6538C220.761 70.476 220.973 70.2389 221.125 69.9426H221.278L222.459 70.4506C222.205 71.0009 221.828 71.4285 221.329 71.7333C220.838 72.0381 220.266 72.1905 219.614 72.1905Z" fill="#161819"/>
<path d="M41.5699 31V22.11H42.5224V31H41.5699ZM38.7759 23.0371V22.11H45.3037V23.0371H38.7759ZM46.5795 31V21.856L47.4939 21.7417L47.532 21.8433V26.4915L47.2272 26.2502C47.3372 25.8946 47.5193 25.5856 47.7733 25.3231C48.0273 25.0606 48.3236 24.8574 48.6623 24.7135C49.0094 24.5696 49.3777 24.4976 49.7672 24.4976C50.2244 24.4976 50.6308 24.595 50.9864 24.7897C51.342 24.9844 51.6171 25.2723 51.8119 25.6533C52.0151 26.0343 52.1167 26.5084 52.1167 27.0757V31H51.1642V27.2916C51.1642 26.809 51.0922 26.4365 50.9483 26.174C50.8043 25.9031 50.6096 25.7126 50.3641 25.6025C50.127 25.4924 49.8561 25.4374 49.5513 25.4374C49.2041 25.4374 48.8739 25.5221 48.5607 25.6914C48.2559 25.8607 48.0061 26.1063 47.8114 26.428C47.6251 26.7413 47.532 27.1223 47.532 27.571V31H46.5795ZM56.5384 31.1524C55.9373 31.1524 55.4039 31.0127 54.9382 30.7333C54.4726 30.4539 54.1085 30.0644 53.846 29.5649C53.5836 29.0654 53.4523 28.4854 53.4523 27.825C53.4523 27.1646 53.5793 26.5846 53.8333 26.0851C54.0958 25.5856 54.4556 25.1961 54.9128 24.9167C55.3785 24.6373 55.9119 24.4976 56.513 24.4976C57.1057 24.4976 57.6222 24.6415 58.0624 24.9294C58.5112 25.2088 58.8625 25.6067 59.1165 26.1232C59.3705 26.6312 59.4975 27.2239 59.4975 27.9012V28.0155L59.307 28.1933H54.0111V27.2662H58.9387L58.5196 27.444C58.4858 27.0207 58.3757 26.6608 58.1894 26.3645C58.0032 26.0597 57.7661 25.8269 57.4782 25.666C57.1904 25.5051 56.8686 25.4247 56.513 25.4247C56.1236 25.4247 55.768 25.5221 55.4462 25.7168C55.1245 25.9031 54.8705 26.1698 54.6842 26.5169C54.498 26.864 54.4048 27.2662 54.4048 27.7234V27.8885C54.4048 28.3457 54.4937 28.7521 54.6715 29.1077C54.8578 29.4548 55.1118 29.73 55.4335 29.9332C55.7553 30.1279 56.1236 30.2253 56.5384 30.2253C56.9533 30.2253 57.3089 30.1279 57.6052 29.9332C57.9016 29.7385 58.1344 29.4718 58.3037 29.1331H58.4434L59.2435 29.4887C59.0065 29.9967 58.6509 30.4031 58.1767 30.7079C57.7111 31.0042 57.165 31.1524 56.5384 31.1524ZM66.8558 31.1524C66.424 31.1524 66.0261 31.0677 65.662 30.8984C65.2979 30.7206 64.9847 30.4751 64.7222 30.1618C64.4597 29.8485 64.265 29.4845 64.138 29.0696V26.5804C64.265 26.1571 64.4597 25.793 64.7222 25.4882C64.9847 25.1749 65.2979 24.9336 65.662 24.7643C66.0261 24.5865 66.424 24.4976 66.8558 24.4976C67.4231 24.4976 67.9311 24.6415 68.3798 24.9294C68.8285 25.2173 69.1841 25.611 69.4466 26.1105C69.7175 26.61 69.853 27.1815 69.853 27.825C69.853 28.4685 69.7175 29.04 69.4466 29.5395C69.1841 30.039 68.8285 30.4327 68.3798 30.7206C67.9311 31.0085 67.4231 31.1524 66.8558 31.1524ZM63.6808 33.54V24.65H64.6079V27.0249L64.4555 27.825L64.6333 28.6251V33.54H63.6808ZM66.8177 30.2253C67.2241 30.2253 67.5839 30.1237 67.8972 29.9205C68.2105 29.7173 68.456 29.4379 68.6338 29.0823C68.8116 28.7182 68.9005 28.2991 68.9005 27.825C68.9005 27.3509 68.8116 26.936 68.6338 26.5804C68.456 26.2163 68.2105 25.9327 67.8972 25.7295C67.5839 25.5263 67.2241 25.4247 66.8177 25.4247C66.4028 25.4247 66.0303 25.5263 65.7001 25.7295C65.3699 25.9327 65.1074 26.2163 64.9127 26.5804C64.7264 26.936 64.6333 27.3509 64.6333 27.825C64.6333 28.2991 64.7264 28.7182 64.9127 29.0823C65.1074 29.4379 65.3699 29.7173 65.7001 29.9205C66.0303 30.1237 66.4028 30.2253 66.8177 30.2253ZM73.2528 31.1524C72.821 31.1524 72.4316 31.0677 72.0844 30.8984C71.7458 30.7291 71.4791 30.4962 71.2843 30.1999C71.0896 29.9036 70.9922 29.5607 70.9922 29.1712C70.9922 28.6209 71.187 28.1764 71.5764 27.8377C71.9744 27.4906 72.5205 27.2916 73.2147 27.2408L75.6531 27.063V27.952L73.4306 28.1171C72.9396 28.151 72.5713 28.2568 72.3257 28.4346C72.0887 28.6124 71.9701 28.8579 71.9701 29.1712C71.9701 29.476 72.0929 29.73 72.3384 29.9332C72.5924 30.1279 72.9184 30.2253 73.3163 30.2253C73.7143 30.2253 74.0741 30.1364 74.3958 29.9586C74.726 29.7723 74.9843 29.5268 75.1705 29.222C75.3653 28.9087 75.4626 28.5616 75.4626 28.1806V27.1519C75.4626 26.6439 75.306 26.229 74.9927 25.9073C74.6879 25.5771 74.2731 25.412 73.7481 25.412C73.3502 25.412 73.0073 25.5094 72.7194 25.7041C72.4316 25.8904 72.2284 26.1655 72.1098 26.5296H71.9701L71.1319 26.2248C71.3351 25.6575 71.6653 25.2257 72.1225 24.9294C72.5797 24.6331 73.1258 24.4849 73.7608 24.4849C74.616 24.4849 75.2721 24.7431 75.7293 25.2596C76.1865 25.7676 76.4151 26.4915 76.4151 27.4313V31H75.488V29.1585L75.8182 29.3998C75.7166 29.7385 75.5388 30.0433 75.2848 30.3142C75.0308 30.5767 74.7303 30.7841 74.3831 30.9365C74.036 31.0804 73.6592 31.1524 73.2528 31.1524ZM78.1295 31V24.65H79.0566V26.4915L78.7772 26.2502C78.9212 25.7591 79.1963 25.3697 79.6027 25.0818C80.0176 24.7939 80.4833 24.65 80.9997 24.65H81.6601V25.5771H80.8473C80.5002 25.5771 80.1912 25.6618 79.9202 25.8311C79.6578 26.0004 79.4503 26.2333 79.2979 26.5296C79.154 26.8259 79.082 27.1731 79.082 27.571V31H78.1295ZM85.0053 31C84.4804 31 84.0486 30.8307 83.7099 30.492C83.3712 30.1533 83.2019 29.6961 83.2019 29.1204V22.9228H84.1544V29.0569C84.1544 29.4294 84.2306 29.6919 84.383 29.8443C84.5439 29.9967 84.8063 30.0729 85.1704 30.0729H85.9578L86.0213 30.2126V31H85.0053ZM82.1097 25.5771V24.65H86.0213V25.5771H82.1097ZM93.5099 31.1524C93.0781 31.1524 92.6802 31.0677 92.3161 30.8984C91.9521 30.7206 91.6388 30.4751 91.3763 30.1618C91.1139 29.8485 90.9191 29.4845 90.7921 29.0696V26.5804C90.9191 26.1571 91.1139 25.793 91.3763 25.4882C91.6388 25.1749 91.9521 24.9336 92.3161 24.7643C92.6802 24.5865 93.0781 24.4976 93.5099 24.4976C94.0772 24.4976 94.5852 24.6415 95.0339 24.9294C95.4827 25.2173 95.8383 25.611 96.1007 26.1105C96.3717 26.61 96.5071 27.1815 96.5071 27.825C96.5071 28.4685 96.3717 29.04 96.1007 29.5395C95.8383 30.039 95.4827 30.4327 95.0339 30.7206C94.5852 31.0085 94.0772 31.1524 93.5099 31.1524ZM90.3349 31V21.856L91.2493 21.7417L91.2874 21.8433V27.0249L91.1096 27.825L91.262 28.6251V31H90.3349ZM93.4718 30.2253C93.8782 30.2253 94.2381 30.1237 94.5513 29.9205C94.8646 29.7173 95.1101 29.4379 95.2879 29.0823C95.4657 28.7182 95.5546 28.2991 95.5546 27.825C95.5546 27.3509 95.4657 26.936 95.2879 26.5804C95.1101 26.2163 94.8646 25.9327 94.5513 25.7295C94.2381 25.5263 93.8782 25.4247 93.4718 25.4247C93.057 25.4247 92.6844 25.5263 92.3542 25.7295C92.024 25.9327 91.7616 26.2163 91.5668 26.5804C91.3806 26.936 91.2874 27.3509 91.2874 27.825C91.2874 28.2991 91.3806 28.7182 91.5668 29.0823C91.7616 29.4379 92.024 29.7173 92.3542 29.9205C92.6844 30.1237 93.057 30.2253 93.4718 30.2253ZM100.604 31.1524C100.003 31.1524 99.4694 31.0127 99.0038 30.7333C98.5381 30.4539 98.174 30.0644 97.9116 29.5649C97.6491 29.0654 97.5179 28.4854 97.5179 27.825C97.5179 27.1646 97.6449 26.5846 97.8989 26.0851C98.1613 25.5856 98.5212 25.1961 98.9784 24.9167C99.444 24.6373 99.9774 24.4976 100.579 24.4976C101.171 24.4976 101.688 24.6415 102.128 24.9294C102.577 25.2088 102.928 25.6067 103.182 26.1232C103.436 26.6312 103.563 27.2239 103.563 27.9012V28.0155L103.373 28.1933H98.0767V27.2662H103.004L102.585 27.444C102.551 27.0207 102.441 26.6608 102.255 26.3645C102.069 26.0597 101.832 25.8269 101.544 25.666C101.256 25.5051 100.934 25.4247 100.579 25.4247C100.189 25.4247 99.8335 25.5221 99.5118 25.7168C99.19 25.9031 98.936 26.1698 98.7498 26.5169C98.5635 26.864 98.4704 27.2662 98.4704 27.7234V27.8885C98.4704 28.3457 98.5593 28.7521 98.7371 29.1077C98.9233 29.4548 99.1773 29.73 99.4991 29.9332C99.8208 30.1279 100.189 30.2253 100.604 30.2253C101.019 30.2253 101.374 30.1279 101.671 29.9332C101.967 29.7385 102.2 29.4718 102.369 29.1331H102.509L103.309 29.4887C103.072 29.9967 102.716 30.4031 102.242 30.7079C101.777 31.0042 101.23 31.1524 100.604 31.1524ZM105.477 31V23.7356C105.477 23.1599 105.646 22.7027 105.985 22.364C106.323 22.0253 106.755 21.856 107.28 21.856H107.978V22.6434L107.915 22.7831H107.445C107.081 22.7831 106.818 22.8593 106.658 23.0117C106.505 23.1641 106.429 23.4266 106.429 23.7991V31H105.477ZM104.384 25.5771V24.65H107.978V25.5771H104.384ZM111.581 31.1524C110.971 31.1524 110.429 31.0127 109.955 30.7333C109.49 30.4539 109.121 30.0644 108.85 29.5649C108.588 29.0654 108.457 28.4854 108.457 27.825C108.457 27.1646 108.588 26.5846 108.85 26.0851C109.121 25.5856 109.49 25.1961 109.955 24.9167C110.429 24.6373 110.971 24.4976 111.581 24.4976C112.199 24.4976 112.741 24.6373 113.207 24.9167C113.672 25.1961 114.036 25.5856 114.299 26.0851C114.57 26.5846 114.705 27.1646 114.705 27.825C114.705 28.4854 114.57 29.0654 114.299 29.5649C114.036 30.0644 113.672 30.4539 113.207 30.7333C112.741 31.0127 112.199 31.1524 111.581 31.1524ZM111.581 30.2253C112.004 30.2253 112.377 30.1279 112.699 29.9332C113.029 29.73 113.287 29.4506 113.473 29.095C113.659 28.7309 113.753 28.3076 113.753 27.825C113.753 27.3339 113.659 26.9106 113.473 26.555C113.287 26.1994 113.029 25.9242 112.699 25.7295C112.377 25.5263 112.004 25.4247 111.581 25.4247C111.158 25.4247 110.781 25.5263 110.451 25.7295C110.129 25.9242 109.875 26.1994 109.689 26.555C109.502 26.9106 109.409 27.3339 109.409 27.825C109.409 28.3076 109.502 28.7309 109.689 29.095C109.875 29.4506 110.129 29.73 110.451 29.9332C110.781 30.1279 111.158 30.2253 111.581 30.2253ZM116.106 31V24.65H117.033V26.4915L116.753 26.2502C116.897 25.7591 117.172 25.3697 117.579 25.0818C117.994 24.7939 118.459 24.65 118.976 24.65H119.636V25.5771H118.823C118.476 25.5771 118.167 25.6618 117.896 25.8311C117.634 26.0004 117.426 26.2333 117.274 26.5296C117.13 26.8259 117.058 27.1731 117.058 27.571V31H116.106ZM123.114 31.1524C122.513 31.1524 121.98 31.0127 121.514 30.7333C121.048 30.4539 120.684 30.0644 120.422 29.5649C120.159 29.0654 120.028 28.4854 120.028 27.825C120.028 27.1646 120.155 26.5846 120.409 26.0851C120.672 25.5856 121.031 25.1961 121.489 24.9167C121.954 24.6373 122.488 24.4976 123.089 24.4976C123.681 24.4976 124.198 24.6415 124.638 24.9294C125.087 25.2088 125.438 25.6067 125.692 26.1232C125.946 26.6312 126.073 27.2239 126.073 27.9012V28.0155L125.883 28.1933H120.587V27.2662H125.515L125.095 27.444C125.062 27.0207 124.951 26.6608 124.765 26.3645C124.579 26.0597 124.342 25.8269 124.054 25.666C123.766 25.5051 123.444 25.4247 123.089 25.4247C122.699 25.4247 122.344 25.5221 122.022 25.7168C121.7 25.9031 121.446 26.1698 121.26 26.5169C121.074 26.864 120.981 27.2662 120.981 27.7234V27.8885C120.981 28.3457 121.07 28.7521 121.247 29.1077C121.434 29.4548 121.688 29.73 122.009 29.9332C122.331 30.1279 122.699 30.2253 123.114 30.2253C123.529 30.2253 123.885 30.1279 124.181 29.9332C124.477 29.7385 124.71 29.4718 124.88 29.1331H125.019L125.819 29.4887C125.582 29.9967 125.227 30.4031 124.753 30.7079C124.287 31.0042 123.741 31.1524 123.114 31.1524ZM132.581 31C132.056 31 131.624 30.8307 131.285 30.492C130.947 30.1533 130.777 29.6961 130.777 29.1204V22.9228H131.73V29.0569C131.73 29.4294 131.806 29.6919 131.958 29.8443C132.119 29.9967 132.382 30.0729 132.746 30.0729H133.533L133.597 30.2126V31H132.581ZM129.685 25.5771V24.65H133.597V25.5771H129.685ZM135.12 31V21.856L136.034 21.7417L136.072 21.8433V26.4915L135.767 26.2502C135.878 25.8946 136.06 25.5856 136.314 25.3231C136.568 25.0606 136.864 24.8574 137.203 24.7135C137.55 24.5696 137.918 24.4976 138.307 24.4976C138.765 24.4976 139.171 24.595 139.527 24.7897C139.882 24.9844 140.157 25.2723 140.352 25.6533C140.555 26.0343 140.657 26.5084 140.657 27.0757V31H139.704V27.2916C139.704 26.809 139.633 26.4365 139.489 26.174C139.345 25.9031 139.15 25.7126 138.904 25.6025C138.667 25.4924 138.396 25.4374 138.092 25.4374C137.744 25.4374 137.414 25.5221 137.101 25.6914C136.796 25.8607 136.546 26.1063 136.352 26.428C136.165 26.7413 136.072 27.1223 136.072 27.571V31H135.12ZM145.079 31.1524C144.478 31.1524 143.944 31.0127 143.479 30.7333C143.013 30.4539 142.649 30.0644 142.386 29.5649C142.124 29.0654 141.993 28.4854 141.993 27.825C141.993 27.1646 142.12 26.5846 142.374 26.0851C142.636 25.5856 142.996 25.1961 143.453 24.9167C143.919 24.6373 144.452 24.4976 145.053 24.4976C145.646 24.4976 146.162 24.6415 146.603 24.9294C147.051 25.2088 147.403 25.6067 147.657 26.1232C147.911 26.6312 148.038 27.2239 148.038 27.9012V28.0155L147.847 28.1933H142.551V27.2662H147.479L147.06 27.444C147.026 27.0207 146.916 26.6608 146.73 26.3645C146.543 26.0597 146.306 25.8269 146.019 25.666C145.731 25.5051 145.409 25.4247 145.053 25.4247C144.664 25.4247 144.308 25.5221 143.987 25.7168C143.665 25.9031 143.411 26.1698 143.225 26.5169C143.038 26.864 142.945 27.2662 142.945 27.7234V27.8885C142.945 28.3457 143.034 28.7521 143.212 29.1077C143.398 29.4548 143.652 29.73 143.974 29.9332C144.296 30.1279 144.664 30.2253 145.079 30.2253C145.494 30.2253 145.849 30.1279 146.146 29.9332C146.442 29.7385 146.675 29.4718 146.844 29.1331H146.984L147.784 29.4887C147.547 29.9967 147.191 30.4031 146.717 30.7079C146.251 31.0042 145.705 31.1524 145.079 31.1524ZM31.0844 53.1524C30.4663 53.1524 29.916 53.0127 29.4334 52.7333C28.9593 52.4539 28.5867 52.0644 28.3158 51.5649C28.0533 51.0654 27.9221 50.4854 27.9221 49.825C27.9221 49.1646 28.0533 48.5846 28.3158 48.0851C28.5867 47.5856 28.9593 47.1961 29.4334 46.9167C29.916 46.6373 30.4663 46.4976 31.0844 46.4976C31.5585 46.4976 31.9861 46.5865 32.3671 46.7643C32.7481 46.9336 33.0741 47.1792 33.345 47.5009C33.6244 47.8142 33.8318 48.1909 33.9673 48.6312L33.1164 48.8725H32.9767C32.8243 48.4238 32.583 48.0724 32.2528 47.8184C31.9226 47.5559 31.5331 47.4247 31.0844 47.4247C30.6357 47.4247 30.2462 47.5263 29.916 47.7295C29.5858 47.9327 29.3276 48.2163 29.1413 48.5804C28.9635 48.936 28.8746 49.3509 28.8746 49.825C28.8746 50.2907 28.9635 50.7055 29.1413 51.0696C29.3276 51.4337 29.5858 51.7173 29.916 51.9205C30.2462 52.1237 30.6357 52.2253 31.0844 52.2253C31.3977 52.2253 31.6771 52.1703 31.9226 52.0602C32.1766 51.9417 32.3967 51.7766 32.583 51.5649C32.7693 51.3448 32.9174 51.0823 33.0275 50.7775H33.1672L34.0181 51.0188C33.8657 51.4675 33.6456 51.8528 33.3577 52.1745C33.0783 52.4962 32.7481 52.7418 32.3671 52.9111C31.9861 53.072 31.5585 53.1524 31.0844 53.1524ZM40.8213 46.65V53H39.8942V51.1585L40.1736 51.3998C40.0636 51.7554 39.8815 52.0644 39.6275 52.3269C39.382 52.5894 39.0857 52.7926 38.7385 52.9365C38.3914 53.0804 38.0231 53.1524 37.6336 53.1524C37.1764 53.1524 36.77 53.055 36.4144 52.8603C36.0673 52.6656 35.7921 52.3777 35.5889 51.9967C35.3857 51.6157 35.2841 51.1416 35.2841 50.5743V46.65H36.2366V50.3584C36.2366 50.8325 36.3086 51.2051 36.4525 51.476C36.5965 51.7469 36.7912 51.9374 37.0367 52.0475C37.2823 52.1576 37.5532 52.2126 37.8495 52.2126C38.2051 52.2126 38.5353 52.1279 38.8401 51.9586C39.1449 51.7893 39.3905 51.5437 39.5767 51.222C39.7715 50.9003 39.8688 50.5193 39.8688 50.079V46.65H40.8213ZM44.9271 53C44.4022 53 43.9704 52.8307 43.6317 52.492C43.2931 52.1533 43.1237 51.6961 43.1237 51.1204V44.9228H44.0762V51.0569C44.0762 51.4294 44.1524 51.6919 44.3048 51.8443C44.4657 51.9967 44.7282 52.0729 45.0922 52.0729H45.8796L45.9431 52.2126V53H44.9271ZM42.0315 47.5771V46.65H45.9431V47.5771H42.0315ZM47.0852 49.825V48.9106H51.5683V49.825H47.0852ZM55.7766 53.1524C55.167 53.1524 54.6251 53.0127 54.151 52.7333C53.6853 52.4539 53.317 52.0644 53.0461 51.5649C52.7836 51.0654 52.6524 50.4854 52.6524 49.825C52.6524 49.1646 52.7836 48.5846 53.0461 48.0851C53.317 47.5856 53.6853 47.1961 54.151 46.9167C54.6251 46.6373 55.167 46.4976 55.7766 46.4976C56.3947 46.4976 56.9365 46.6373 57.4022 46.9167C57.8679 47.1961 58.2319 47.5856 58.4944 48.0851C58.7653 48.5846 58.9008 49.1646 58.9008 49.825C58.9008 50.4854 58.7653 51.0654 58.4944 51.5649C58.2319 52.0644 57.8679 52.4539 57.4022 52.7333C56.9365 53.0127 56.3947 53.1524 55.7766 53.1524ZM55.7766 52.2253C56.1999 52.2253 56.5725 52.1279 56.8942 51.9332C57.2244 51.73 57.4826 51.4506 57.6689 51.095C57.8552 50.7309 57.9483 50.3076 57.9483 49.825C57.9483 49.3339 57.8552 48.9106 57.6689 48.555C57.4826 48.1994 57.2244 47.9242 56.8942 47.7295C56.5725 47.5263 56.1999 47.4247 55.7766 47.4247C55.3533 47.4247 54.9765 47.5263 54.6463 47.7295C54.3246 47.9242 54.0706 48.1994 53.8843 48.555C53.698 48.9106 53.6049 49.3339 53.6049 49.825C53.6049 50.3076 53.698 50.7309 53.8843 51.095C54.0706 51.4506 54.3246 51.73 54.6463 51.9332C54.9765 52.1279 55.3533 52.2253 55.7766 52.2253ZM60.8219 53V45.7356C60.8219 45.1599 60.9912 44.7027 61.3299 44.364C61.6685 44.0253 62.1003 43.856 62.6253 43.856H63.3238V44.6434L63.2603 44.7831H62.7904C62.4263 44.7831 62.1638 44.8593 62.003 45.0117C61.8506 45.1641 61.7744 45.4266 61.7744 45.7991V53H60.8219ZM59.7297 47.5771V46.65H63.3238V47.5771H59.7297ZM65.1751 53V45.7356C65.1751 45.1599 65.3444 44.7027 65.6831 44.364C66.0218 44.0253 66.4536 43.856 66.9785 43.856H67.677V44.6434L67.6135 44.7831H67.1436C66.7795 44.7831 66.5171 44.8593 66.3562 45.0117C66.2038 45.1641 66.1276 45.4266 66.1276 45.7991V53H65.1751ZM64.0829 47.5771V46.65H67.677V47.5771H64.0829ZM73.3739 53V52.0348L75.5583 46.65H76.5489V46.7516L73.9708 53H73.3739ZM73.0437 53L70.4656 46.7516V46.65H71.4562L73.6406 52.0348V53H73.0437ZM79.3238 53.1524C78.892 53.1524 78.5025 53.0677 78.1554 52.8984C77.8167 52.7291 77.55 52.4962 77.3553 52.1999C77.1605 51.9036 77.0632 51.5607 77.0632 51.1712C77.0632 50.6209 77.2579 50.1764 77.6474 49.8377C78.0453 49.4906 78.5914 49.2916 79.2857 49.2408L81.7241 49.063V49.952L79.5016 50.1171C79.0105 50.151 78.6422 50.2568 78.3967 50.4346C78.1596 50.6124 78.0411 50.8579 78.0411 51.1712C78.0411 51.476 78.1638 51.73 78.4094 51.9332C78.6634 52.1279 78.9893 52.2253 79.3873 52.2253C79.7852 52.2253 80.145 52.1364 80.4668 51.9586C80.797 51.7723 81.0552 51.5268 81.2415 51.222C81.4362 50.9087 81.5336 50.5616 81.5336 50.1806V49.1519C81.5336 48.6439 81.3769 48.229 81.0637 47.9073C80.7589 47.5771 80.344 47.412 79.8191 47.412C79.4211 47.412 79.0782 47.5094 78.7904 47.7041C78.5025 47.8904 78.2993 48.1655 78.1808 48.5296H78.0411L77.2029 48.2248C77.4061 47.6575 77.7363 47.2257 78.1935 46.9294C78.6507 46.6331 79.1968 46.4849 79.8318 46.4849C80.6869 46.4849 81.3431 46.7431 81.8003 47.2596C82.2575 47.7676 82.4861 48.4915 82.4861 49.4313V53H81.559V51.1585L81.8892 51.3998C81.7876 51.7385 81.6098 52.0433 81.3558 52.3142C81.1018 52.5767 80.8012 52.7841 80.4541 52.9365C80.1069 53.0804 79.7302 53.1524 79.3238 53.1524ZM84.388 53V43.856L85.3024 43.7417L85.3405 43.8433V53H84.388ZM92.6507 46.65V53H91.7236V51.1585L92.003 51.3998C91.893 51.7554 91.7109 52.0644 91.4569 52.3269C91.2114 52.5894 90.9151 52.7926 90.5679 52.9365C90.2208 53.0804 89.8525 53.1524 89.463 53.1524C89.0058 53.1524 88.5994 53.055 88.2438 52.8603C87.8967 52.6656 87.6215 52.3777 87.4183 51.9967C87.2151 51.6157 87.1135 51.1416 87.1135 50.5743V46.65H88.066V50.3584C88.066 50.8325 88.138 51.2051 88.2819 51.476C88.4259 51.7469 88.6206 51.9374 88.8661 52.0475C89.1117 52.1576 89.3826 52.2126 89.6789 52.2126C90.0345 52.2126 90.3647 52.1279 90.6695 51.9586C90.9743 51.7893 91.2199 51.5437 91.4061 51.222C91.6009 50.9003 91.6982 50.5193 91.6982 50.079V46.65H92.6507ZM97.1375 53.1524C96.5364 53.1524 96.003 53.0127 95.5373 52.7333C95.0716 52.4539 94.7076 52.0644 94.4451 51.5649C94.1826 51.0654 94.0514 50.4854 94.0514 49.825C94.0514 49.1646 94.1784 48.5846 94.4324 48.0851C94.6949 47.5856 95.0547 47.1961 95.5119 46.9167C95.9776 46.6373 96.511 46.4976 97.1121 46.4976C97.7048 46.4976 98.2212 46.6415 98.6615 46.9294C99.1102 47.2088 99.4616 47.6067 99.7156 48.1232C99.9696 48.6312 100.097 49.2239 100.097 49.9012V50.0155L99.9061 50.1933H94.6102V49.2662H99.5378L99.1187 49.444C99.0848 49.0207 98.9748 48.6608 98.7885 48.3645C98.6022 48.0597 98.3652 47.8269 98.0773 47.666C97.7894 47.5051 97.4677 47.4247 97.1121 47.4247C96.7226 47.4247 96.367 47.5221 96.0453 47.7168C95.7236 47.9031 95.4696 48.1698 95.2833 48.5169C95.097 48.864 95.0039 49.2662 95.0039 49.7234V49.8885C95.0039 50.3457 95.0928 50.7521 95.2706 51.1077C95.4569 51.4548 95.7109 51.73 96.0326 51.9332C96.3543 52.1279 96.7226 52.2253 97.1375 52.2253C97.5524 52.2253 97.908 52.1279 98.2043 51.9332C98.5006 51.7385 98.7335 51.4718 98.9028 51.1331H99.0425L99.8426 51.4887C99.6055 51.9967 99.2499 52.4031 98.7758 52.7079C98.3101 53.0042 97.764 53.1524 97.1375 53.1524ZM104.28 53V46.65H105.232V53H104.28ZM104.762 45.4054C104.568 45.4054 104.403 45.3377 104.267 45.2022C104.132 45.0667 104.064 44.9016 104.064 44.7069C104.064 44.5122 104.132 44.3471 104.267 44.2116C104.403 44.0761 104.568 44.0084 104.762 44.0084C104.957 44.0084 105.122 44.0761 105.258 44.2116C105.393 44.3471 105.461 44.5122 105.461 44.7069C105.461 44.9016 105.393 45.0667 105.258 45.2022C105.122 45.3377 104.957 45.4054 104.762 45.4054ZM109.04 53.1524C108.388 53.1524 107.838 52.9958 107.389 52.6825C106.941 52.3608 106.644 51.912 106.5 51.3363L107.377 51.1204L107.516 51.1458C107.61 51.4845 107.804 51.7512 108.101 51.9459C108.397 52.1322 108.744 52.2253 109.142 52.2253C109.54 52.2253 109.879 52.1364 110.158 51.9586C110.446 51.7723 110.59 51.531 110.59 51.2347C110.59 50.9892 110.505 50.7944 110.336 50.6505C110.175 50.4981 109.929 50.3838 109.599 50.3076L108.431 50.0409C107.838 49.9054 107.402 49.6895 107.123 49.3932C106.852 49.0884 106.716 48.7286 106.716 48.3137C106.716 47.9581 106.814 47.6448 107.008 47.3739C107.203 47.103 107.47 46.8913 107.808 46.7389C108.156 46.578 108.549 46.4976 108.99 46.4976C109.633 46.4976 110.175 46.6585 110.615 46.9802C111.055 47.3019 111.348 47.7549 111.491 48.3391L110.602 48.5296L110.463 48.5042C110.378 48.1571 110.192 47.8904 109.904 47.7041C109.625 47.5178 109.311 47.4247 108.964 47.4247C108.6 47.4247 108.295 47.5051 108.05 47.666C107.813 47.8269 107.694 48.0301 107.694 48.2756C107.694 48.4873 107.77 48.6651 107.923 48.809C108.084 48.9445 108.338 49.0503 108.685 49.1265L109.866 49.3932C110.45 49.5287 110.878 49.7446 111.149 50.0409C111.428 50.3372 111.568 50.714 111.568 51.1712C111.568 51.5776 111.458 51.929 111.237 52.2253C111.017 52.5216 110.717 52.7502 110.336 52.9111C109.963 53.072 109.531 53.1524 109.04 53.1524ZM117.71 53.1524C117.058 53.1524 116.507 52.9958 116.059 52.6825C115.61 52.3608 115.314 51.912 115.17 51.3363L116.046 51.1204L116.186 51.1458C116.279 51.4845 116.473 51.7512 116.77 51.9459C117.066 52.1322 117.413 52.2253 117.811 52.2253C118.209 52.2253 118.548 52.1364 118.827 51.9586C119.115 51.7723 119.259 51.531 119.259 51.2347C119.259 50.9892 119.174 50.7944 119.005 50.6505C118.844 50.4981 118.599 50.3838 118.268 50.3076L117.1 50.0409C116.507 49.9054 116.071 49.6895 115.792 49.3932C115.521 49.0884 115.386 48.7286 115.386 48.3137C115.386 47.9581 115.483 47.6448 115.678 47.3739C115.872 47.103 116.139 46.8913 116.478 46.7389C116.825 46.578 117.219 46.4976 117.659 46.4976C118.302 46.4976 118.844 46.6585 119.284 46.9802C119.725 47.3019 120.017 47.7549 120.161 48.3391L119.272 48.5296L119.132 48.5042C119.047 48.1571 118.861 47.8904 118.573 47.7041C118.294 47.5178 117.981 47.4247 117.633 47.4247C117.269 47.4247 116.965 47.5051 116.719 47.666C116.482 47.8269 116.363 48.0301 116.363 48.2756C116.363 48.4873 116.44 48.6651 116.592 48.809C116.753 48.9445 117.007 49.0503 117.354 49.1265L118.535 49.3932C119.119 49.5287 119.547 49.7446 119.818 50.0409C120.097 50.3372 120.237 50.714 120.237 51.1712C120.237 51.5776 120.127 51.929 119.907 52.2253C119.687 52.5216 119.386 52.7502 119.005 52.9111C118.632 53.072 118.201 53.1524 117.71 53.1524ZM122.001 51.6919V50.4346L125.912 46.65H127.043V46.7516L122.001 51.6919ZM121.62 53V43.856L122.534 43.7417L122.572 43.8433V53H121.62ZM125.989 53L123.639 49.6853L124.261 49.0503L127.043 52.8984V53H125.989ZM127.931 53V46.65H128.884V53H127.931ZM128.414 45.4054C128.219 45.4054 128.054 45.3377 127.918 45.2022C127.783 45.0667 127.715 44.9016 127.715 44.7069C127.715 44.5122 127.783 44.3471 127.918 44.2116C128.054 44.0761 128.219 44.0084 128.414 44.0084C128.608 44.0084 128.774 44.0761 128.909 44.2116C129.045 44.3471 129.112 44.5122 129.112 44.7069C129.112 44.9016 129.045 45.0667 128.909 45.2022C128.774 45.3377 128.608 45.4054 128.414 45.4054ZM133.835 53.1524C133.403 53.1524 133.005 53.0677 132.641 52.8984C132.277 52.7206 131.964 52.4751 131.701 52.1618C131.439 51.8485 131.244 51.4845 131.117 51.0696V48.5804C131.244 48.1571 131.439 47.793 131.701 47.4882C131.964 47.1749 132.277 46.9336 132.641 46.7643C133.005 46.5865 133.403 46.4976 133.835 46.4976C134.402 46.4976 134.91 46.6415 135.359 46.9294C135.807 47.2173 136.163 47.611 136.425 48.1105C136.696 48.61 136.832 49.1815 136.832 49.825C136.832 50.4685 136.696 51.04 136.425 51.5395C136.163 52.039 135.807 52.4327 135.359 52.7206C134.91 53.0085 134.402 53.1524 133.835 53.1524ZM130.66 55.54V46.65H131.587V49.0249L131.434 49.825L131.612 50.6251V55.54H130.66ZM133.797 52.2253C134.203 52.2253 134.563 52.1237 134.876 51.9205C135.189 51.7173 135.435 51.4379 135.613 51.0823C135.79 50.7182 135.879 50.2991 135.879 49.825C135.879 49.3509 135.79 48.936 135.613 48.5804C135.435 48.2163 135.189 47.9327 134.876 47.7295C134.563 47.5263 134.203 47.4247 133.797 47.4247C133.382 47.4247 133.009 47.5263 132.679 47.7295C132.349 47.9327 132.086 48.2163 131.892 48.5804C131.705 48.936 131.612 49.3509 131.612 49.825C131.612 50.2991 131.705 50.7182 131.892 51.0823C132.086 51.4379 132.349 51.7173 132.679 51.9205C133.009 52.1237 133.382 52.2253 133.797 52.2253ZM141.4 53.1524C140.968 53.1524 140.57 53.0677 140.206 52.8984C139.842 52.7206 139.529 52.4751 139.266 52.1618C139.004 51.8485 138.809 51.4845 138.682 51.0696V48.5804C138.809 48.1571 139.004 47.793 139.266 47.4882C139.529 47.1749 139.842 46.9336 140.206 46.7643C140.57 46.5865 140.968 46.4976 141.4 46.4976C141.967 46.4976 142.475 46.6415 142.924 46.9294C143.373 47.2173 143.728 47.611 143.991 48.1105C144.262 48.61 144.397 49.1815 144.397 49.825C144.397 50.4685 144.262 51.04 143.991 51.5395C143.728 52.039 143.373 52.4327 142.924 52.7206C142.475 53.0085 141.967 53.1524 141.4 53.1524ZM138.225 55.54V46.65H139.152V49.0249L139 49.825L139.178 50.6251V55.54H138.225ZM141.362 52.2253C141.768 52.2253 142.128 52.1237 142.441 51.9205C142.755 51.7173 143 51.4379 143.178 51.0823C143.356 50.7182 143.445 50.2991 143.445 49.825C143.445 49.3509 143.356 48.936 143.178 48.5804C143 48.2163 142.755 47.9327 142.441 47.7295C142.128 47.5263 141.768 47.4247 141.362 47.4247C140.947 47.4247 140.575 47.5263 140.244 47.7295C139.914 47.9327 139.652 48.2163 139.457 48.5804C139.271 48.936 139.178 49.3509 139.178 49.825C139.178 50.2991 139.271 50.7182 139.457 51.0823C139.652 51.4379 139.914 51.7173 140.244 51.9205C140.575 52.1237 140.947 52.2253 141.362 52.2253ZM148.496 53.1524C147.894 53.1524 147.361 53.0127 146.895 52.7333C146.43 52.4539 146.066 52.0644 145.803 51.5649C145.541 51.0654 145.41 50.4854 145.41 49.825C145.41 49.1646 145.537 48.5846 145.791 48.0851C146.053 47.5856 146.413 47.1961 146.87 46.9167C147.336 46.6373 147.869 46.4976 148.47 46.4976C149.063 46.4976 149.579 46.6415 150.02 46.9294C150.468 47.2088 150.82 47.6067 151.074 48.1232C151.328 48.6312 151.455 49.2239 151.455 49.9012V50.0155L151.264 50.1933H145.968V49.2662H150.896L150.477 49.444C150.443 49.0207 150.333 48.6608 150.147 48.3645C149.96 48.0597 149.723 47.8269 149.435 47.666C149.148 47.5051 148.826 47.4247 148.47 47.4247C148.081 47.4247 147.725 47.5221 147.403 47.7168C147.082 47.9031 146.828 48.1698 146.641 48.5169C146.455 48.864 146.362 49.2662 146.362 49.7234V49.8885C146.362 50.3457 146.451 50.7521 146.629 51.1077C146.815 51.4548 147.069 51.73 147.391 51.9332C147.712 52.1279 148.081 52.2253 148.496 52.2253C148.91 52.2253 149.266 52.1279 149.562 51.9332C149.859 51.7385 150.092 51.4718 150.261 51.1331H150.401L151.201 51.4887C150.964 51.9967 150.608 52.4031 150.134 52.7079C149.668 53.0042 149.122 53.1524 148.496 53.1524ZM155.464 53.1524C154.905 53.1524 154.397 53.0085 153.94 52.7206C153.491 52.4327 153.131 52.039 152.86 51.5395C152.598 51.04 152.466 50.4685 152.466 49.825C152.466 49.1815 152.598 48.61 152.86 48.1105C153.131 47.611 153.491 47.2173 153.94 46.9294C154.397 46.6415 154.905 46.4976 155.464 46.4976C155.895 46.4976 156.293 46.5865 156.657 46.7643C157.022 46.9336 157.335 47.1749 157.597 47.4882C157.86 47.793 158.054 48.1571 158.181 48.5804V51.0696C158.054 51.4845 157.86 51.8485 157.597 52.1618C157.335 52.4751 157.022 52.7206 156.657 52.8984C156.293 53.0677 155.895 53.1524 155.464 53.1524ZM155.502 52.2253C155.925 52.2253 156.298 52.1237 156.619 51.9205C156.95 51.7173 157.208 51.4379 157.394 51.0823C157.589 50.7182 157.686 50.2991 157.686 49.825C157.686 49.3509 157.589 48.936 157.394 48.5804C157.208 48.2163 156.95 47.9327 156.619 47.7295C156.298 47.5263 155.925 47.4247 155.502 47.4247C155.104 47.4247 154.744 47.5263 154.422 47.7295C154.109 47.9327 153.863 48.2163 153.686 48.5804C153.508 48.936 153.419 49.3509 153.419 49.825C153.419 50.2991 153.508 50.7182 153.686 51.0823C153.863 51.4379 154.109 51.7173 154.422 51.9205C154.744 52.1237 155.104 52.2253 155.502 52.2253ZM157.712 53V50.6251L157.864 49.825L157.686 49.0249V43.856L158.601 43.7417L158.639 43.8433V53H157.712Z" fill="black"/>
<path d="M218.727 31V22.11H219.68V31H218.727ZM219.273 27.3678V26.428H221.953C222.486 26.428 222.905 26.2798 223.21 25.9835C223.515 25.6787 223.667 25.2638 223.667 24.7389H224.696C224.696 25.5348 224.446 26.174 223.947 26.6566C223.447 27.1307 222.783 27.3678 221.953 27.3678H219.273ZM223.667 24.7389C223.667 24.214 223.515 23.8033 223.21 23.507C222.905 23.2022 222.486 23.0498 221.953 23.0498H219.273V22.11H221.953C222.783 22.11 223.447 22.3471 223.947 22.8212C224.446 23.2953 224.696 23.9346 224.696 24.7389H223.667ZM223.718 31L221.521 27.1392L222.385 26.7328L224.76 30.8984V31H223.718ZM228.61 31.1524C228.009 31.1524 227.476 31.0127 227.01 30.7333C226.544 30.4539 226.18 30.0644 225.918 29.5649C225.655 29.0654 225.524 28.4854 225.524 27.825C225.524 27.1646 225.651 26.5846 225.905 26.0851C226.167 25.5856 226.527 25.1961 226.985 24.9167C227.45 24.6373 227.984 24.4976 228.585 24.4976C229.177 24.4976 229.694 24.6415 230.134 24.9294C230.583 25.2088 230.934 25.6067 231.188 26.1232C231.442 26.6312 231.569 27.2239 231.569 27.9012V28.0155L231.379 28.1933H226.083V27.2662H231.01L230.591 27.444C230.557 27.0207 230.447 26.6608 230.261 26.3645C230.075 26.0597 229.838 25.8269 229.55 25.666C229.262 25.5051 228.94 25.4247 228.585 25.4247C228.195 25.4247 227.84 25.5221 227.518 25.7168C227.196 25.9031 226.942 26.1698 226.756 26.5169C226.57 26.864 226.477 27.2662 226.477 27.7234V27.8885C226.477 28.3457 226.565 28.7521 226.743 29.1077C226.929 29.4548 227.183 29.73 227.505 29.9332C227.827 30.1279 228.195 30.2253 228.61 30.2253C229.025 30.2253 229.381 30.1279 229.677 29.9332C229.973 29.7385 230.206 29.4718 230.375 29.1331H230.515L231.315 29.4887C231.078 29.9967 230.723 30.4031 230.248 30.7079C229.783 31.0042 229.237 31.1524 228.61 31.1524ZM234.921 33.54C234.099 33.54 233.46 33.3707 233.003 33.032C232.554 32.6933 232.33 32.2361 232.33 31.6604C232.33 31.3048 232.415 30.9873 232.584 30.7079C232.762 30.4285 233.02 30.2126 233.359 30.0602L233.854 30.5809C233.668 30.6656 233.519 30.7926 233.409 30.9619C233.308 31.1228 233.257 31.3006 233.257 31.4953C233.257 31.834 233.397 32.1091 233.676 32.3208C233.964 32.5409 234.353 32.651 234.845 32.651H235.721C236.229 32.651 236.631 32.5621 236.927 32.3843C237.224 32.2065 237.372 31.9483 237.372 31.6096C237.372 31.3641 237.274 31.1693 237.08 31.0254C236.893 30.8815 236.614 30.8095 236.242 30.8095H234.476C234.146 30.8095 233.845 30.7502 233.575 30.6317C233.312 30.5132 233.1 30.3481 232.94 30.1364C232.787 29.9247 232.711 29.675 232.711 29.3871C232.711 29.1162 232.787 28.8664 232.94 28.6378C233.1 28.4007 233.359 28.2187 233.714 28.0917L234.235 28.587C234.006 28.6378 233.845 28.7267 233.752 28.8537C233.659 28.9807 233.613 29.1246 233.613 29.2855C233.613 29.4972 233.693 29.6623 233.854 29.7808C234.023 29.8909 234.248 29.9459 234.527 29.9459H236.242C236.868 29.9459 237.363 30.1025 237.727 30.4158C238.1 30.7206 238.286 31.1228 238.286 31.6223C238.286 32.215 238.053 32.6806 237.588 33.0193C237.122 33.3664 236.5 33.54 235.721 33.54H234.921ZM235.353 29.0188C234.861 29.0188 234.425 28.9257 234.044 28.7394C233.672 28.5447 233.38 28.278 233.168 27.9393C232.956 27.5922 232.851 27.1985 232.851 26.7582C232.851 26.3095 232.956 25.9158 233.168 25.5771C233.38 25.2384 233.672 24.976 234.044 24.7897C234.425 24.595 234.861 24.4976 235.353 24.4976C235.852 24.4976 236.288 24.595 236.661 24.7897C237.033 24.976 237.325 25.2384 237.537 25.5771C237.749 25.9158 237.854 26.3095 237.854 26.7582C237.854 27.1985 237.749 27.5922 237.537 27.9393C237.325 28.278 237.033 28.5447 236.661 28.7394C236.288 28.9257 235.852 29.0188 235.353 29.0188ZM235.353 28.1552C235.827 28.1552 236.208 28.0282 236.496 27.7742C236.792 27.5117 236.94 27.1731 236.94 26.7582C236.94 26.3433 236.792 26.0089 236.496 25.7549C236.208 25.4924 235.827 25.3612 235.353 25.3612C234.878 25.3612 234.493 25.4924 234.197 25.7549C233.909 26.0089 233.765 26.3433 233.765 26.7582C233.765 27.1731 233.909 27.5117 234.197 27.7742C234.493 28.0282 234.878 28.1552 235.353 28.1552ZM237.054 25.412L236.419 24.9675C236.419 24.6458 236.487 24.3621 236.623 24.1166C236.758 23.8626 236.936 23.6636 237.156 23.5197C237.385 23.3758 237.639 23.3038 237.918 23.3038C237.977 23.3038 238.045 23.308 238.121 23.3165C238.197 23.3165 238.257 23.325 238.299 23.3419V24.2309L238.235 24.3706C238.151 24.3452 238.053 24.3325 237.943 24.3325C237.647 24.3325 237.423 24.4341 237.27 24.6373C237.126 24.832 237.054 25.0903 237.054 25.412ZM242.017 31.1524C241.416 31.1524 240.883 31.0127 240.417 30.7333C239.951 30.4539 239.587 30.0644 239.325 29.5649C239.062 29.0654 238.931 28.4854 238.931 27.825C238.931 27.1646 239.058 26.5846 239.312 26.0851C239.574 25.5856 239.934 25.1961 240.391 24.9167C240.857 24.6373 241.391 24.4976 241.992 24.4976C242.584 24.4976 243.101 24.6415 243.541 24.9294C243.99 25.2088 244.341 25.6067 244.595 26.1232C244.849 26.6312 244.976 27.2239 244.976 27.9012V28.0155L244.786 28.1933H239.49V27.2662H244.417L243.998 27.444C243.964 27.0207 243.854 26.6608 243.668 26.3645C243.482 26.0597 243.245 25.8269 242.957 25.666C242.669 25.5051 242.347 25.4247 241.992 25.4247C241.602 25.4247 241.247 25.5221 240.925 25.7168C240.603 25.9031 240.349 26.1698 240.163 26.5169C239.977 26.864 239.883 27.2662 239.883 27.7234V27.8885C239.883 28.3457 239.972 28.7521 240.15 29.1077C240.336 29.4548 240.59 29.73 240.912 29.9332C241.234 30.1279 241.602 30.2253 242.017 30.2253C242.432 30.2253 242.788 30.1279 243.084 29.9332C243.38 29.7385 243.613 29.4718 243.782 29.1331H243.922L244.722 29.4887C244.485 29.9967 244.129 30.4031 243.655 30.7079C243.19 31.0042 242.644 31.1524 242.017 31.1524ZM250.001 31L245.543 24.7516V24.65H246.623L251.081 30.8984V31H250.001ZM245.543 31V30.8984L248.058 27.3932L248.642 28.1298L246.623 31H245.543ZM248.718 28.1552L248.134 27.3932L250.039 24.65H251.081V24.7516L248.718 28.1552ZM254.827 31V24.65H255.78V31H254.827ZM255.31 23.4054C255.115 23.4054 254.95 23.3377 254.815 23.2022C254.679 23.0667 254.611 22.9016 254.611 22.7069C254.611 22.5122 254.679 22.3471 254.815 22.2116C254.95 22.0761 255.115 22.0084 255.31 22.0084C255.505 22.0084 255.67 22.0761 255.805 22.2116C255.941 22.3471 256.008 22.5122 256.008 22.7069C256.008 22.9016 255.941 23.0667 255.805 23.2022C255.67 23.3377 255.505 23.4054 255.31 23.4054ZM259.588 31.1524C258.936 31.1524 258.386 30.9958 257.937 30.6825C257.488 30.3608 257.192 29.912 257.048 29.3363L257.924 29.1204L258.064 29.1458C258.157 29.4845 258.352 29.7512 258.648 29.9459C258.944 30.1322 259.291 30.2253 259.689 30.2253C260.087 30.2253 260.426 30.1364 260.705 29.9586C260.993 29.7723 261.137 29.531 261.137 29.2347C261.137 28.9892 261.053 28.7944 260.883 28.6505C260.722 28.4981 260.477 28.3838 260.147 28.3076L258.978 28.0409C258.386 27.9054 257.949 27.6895 257.67 27.3932C257.399 27.0884 257.264 26.7286 257.264 26.3137C257.264 25.9581 257.361 25.6448 257.556 25.3739C257.751 25.103 258.017 24.8913 258.356 24.7389C258.703 24.578 259.097 24.4976 259.537 24.4976C260.18 24.4976 260.722 24.6585 261.163 24.9802C261.603 25.3019 261.895 25.7549 262.039 26.3391L261.15 26.5296L261.01 26.5042C260.926 26.1571 260.739 25.8904 260.451 25.7041C260.172 25.5178 259.859 25.4247 259.512 25.4247C259.148 25.4247 258.843 25.5051 258.597 25.666C258.36 25.8269 258.242 26.0301 258.242 26.2756C258.242 26.4873 258.318 26.6651 258.47 26.809C258.631 26.9445 258.885 27.0503 259.232 27.1265L260.413 27.3932C260.997 27.5287 261.425 27.7446 261.696 28.0409C261.975 28.3372 262.115 28.714 262.115 29.1712C262.115 29.5776 262.005 29.929 261.785 30.2253C261.565 30.5216 261.264 30.7502 260.883 30.9111C260.511 31.072 260.079 31.1524 259.588 31.1524ZM269.006 31.1524C268.388 31.1524 267.838 31.0127 267.355 30.7333C266.881 30.4539 266.509 30.0644 266.238 29.5649C265.975 29.0654 265.844 28.4854 265.844 27.825C265.844 27.1646 265.975 26.5846 266.238 26.0851C266.509 25.5856 266.881 25.1961 267.355 24.9167C267.838 24.6373 268.388 24.4976 269.006 24.4976C269.48 24.4976 269.908 24.5865 270.289 24.7643C270.67 24.9336 270.996 25.1792 271.267 25.5009C271.546 25.8142 271.754 26.1909 271.889 26.6312L271.038 26.8725H270.899C270.746 26.4238 270.505 26.0724 270.175 25.8184C269.845 25.5559 269.455 25.4247 269.006 25.4247C268.558 25.4247 268.168 25.5263 267.838 25.7295C267.508 25.9327 267.25 26.2163 267.063 26.5804C266.885 26.936 266.797 27.3509 266.797 27.825C266.797 28.2907 266.885 28.7055 267.063 29.0696C267.25 29.4337 267.508 29.7173 267.838 29.9205C268.168 30.1237 268.558 30.2253 269.006 30.2253C269.32 30.2253 269.599 30.1703 269.845 30.0602C270.099 29.9417 270.319 29.7766 270.505 29.5649C270.691 29.3448 270.839 29.0823 270.949 28.7775H271.089L271.94 29.0188C271.788 29.4675 271.568 29.8528 271.28 30.1745C271 30.4962 270.67 30.7418 270.289 30.9111C269.908 31.072 269.48 31.1524 269.006 31.1524ZM276.013 31.1524C275.403 31.1524 274.861 31.0127 274.387 30.7333C273.922 30.4539 273.553 30.0644 273.282 29.5649C273.02 29.0654 272.889 28.4854 272.889 27.825C272.889 27.1646 273.02 26.5846 273.282 26.0851C273.553 25.5856 273.922 25.1961 274.387 24.9167C274.861 24.6373 275.403 24.4976 276.013 24.4976C276.631 24.4976 277.173 24.6373 277.638 24.9167C278.104 25.1961 278.468 25.5856 278.731 26.0851C279.002 26.5846 279.137 27.1646 279.137 27.825C279.137 28.4854 279.002 29.0654 278.731 29.5649C278.468 30.0644 278.104 30.4539 277.638 30.7333C277.173 31.0127 276.631 31.1524 276.013 31.1524ZM276.013 30.2253C276.436 30.2253 276.809 30.1279 277.13 29.9332C277.461 29.73 277.719 29.4506 277.905 29.095C278.091 28.7309 278.184 28.3076 278.184 27.825C278.184 27.3339 278.091 26.9106 277.905 26.555C277.719 26.1994 277.461 25.9242 277.13 25.7295C276.809 25.5263 276.436 25.4247 276.013 25.4247C275.589 25.4247 275.213 25.5263 274.882 25.7295C274.561 25.9242 274.307 26.1994 274.12 26.555C273.934 26.9106 273.841 27.3339 273.841 27.825C273.841 28.3076 273.934 28.7309 274.12 29.095C274.307 29.4506 274.561 29.73 274.882 29.9332C275.213 30.1279 275.589 30.2253 276.013 30.2253ZM280.537 31V24.65H281.464V26.4915L281.185 26.2502C281.295 25.8946 281.477 25.5856 281.731 25.3231C281.985 25.0606 282.281 24.8574 282.62 24.7135C282.959 24.5696 283.306 24.4976 283.662 24.4976C284.22 24.4976 284.699 24.6585 285.097 24.9802C285.503 25.2935 285.766 25.7507 285.884 26.3518H285.452C285.554 25.9793 285.732 25.6575 285.986 25.3866C286.24 25.1072 286.549 24.8913 286.913 24.7389C287.285 24.578 287.687 24.4976 288.119 24.4976C288.56 24.4976 288.949 24.595 289.288 24.7897C289.635 24.9844 289.906 25.2723 290.1 25.6533C290.304 26.0343 290.405 26.5084 290.405 27.0757V31H289.453V27.2916C289.453 26.809 289.381 26.4365 289.237 26.174C289.093 25.9031 288.902 25.7126 288.665 25.6025C288.437 25.4924 288.183 25.4374 287.903 25.4374C287.599 25.4374 287.294 25.5178 286.989 25.6787C286.693 25.8396 286.443 26.0809 286.24 26.4026C286.045 26.7159 285.948 27.1053 285.948 27.571V31H284.995V27.2916C284.995 26.809 284.923 26.4365 284.779 26.174C284.635 25.9031 284.445 25.7126 284.208 25.6025C283.979 25.4924 283.725 25.4374 283.446 25.4374C283.141 25.4374 282.836 25.5221 282.531 25.6914C282.235 25.8523 281.985 26.0936 281.782 26.4153C281.587 26.7286 281.49 27.1138 281.49 27.571V31H280.537ZM295.296 31.1524C294.864 31.1524 294.466 31.0677 294.102 30.8984C293.738 30.7206 293.425 30.4751 293.163 30.1618C292.9 29.8485 292.705 29.4845 292.578 29.0696V26.5804C292.705 26.1571 292.9 25.793 293.163 25.4882C293.425 25.1749 293.738 24.9336 294.102 24.7643C294.466 24.5865 294.864 24.4976 295.296 24.4976C295.863 24.4976 296.371 24.6415 296.82 24.9294C297.269 25.2173 297.624 25.611 297.887 26.1105C298.158 26.61 298.293 27.1815 298.293 27.825C298.293 28.4685 298.158 29.04 297.887 29.5395C297.624 30.039 297.269 30.4327 296.82 30.7206C296.371 31.0085 295.863 31.1524 295.296 31.1524ZM292.121 33.54V24.65H293.048V27.0249L292.896 27.825L293.074 28.6251V33.54H292.121ZM295.258 30.2253C295.664 30.2253 296.024 30.1237 296.338 29.9205C296.651 29.7173 296.896 29.4379 297.074 29.0823C297.252 28.7182 297.341 28.2991 297.341 27.825C297.341 27.3509 297.252 26.936 297.074 26.5804C296.896 26.2163 296.651 25.9327 296.338 25.7295C296.024 25.5263 295.664 25.4247 295.258 25.4247C294.843 25.4247 294.471 25.5263 294.14 25.7295C293.81 25.9327 293.548 26.2163 293.353 26.5804C293.167 26.936 293.074 27.3509 293.074 27.825C293.074 28.2991 293.167 28.7182 293.353 29.0823C293.548 29.4379 293.81 29.7173 294.14 29.9205C294.471 30.1237 294.843 30.2253 295.258 30.2253ZM305.16 24.65V31H304.233V29.1585L304.513 29.3998C304.402 29.7554 304.22 30.0644 303.966 30.3269C303.721 30.5894 303.425 30.7926 303.077 30.9365C302.73 31.0804 302.362 31.1524 301.973 31.1524C301.515 31.1524 301.109 31.055 300.753 30.8603C300.406 30.6656 300.131 30.3777 299.928 29.9967C299.725 29.6157 299.623 29.1416 299.623 28.5743V24.65H300.576V28.3584C300.576 28.8325 300.648 29.2051 300.791 29.476C300.935 29.7469 301.13 29.9374 301.376 30.0475C301.621 30.1576 301.892 30.2126 302.188 30.2126C302.544 30.2126 302.874 30.1279 303.179 29.9586C303.484 29.7893 303.729 29.5437 303.916 29.222C304.11 28.9003 304.208 28.5193 304.208 28.079V24.65H305.16ZM309.266 31C308.741 31 308.309 30.8307 307.971 30.492C307.632 30.1533 307.463 29.6961 307.463 29.1204V22.9228H308.415V29.0569C308.415 29.4294 308.491 29.6919 308.644 29.8443C308.805 29.9967 309.067 30.0729 309.431 30.0729H310.219L310.282 30.2126V31H309.266ZM306.37 25.5771V24.65H310.282V25.5771H306.37ZM314.199 31.1524C313.598 31.1524 313.064 31.0127 312.598 30.7333C312.133 30.4539 311.769 30.0644 311.506 29.5649C311.244 29.0654 311.113 28.4854 311.113 27.825C311.113 27.1646 311.24 26.5846 311.494 26.0851C311.756 25.5856 312.116 25.1961 312.573 24.9167C313.039 24.6373 313.572 24.4976 314.173 24.4976C314.766 24.4976 315.282 24.6415 315.723 24.9294C316.171 25.2088 316.523 25.6067 316.777 26.1232C317.031 26.6312 317.158 27.2239 317.158 27.9012V28.0155L316.967 28.1933H311.671V27.2662H316.599L316.18 27.444C316.146 27.0207 316.036 26.6608 315.85 26.3645C315.663 26.0597 315.426 25.8269 315.138 25.666C314.851 25.5051 314.529 25.4247 314.173 25.4247C313.784 25.4247 313.428 25.5221 313.106 25.7168C312.785 25.9031 312.531 26.1698 312.344 26.5169C312.158 26.864 312.065 27.2662 312.065 27.7234V27.8885C312.065 28.3457 312.154 28.7521 312.332 29.1077C312.518 29.4548 312.772 29.73 313.094 29.9332C313.416 30.1279 313.784 30.2253 314.199 30.2253C314.614 30.2253 314.969 30.1279 315.265 29.9332C315.562 29.7385 315.795 29.4718 315.964 29.1331H316.104L316.904 29.4887C316.667 29.9967 316.311 30.4031 315.837 30.7079C315.371 31.0042 314.825 31.1524 314.199 31.1524ZM321.167 31.1524C320.608 31.1524 320.1 31.0085 319.643 30.7206C319.194 30.4327 318.834 30.039 318.563 29.5395C318.301 29.04 318.17 28.4685 318.17 27.825C318.17 27.1815 318.301 26.61 318.563 26.1105C318.834 25.611 319.194 25.2173 319.643 24.9294C320.1 24.6415 320.608 24.4976 321.167 24.4976C321.599 24.4976 321.996 24.5865 322.361 24.7643C322.725 24.9336 323.038 25.1749 323.3 25.4882C323.563 25.793 323.758 26.1571 323.885 26.5804V29.0696C323.758 29.4845 323.563 29.8485 323.3 30.1618C323.038 30.4751 322.725 30.7206 322.361 30.8984C321.996 31.0677 321.599 31.1524 321.167 31.1524ZM321.205 30.2253C321.628 30.2253 322.001 30.1237 322.322 29.9205C322.653 29.7173 322.911 29.4379 323.097 29.0823C323.292 28.7182 323.389 28.2991 323.389 27.825C323.389 27.3509 323.292 26.936 323.097 26.5804C322.911 26.2163 322.653 25.9327 322.322 25.7295C322.001 25.5263 321.628 25.4247 321.205 25.4247C320.807 25.4247 320.447 25.5263 320.125 25.7295C319.812 25.9327 319.567 26.2163 319.389 26.5804C319.211 26.936 319.122 27.3509 319.122 27.825C319.122 28.2991 319.211 28.7182 319.389 29.0823C319.567 29.4379 319.812 29.7173 320.125 29.9205C320.447 30.1237 320.807 30.2253 321.205 30.2253ZM323.415 31V28.6251L323.567 27.825L323.389 27.0249V21.856L324.304 21.7417L324.342 21.8433V31H323.415ZM220.456 53.1524C219.847 53.1524 219.305 53.0127 218.831 52.7333C218.365 52.4539 217.997 52.0644 217.726 51.5649C217.464 51.0654 217.332 50.4854 217.332 49.825C217.332 49.1646 217.464 48.5846 217.726 48.0851C217.997 47.5856 218.365 47.1961 218.831 46.9167C219.305 46.6373 219.847 46.4976 220.456 46.4976C221.075 46.4976 221.616 46.6373 222.082 46.9167C222.548 47.1961 222.912 47.5856 223.174 48.0851C223.445 48.5846 223.581 49.1646 223.581 49.825C223.581 50.4854 223.445 51.0654 223.174 51.5649C222.912 52.0644 222.548 52.4539 222.082 52.7333C221.616 53.0127 221.075 53.1524 220.456 53.1524ZM220.456 52.2253C220.88 52.2253 221.252 52.1279 221.574 51.9332C221.904 51.73 222.163 51.4506 222.349 51.095C222.535 50.7309 222.628 50.3076 222.628 49.825C222.628 49.3339 222.535 48.9106 222.349 48.555C222.163 48.1994 221.904 47.9242 221.574 47.7295C221.252 47.5263 220.88 47.4247 220.456 47.4247C220.033 47.4247 219.656 47.5263 219.326 47.7295C219.004 47.9242 218.75 48.1994 218.564 48.555C218.378 48.9106 218.285 49.3339 218.285 49.825C218.285 50.3076 218.378 50.7309 218.564 51.095C218.75 51.4506 219.004 51.73 219.326 51.9332C219.656 52.1279 220.033 52.2253 220.456 52.2253ZM224.981 53V46.65H225.908V48.4915L225.629 48.2502C225.739 47.8946 225.921 47.5856 226.175 47.3231C226.429 47.0606 226.725 46.8574 227.064 46.7135C227.411 46.5696 227.779 46.4976 228.169 46.4976C228.626 46.4976 229.032 46.595 229.388 46.7897C229.744 46.9844 230.019 47.2723 230.213 47.6533C230.417 48.0343 230.518 48.5084 230.518 49.0757V53H229.566V49.2916C229.566 48.809 229.494 48.4365 229.35 48.174C229.206 47.9031 229.011 47.7126 228.766 47.6025C228.529 47.4924 228.258 47.4374 227.953 47.4374C227.606 47.4374 227.276 47.5221 226.962 47.6914C226.657 47.8607 226.408 48.1063 226.213 48.428C226.027 48.7413 225.934 49.1223 225.934 49.571V53H224.981ZM232.424 53V43.856L233.338 43.7417L233.376 43.8433V53H232.424ZM235.988 55.54V55.4384L237.016 53L237.347 52.3015L239.645 46.65H240.636V46.7516L236.953 55.54H235.988ZM237.029 53L234.451 46.7516V46.65H235.442L237.613 52.0348V53H237.029ZM246.062 53.1524C245.631 53.1524 245.241 53.0677 244.894 52.8984C244.555 52.7291 244.289 52.4962 244.094 52.1999C243.899 51.9036 243.802 51.5607 243.802 51.1712C243.802 50.6209 243.997 50.1764 244.386 49.8377C244.784 49.4906 245.33 49.2916 246.024 49.2408L248.463 49.063V49.952L246.24 50.1171C245.749 50.151 245.381 50.2568 245.135 50.4346C244.898 50.6124 244.78 50.8579 244.78 51.1712C244.78 51.476 244.903 51.73 245.148 51.9332C245.402 52.1279 245.728 52.2253 246.126 52.2253C246.524 52.2253 246.884 52.1364 247.205 51.9586C247.536 51.7723 247.794 51.5268 247.98 51.222C248.175 50.9087 248.272 50.5616 248.272 50.1806V49.1519C248.272 48.6439 248.116 48.229 247.802 47.9073C247.498 47.5771 247.083 47.412 246.558 47.412C246.16 47.412 245.817 47.5094 245.529 47.7041C245.241 47.8904 245.038 48.1655 244.919 48.5296H244.78L243.942 48.2248C244.145 47.6575 244.475 47.2257 244.932 46.9294C245.389 46.6331 245.935 46.4849 246.57 46.4849C247.426 46.4849 248.082 46.7431 248.539 47.2596C248.996 47.7676 249.225 48.4915 249.225 49.4313V53H248.298V51.1585L248.628 51.3998C248.526 51.7385 248.348 52.0433 248.094 52.3142C247.84 52.5767 247.54 52.7841 247.193 52.9365C246.846 53.0804 246.469 53.1524 246.062 53.1524ZM251.46 53V45.7356C251.46 45.1599 251.629 44.7027 251.968 44.364C252.307 44.0253 252.738 43.856 253.263 43.856H253.962V44.6434L253.898 44.7831H253.428C253.064 44.7831 252.802 44.8593 252.641 45.0117C252.489 45.1641 252.412 45.4266 252.412 45.7991V53H251.46ZM250.368 47.5771V46.65H253.962V47.5771H250.368ZM257.43 53C256.906 53 256.474 52.8307 256.135 52.492C255.796 52.1533 255.627 51.6961 255.627 51.1204V44.9228H256.58V51.0569C256.58 51.4294 256.656 51.6919 256.808 51.8443C256.969 51.9967 257.231 52.0729 257.596 52.0729H258.383L258.446 52.2126V53H257.43ZM254.535 47.5771V46.65H258.446V47.5771H254.535ZM262.363 53.1524C261.762 53.1524 261.229 53.0127 260.763 52.7333C260.297 52.4539 259.933 52.0644 259.671 51.5649C259.408 51.0654 259.277 50.4854 259.277 49.825C259.277 49.1646 259.404 48.5846 259.658 48.0851C259.92 47.5856 260.28 47.1961 260.737 46.9167C261.203 46.6373 261.737 46.4976 262.338 46.4976C262.93 46.4976 263.447 46.6415 263.887 46.9294C264.336 47.2088 264.687 47.6067 264.941 48.1232C265.195 48.6312 265.322 49.2239 265.322 49.9012V50.0155L265.132 50.1933H259.836V49.2662H264.763L264.344 49.444C264.31 49.0207 264.2 48.6608 264.014 48.3645C263.828 48.0597 263.591 47.8269 263.303 47.666C263.015 47.5051 262.693 47.4247 262.338 47.4247C261.948 47.4247 261.593 47.5221 261.271 47.7168C260.949 47.9031 260.695 48.1698 260.509 48.5169C260.323 48.864 260.229 49.2662 260.229 49.7234V49.8885C260.229 50.3457 260.318 50.7521 260.496 51.1077C260.682 51.4548 260.936 51.73 261.258 51.9332C261.58 52.1279 261.948 52.2253 262.363 52.2253C262.778 52.2253 263.134 52.1279 263.43 51.9332C263.726 51.7385 263.959 51.4718 264.128 51.1331H264.268L265.068 51.4887C264.831 51.9967 264.476 52.4031 264.001 52.7079C263.536 53.0042 262.99 53.1524 262.363 53.1524ZM266.715 53V46.65H267.642V48.4915L267.363 48.2502C267.507 47.7591 267.782 47.3697 268.188 47.0818C268.603 46.7939 269.069 46.65 269.585 46.65H270.246V47.5771H269.433C269.086 47.5771 268.777 47.6618 268.506 47.8311C268.243 48.0004 268.036 48.2333 267.883 48.5296C267.739 48.8259 267.667 49.1731 267.667 49.571V53H266.715ZM275.997 53C275.472 53 275.04 52.8307 274.701 52.492C274.363 52.1533 274.193 51.6961 274.193 51.1204V44.9228H275.146V51.0569C275.146 51.4294 275.222 51.6919 275.374 51.8443C275.535 51.9967 275.798 52.0729 276.162 52.0729H276.949L277.013 52.2126V53H275.997ZM273.101 47.5771V46.65H277.013V47.5771H273.101ZM278.536 53V43.856L279.45 43.7417L279.488 43.8433V48.4915L279.184 48.2502C279.294 47.8946 279.476 47.5856 279.73 47.3231C279.984 47.0606 280.28 46.8574 280.619 46.7135C280.966 46.5696 281.334 46.4976 281.724 46.4976C282.181 46.4976 282.587 46.595 282.943 46.7897C283.298 46.9844 283.574 47.2723 283.768 47.6533C283.971 48.0343 284.073 48.5084 284.073 49.0757V53H283.121V49.2916C283.121 48.809 283.049 48.4365 282.905 48.174C282.761 47.9031 282.566 47.7126 282.32 47.6025C282.083 47.4924 281.812 47.4374 281.508 47.4374C281.161 47.4374 280.83 47.5221 280.517 47.6914C280.212 47.8607 279.962 48.1063 279.768 48.428C279.581 48.7413 279.488 49.1223 279.488 49.571V53H278.536ZM285.79 53V46.65H286.742V53H285.79ZM286.272 45.4054C286.078 45.4054 285.912 45.3377 285.777 45.2022C285.642 45.0667 285.574 44.9016 285.574 44.7069C285.574 44.5122 285.642 44.3471 285.777 44.2116C285.912 44.0761 286.078 44.0084 286.272 44.0084C286.467 44.0084 286.632 44.0761 286.768 44.2116C286.903 44.3471 286.971 44.5122 286.971 44.7069C286.971 44.9016 286.903 45.0667 286.768 45.2022C286.632 45.3377 286.467 45.4054 286.272 45.4054ZM290.55 53.1524C289.898 53.1524 289.348 52.9958 288.899 52.6825C288.451 52.3608 288.154 51.912 288.01 51.3363L288.887 51.1204L289.026 51.1458C289.119 51.4845 289.314 51.7512 289.61 51.9459C289.907 52.1322 290.254 52.2253 290.652 52.2253C291.05 52.2253 291.388 52.1364 291.668 51.9586C291.956 51.7723 292.1 51.531 292.1 51.2347C292.1 50.9892 292.015 50.7944 291.846 50.6505C291.685 50.4981 291.439 50.3838 291.109 50.3076L289.941 50.0409C289.348 49.9054 288.912 49.6895 288.633 49.3932C288.362 49.0884 288.226 48.7286 288.226 48.3137C288.226 47.9581 288.324 47.6448 288.518 47.3739C288.713 47.103 288.98 46.8913 289.318 46.7389C289.665 46.578 290.059 46.4976 290.499 46.4976C291.143 46.4976 291.685 46.6585 292.125 46.9802C292.565 47.3019 292.857 47.7549 293.001 48.3391L292.112 48.5296L291.973 48.5042C291.888 48.1571 291.702 47.8904 291.414 47.7041C291.134 47.5178 290.821 47.4247 290.474 47.4247C290.11 47.4247 289.805 47.5051 289.56 47.666C289.323 47.8269 289.204 48.0301 289.204 48.2756C289.204 48.4873 289.28 48.6651 289.433 48.809C289.594 48.9445 289.848 49.0503 290.195 49.1265L291.376 49.3932C291.96 49.5287 292.388 49.7446 292.658 50.0409C292.938 50.3372 293.078 50.714 293.078 51.1712C293.078 51.5776 292.967 51.929 292.747 52.2253C292.527 52.5216 292.227 52.7502 291.846 52.9111C291.473 53.072 291.041 53.1524 290.55 53.1524ZM298.949 53V52.0348L301.134 46.65H302.124V46.7516L299.546 53H298.949ZM298.619 53L296.041 46.7516V46.65H297.032L299.216 52.0348V53H298.619ZM304.899 53.1524C304.467 53.1524 304.078 53.0677 303.731 52.8984C303.392 52.7291 303.125 52.4962 302.931 52.1999C302.736 51.9036 302.639 51.5607 302.639 51.1712C302.639 50.6209 302.833 50.1764 303.223 49.8377C303.621 49.4906 304.167 49.2916 304.861 49.2408L307.299 49.063V49.952L305.077 50.1171C304.586 50.151 304.218 50.2568 303.972 50.4346C303.735 50.6124 303.616 50.8579 303.616 51.1712C303.616 51.476 303.739 51.73 303.985 51.9332C304.239 52.1279 304.565 52.2253 304.963 52.2253C305.361 52.2253 305.72 52.1364 306.042 51.9586C306.372 51.7723 306.631 51.5268 306.817 51.222C307.012 50.9087 307.109 50.5616 307.109 50.1806V49.1519C307.109 48.6439 306.952 48.229 306.639 47.9073C306.334 47.5771 305.919 47.412 305.394 47.412C304.997 47.412 304.654 47.5094 304.366 47.7041C304.078 47.8904 303.875 48.1655 303.756 48.5296H303.616L302.778 48.2248C302.981 47.6575 303.312 47.2257 303.769 46.9294C304.226 46.6331 304.772 46.4849 305.407 46.4849C306.262 46.4849 306.918 46.7431 307.376 47.2596C307.833 47.7676 308.061 48.4915 308.061 49.4313V53H307.134V51.1585L307.465 51.3998C307.363 51.7385 307.185 52.0433 306.931 52.3142C306.677 52.5767 306.377 52.7841 306.029 52.9365C305.682 53.0804 305.306 53.1524 304.899 53.1524ZM309.963 53V43.856L310.878 43.7417L310.916 43.8433V53H309.963ZM318.226 46.65V53H317.299V51.1585L317.578 51.3998C317.468 51.7554 317.286 52.0644 317.032 52.3269C316.787 52.5894 316.49 52.7926 316.143 52.9365C315.796 53.0804 315.428 53.1524 315.038 53.1524C314.581 53.1524 314.175 53.055 313.819 52.8603C313.472 52.6656 313.197 52.3777 312.994 51.9967C312.791 51.6157 312.689 51.1416 312.689 50.5743V46.65H313.641V50.3584C313.641 50.8325 313.713 51.2051 313.857 51.476C314.001 51.7469 314.196 51.9374 314.442 52.0475C314.687 52.1576 314.958 52.2126 315.254 52.2126C315.61 52.2126 315.94 52.1279 316.245 51.9586C316.55 51.7893 316.795 51.5437 316.982 51.222C317.176 50.9003 317.274 50.5193 317.274 50.079V46.65H318.226ZM322.713 53.1524C322.112 53.1524 321.578 53.0127 321.113 52.7333C320.647 52.4539 320.283 52.0644 320.021 51.5649C319.758 51.0654 319.627 50.4854 319.627 49.825C319.627 49.1646 319.754 48.5846 320.008 48.0851C320.27 47.5856 320.63 47.1961 321.087 46.9167C321.553 46.6373 322.086 46.4976 322.688 46.4976C323.28 46.4976 323.797 46.6415 324.237 46.9294C324.686 47.2088 325.037 47.6067 325.291 48.1232C325.545 48.6312 325.672 49.2239 325.672 49.9012V50.0155L325.482 50.1933H320.186V49.2662H325.113L324.694 49.444C324.66 49.0207 324.55 48.6608 324.364 48.3645C324.178 48.0597 323.941 47.8269 323.653 47.666C323.365 47.5051 323.043 47.4247 322.688 47.4247C322.298 47.4247 321.942 47.5221 321.621 47.7168C321.299 47.9031 321.045 48.1698 320.859 48.5169C320.672 48.864 320.579 49.2662 320.579 49.7234V49.8885C320.579 50.3457 320.668 50.7521 320.846 51.1077C321.032 51.4548 321.286 51.73 321.608 51.9332C321.93 52.1279 322.298 52.2253 322.713 52.2253C323.128 52.2253 323.483 52.1279 323.78 51.9332C324.076 51.7385 324.309 51.4718 324.478 51.1331H324.618L325.418 51.4887C325.181 51.9967 324.825 52.4031 324.351 52.7079C323.886 53.0042 323.339 53.1524 322.713 53.1524Z" fill="black"/>
</svg>
