<svg width="360" height="80" viewBox="0 0 360 80" fill="none" xmlns="http://www.w3.org/2000/svg">
<g clip-path="url(#clip0_1835_46293)">
<path d="M0 12C0 5.37258 5.37258 0 12 0H348C354.627 0 360 5.37258 360 12V80H0V12Z" fill="#EBF8FF"/>
<g opacity="0.4">
<path opacity="0.3" d="M217.309 49.1684C222.501 52.1604 222.501 57.0004 217.397 59.9924L189.501 76.1844C184.397 79.1764 176.037 79.1764 170.845 76.1844L142.685 59.9924C137.493 57.0004 137.493 52.1604 142.597 49.1684L170.493 32.9764C175.597 29.9844 183.957 29.9844 189.149 32.9764L217.309 49.1684Z" fill="#0C3D77"/>
</g>
<path d="M221.182 46.3525H138.814V49.2565C138.814 51.1925 140.134 53.1285 142.686 54.6245L170.758 70.8165C175.95 73.8085 184.31 73.8085 189.414 70.8165L217.31 54.6245C219.862 53.1285 221.182 51.1925 221.182 49.2565V46.3525Z" fill="url(#paint0_linear_1835_46293)"/>
<path d="M217.309 40.8965C222.501 43.8885 222.501 48.7285 217.397 51.7205L189.501 67.9125C184.397 70.9045 176.037 70.9045 170.845 67.9125L142.685 51.7205C137.493 48.7285 137.493 43.8885 142.597 40.8965L170.493 24.7044C175.597 21.7124 183.957 21.7124 189.149 24.7044L217.309 40.8965Z" fill="#0C3D77"/>
<path d="M209.437 43.1114C213.485 45.4874 213.573 49.2715 209.525 51.6475L187.437 64.4954C183.389 66.8714 176.789 66.8714 172.653 64.4954L150.477 51.6475C146.429 49.2715 146.341 45.4874 150.477 43.1114L172.565 30.2634C176.613 27.8874 183.213 27.8874 187.349 30.2634L209.437 43.1114Z" stroke="#CCE0EA" stroke-width="0.387376" stroke-miterlimit="10"/>
<path d="M207.457 35.9678H152.545V46.7038C152.545 48.0238 153.425 49.3438 155.185 50.3118L173.841 61.1358C177.273 63.1598 182.905 63.1598 186.337 61.1358L204.993 50.3118C206.665 49.3438 207.545 48.0238 207.545 46.7038V35.9678H207.457Z" fill="url(#paint1_linear_1835_46293)"/>
<path d="M197.424 33.5039C199.8 34.9119 199.888 37.1999 197.424 38.5199L184.4 46.0879C182.024 47.4959 178.064 47.4959 175.688 46.0879L162.576 38.5199C160.2 37.1119 160.112 34.9119 162.576 33.5039L175.6 25.9359C177.976 24.5279 181.936 24.5279 184.312 25.9359L197.424 33.5039Z" fill="url(#paint2_linear_1835_46293)"/>
<path d="M209.479 31.7443C213.527 34.1203 213.615 37.9043 209.567 40.2803L187.479 53.1283C183.431 55.5043 176.831 55.5043 172.695 53.1283L150.519 40.2803C146.471 37.9043 146.383 34.1203 150.519 31.7443L172.607 18.8963C176.655 16.5203 183.255 16.5203 187.391 18.8963L209.479 31.7443Z" stroke="#CCE0EA" stroke-width="0.387376" stroke-miterlimit="10"/>
<path d="M197.424 35.2636C199.8 36.6716 199.888 38.9597 197.424 40.2797L184.4 47.8476C182.024 49.2556 178.064 49.2556 175.688 47.8476L162.576 40.2797C160.2 38.8717 160.112 36.6716 162.576 35.2636L175.6 27.6956C177.976 26.2876 181.936 26.2876 184.312 27.6956L197.424 35.2636Z" fill="#F5F3EF"/>
<path d="M204.903 32.448L186.159 21.624C182.727 19.6 177.095 19.6 173.751 21.624L155.095 32.448C151.663 34.472 151.663 37.64 155.095 39.664L173.839 50.4C177.271 52.424 182.903 52.424 186.335 50.4L204.991 39.576C208.335 37.64 208.335 34.384 204.903 32.448ZM197.423 38.52L184.399 46.088C182.023 47.496 178.063 47.496 175.687 46.088L162.575 38.52C160.199 37.112 160.111 34.912 162.575 33.504L175.599 25.936C177.975 24.528 181.935 24.528 184.311 25.936L197.423 33.504C199.799 34.912 199.799 37.112 197.423 38.52Z" fill="#2185F8"/>
<path d="M179.914 20.1284V20.5684C182.202 20.5684 184.314 21.0964 185.898 21.9764L204.642 32.8004C206.138 33.6804 207.018 34.8244 207.018 36.0564C207.018 37.2884 206.226 38.4324 204.642 39.2244L185.986 50.0484C184.402 51.0164 182.29 51.4564 180.002 51.4564C177.714 51.4564 175.602 50.9284 174.018 50.0484L155.362 39.2244C153.866 38.3444 152.986 37.2004 152.986 35.9684C152.986 34.7364 153.778 33.5924 155.362 32.7124L174.018 21.8884C175.602 20.9204 177.714 20.4804 180.002 20.4804V20.1284M179.914 20.1284C177.626 20.1284 175.426 20.6564 173.666 21.6244L155.01 32.4484C151.578 34.4724 151.578 37.6404 155.01 39.6644L173.842 50.4004C175.602 51.3684 177.802 51.8964 180.09 51.8964C182.378 51.8964 184.578 51.3684 186.338 50.4004L204.994 39.5764C208.426 37.5524 208.426 34.3844 204.906 32.3604L186.162 21.6244C184.402 20.5684 182.202 20.1284 179.914 20.1284Z" fill="url(#paint3_linear_1835_46293)"/>
<path opacity="0.2" d="M202.175 8.16016L185.455 -1.51984C182.375 -3.27984 177.447 -3.27984 174.367 -1.51984L157.735 8.16016C156.239 9.04016 155.447 10.1842 155.447 11.4162L160.727 35.9682C160.727 36.8482 161.343 37.8162 162.575 38.5202L175.687 46.0882C178.063 47.4962 182.023 47.4962 184.399 46.0882L197.423 38.5202C198.655 37.8162 199.183 36.9362 199.183 35.9682L204.463 11.4162C204.463 10.2722 203.759 9.04016 202.175 8.16016Z" fill="url(#paint4_linear_1835_46293)"/>
<path d="M163.984 26.8156C164.13 26.8156 164.248 26.6974 164.248 26.5516C164.248 26.4058 164.13 26.2876 163.984 26.2876C163.838 26.2876 163.72 26.4058 163.72 26.5516C163.72 26.6974 163.838 26.8156 163.984 26.8156Z" fill="white"/>
<path d="M188.711 28.6637C188.857 28.6637 188.975 28.5455 188.975 28.3997C188.975 28.2539 188.857 28.1357 188.711 28.1357C188.565 28.1357 188.447 28.2539 188.447 28.3997C188.447 28.5455 188.565 28.6637 188.711 28.6637Z" fill="white"/>
<path d="M194.166 25.5837C194.312 25.5837 194.43 25.4655 194.43 25.3197C194.43 25.1739 194.312 25.0557 194.166 25.0557C194.021 25.0557 193.902 25.1739 193.902 25.3197C193.902 25.4655 194.021 25.5837 194.166 25.5837Z" fill="white"/>
<path d="M171.464 39.0475C171.61 39.0475 171.728 38.9293 171.728 38.7835C171.728 38.6377 171.61 38.5195 171.464 38.5195C171.318 38.5195 171.2 38.6377 171.2 38.7835C171.2 38.9293 171.318 39.0475 171.464 39.0475Z" fill="white"/>
<path d="M189.503 16.8718C189.649 16.8718 189.767 16.7536 189.767 16.6078C189.767 16.4619 189.649 16.3438 189.503 16.3438C189.357 16.3438 189.239 16.4619 189.239 16.6078C189.239 16.7536 189.357 16.8718 189.503 16.8718Z" fill="white"/>
<path d="M166.888 17.1359C167.034 17.1359 167.152 17.0177 167.152 16.8719C167.152 16.7261 167.034 16.6079 166.888 16.6079C166.742 16.6079 166.624 16.7261 166.624 16.8719C166.624 17.0177 166.742 17.1359 166.888 17.1359Z" fill="white"/>
<path d="M175.16 11.3278C175.306 11.3278 175.424 11.2096 175.424 11.0638C175.424 10.918 175.306 10.7998 175.16 10.7998C175.015 10.7998 174.896 10.918 174.896 11.0638C174.896 11.2096 175.015 11.3278 175.16 11.3278Z" fill="white"/>
<path opacity="0.4" d="M162.756 24.4395H163.108C163.196 24.4395 163.284 24.5275 163.284 24.6155V35.0874C163.284 35.1754 163.196 35.2634 163.108 35.2634H162.756C162.668 35.2634 162.58 35.1754 162.58 35.0874V24.6155C162.668 24.5275 162.668 24.4395 162.756 24.4395Z" fill="url(#paint5_linear_1835_46293)"/>
<path opacity="0.4" d="M196.899 20.8315H197.251C197.339 20.8315 197.427 20.9195 197.427 21.0075V31.4795C197.427 31.5675 197.339 31.6555 197.251 31.6555H196.899C196.811 31.6555 196.723 31.5675 196.723 31.4795V21.0075C196.723 20.9195 196.811 20.8315 196.899 20.8315Z" fill="url(#paint6_linear_1835_46293)"/>
<path opacity="0.4" d="M173.142 31.4795H173.494C173.582 31.4795 173.67 31.5675 173.67 31.6555V42.1275C173.67 42.2155 173.582 42.3035 173.494 42.3035H173.142C173.054 42.3035 172.966 42.2155 172.966 42.1275V31.6555C172.966 31.5675 173.054 31.4795 173.142 31.4795Z" fill="url(#paint7_linear_1835_46293)"/>
<path opacity="0.4" d="M173.052 13.7036H173.404C173.492 13.7036 173.58 13.7916 173.58 13.8796V24.3516C173.58 24.4396 173.492 24.5276 173.404 24.5276H173.052C172.964 24.5276 172.876 24.4396 172.876 24.3516V13.8796C172.876 13.7916 172.964 13.7036 173.052 13.7036Z" fill="url(#paint8_linear_1835_46293)"/>
<path d="M184.295 5.13762L194.769 20.0217L192.532 21.8166L184.568 23.6362H180.902L179.039 22.221L170.08 7.26013L182.87 4.62038C183.439 4.50296 183.989 4.7025 184.295 5.13762Z" fill="url(#paint9_linear_1835_46293)"/>
<path d="M191.817 38.2267L190.42 39.0014L192.605 21.2101L194.791 19.9971L192.711 36.9364C192.646 37.465 192.307 37.9547 191.817 38.2267Z" fill="#8AB9F0"/>
<path d="M191.97 21.4121L180.136 23.2316H179.932L171.386 9.88815L171.983 5.02735C172.126 3.86608 173.484 3.14254 174.422 3.72767L191.342 14.2738C192.207 14.813 192.659 15.8028 192.527 16.8731L191.97 21.4121Z" fill="white" stroke="#CCE0EA" stroke-width="0.356461"/>
<path d="M175.424 13.3804L186.974 20.8879" stroke="#D2E5FB" stroke-width="1.01063" stroke-linecap="round"/>
<path d="M175.998 9.91504L187.548 17.4225" stroke="#D2E4FB" stroke-width="1.01063" stroke-linecap="round"/>
<path d="M180.136 23.2315L167.895 25.0511L170.079 7.25977L180.136 23.2315Z" fill="#2E64A2"/>
<path d="M192.605 21.21L190.446 38.7991H190.242L180.041 22.909L192.605 21.21Z" fill="#2E64A2"/>
<path d="M190.421 39.0013L167.895 25.0513L179.316 21.6795C179.749 21.5517 180.183 21.7042 180.392 22.0576L190.421 39.0013Z" fill="url(#paint10_linear_1835_46293)"/>
<path d="M147.406 48.0366V36.086" stroke="#CCE0EA" stroke-width="0.475309"/>
<path d="M180 66.5063V55.0989" stroke="#CCE0EA" stroke-width="0.475309"/>
<path d="M212.594 47.4937V36.0862" stroke="#CCE0EA" stroke-width="0.475309"/>
</g>
<defs>
<linearGradient id="paint0_linear_1835_46293" x1="138.798" y1="59.7066" x2="221.199" y2="59.7066" gradientUnits="userSpaceOnUse">
<stop stop-color="#0C3D77"/>
<stop offset="1" stop-color="#68A3E9"/>
</linearGradient>
<linearGradient id="paint1_linear_1835_46293" x1="152.519" y1="49.3274" x2="207.483" y2="49.3274" gradientUnits="userSpaceOnUse">
<stop offset="0.389" stop-color="#103DB5"/>
<stop offset="0.5932" stop-color="#6BABFD"/>
</linearGradient>
<linearGradient id="paint2_linear_1835_46293" x1="160.773" y1="36.015" x2="199.226" y2="36.015" gradientUnits="userSpaceOnUse">
<stop offset="0.389" stop-color="#103DB5"/>
<stop offset="0.5932" stop-color="#6BABFD"/>
</linearGradient>
<linearGradient id="paint3_linear_1835_46293" x1="207.273" y1="38.4911" x2="152.73" y2="33.54" gradientUnits="userSpaceOnUse">
<stop stop-color="#CCE0EA"/>
<stop offset="1" stop-color="#4D9DF9"/>
</linearGradient>
<linearGradient id="paint4_linear_1835_46293" x1="179.999" y1="51.4898" x2="179.999" y2="1.60997" gradientUnits="userSpaceOnUse">
<stop stop-color="#68A3E9"/>
<stop offset="1" stop-color="white" stop-opacity="0"/>
</linearGradient>
<linearGradient id="paint5_linear_1835_46293" x1="162.954" y1="25.6029" x2="162.954" y2="34.34" gradientUnits="userSpaceOnUse">
<stop offset="0.2578" stop-color="white"/>
<stop offset="1" stop-color="white" stop-opacity="0"/>
</linearGradient>
<linearGradient id="paint6_linear_1835_46293" x1="197.052" y1="21.9949" x2="197.052" y2="30.7389" gradientUnits="userSpaceOnUse">
<stop offset="0.2578" stop-color="white"/>
<stop offset="1" stop-color="white" stop-opacity="0"/>
</linearGradient>
<linearGradient id="paint7_linear_1835_46293" x1="173.268" y1="32.6144" x2="173.268" y2="41.3515" gradientUnits="userSpaceOnUse">
<stop offset="0.2578" stop-color="white"/>
<stop offset="1" stop-color="white" stop-opacity="0"/>
</linearGradient>
<linearGradient id="paint8_linear_1835_46293" x1="173.178" y1="14.8335" x2="173.178" y2="23.5774" gradientUnits="userSpaceOnUse">
<stop offset="0.2578" stop-color="white"/>
<stop offset="1" stop-color="white" stop-opacity="0"/>
</linearGradient>
<linearGradient id="paint9_linear_1835_46293" x1="181.775" y1="15.4017" x2="182.202" y2="4.37681" gradientUnits="userSpaceOnUse">
<stop stop-color="#0C3D77"/>
<stop offset="1" stop-color="#1671DD"/>
</linearGradient>
<linearGradient id="paint10_linear_1835_46293" x1="180.455" y1="21.4653" x2="180.455" y2="39.0013" gradientUnits="userSpaceOnUse">
<stop stop-color="#4088DB"/>
<stop offset="1" stop-color="#BEDCFF"/>
</linearGradient>
<clipPath id="clip0_1835_46293">
<path d="M0 12C0 5.37258 5.37258 0 12 0H348C354.627 0 360 5.37258 360 12V80H0V12Z" fill="white"/>
</clipPath>
</defs>
</svg>
