<svg width="16" height="16" viewBox="0 0 16 16" fill="none" xmlns="http://www.w3.org/2000/svg">
<path d="M3.36999 2.16037C3.32608 2.11088 3.27279 2.07059 3.21319 2.04184C3.1536 2.0131 3.08889 1.99646 3.02282 1.99291C2.95675 1.98936 2.89063 1.99895 2.8283 2.02114C2.76597 2.04332 2.70865 2.07766 2.65969 2.12216C2.61072 2.16666 2.57108 2.22044 2.54305 2.28037C2.51502 2.34031 2.49916 2.40521 2.4964 2.47132C2.49364 2.53742 2.50402 2.60342 2.52696 2.66549C2.54989 2.72755 2.58491 2.78445 2.62999 2.83287L3.83249 4.156C1.56249 5.54912 0.586244 7.69662 0.543119 7.79412C0.51469 7.85807 0.5 7.92727 0.5 7.99725C0.5 8.06723 0.51469 8.13643 0.543119 8.20037C0.564994 8.24975 1.09437 9.4235 2.27124 10.6004C3.83937 12.1679 5.81999 12.9966 7.99999 12.9966C9.12038 13.003 10.2294 12.7723 11.2544 12.3197L12.6294 13.8329C12.6733 13.8824 12.7266 13.9227 12.7862 13.9514C12.8458 13.9802 12.9105 13.9968 12.9765 14.0003C13.0426 14.0039 13.1087 13.9943 13.1711 13.9721C13.2334 13.9499 13.2907 13.9156 13.3397 13.8711C13.3886 13.8266 13.4283 13.7728 13.4563 13.7129C13.4843 13.6529 13.5002 13.588 13.503 13.5219C13.5057 13.4558 13.4953 13.3898 13.4724 13.3278C13.4495 13.2657 13.4145 13.2088 13.3694 13.1604L3.36999 2.16037ZM6.32812 6.90037L8.93249 9.766C8.5403 9.97232 8.09069 10.0425 7.65426 9.96565C7.21783 9.88875 6.81931 9.66908 6.52126 9.34113C6.22321 9.01318 6.04252 8.59553 6.00756 8.15376C5.9726 7.71199 6.08536 7.27112 6.32812 6.90037ZM7.99999 11.9966C6.07624 11.9966 4.39562 11.2972 3.00437 9.9185C2.43332 9.35099 1.94763 8.70362 1.56249 7.99662C1.85562 7.44725 2.79124 5.90975 4.52187 4.91037L5.64687 6.14475C5.21133 6.70256 4.98702 7.3964 5.01358 8.10361C5.04014 8.81082 5.31586 9.48587 5.79202 10.0094C6.26817 10.533 6.91409 10.8714 7.61561 10.9648C8.31713 11.0582 9.02908 10.9005 9.62562 10.5197L10.5462 11.5322C9.73374 11.844 8.87023 12.0015 7.99999 11.9966ZM8.37499 6.03225C8.24471 6.00738 8.12963 5.93178 8.05509 5.82207C7.98054 5.71237 7.95263 5.57754 7.97749 5.44725C8.00236 5.31696 8.07796 5.20189 8.18767 5.12734C8.29738 5.0528 8.43221 5.02488 8.56249 5.04975C9.19975 5.17329 9.77999 5.49953 10.2167 5.9798C10.6534 6.46008 10.9231 7.06865 10.9856 7.71475C10.998 7.84678 10.9574 7.9783 10.8727 8.08039C10.7881 8.18248 10.6664 8.24677 10.5344 8.25912C10.5188 8.26004 10.5031 8.26004 10.4875 8.25912C10.3625 8.25966 10.2419 8.21338 10.1493 8.12939C10.0568 8.04541 9.99905 7.92981 9.98749 7.80537C9.94541 7.37562 9.76575 6.97093 9.47522 6.65146C9.1847 6.332 8.79883 6.11483 8.37499 6.03225ZM15.455 8.20037C15.4287 8.25912 14.7956 9.661 13.37 10.9379C13.3213 10.9829 13.2641 11.0178 13.2018 11.0405C13.1395 11.0632 13.0732 11.0733 13.007 11.0701C12.9407 11.067 12.8758 11.0507 12.8159 11.0222C12.756 10.9937 12.7023 10.9536 12.6581 10.9042C12.6138 10.8547 12.5799 10.797 12.5582 10.7343C12.5365 10.6716 12.5274 10.6053 12.5316 10.5391C12.5358 10.4729 12.5531 10.4082 12.5826 10.3487C12.612 10.2893 12.653 10.2363 12.7031 10.1929C13.4025 9.56451 13.9901 8.82185 14.4406 7.99662C14.0546 7.28898 13.5679 6.64118 12.9956 6.0735C11.6044 4.696 9.92374 3.99662 7.99999 3.99662C7.59465 3.99613 7.18996 4.02895 6.78999 4.09475C6.72495 4.10625 6.65828 4.10475 6.59382 4.09034C6.52936 4.07593 6.46839 4.04888 6.41444 4.01078C6.3605 3.97267 6.31463 3.92425 6.2795 3.86831C6.24437 3.81238 6.22067 3.75004 6.20978 3.68489C6.19888 3.61975 6.20099 3.55309 6.216 3.48876C6.23101 3.42444 6.25862 3.36373 6.29723 3.31014C6.33583 3.25654 6.38468 3.21113 6.44094 3.17652C6.49719 3.14191 6.55975 3.11879 6.62499 3.1085C7.07947 3.03346 7.53936 2.99604 7.99999 2.99662C10.18 2.99662 12.1606 3.82537 13.7287 5.3935C14.9056 6.57037 15.435 7.74475 15.4569 7.79412C15.4853 7.85807 15.5 7.92727 15.5 7.99725C15.5 8.06723 15.4853 8.13643 15.4569 8.20037H15.455Z" fill="#F9FAFB"/>
</svg>
