<svg width="16" height="16" viewBox="0 0 16 16" fill="none" xmlns="http://www.w3.org/2000/svg">
<g id="Faders">
<path id="Vector" d="M8.5 7.5V13.5C8.5 13.6326 8.44732 13.7598 8.35355 13.8536C8.25979 13.9473 8.13261 14 8 14C7.86739 14 7.74021 13.9473 7.64645 13.8536C7.55268 13.7598 7.5 13.6326 7.5 13.5V7.5C7.5 7.36739 7.55268 7.24021 7.64645 7.14645C7.74021 7.05268 7.86739 7 8 7C8.13261 7 8.25979 7.05268 8.35355 7.14645C8.44732 7.24021 8.5 7.36739 8.5 7.5ZM12.5 12C12.3674 12 12.2402 12.0527 12.1464 12.1464C12.0527 12.2402 12 12.3674 12 12.5V13.5C12 13.6326 12.0527 13.7598 12.1464 13.8536C12.2402 13.9473 12.3674 14 12.5 14C12.6326 14 12.7598 13.9473 12.8536 13.8536C12.9473 13.7598 13 13.6326 13 13.5V12.5C13 12.3674 12.9473 12.2402 12.8536 12.1464C12.7598 12.0527 12.6326 12 12.5 12ZM14 10H13V2.5C13 2.36739 12.9473 2.24021 12.8536 2.14645C12.7598 2.05268 12.6326 2 12.5 2C12.3674 2 12.2402 2.05268 12.1464 2.14645C12.0527 2.24021 12 2.36739 12 2.5V10H11C10.8674 10 10.7402 10.0527 10.6464 10.1464C10.5527 10.2402 10.5 10.3674 10.5 10.5C10.5 10.6326 10.5527 10.7598 10.6464 10.8536C10.7402 10.9473 10.8674 11 11 11H14C14.1326 11 14.2598 10.9473 14.3536 10.8536C14.4473 10.7598 14.5 10.6326 14.5 10.5C14.5 10.3674 14.4473 10.2402 14.3536 10.1464C14.2598 10.0527 14.1326 10 14 10ZM3.5 10C3.36739 10 3.24021 10.0527 3.14645 10.1464C3.05268 10.2402 3 10.3674 3 10.5V13.5C3 13.6326 3.05268 13.7598 3.14645 13.8536C3.24021 13.9473 3.36739 14 3.5 14C3.63261 14 3.75979 13.9473 3.85355 13.8536C3.94732 13.7598 4 13.6326 4 13.5V10.5C4 10.3674 3.94732 10.2402 3.85355 10.1464C3.75979 10.0527 3.63261 10 3.5 10ZM5 8H4V2.5C4 2.36739 3.94732 2.24021 3.85355 2.14645C3.75979 2.05268 3.63261 2 3.5 2C3.36739 2 3.24021 2.05268 3.14645 2.14645C3.05268 2.24021 3 2.36739 3 2.5V8H2C1.86739 8 1.74021 8.05268 1.64645 8.14645C1.55268 8.24021 1.5 8.36739 1.5 8.5C1.5 8.63261 1.55268 8.75979 1.64645 8.85355C1.74021 8.94732 1.86739 9 2 9H5C5.13261 9 5.25979 8.94732 5.35355 8.85355C5.44732 8.75979 5.5 8.63261 5.5 8.5C5.5 8.36739 5.44732 8.24021 5.35355 8.14645C5.25979 8.05268 5.13261 8 5 8ZM9.5 5H8.5V2.5C8.5 2.36739 8.44732 2.24021 8.35355 2.14645C8.25979 2.05268 8.13261 2 8 2C7.86739 2 7.74021 2.05268 7.64645 2.14645C7.55268 2.24021 7.5 2.36739 7.5 2.5V5H6.5C6.36739 5 6.24021 5.05268 6.14645 5.14645C6.05268 5.24021 6 5.36739 6 5.5C6 5.63261 6.05268 5.75979 6.14645 5.85355C6.24021 5.94732 6.36739 6 6.5 6H9.5C9.63261 6 9.75979 5.94732 9.85355 5.85355C9.94732 5.75979 10 5.63261 10 5.5C10 5.36739 9.94732 5.24021 9.85355 5.14645C9.75979 5.05268 9.63261 5 9.5 5Z" fill="#3B3B3B"/>
</g>
</svg>
