<svg width="12" height="12" viewBox="0 0 12 12" fill="none" xmlns="http://www.w3.org/2000/svg">
<g id="FileDashed">
<path id="Vector" d="M3.9375 10.5C3.9375 10.6492 3.87824 10.7923 3.77275 10.8977C3.66726 11.0032 3.52418 11.0625 3.375 11.0625H2.625C2.37636 11.0625 2.1379 10.9637 1.96209 10.7879C1.78627 10.6121 1.6875 10.3736 1.6875 10.125V8.625C1.6875 8.47582 1.74676 8.33274 1.85225 8.22725C1.95774 8.12176 2.10082 8.0625 2.25 8.0625C2.39918 8.0625 2.54226 8.12176 2.64775 8.22725C2.75324 8.33274 2.8125 8.47582 2.8125 8.625V9.9375H3.375C3.52418 9.9375 3.66726 9.99676 3.77275 10.1023C3.87824 10.2077 3.9375 10.3508 3.9375 10.5ZM10.3125 4.125V6.375C10.3125 6.52418 10.2532 6.66726 10.1477 6.77275C10.0423 6.87824 9.89918 6.9375 9.75 6.9375C9.60082 6.9375 9.45774 6.87824 9.35225 6.77275C9.24676 6.66726 9.1875 6.52418 9.1875 6.375V4.875H6.9375C6.78832 4.875 6.64524 4.81574 6.53975 4.71025C6.43426 4.60476 6.375 4.46168 6.375 4.3125V2.0625H5.625C5.47582 2.0625 5.33274 2.00324 5.22725 1.89775C5.12176 1.79226 5.0625 1.64918 5.0625 1.5C5.0625 1.35082 5.12176 1.20774 5.22725 1.10225C5.33274 0.996763 5.47582 0.9375 5.625 0.9375H7.125C7.19889 0.937442 7.27207 0.951943 7.34035 0.980173C7.40864 1.0084 7.47069 1.04981 7.52297 1.10203L10.148 3.72703C10.2002 3.77931 10.2416 3.84136 10.2698 3.90965C10.2981 3.97793 10.3126 4.05111 10.3125 4.125ZM7.5 3.75H8.57812L7.5 2.67188V3.75ZM3.75 0.9375H2.625C2.37636 0.9375 2.1379 1.03627 1.96209 1.21209C1.78627 1.3879 1.6875 1.62636 1.6875 1.875V3C1.6875 3.14918 1.74676 3.29226 1.85225 3.39775C1.95774 3.50324 2.10082 3.5625 2.25 3.5625C2.39918 3.5625 2.54226 3.50324 2.64775 3.39775C2.75324 3.29226 2.8125 3.14918 2.8125 3V2.0625H3.75C3.89918 2.0625 4.04226 2.00324 4.14775 1.89775C4.25324 1.79226 4.3125 1.64918 4.3125 1.5C4.3125 1.35082 4.25324 1.20774 4.14775 1.10225C4.04226 0.996763 3.89918 0.9375 3.75 0.9375ZM9.75 7.6875C9.60082 7.6875 9.45774 7.74676 9.35225 7.85225C9.24676 7.95774 9.1875 8.10082 9.1875 8.25V9.9375H9C8.85082 9.9375 8.70774 9.99676 8.60225 10.1023C8.49676 10.2077 8.4375 10.3508 8.4375 10.5C8.4375 10.6492 8.49676 10.7923 8.60225 10.8977C8.70774 11.0032 8.85082 11.0625 9 11.0625H9.375C9.62364 11.0625 9.8621 10.9637 10.0379 10.7879C10.2137 10.6121 10.3125 10.3736 10.3125 10.125V8.25C10.3125 8.10082 10.2532 7.95774 10.1477 7.85225C10.0423 7.74676 9.89918 7.6875 9.75 7.6875ZM2.25 7.3125C2.39918 7.3125 2.54226 7.25324 2.64775 7.14775C2.75324 7.04226 2.8125 6.89918 2.8125 6.75V4.875C2.8125 4.72582 2.75324 4.58274 2.64775 4.47725C2.54226 4.37176 2.39918 4.3125 2.25 4.3125C2.10082 4.3125 1.95774 4.37176 1.85225 4.47725C1.74676 4.58274 1.6875 4.72582 1.6875 4.875V6.75C1.6875 6.89918 1.74676 7.04226 1.85225 7.14775C1.95774 7.25324 2.10082 7.3125 2.25 7.3125ZM7.125 9.9375H5.25C5.10082 9.9375 4.95774 9.99676 4.85225 10.1023C4.74676 10.2077 4.6875 10.3508 4.6875 10.5C4.6875 10.6492 4.74676 10.7923 4.85225 10.8977C4.95774 11.0032 5.10082 11.0625 5.25 11.0625H7.125C7.27418 11.0625 7.41726 11.0032 7.52275 10.8977C7.62824 10.7923 7.6875 10.6492 7.6875 10.5C7.6875 10.3508 7.62824 10.2077 7.52275 10.1023C7.41726 9.99676 7.27418 9.9375 7.125 9.9375Z" fill="#D7AE0B"/>
</g>
</svg>
