<svg width="33" height="32" viewBox="0 0 33 32" fill="none" xmlns="http://www.w3.org/2000/svg">
<g id="FileArrowUp">
<path id="Vector" d="M27.2075 10.2925L20.2075 3.2925C20.1146 3.19967 20.0042 3.12605 19.8829 3.07586C19.7615 3.02568 19.6314 2.9999 19.5 3H7.5C6.96957 3 6.46086 3.21071 6.08579 3.58579C5.71071 3.96086 5.5 4.46957 5.5 5V27C5.5 27.5304 5.71071 28.0391 6.08579 28.4142C6.46086 28.7893 6.96957 29 7.5 29H25.5C26.0304 29 26.5391 28.7893 26.9142 28.4142C27.2893 28.0391 27.5 27.5304 27.5 27V11C27.5001 10.8686 27.4743 10.7385 27.4241 10.6172C27.3739 10.4958 27.3003 10.3854 27.2075 10.2925ZM20.5 6.41375L24.0863 10H20.5V6.41375ZM25.5 27H7.5V5H18.5V11C18.5 11.2652 18.6054 11.5196 18.7929 11.7071C18.9804 11.8946 19.2348 12 19.5 12H25.5V27ZM20.2075 17.2925C20.3004 17.3854 20.3741 17.4957 20.4244 17.6171C20.4747 17.7385 20.5006 17.8686 20.5006 18C20.5006 18.1314 20.4747 18.2615 20.4244 18.3829C20.3741 18.5043 20.3004 18.6146 20.2075 18.7075C20.1146 18.8004 20.0043 18.8741 19.8829 18.9244C19.7615 18.9747 19.6314 19.0006 19.5 19.0006C19.3686 19.0006 19.2385 18.9747 19.1171 18.9244C18.9957 18.8741 18.8854 18.8004 18.7925 18.7075L17.5 17.4137V23C17.5 23.2652 17.3946 23.5196 17.2071 23.7071C17.0196 23.8946 16.7652 24 16.5 24C16.2348 24 15.9804 23.8946 15.7929 23.7071C15.6054 23.5196 15.5 23.2652 15.5 23V17.4137L14.2075 18.7075C14.1146 18.8004 14.0043 18.8741 13.8829 18.9244C13.7615 18.9747 13.6314 19.0006 13.5 19.0006C13.3686 19.0006 13.2385 18.9747 13.1171 18.9244C12.9957 18.8741 12.8854 18.8004 12.7925 18.7075C12.6996 18.6146 12.6259 18.5043 12.5756 18.3829C12.5253 18.2615 12.4994 18.1314 12.4994 18C12.4994 17.8686 12.5253 17.7385 12.5756 17.6171C12.6259 17.4957 12.6996 17.3854 12.7925 17.2925L15.7925 14.2925C15.8854 14.1995 15.9957 14.1258 16.1171 14.0754C16.2385 14.0251 16.3686 13.9992 16.5 13.9992C16.6314 13.9992 16.7615 14.0251 16.8829 14.0754C17.0043 14.1258 17.1146 14.1995 17.2075 14.2925L20.2075 17.2925Z" fill="#A8A8A8"/>
</g>
</svg>
