<svg width="16" height="16" viewBox="0 0 16 16" fill="none" xmlns="http://www.w3.org/2000/svg">
<g id="GitCommit">
<path id="Vector" d="M15.5 7.49952H11.4637C11.343 6.66703 10.9264 5.90587 10.2904 5.3554C9.65427 4.80492 8.84121 4.50195 8 4.50195C7.15879 4.50195 6.34573 4.80492 5.70964 5.3554C5.07355 5.90587 4.65701 6.66703 4.53625 7.49952H0.5C0.367392 7.49952 0.240215 7.5522 0.146447 7.64597C0.0526784 7.73974 0 7.86691 0 7.99952C0 8.13213 0.0526784 8.25931 0.146447 8.35308C0.240215 8.44685 0.367392 8.49952 0.5 8.49952H4.53625C4.65701 9.33202 5.07355 10.0932 5.70964 10.6436C6.34573 11.1941 7.15879 11.4971 8 11.4971C8.84121 11.4971 9.65427 11.1941 10.2904 10.6436C10.9264 10.0932 11.343 9.33202 11.4637 8.49952H15.5C15.6326 8.49952 15.7598 8.44685 15.8536 8.35308C15.9473 8.25931 16 8.13213 16 7.99952C16 7.86691 15.9473 7.73974 15.8536 7.64597C15.7598 7.5522 15.6326 7.49952 15.5 7.49952ZM8 10.4995C7.50555 10.4995 7.0222 10.3529 6.61107 10.0782C6.19995 9.80349 5.87952 9.41305 5.6903 8.95623C5.50108 8.49942 5.45157 7.99675 5.54804 7.5118C5.6445 7.02684 5.8826 6.58139 6.23223 6.23176C6.58186 5.88212 7.02732 5.64402 7.51227 5.54756C7.99723 5.4511 8.49989 5.5006 8.95671 5.68982C9.41352 5.87904 9.80397 6.19947 10.0787 6.6106C10.3534 7.02172 10.5 7.50507 10.5 7.99952C10.5 8.66256 10.2366 9.29845 9.76777 9.76729C9.29893 10.2361 8.66304 10.4995 8 10.4995Z" fill="#3B3B3B"/>
</g>
</svg>
