<svg width="16" height="16" viewBox="0 0 16 16" fill="none" xmlns="http://www.w3.org/2000/svg">
<path d="M14.75 12.5007C14.75 12.6996 14.671 12.8904 14.5303 13.031C14.3897 13.1717 14.1989 13.2507 14 13.2507C13.8011 13.2507 13.6103 13.1717 13.4697 13.031C13.329 12.8904 13.25 12.6996 13.25 12.5007C13.2485 11.1087 12.6949 9.77425 11.7107 8.79001C10.7264 7.80577 9.39194 7.25217 8.00001 7.25068H3.81251L5.53251 8.97005C5.67341 9.11095 5.75256 9.30204 5.75256 9.5013C5.75256 9.70056 5.67341 9.89165 5.53251 10.0326C5.39161 10.1734 5.20052 10.2526 5.00126 10.2526C4.802 10.2526 4.61091 10.1734 4.47001 10.0326L1.47001 7.03255C1.40009 6.96287 1.34461 6.88008 1.30676 6.78891C1.26891 6.69775 1.24942 6.60001 1.24942 6.5013C1.24942 6.40259 1.26891 6.30485 1.30676 6.21369C1.34461 6.12252 1.40009 6.03973 1.47001 5.97005L4.47001 2.97005C4.53978 2.90029 4.6226 2.84495 4.71375 2.80719C4.8049 2.76943 4.9026 2.75 5.00126 2.75C5.09992 2.75 5.19762 2.76943 5.28877 2.80719C5.37992 2.84495 5.46275 2.90029 5.53251 2.97005C5.60228 3.03982 5.65762 3.12264 5.69537 3.21379C5.73313 3.30494 5.75256 3.40264 5.75256 3.5013C5.75256 3.59996 5.73313 3.69766 5.69537 3.78881C5.65762 3.87996 5.60228 3.96279 5.53251 4.03255L3.81251 5.75068H8.00001C9.78961 5.75266 11.5054 6.46446 12.7708 7.7299C14.0362 8.99534 14.748 10.7111 14.75 12.5007Z" fill="#3B3B3B"/>
</svg>
