<svg width="20" height="20" viewBox="0 0 20 20" fill="none" xmlns="http://www.w3.org/2000/svg">
<g id="GoogleLogo">
<path id="Vector" d="M17.8125 9.99997C17.8124 11.8395 17.1632 13.62 15.9792 15.0279C14.7953 16.4358 13.1525 17.3807 11.3402 17.6963C9.52797 18.0118 7.66247 17.6778 6.07231 16.753C4.48216 15.8282 3.26933 14.3719 2.64746 12.6407C2.02559 10.9094 2.03456 9.0143 2.67279 7.28904C3.31101 5.56377 4.53756 4.11904 6.1364 3.20932C7.73524 2.29959 9.60381 1.98323 11.413 2.31593C13.2222 2.64864 14.856 3.60908 16.0266 5.0281C16.1049 5.12305 16.1639 5.23251 16.1999 5.35023C16.236 5.46795 16.2486 5.59162 16.2368 5.71419C16.2251 5.83676 16.1894 5.95582 16.1317 6.06457C16.0739 6.17332 15.9953 6.26964 15.9004 6.34802C15.8054 6.4264 15.696 6.48532 15.5783 6.5214C15.4605 6.55748 15.3369 6.57002 15.2143 6.5583C15.0917 6.54658 14.9727 6.51084 14.8639 6.45311C14.7552 6.39538 14.6589 6.3168 14.5805 6.22185C13.7165 5.17455 12.5198 4.45495 11.1896 4.18298C9.85952 3.91101 8.47635 4.1031 7.27067 4.72724C6.06498 5.35138 5.10961 6.36986 4.56376 7.61295C4.01791 8.85604 3.91457 10.2486 4.27095 11.5587C4.62732 12.8687 5.4219 14.0171 6.52225 14.8123C7.6226 15.6076 8.96226 16.0018 10.318 15.9291C11.6737 15.8565 12.9635 15.3214 13.9726 14.4131C14.9817 13.5048 15.649 12.2781 15.8633 10.9375H10C9.75136 10.9375 9.5129 10.8387 9.33709 10.6629C9.16127 10.4871 9.0625 10.2486 9.0625 9.99997C9.0625 9.75133 9.16127 9.51288 9.33709 9.33706C9.5129 9.16125 9.75136 9.06247 10 9.06247H16.875C17.1236 9.06247 17.3621 9.16125 17.5379 9.33706C17.7137 9.51288 17.8125 9.75133 17.8125 9.99997Z" fill="#F5F3EF"/>
</g>
</svg>
