<svg width="12" height="12" viewBox="0 0 12 12" fill="none" xmlns="http://www.w3.org/2000/svg">
<g id="Hourglass">
<path id="Vector" d="M9.5625 3.54562V1.875C9.5625 1.62636 9.46373 1.3879 9.28791 1.21209C9.1121 1.03627 8.87364 0.9375 8.625 0.9375H3.375C3.12636 0.9375 2.8879 1.03627 2.71209 1.21209C2.53627 1.3879 2.4375 1.62636 2.4375 1.875V3.5625C2.43786 3.70798 2.47191 3.8514 2.53697 3.98152C2.60203 4.11164 2.69633 4.22492 2.8125 4.3125L5.0625 6L2.8125 7.6875C2.69633 7.77508 2.60203 7.88836 2.53697 8.01848C2.47191 8.1486 2.43786 8.29202 2.4375 8.4375V10.125C2.4375 10.3736 2.53627 10.6121 2.71209 10.7879C2.8879 10.9637 3.12636 11.0625 3.375 11.0625H8.625C8.87364 11.0625 9.1121 10.9637 9.28791 10.7879C9.46373 10.6121 9.5625 10.3736 9.5625 10.125V8.45438C9.56236 8.30915 9.5287 8.16592 9.46415 8.03583C9.39959 7.90575 9.30588 7.79232 9.19031 7.70438L6.93281 6L9.19031 4.29375C9.30563 4.206 9.39919 4.09287 9.46373 3.96313C9.52828 3.83339 9.56207 3.69053 9.5625 3.54562ZM8.4375 9.9375H3.5625V8.53125L6 6.70312L8.4375 8.54672V9.9375ZM8.4375 3.45234L6 5.29688L3.5625 3.46875V2.0625H8.4375V3.45234Z" fill="#007AFF"/>
</g>
</svg>
