<svg width="16" height="16" viewBox="0 0 16 16" fill="none" xmlns="http://www.w3.org/2000/svg">
<g id="LinkBreak">
<path id="Vector" d="M12.4144 3.58562C12.04 3.21129 11.5324 3.00069 11.003 2.99999C10.4735 2.99928 9.9654 3.20854 9.59 3.58188L8.86187 4.345C8.76875 4.43204 8.6459 4.48022 8.51844 4.47971C8.39097 4.47919 8.26852 4.43002 8.1761 4.34223C8.08368 4.25444 8.02828 4.13467 8.02123 4.0074C8.01417 3.88013 8.05598 3.75497 8.13813 3.6575L8.87062 2.88937C8.87317 2.88651 8.87589 2.8838 8.87875 2.88125C9.44291 2.32621 10.2035 2.01658 10.9949 2.0198C11.7864 2.02302 12.5444 2.33884 13.104 2.89845C13.6637 3.45807 13.9795 4.21615 13.9827 5.00756C13.9859 5.79897 13.6763 6.5596 13.1213 7.12375C13.1187 7.12661 13.116 7.12933 13.1131 7.13188L12.345 7.86438C12.2475 7.94652 12.1224 7.98833 11.9951 7.98127C11.8678 7.97422 11.7481 7.91882 11.6603 7.8264C11.5725 7.73398 11.5233 7.61153 11.5228 7.48406C11.5223 7.3566 11.5705 7.23375 11.6575 7.14062L12.4206 6.4125C12.7944 6.03666 13.0037 5.52782 13.0025 4.99777C13.0013 4.46772 12.7898 3.95981 12.4144 3.58562ZM7.13812 11.655L6.41 12.4181C6.03312 12.7841 5.52735 12.9872 5.00199 12.9833C4.47664 12.9795 3.97389 12.7691 3.60239 12.3976C3.2309 12.0261 3.0205 11.5234 3.01666 10.998C3.01282 10.4727 3.21585 9.96688 3.58188 9.59L4.345 8.86187C4.43204 8.76875 4.48022 8.6459 4.47971 8.51844C4.47919 8.39097 4.43002 8.26852 4.34223 8.1761C4.25444 8.08368 4.13467 8.02828 4.0074 8.02123C3.88013 8.01417 3.75497 8.05598 3.6575 8.13813L2.88687 8.87062C2.88401 8.87317 2.8813 8.87589 2.87875 8.87875C2.32371 9.44291 2.01408 10.2035 2.0173 10.9949C2.02052 11.7864 2.33634 12.5444 2.89596 13.104C3.45557 13.6637 4.21365 13.9795 5.00506 13.9827C5.79647 13.9859 6.55709 13.6763 7.12125 13.1213C7.12411 13.1187 7.12683 13.116 7.12937 13.1131L7.86188 12.345C7.91167 12.2985 7.95143 12.2422 7.9787 12.1798C8.00597 12.1173 8.02018 12.0499 8.02045 11.9817C8.02073 11.9136 8.00707 11.8461 7.9803 11.7834C7.95354 11.7207 7.91424 11.6641 7.86482 11.6172C7.8154 11.5703 7.7569 11.5339 7.69292 11.5104C7.62894 11.4869 7.56083 11.4767 7.49277 11.4805C7.42471 11.4843 7.35814 11.5019 7.29716 11.5323C7.23617 11.5628 7.18205 11.6054 7.13812 11.6575V11.655ZM13.5 9.5H12C11.8674 9.5 11.7402 9.55268 11.6464 9.64645C11.5527 9.74021 11.5 9.86739 11.5 10C11.5 10.1326 11.5527 10.2598 11.6464 10.3536C11.7402 10.4473 11.8674 10.5 12 10.5H13.5C13.6326 10.5 13.7598 10.4473 13.8536 10.3536C13.9473 10.2598 14 10.1326 14 10C14 9.86739 13.9473 9.74021 13.8536 9.64645C13.7598 9.55268 13.6326 9.5 13.5 9.5ZM2.5 6.5H4C4.13261 6.5 4.25979 6.44732 4.35355 6.35355C4.44732 6.25979 4.5 6.13261 4.5 6C4.5 5.86739 4.44732 5.74021 4.35355 5.64645C4.25979 5.55268 4.13261 5.5 4 5.5H2.5C2.36739 5.5 2.24021 5.55268 2.14645 5.64645C2.05268 5.74021 2 5.86739 2 6C2 6.13261 2.05268 6.25979 2.14645 6.35355C2.24021 6.44732 2.36739 6.5 2.5 6.5ZM10 11.5C9.86739 11.5 9.74021 11.5527 9.64645 11.6464C9.55268 11.7402 9.5 11.8674 9.5 12V13.5C9.5 13.6326 9.55268 13.7598 9.64645 13.8536C9.74021 13.9473 9.86739 14 10 14C10.1326 14 10.2598 13.9473 10.3536 13.8536C10.4473 13.7598 10.5 13.6326 10.5 13.5V12C10.5 11.8674 10.4473 11.7402 10.3536 11.6464C10.2598 11.5527 10.1326 11.5 10 11.5ZM6 4.5C6.13261 4.5 6.25979 4.44732 6.35355 4.35355C6.44732 4.25979 6.5 4.13261 6.5 4V2.5C6.5 2.36739 6.44732 2.24021 6.35355 2.14645C6.25979 2.05268 6.13261 2 6 2C5.86739 2 5.74021 2.05268 5.64645 2.14645C5.55268 2.24021 5.5 2.36739 5.5 2.5V4C5.5 4.13261 5.55268 4.25979 5.64645 4.35355C5.74021 4.44732 5.86739 4.5 6 4.5Z" fill="#C72C22"/>
</g>
</svg>
