<svg width="16" height="16" viewBox="0 0 16 16" fill="none" xmlns="http://www.w3.org/2000/svg">
<g id="LinkSimple">
<path id="Vector" d="M10.3537 5.64626C10.4002 5.69269 10.4371 5.74784 10.4622 5.80854C10.4874 5.86924 10.5003 5.9343 10.5003 6.00001C10.5003 6.06572 10.4874 6.13078 10.4622 6.19148C10.4371 6.25218 10.4002 6.30732 10.3537 6.35376L6.35368 10.3538C6.30723 10.4002 6.25208 10.4371 6.19138 10.4622C6.13069 10.4873 6.06563 10.5003 5.99993 10.5003C5.93424 10.5003 5.86918 10.4873 5.80849 10.4622C5.74779 10.4371 5.69264 10.4002 5.64618 10.3538C5.59973 10.3073 5.56288 10.2522 5.53774 10.1915C5.5126 10.1308 5.49966 10.0657 5.49966 10C5.49966 9.93431 5.5126 9.86926 5.53774 9.80856C5.56288 9.74786 5.59973 9.69271 5.64618 9.64626L9.64618 5.64626C9.69262 5.59977 9.74776 5.56289 9.80846 5.53773C9.86916 5.51257 9.93423 5.49961 9.99993 5.49961C10.0656 5.49961 10.1307 5.51257 10.1914 5.53773C10.2521 5.56289 10.3072 5.59977 10.3537 5.64626ZM13.4749 2.52501C13.1499 2.19997 12.7641 1.94213 12.3394 1.76621C11.9147 1.5903 11.4596 1.49976 10.9999 1.49976C10.5403 1.49976 10.0851 1.5903 9.66046 1.76621C9.2358 1.94213 8.84994 2.19997 8.52493 2.52501L6.64618 4.40313C6.55236 4.49695 6.49966 4.6242 6.49966 4.75688C6.49966 4.88957 6.55236 5.01681 6.64618 5.11063C6.74 5.20445 6.86725 5.25716 6.99993 5.25716C7.13262 5.25716 7.25986 5.20445 7.35368 5.11063L9.23243 3.23563C9.70299 2.77542 10.336 2.51933 10.9942 2.52296C11.6524 2.52658 12.2826 2.78962 12.7481 3.25499C13.2135 3.72037 13.4767 4.35052 13.4804 5.00871C13.4842 5.66689 13.2282 6.3 12.7681 6.77063L10.8887 8.64938C10.7949 8.74312 10.7421 8.87029 10.7421 9.00291C10.742 9.13554 10.7946 9.26275 10.8884 9.35657C10.9821 9.45039 11.1093 9.50313 11.2419 9.50319C11.3745 9.50325 11.5017 9.45062 11.5956 9.35688L13.4749 7.47501C13.8 7.15 14.0578 6.76415 14.2337 6.33948C14.4096 5.91482 14.5002 5.45966 14.5002 5.00001C14.5002 4.54035 14.4096 4.0852 14.2337 3.66053C14.0578 3.23587 13.8 2.85002 13.4749 2.52501ZM8.64618 10.8888L6.76743 12.7675C6.53623 13.0039 6.26043 13.1921 5.95601 13.3212C5.65158 13.4502 5.32457 13.5176 4.99392 13.5194C4.66326 13.5213 4.33553 13.4575 4.0297 13.3318C3.72387 13.206 3.44602 13.0209 3.21223 12.7871C2.97844 12.5533 2.79335 12.2754 2.6677 11.9695C2.54204 11.6637 2.47831 11.3359 2.48019 11.0053C2.48207 10.6746 2.54952 10.3476 2.67865 10.0432C2.80777 9.73881 2.996 9.46304 3.23243 9.23188L5.11056 7.35376C5.20438 7.25994 5.25709 7.13269 5.25709 7.00001C5.25709 6.86733 5.20438 6.74008 5.11056 6.64626C5.01674 6.55244 4.88949 6.49973 4.75681 6.49973C4.62413 6.49973 4.49688 6.55244 4.40306 6.64626L2.52493 8.52501C1.86852 9.18142 1.49976 10.0717 1.49976 11C1.49976 11.9283 1.86852 12.8186 2.52493 13.475C3.18135 14.1314 4.07163 14.5002 4.99993 14.5002C5.92824 14.5002 6.81852 14.1314 7.47493 13.475L9.35368 11.5956C9.44742 11.5018 9.50005 11.3746 9.49999 11.242C9.49993 11.1094 9.44719 10.9822 9.35337 10.8884C9.25955 10.7947 9.13234 10.7421 8.99971 10.7421C8.86709 10.7422 8.73992 10.7949 8.64618 10.8888Z" fill="black"/>
</g>
</svg>
