<svg width="16" height="16" viewBox="0 0 16 16" fill="none" xmlns="http://www.w3.org/2000/svg">
<path d="M7.75 13.5C7.75 13.6989 7.67098 13.8897 7.53033 14.0303C7.38968 14.171 7.19891 14.25 7 14.25H3C2.80109 14.25 2.61032 14.171 2.46967 14.0303C2.32902 13.8897 2.25 13.6989 2.25 13.5V2.5C2.25 2.30109 2.32902 2.11032 2.46967 1.96967C2.61032 1.82902 2.80109 1.75 3 1.75H7C7.19891 1.75 7.38968 1.82902 7.53033 1.96967C7.67098 2.11032 7.75 2.30109 7.75 2.5C7.75 2.69891 7.67098 2.88968 7.53033 3.03033C7.38968 3.17098 7.19891 3.25 7 3.25H3.75V12.75H7C7.19891 12.75 7.38968 12.829 7.53033 12.9697C7.67098 13.1103 7.75 13.3011 7.75 13.5ZM14.5306 7.46938L12.0306 4.96938C11.8897 4.82848 11.6986 4.74932 11.4994 4.74932C11.3001 4.74932 11.109 4.82848 10.9681 4.96938C10.8272 5.11027 10.7481 5.30137 10.7481 5.50063C10.7481 5.69988 10.8272 5.89098 10.9681 6.03188L12.1875 7.25H7C6.80109 7.25 6.61032 7.32902 6.46967 7.46967C6.32902 7.61032 6.25 7.80109 6.25 8C6.25 8.19891 6.32902 8.38968 6.46967 8.53033C6.61032 8.67098 6.80109 8.75 7 8.75H12.1875L10.9675 9.96937C10.8266 10.1103 10.7474 10.3014 10.7474 10.5006C10.7474 10.6999 10.8266 10.891 10.9675 11.0319C11.1084 11.1728 11.2995 11.2519 11.4987 11.2519C11.698 11.2519 11.8891 11.1728 12.03 11.0319L14.53 8.53187C14.6 8.46224 14.6555 8.37948 14.6934 8.28833C14.7313 8.19719 14.7508 8.09946 14.7509 8.00075C14.751 7.90204 14.7315 7.80429 14.6937 7.71311C14.6559 7.62192 14.6005 7.53909 14.5306 7.46938Z" fill="#E15E56"/>
</svg>
