<svg width="25" height="25" viewBox="0 0 25 25" fill="none" xmlns="http://www.w3.org/2000/svg">
<path d="M4.71263 6.15625C4.71263 5.95734 4.79164 5.76657 4.9323 5.62592C5.07295 5.48527 5.26371 5.40625 5.46263 5.40625H6.96263V3.90625C6.96263 3.70734 7.04164 3.51657 7.1823 3.37592C7.32295 3.23527 7.51371 3.15625 7.71263 3.15625C7.91154 3.15625 8.1023 3.23527 8.24295 3.37592C8.38361 3.51657 8.46263 3.70734 8.46263 3.90625V5.40625H9.96263C10.1615 5.40625 10.3523 5.48527 10.493 5.62592C10.6336 5.76657 10.7126 5.95734 10.7126 6.15625C10.7126 6.35516 10.6336 6.54593 10.493 6.68658C10.3523 6.82723 10.1615 6.90625 9.96263 6.90625H8.46263V8.40625C8.46263 8.60516 8.38361 8.79593 8.24295 8.93658C8.1023 9.07723 7.91154 9.15625 7.71263 9.15625C7.51371 9.15625 7.32295 9.07723 7.1823 8.93658C7.04164 8.79593 6.96263 8.60516 6.96263 8.40625V6.90625H5.46263C5.26371 6.90625 5.07295 6.82723 4.9323 6.68658C4.79164 6.54593 4.71263 6.35516 4.71263 6.15625ZM17.4626 18.1562H16.7126V17.4062C16.7126 17.2073 16.6336 17.0166 16.493 16.8759C16.3523 16.7353 16.1615 16.6562 15.9626 16.6562C15.7637 16.6562 15.5729 16.7353 15.4323 16.8759C15.2916 17.0166 15.2126 17.2073 15.2126 17.4062V18.1562H14.4626C14.2637 18.1562 14.0729 18.2353 13.9323 18.3759C13.7916 18.5166 13.7126 18.7073 13.7126 18.9062C13.7126 19.1052 13.7916 19.2959 13.9323 19.4366C14.0729 19.5772 14.2637 19.6562 14.4626 19.6562H15.2126V20.4062C15.2126 20.6052 15.2916 20.7959 15.4323 20.9366C15.5729 21.0772 15.7637 21.1562 15.9626 21.1562C16.1615 21.1562 16.3523 21.0772 16.493 20.9366C16.6336 20.7959 16.7126 20.6052 16.7126 20.4062V19.6562H17.4626C17.6615 19.6562 17.8523 19.5772 17.993 19.4366C18.1336 19.2959 18.2126 19.1052 18.2126 18.9062C18.2126 18.7073 18.1336 18.5166 17.993 18.3759C17.8523 18.2353 17.6615 18.1562 17.4626 18.1562ZM22.7126 13.6562H21.2126V12.1562C21.2126 11.9573 21.1336 11.7666 20.993 11.6259C20.8523 11.4853 20.6615 11.4062 20.4626 11.4062C20.2637 11.4062 20.0729 11.4853 19.9323 11.6259C19.7916 11.7666 19.7126 11.9573 19.7126 12.1562V13.6562H18.2126C18.0137 13.6562 17.8229 13.7353 17.6823 13.8759C17.5416 14.0166 17.4626 14.2073 17.4626 14.4062C17.4626 14.6052 17.5416 14.7959 17.6823 14.9366C17.8229 15.0772 18.0137 15.1562 18.2126 15.1562H19.7126V16.6562C19.7126 16.8552 19.7916 17.0459 19.9323 17.1866C20.0729 17.3272 20.2637 17.4062 20.4626 17.4062C20.6615 17.4062 20.8523 17.3272 20.993 17.1866C21.1336 17.0459 21.2126 16.8552 21.2126 16.6562V15.1562H22.7126C22.9115 15.1562 23.1023 15.0772 23.243 14.9366C23.3836 14.7959 23.4626 14.6052 23.4626 14.4062C23.4626 14.2073 23.3836 14.0166 23.243 13.8759C23.1023 13.7353 22.9115 13.6562 22.7126 13.6562ZM20.7729 7.65625L7.71263 20.7166C7.43135 20.9977 7.04997 21.1556 6.65231 21.1556C6.25466 21.1556 5.87328 20.9977 5.592 20.7166L3.65138 18.7778C3.51205 18.6385 3.40153 18.4731 3.32613 18.2911C3.25072 18.1091 3.21191 17.914 3.21191 17.717C3.21191 17.52 3.25072 17.3249 3.32613 17.1429C3.40153 16.9609 3.51205 16.7955 3.65138 16.6562L16.7126 3.59594C16.8519 3.45661 17.0173 3.34609 17.1993 3.27069C17.3813 3.19529 17.5764 3.15648 17.7734 3.15648C17.9704 3.15648 18.1655 3.19529 18.3475 3.27069C18.5295 3.34609 18.6949 3.45661 18.8342 3.59594L20.7729 5.53469C20.9123 5.67398 21.0228 5.83935 21.0982 6.02136C21.1736 6.20338 21.2124 6.39846 21.2124 6.59547C21.2124 6.79248 21.1736 6.98756 21.0982 7.16957C21.0228 7.35158 20.9123 7.51696 20.7729 7.65625ZM15.6514 10.6562L13.7126 8.71656L4.71263 17.7166L6.65138 19.6562L15.6514 10.6562ZM19.7126 6.59594L17.7729 4.65625L14.7729 7.65625L16.7126 9.59594L19.7126 6.59594Z" fill="#161819"/>
</svg>
