<svg width="16" height="16" viewBox="0 0 16 16" fill="none" xmlns="http://www.w3.org/2000/svg">
<path d="M6.5 9.5C6.5 9.63261 6.44732 9.75979 6.35355 9.85355C6.25979 9.94732 6.13261 10 6 10H3.5C3.36739 10 3.24021 9.94732 3.14645 9.85355C3.05268 9.75979 3 9.63261 3 9.5C3 9.36739 3.05268 9.24021 3.14645 9.14645C3.24021 9.05268 3.36739 9 3.5 9H6C6.13261 9 6.25979 9.05268 6.35355 9.14645C6.44732 9.24021 6.5 9.36739 6.5 9.5ZM15 7.25V11C15 11.2652 14.8946 11.5196 14.7071 11.7071C14.5196 11.8946 14.2652 12 14 12H8.5V14C8.5 14.1326 8.44732 14.2598 8.35355 14.3536C8.25979 14.4473 8.13261 14.5 8 14.5C7.86739 14.5 7.74021 14.4473 7.64645 14.3536C7.55268 14.2598 7.5 14.1326 7.5 14V12H2C1.73478 12 1.48043 11.8946 1.29289 11.7071C1.10536 11.5196 1 11.2652 1 11V7.25C1.00116 6.25579 1.39662 5.30264 2.09963 4.59963C2.80264 3.89662 3.75579 3.50116 4.75 3.5H9.5V1.5C9.5 1.36739 9.55268 1.24021 9.64645 1.14645C9.74021 1.05268 9.86739 1 10 1H12C12.1326 1 12.2598 1.05268 12.3536 1.14645C12.4473 1.24021 12.5 1.36739 12.5 1.5C12.5 1.63261 12.4473 1.75979 12.3536 1.85355C12.2598 1.94732 12.1326 2 12 2H10.5V3.5H11.25C12.2442 3.50116 13.1974 3.89662 13.9004 4.59963C14.6034 5.30264 14.9988 6.25579 15 7.25ZM7.5 11V7.25C7.5 6.52065 7.21027 5.82118 6.69454 5.30546C6.17882 4.78973 5.47935 4.5 4.75 4.5C4.02065 4.5 3.32118 4.78973 2.80546 5.30546C2.28973 5.82118 2 6.52065 2 7.25V11H7.5ZM14 7.25C13.9992 6.52091 13.7092 5.82192 13.1936 5.30637C12.6781 4.79082 11.9791 4.50083 11.25 4.5H10.5V9C10.5 9.13261 10.4473 9.25979 10.3536 9.35355C10.2598 9.44732 10.1326 9.5 10 9.5C9.86739 9.5 9.74021 9.44732 9.64645 9.35355C9.55268 9.25979 9.5 9.13261 9.5 9V4.5H7.29688C7.67642 4.85047 7.97926 5.27576 8.18632 5.74905C8.39339 6.22234 8.50019 6.73339 8.5 7.25V11H14V7.25Z" fill="#161819"/>
</svg>
