<svg width="32" height="32" viewBox="0 0 32 32" fill="none" xmlns="http://www.w3.org/2000/svg">
<path d="M25.8943 17.334C25.7981 17.2376 25.6774 17.1692 25.5453 17.1362C25.4132 17.1032 25.2745 17.1067 25.1443 17.1465C23.7142 17.5789 22.1936 17.6151 20.7445 17.2514C19.2955 16.8877 17.9722 16.1377 16.9158 15.0813C15.8594 14.0249 15.1093 12.7016 14.7456 11.2525C14.3819 9.80347 14.4182 8.28288 14.8505 6.85279C14.8906 6.72248 14.8945 6.5837 14.8616 6.45137C14.8288 6.31903 14.7605 6.19816 14.6641 6.10175C14.5676 6.00534 14.4468 5.93703 14.3144 5.90418C14.1821 5.87132 14.0433 5.87517 13.913 5.91529C11.9359 6.52096 10.2001 7.73478 8.95271 9.38404C7.86185 10.8323 7.19645 12.5561 7.03127 14.3618C6.86609 16.1674 7.20768 17.9833 8.01765 19.6055C8.82763 21.2277 10.0739 22.5919 11.6165 23.5448C13.159 24.4978 14.9367 25.0017 16.7499 25C18.8652 25.0065 20.9243 24.3188 22.6111 23.0425C24.2604 21.7951 25.4742 20.0593 26.0799 18.0822C26.1196 17.9523 26.1232 17.8142 26.0905 17.6824C26.0579 17.5507 25.99 17.4303 25.8943 17.334ZM21.7093 21.8444C20.1207 23.0408 18.1534 23.6232 16.1695 23.4843C14.1857 23.3454 12.3187 22.4945 10.9124 21.0884C9.50609 19.6822 8.65507 17.8153 8.51599 15.8314C8.37692 13.8475 8.95916 11.8802 10.1555 10.2915C10.935 9.26222 11.9426 8.42784 13.0993 7.85404C13.0334 8.31644 13.0002 8.78291 12.9999 9.24998C13.0026 11.835 14.0307 14.3134 15.8586 16.1413C17.6865 17.9691 20.1649 18.9972 22.7499 19C23.2179 18.9998 23.6853 18.9666 24.1486 18.9006C23.5743 20.0574 22.7393 21.0651 21.7093 21.8444Z" fill="#A8A8A8"/>
</svg>
