<svg width="323" height="316" viewBox="0 0 323 316" fill="none" xmlns="http://www.w3.org/2000/svg">
<path fill-rule="evenodd" clip-rule="evenodd" d="M170.194 265.754C210.419 264.601 252.654 259.144 278.51 230.263C305.006 200.667 308.917 159.326 299.044 121.827C289.398 85.1886 266.518 47.7262 227.747 37.4477C192.746 28.1687 167.56 66.0717 133.458 77.9284C89.7962 93.1088 26.4052 74.9504 6.487 114.376C-14.3232 155.568 18.6119 204.7 53.2367 236.717C83.4318 264.638 127.78 266.969 170.194 265.754Z" fill="#EBF8FF"/>
<path d="M232 158H221C218.791 158 217 159.791 217 162V223C217 225.209 218.791 227 221 227H232C234.209 227 236 225.209 236 223V162C236 159.791 234.209 158 232 158Z" fill="#CCE0EA"/>
<path d="M75 181C84.3888 181 92 173.389 92 164C92 154.611 84.3888 147 75 147C65.6112 147 58 154.611 58 164C58 173.389 65.6112 181 75 181Z" fill="#DEEFF8"/>
<path d="M258.5 108C261.538 108 264 105.538 264 102.5C264 99.4624 261.538 97 258.5 97C255.462 97 253 99.4624 253 102.5C253 105.538 255.462 108 258.5 108Z" fill="#DEEFF8"/>
<path d="M260 232C266.627 232 272 226.627 272 220C272 213.373 266.627 208 260 208C253.373 208 248 213.373 248 220C248 226.627 253.373 232 260 232Z" fill="#DEEFF8"/>
<path d="M231.246 141.234H231.192L200.231 154.455L157.869 172.544C157.703 172.614 157.526 172.65 157.346 172.651C157.166 172.652 156.988 172.617 156.822 172.549L113.117 154.417L81.3947 141.256L81.3462 141.234H81.2922C80.7917 141.235 80.3118 141.434 79.9579 141.788C79.6039 142.142 79.4049 142.622 79.4043 143.122V225.112C79.4049 225.612 79.6039 226.092 79.9579 226.446C80.3118 226.8 80.7917 226.999 81.2922 227H231.246C231.747 226.999 232.227 226.8 232.581 226.446C232.935 226.092 233.134 225.612 233.134 225.112V143.122C233.134 142.622 232.935 142.142 232.581 141.788C232.227 141.434 231.747 141.235 231.246 141.234Z" fill="white"/>
<path d="M231.381 141.774C231.326 141.774 231.273 141.757 231.228 141.725L156.639 89.78C156.412 89.6226 156.142 89.5385 155.866 89.539C155.59 89.5395 155.321 89.6245 155.094 89.7826L81.043 141.725C80.9844 141.766 80.912 141.782 80.8418 141.769C80.7715 141.757 80.709 141.717 80.668 141.658C80.627 141.6 80.6109 141.528 80.6231 141.457C80.6353 141.387 80.6749 141.324 80.7332 141.283L154.784 89.3409C155.101 89.1196 155.479 89.0006 155.865 89C156.252 88.9994 156.63 89.1171 156.947 89.3374L231.536 141.283C231.583 141.316 231.618 141.363 231.637 141.417C231.655 141.471 231.656 141.53 231.639 141.585C231.622 141.64 231.587 141.688 231.541 141.722C231.495 141.756 231.439 141.774 231.381 141.774Z" fill="#3F3D56"/>
<path d="M85.2734 143.614L155.938 91.2422L227.14 147.34L159.579 187.391L122.9 179.03L85.2734 143.614Z" fill="#DEEFF8"/>
<path d="M125.997 212.129H91.0865C90.654 212.13 90.2389 211.959 89.9325 211.653C89.6262 211.348 89.4538 210.933 89.4531 210.501C89.4525 210.068 89.6237 209.653 89.9291 209.347C90.2345 209.04 90.6491 208.868 91.0817 208.867H125.997C126.429 208.867 126.844 209.038 127.151 209.343C127.457 209.649 127.63 210.063 127.63 210.496C127.631 210.928 127.46 211.343 127.154 211.65C126.849 211.956 126.434 212.129 126.002 212.129H125.997Z" fill="#2962A5"/>
<path d="M103.612 205.117H91.0873C90.655 205.118 90.2402 204.946 89.9341 204.641C89.628 204.336 89.4557 203.921 89.4551 203.489C89.4544 203.056 89.6255 202.642 89.9307 202.335C90.2359 202.029 90.6502 201.856 91.0825 201.855H103.612C103.827 201.855 104.039 201.897 104.237 201.978C104.435 202.06 104.615 202.18 104.767 202.331C104.919 202.482 105.039 202.662 105.122 202.86C105.204 203.058 105.247 203.27 105.247 203.484C105.247 203.698 105.205 203.911 105.124 204.109C105.042 204.307 104.922 204.487 104.77 204.638C104.619 204.79 104.439 204.91 104.242 204.993C104.044 205.075 103.831 205.117 103.617 205.117H103.612Z" fill="#2962A5"/>
<path d="M156.933 172.785C156.668 172.785 156.405 172.733 156.159 172.633L112.578 154.55V97.9465C112.579 97.446 112.778 96.9661 113.132 96.6122C113.486 96.2583 113.965 96.0592 114.466 96.0586H198.074C198.574 96.0592 199.054 96.2583 199.408 96.6122C199.762 96.9661 199.961 97.446 199.961 97.9465V154.589L199.88 154.624L157.73 172.624C157.478 172.73 157.207 172.785 156.933 172.785Z" fill="white"/>
<path d="M156.933 172.921C156.65 172.922 156.37 172.867 156.108 172.76L112.443 154.642V97.9485C112.444 97.4123 112.657 96.8981 113.036 96.5189C113.416 96.1397 113.93 95.9264 114.466 95.9258H198.074C198.61 95.9264 199.124 96.1397 199.503 96.5189C199.883 96.8981 200.096 97.4123 200.096 97.9485V154.68L157.784 172.75C157.514 172.863 157.225 172.922 156.933 172.921ZM112.983 154.282L156.314 172.261C156.718 172.425 157.171 172.423 157.573 172.254L199.557 154.324V97.9485C199.557 97.5553 199.4 97.1783 199.122 96.9002C198.844 96.6221 198.467 96.4657 198.074 96.4652H114.466C114.073 96.4657 113.696 96.6221 113.418 96.9002C113.14 97.1783 112.983 97.5553 112.983 97.9485V154.282Z" fill="#3F3D56"/>
<path d="M230.842 141.234H230.788L199.826 154.455L157.464 172.544C157.299 172.614 157.121 172.65 156.942 172.651C156.762 172.652 156.584 172.617 156.418 172.549L112.713 154.417L80.9904 141.256L80.9419 141.234H80.8879C80.3874 141.235 79.9075 141.434 79.5536 141.788C79.1996 142.142 79.0006 142.622 79 143.122V225.112C79.0006 225.612 79.1996 226.092 79.5536 226.446C79.9075 226.8 80.3874 226.999 80.8879 227H230.842C231.343 226.999 231.823 226.8 232.176 226.446C232.53 226.092 232.729 225.612 232.73 225.112V143.122C232.729 142.622 232.53 142.142 232.176 141.788C231.823 141.434 231.343 141.235 230.842 141.234ZM232.191 225.112C232.19 225.469 232.048 225.812 231.796 226.065C231.543 226.318 231.2 226.46 230.842 226.46H80.8879C80.5303 226.46 80.1874 226.318 79.9345 226.065C79.6816 225.812 79.5396 225.469 79.5394 225.112V143.122C79.5399 142.774 79.6751 142.439 79.9169 142.187C80.1587 141.936 80.4882 141.788 80.8367 141.774L112.713 155L156.21 173.048C156.681 173.24 157.209 173.237 157.677 173.04L199.826 155.04L230.896 141.774C231.244 141.789 231.573 141.937 231.814 142.189C232.055 142.44 232.19 142.774 232.191 143.122V225.112Z" fill="#3F3D56"/>
<path d="M150.148 117.218H120.481C119.909 117.217 119.361 116.989 118.957 116.585C118.553 116.18 118.326 115.632 118.326 115.06C118.326 114.488 118.553 113.94 118.957 113.535C119.361 113.131 119.909 112.903 120.481 112.902H150.148C150.72 112.903 151.268 113.131 151.672 113.535C152.076 113.94 152.302 114.488 152.302 115.06C152.302 115.632 152.076 116.18 151.672 116.585C151.268 116.989 150.72 117.217 150.148 117.218Z" fill="#2962A5"/>
<path d="M134.774 108.046H120.48C119.908 108.046 119.359 107.818 118.954 107.414C118.55 107.009 118.322 106.46 118.322 105.888C118.322 105.316 118.55 104.767 118.954 104.362C119.359 103.958 119.908 103.73 120.48 103.73H134.774C135.346 103.73 135.895 103.958 136.3 104.362C136.704 104.767 136.932 105.316 136.932 105.888C136.932 106.46 136.704 107.009 136.3 107.414C135.895 107.818 135.346 108.046 134.774 108.046Z" fill="#2962A5"/>
<path d="M178.459 138.796H133.149C132.577 138.795 132.029 138.567 131.625 138.163C131.221 137.758 130.994 137.21 130.994 136.638C130.994 136.066 131.221 135.518 131.625 135.114C132.029 134.709 132.577 134.481 133.149 134.48H178.459C179.03 134.481 179.578 134.709 179.982 135.114C180.386 135.518 180.613 136.066 180.613 136.638C180.613 137.21 180.386 137.758 179.982 138.163C179.578 138.567 179.03 138.795 178.459 138.796Z" fill="#DEEFF8"/>
<path d="M178.458 148.776H133.148C132.576 148.776 132.027 148.549 131.622 148.144C131.218 147.74 130.99 147.191 130.99 146.619C130.99 146.046 131.218 145.498 131.622 145.093C132.027 144.688 132.576 144.461 133.148 144.461H178.458C179.03 144.461 179.579 144.688 179.983 145.093C180.388 145.498 180.615 146.046 180.615 146.619C180.615 147.191 180.388 147.74 179.983 148.144C179.579 148.549 179.03 148.776 178.458 148.776Z" fill="#DEEFF8"/>
<path d="M230.006 162.532C241.337 162.532 250.522 153.347 250.522 142.016C250.522 130.685 241.337 121.5 230.006 121.5C218.676 121.5 209.49 130.685 209.49 142.016C209.49 153.347 218.676 162.532 230.006 162.532Z" fill="#2962A5"/>
<path d="M228.023 145.728L229.745 130.631L234.429 131.457L230.883 146.233L228.023 145.728ZM228.309 152.648C227.599 152.523 227.025 152.16 226.587 151.56C226.17 150.964 226.023 150.311 226.149 149.601C226.274 148.891 226.633 148.338 227.226 147.94C227.842 147.526 228.506 147.382 229.215 147.507C229.905 147.629 230.459 147.988 230.876 148.584C231.297 149.16 231.445 149.803 231.32 150.513C231.195 151.223 230.834 151.787 230.238 152.204C229.641 152.622 228.998 152.77 228.309 152.648Z" fill="white"/>
</svg>
