<svg width="16" height="16" viewBox="0 0 16 16" fill="none" xmlns="http://www.w3.org/2000/svg">
<path d="M10.5 8C10.5 8.13261 10.4473 8.25979 10.3536 8.35355C10.2598 8.44732 10.1326 8.5 10 8.5H6C5.86739 8.5 5.74021 8.44732 5.64645 8.35355C5.55268 8.25979 5.5 8.13261 5.5 8C5.5 7.86739 5.55268 7.74021 5.64645 7.64645C5.74021 7.55268 5.86739 7.5 6 7.5H10C10.1326 7.5 10.2598 7.55268 10.3536 7.64645C10.4473 7.74021 10.5 7.86739 10.5 8ZM10 9.5H6C5.86739 9.5 5.74021 9.55268 5.64645 9.64645C5.55268 9.74021 5.5 9.86739 5.5 10C5.5 10.1326 5.55268 10.2598 5.64645 10.3536C5.74021 10.4473 5.86739 10.5 6 10.5H10C10.1326 10.5 10.2598 10.4473 10.3536 10.3536C10.4473 10.2598 10.5 10.1326 10.5 10C10.5 9.86739 10.4473 9.74021 10.3536 9.64645C10.2598 9.55268 10.1326 9.5 10 9.5ZM13.5 2.5V12.5C13.5 13.0304 13.2893 13.5391 12.9142 13.9142C12.5391 14.2893 12.0304 14.5 11.5 14.5H4.5C3.96957 14.5 3.46086 14.2893 3.08579 13.9142C2.71071 13.5391 2.5 13.0304 2.5 12.5V2.5C2.5 2.36739 2.55268 2.24021 2.64645 2.14645C2.74021 2.05268 2.86739 2 3 2H4.5V1.5C4.5 1.36739 4.55268 1.24021 4.64645 1.14645C4.74021 1.05268 4.86739 1 5 1C5.13261 1 5.25979 1.05268 5.35355 1.14645C5.44732 1.24021 5.5 1.36739 5.5 1.5V2H7.5V1.5C7.5 1.36739 7.55268 1.24021 7.64645 1.14645C7.74021 1.05268 7.86739 1 8 1C8.13261 1 8.25979 1.05268 8.35355 1.14645C8.44732 1.24021 8.5 1.36739 8.5 1.5V2H10.5V1.5C10.5 1.36739 10.5527 1.24021 10.6464 1.14645C10.7402 1.05268 10.8674 1 11 1C11.1326 1 11.2598 1.05268 11.3536 1.14645C11.4473 1.24021 11.5 1.36739 11.5 1.5V2H13C13.1326 2 13.2598 2.05268 13.3536 2.14645C13.4473 2.24021 13.5 2.36739 13.5 2.5ZM12.5 3H11.5V3.5C11.5 3.63261 11.4473 3.75979 11.3536 3.85355C11.2598 3.94732 11.1326 4 11 4C10.8674 4 10.7402 3.94732 10.6464 3.85355C10.5527 3.75979 10.5 3.63261 10.5 3.5V3H8.5V3.5C8.5 3.63261 8.44732 3.75979 8.35355 3.85355C8.25979 3.94732 8.13261 4 8 4C7.86739 4 7.74021 3.94732 7.64645 3.85355C7.55268 3.75979 7.5 3.63261 7.5 3.5V3H5.5V3.5C5.5 3.63261 5.44732 3.75979 5.35355 3.85355C5.25979 3.94732 5.13261 4 5 4C4.86739 4 4.74021 3.94732 4.64645 3.85355C4.55268 3.75979 4.5 3.63261 4.5 3.5V3H3.5V12.5C3.5 12.7652 3.60536 13.0196 3.79289 13.2071C3.98043 13.3946 4.23478 13.5 4.5 13.5H11.5C11.7652 13.5 12.0196 13.3946 12.2071 13.2071C12.3946 13.0196 12.5 12.7652 12.5 12.5V3Z" fill="#606060"/>
</svg>
