<svg width="16" height="16" viewBox="0 0 16 16" fill="none" xmlns="http://www.w3.org/2000/svg">
<path d="M3.425 7.46812C3.33197 7.6621 3.21088 7.84131 3.06562 8C3.21088 8.15869 3.33197 8.3379 3.425 8.53187C3.75 9.2025 3.75 9.98938 3.75 10.75C3.75 12.3713 3.865 12.75 5 12.75C5.19891 12.75 5.38968 12.829 5.53033 12.9697C5.67098 13.1103 5.75 13.3011 5.75 13.5C5.75 13.6989 5.67098 13.8897 5.53033 14.0303C5.38968 14.171 5.19891 14.25 5 14.25C3.80375 14.25 2.9875 13.8188 2.575 12.9681C2.25 12.2975 2.25 11.5106 2.25 10.75C2.25 9.12875 2.135 8.75 1 8.75C0.801088 8.75 0.610322 8.67098 0.46967 8.53033C0.329018 8.38968 0.25 8.19891 0.25 8C0.25 7.80109 0.329018 7.61032 0.46967 7.46967C0.610322 7.32902 0.801088 7.25 1 7.25C2.135 7.25 2.25 6.87125 2.25 5.25C2.25 4.48938 2.25 3.7025 2.575 3.03187C2.9875 2.18125 3.80375 1.75 5 1.75C5.19891 1.75 5.38968 1.82902 5.53033 1.96967C5.67098 2.11032 5.75 2.30109 5.75 2.5C5.75 2.69891 5.67098 2.88968 5.53033 3.03033C5.38968 3.17098 5.19891 3.25 5 3.25C3.865 3.25 3.75 3.62875 3.75 5.25C3.75 6.01062 3.75 6.7975 3.425 7.46812ZM15 7.25C13.865 7.25 13.75 6.87125 13.75 5.25C13.75 4.48938 13.75 3.7025 13.425 3.03187C13.0125 2.18125 12.1962 1.75 11 1.75C10.8011 1.75 10.6103 1.82902 10.4697 1.96967C10.329 2.11032 10.25 2.30109 10.25 2.5C10.25 2.69891 10.329 2.88968 10.4697 3.03033C10.6103 3.17098 10.8011 3.25 11 3.25C12.135 3.25 12.25 3.62875 12.25 5.25C12.25 6.01062 12.25 6.7975 12.575 7.46812C12.669 7.66229 12.7911 7.84152 12.9375 8C12.7922 8.15869 12.6712 8.3379 12.5781 8.53187C12.25 9.2025 12.25 9.98938 12.25 10.75C12.25 12.3713 12.135 12.75 11 12.75C10.8011 12.75 10.6103 12.829 10.4697 12.9697C10.329 13.1103 10.25 13.3011 10.25 13.5C10.25 13.6989 10.329 13.8897 10.4697 14.0303C10.6103 14.171 10.8011 14.25 11 14.25C12.1962 14.25 13.0125 13.8188 13.425 12.9681C13.75 12.2975 13.75 11.5106 13.75 10.75C13.75 9.12875 13.865 8.75 15 8.75C15.1989 8.75 15.3897 8.67098 15.5303 8.53033C15.671 8.38968 15.75 8.19891 15.75 8C15.75 7.80109 15.671 7.61032 15.5303 7.46967C15.3897 7.32902 15.1989 7.25 15 7.25Z" fill="#606060"/>
</svg>
