<svg width="25" height="25" viewBox="0 0 25 25" fill="none" xmlns="http://www.w3.org/2000/svg">
<path d="M12.417 2.73047C10.4886 2.73047 8.60357 3.3023 7.00019 4.37364C5.39681 5.44498 4.14713 6.96773 3.40917 8.74931C2.67122 10.5309 2.47813 12.4913 2.85434 14.3826C3.23055 16.2739 4.15914 18.0112 5.52271 19.3748C6.88627 20.7383 8.62355 21.6669 10.5149 22.0431C12.4062 22.4193 14.3666 22.2262 16.1482 21.4883C17.9297 20.7503 19.4525 19.5007 20.5238 17.8973C21.5952 16.2939 22.167 14.4088 22.167 12.4805C22.1643 9.89545 21.1362 7.41708 19.3083 5.58919C17.4804 3.7613 15.002 2.7332 12.417 2.73047ZM12.417 20.7305C10.7853 20.7305 9.19025 20.2466 7.83354 19.3401C6.47684 18.4336 5.41941 17.1451 4.79499 15.6376C4.17057 14.1301 4.00719 12.4713 4.32552 10.871C4.64385 9.27063 5.42958 7.80062 6.58337 6.64684C7.73715 5.49305 9.20716 4.70732 10.8075 4.38899C12.4078 4.07066 14.0666 4.23404 15.5741 4.85846C17.0816 5.48289 18.3701 6.54031 19.2766 7.89701C20.1831 9.25372 20.667 10.8488 20.667 12.4805C20.6645 14.6677 19.7945 16.7647 18.2479 18.3114C16.7012 19.858 14.6043 20.728 12.417 20.7305ZM16.917 12.4805C16.917 12.6794 16.838 12.8701 16.6973 13.0108C16.5567 13.1515 16.3659 13.2305 16.167 13.2305H13.167V16.2305C13.167 16.4294 13.088 16.6201 12.9473 16.7608C12.8067 16.9015 12.6159 16.9805 12.417 16.9805C12.2181 16.9805 12.0273 16.9015 11.8867 16.7608C11.746 16.6201 11.667 16.4294 11.667 16.2305V13.2305H8.667C8.46808 13.2305 8.27732 13.1515 8.13667 13.0108C7.99601 12.8701 7.917 12.6794 7.917 12.4805C7.917 12.2816 7.99601 12.0908 8.13667 11.9501C8.27732 11.8095 8.46808 11.7305 8.667 11.7305H11.667V8.73047C11.667 8.53156 11.746 8.34079 11.8867 8.20014C12.0273 8.05949 12.2181 7.98047 12.417 7.98047C12.6159 7.98047 12.8067 8.05949 12.9473 8.20014C13.088 8.34079 13.167 8.53156 13.167 8.73047V11.7305H16.167C16.3659 11.7305 16.5567 11.8095 16.6973 11.9501C16.838 12.0908 16.917 12.2816 16.917 12.4805Z" fill="#161819"/>
</svg>
