<svg width="20" height="20" viewBox="0 0 20 20" fill="none" xmlns="http://www.w3.org/2000/svg">
<path d="M15 7.5C15 9.72734 13.0883 11.5711 10.625 11.8406V12.5C10.625 12.6658 10.5592 12.8247 10.4419 12.9419C10.3247 13.0592 10.1658 13.125 10 13.125C9.83424 13.125 9.67527 13.0592 9.55806 12.9419C9.44085 12.8247 9.375 12.6658 9.375 12.5V11.25C9.375 11.0842 9.44085 10.9253 9.55806 10.8081C9.67527 10.6908 9.83424 10.625 10 10.625C12.068 10.625 13.75 9.22344 13.75 7.5C13.75 5.77656 12.068 4.375 10 4.375C7.93203 4.375 6.25 5.77656 6.25 7.5C6.25 7.66576 6.18415 7.82473 6.06694 7.94194C5.94973 8.05915 5.79076 8.125 5.625 8.125C5.45924 8.125 5.30027 8.05915 5.18306 7.94194C5.06585 7.82473 5 7.66576 5 7.5C5 5.0875 7.24297 3.125 10 3.125C12.757 3.125 15 5.0875 15 7.5ZM10 15C9.75277 15 9.5111 15.0733 9.30554 15.2107C9.09998 15.348 8.93976 15.5432 8.84515 15.7716C8.75054 16.0001 8.72579 16.2514 8.77402 16.4939C8.82225 16.7363 8.9413 16.9591 9.11612 17.1339C9.29093 17.3087 9.51366 17.4278 9.75614 17.476C9.99861 17.5242 10.2499 17.4995 10.4784 17.4049C10.7068 17.3102 10.902 17.15 11.0393 16.9445C11.1767 16.7389 11.25 16.4972 11.25 16.25C11.25 15.9185 11.1183 15.6005 10.8839 15.3661C10.6495 15.1317 10.3315 15 10 15Z" fill="#3B3B3B"/>
</svg>
