<svg width="14" height="14" viewBox="0 0 14 14" fill="none" xmlns="http://www.w3.org/2000/svg">
<rect x="0.35" y="0.35" width="13.3" height="13.3" rx="3.85" fill="#F9FAFB"/>
<rect x="0.35" y="0.35" width="13.3" height="13.3" rx="3.85" stroke="#364153" stroke-width="0.7"/>
<path d="M10.9062 7C10.9062 7.12432 10.8569 7.24355 10.769 7.33146C10.681 7.41936 10.5618 7.46875 10.4375 7.46875H3.5625C3.43818 7.46875 3.31895 7.41936 3.23104 7.33146C3.14314 7.24355 3.09375 7.12432 3.09375 7C3.09375 6.87568 3.14314 6.75645 3.23104 6.66854C3.31895 6.58064 3.43818 6.53125 3.5625 6.53125H10.4375C10.5618 6.53125 10.681 6.58064 10.769 6.66854C10.8569 6.75645 10.9062 6.87568 10.9062 7Z" fill="#6A7282"/>
</svg>
