<svg width="16" height="16" viewBox="0 0 16 16" fill="none" xmlns="http://www.w3.org/2000/svg">
<g id="MagnifyingGlass">
<path id="Vector" d="M14.3537 13.6466L11.2243 10.5178C12.1313 9.42889 12.5836 8.0322 12.487 6.61829C12.3905 5.20437 11.7526 3.88211 10.706 2.92656C9.65938 1.97101 8.28468 1.45573 6.86784 1.48793C5.451 1.52013 4.10113 2.09733 3.09901 3.09944C2.0969 4.10155 1.51971 5.45143 1.48751 6.86827C1.45531 8.2851 1.97058 9.65981 2.92613 10.7064C3.88168 11.753 5.20395 12.3909 6.61786 12.4875C8.03177 12.584 9.42847 12.1317 10.5174 11.2247L13.6462 14.3541C13.6926 14.4005 13.7478 14.4374 13.8085 14.4625C13.8691 14.4877 13.9342 14.5006 13.9999 14.5006C14.0656 14.5006 14.1307 14.4877 14.1913 14.4625C14.252 14.4374 14.3072 14.4005 14.3537 14.3541C14.4001 14.3076 14.437 14.2525 14.4621 14.1918C14.4872 14.1311 14.5002 14.066 14.5002 14.0003C14.5002 13.9346 14.4872 13.8696 14.4621 13.8089C14.437 13.7482 14.4001 13.693 14.3537 13.6466ZM2.4999 7.00033C2.4999 6.11031 2.76382 5.24028 3.25829 4.50026C3.75275 3.76024 4.45556 3.18346 5.27782 2.84287C6.10009 2.50227 7.00489 2.41316 7.87781 2.58679C8.75072 2.76043 9.55254 3.18901 10.1819 3.81835C10.8112 4.44768 11.2398 5.24951 11.4134 6.12242C11.5871 6.99533 11.498 7.90013 11.1574 8.7224C10.8168 9.54467 10.24 10.2475 9.49997 10.7419C8.75994 11.2364 7.88991 11.5003 6.9999 11.5003C5.80683 11.499 4.66301 11.0245 3.81938 10.1808C2.97575 9.33722 2.50122 8.19339 2.4999 7.00033Z" fill="#606060"/>
</g>
</svg>
