<svg width="360" height="80" viewBox="0 0 360 80" fill="none" xmlns="http://www.w3.org/2000/svg">
<path d="M0 12C0 5.37258 5.37258 0 12 0H348C354.627 0 360 5.37258 360 12V80H0V12Z" fill="#EEF9FF"/>
<rect x="8" y="51" width="82" height="17" fill="#FFE88A"/>
<path d="M11.8161 24V22.603H14.1275C14.6778 22.603 15.152 22.476 15.5499 22.222C15.9478 21.9595 16.2526 21.5997 16.4643 21.1425C16.676 20.6853 16.7818 20.1561 16.7818 19.555C16.7818 18.9454 16.676 18.412 16.4643 17.9548C16.2526 17.4976 15.9478 17.142 15.5499 16.888C15.152 16.634 14.6778 16.507 14.1275 16.507H11.8161V15.11H14.1275C14.9742 15.11 15.7065 15.3005 16.3246 15.6815C16.9427 16.054 17.4168 16.5747 17.747 17.2436C18.0772 17.9125 18.2423 18.6829 18.2423 19.555C18.2423 20.4271 18.0772 21.1975 17.747 21.8664C17.4168 22.5353 16.9427 23.0602 16.3246 23.4412C15.7065 23.8137 14.9742 24 14.1275 24H11.8161ZM10.9271 24V15.11H12.3876V24H10.9271ZM20.4821 22.095V20.063L24.8128 15.11H26.6035V15.2116L20.4821 22.095ZM19.7328 24V15.11H21.1933V24H19.7328ZM25.1176 24L22.0061 19.5296L23.0856 18.5644L26.7813 23.8984V24H25.1176ZM27.5586 24V15.11H29.0191V24H27.5586ZM34.8957 24L34.9084 23.7333L38.5914 15.11H40.0011V15.3767L36.3181 24H34.8957ZM30.8825 24V15.11H32.343V24H30.8825ZM34.9084 24L31.2127 15.3767V15.11H32.6351L36.3181 23.7333V24H34.9084ZM38.8708 24V15.11H40.3313V24H38.8708ZM41.7997 21.0663V19.6693H46.2828V21.0663H41.7997ZM50.811 24.1905C50.1929 24.1905 49.6341 24.0804 49.1346 23.8603C48.6435 23.6402 48.2329 23.3311 47.9027 22.9332C47.5725 22.5268 47.3523 22.0611 47.2423 21.5362L48.5758 21.1933L48.7155 21.2187C48.8255 21.532 48.9822 21.8114 49.1854 22.0569C49.397 22.294 49.6468 22.4802 49.9347 22.6157C50.2225 22.7512 50.5316 22.8189 50.8618 22.8189C51.2004 22.8189 51.4968 22.7681 51.7508 22.6665C52.0048 22.5564 52.2037 22.4083 52.3477 22.222C52.5001 22.0273 52.5763 21.8071 52.5763 21.5616C52.5763 21.2568 52.4789 21.0155 52.2842 20.8377C52.0979 20.6514 51.8185 20.5075 51.446 20.4059L49.8458 19.9868C49.0922 19.7836 48.5165 19.4576 48.1186 19.0089C47.7291 18.5602 47.5344 18.0395 47.5344 17.4468C47.5344 16.9473 47.6614 16.5112 47.9154 16.1387C48.1694 15.7577 48.525 15.4614 48.9822 15.2497C49.4394 15.0296 49.9685 14.9195 50.5697 14.9195C51.1454 14.9195 51.6619 15.0253 52.1191 15.237C52.5847 15.4402 52.97 15.7281 53.2748 16.1006C53.5796 16.4731 53.7785 16.9176 53.8717 17.4341L52.6144 17.7135L52.4747 17.6881C52.3731 17.2478 52.1529 16.9049 51.8143 16.6594C51.4756 16.4139 51.0565 16.2911 50.557 16.2911C50.0998 16.2911 49.7357 16.4012 49.4648 16.6213C49.1938 16.833 49.0584 17.1081 49.0584 17.4468C49.0584 17.7262 49.1557 17.9633 49.3505 18.158C49.5537 18.3527 49.85 18.5009 50.2395 18.6025L51.8397 19.0216C52.5763 19.2163 53.1351 19.5254 53.5161 19.9487C53.9055 20.3636 54.1003 20.88 54.1003 21.4981C54.1003 22.04 53.9648 22.5141 53.6939 22.9205C53.4229 23.3184 53.0377 23.6317 52.5382 23.8603C52.0471 24.0804 51.4714 24.1905 50.811 24.1905ZM55.4485 24V17.5865H56.909V24H55.4485ZM56.1851 16.6213C55.9311 16.6213 55.7152 16.5324 55.5374 16.3546C55.3596 16.1768 55.2707 15.9567 55.2707 15.6942C55.2707 15.4487 55.3596 15.237 55.5374 15.0592C55.7152 14.8729 55.9354 14.7798 56.1978 14.7798C56.4434 14.7798 56.655 14.8729 56.8328 15.0592C57.0191 15.237 57.1122 15.4529 57.1122 15.7069C57.1122 15.9609 57.0191 16.1768 56.8328 16.3546C56.655 16.5324 56.4391 16.6213 56.1851 16.6213ZM60.6609 26.54C59.7973 26.54 59.12 26.3707 58.6289 26.032C58.1378 25.7018 57.8923 25.2404 57.8923 24.6477C57.8923 24.2667 57.9939 23.9323 58.1971 23.6444C58.4088 23.3565 58.7093 23.1322 59.0988 22.9713L59.81 23.5809C59.6322 23.6571 59.4925 23.7714 59.3909 23.9238C59.2978 24.0762 59.2512 24.2413 59.2512 24.4191C59.2512 24.6646 59.3443 24.8805 59.5306 25.0668C59.7253 25.2531 60.0386 25.3462 60.4704 25.3462H61.3594C61.8166 25.3462 62.1595 25.2785 62.3881 25.143C62.6167 25.016 62.731 24.8255 62.731 24.5715C62.731 24.3683 62.6463 24.2117 62.477 24.1016C62.3161 23.9915 62.0918 23.9365 61.8039 23.9365H60.2164C59.8439 23.9365 59.5094 23.873 59.2131 23.746C58.9252 23.619 58.6966 23.4454 58.5273 23.2253C58.358 22.9967 58.2733 22.7385 58.2733 22.4506C58.2733 22.1289 58.3707 21.8452 58.5654 21.5997C58.7686 21.3457 59.0565 21.1425 59.429 20.9901L60.2164 21.6251C60.0132 21.642 59.8566 21.714 59.7465 21.841C59.6364 21.9595 59.5814 22.0865 59.5814 22.222C59.5814 22.3913 59.6491 22.5268 59.7846 22.6284C59.9201 22.7215 60.1275 22.7681 60.4069 22.7681H61.9563C62.5998 22.7681 63.112 22.929 63.493 23.2507C63.8825 23.5724 64.0772 24 64.0772 24.5334C64.0772 25.143 63.8317 25.6298 63.3406 25.9939C62.8495 26.358 62.1849 26.54 61.3467 26.54H60.6609ZM61.0419 21.9553C60.517 21.9553 60.0555 21.8579 59.6576 21.6632C59.2597 21.4685 58.9464 21.2018 58.7178 20.8631C58.4977 20.516 58.3876 20.118 58.3876 19.6693C58.3876 19.2206 58.4977 18.8269 58.7178 18.4882C58.9464 18.1495 59.2597 17.8828 59.6576 17.6881C60.0555 17.4934 60.517 17.396 61.0419 17.396C61.5668 17.396 62.024 17.4934 62.4135 17.6881C62.8114 17.8828 63.1205 18.1495 63.3406 18.4882C63.5692 18.8269 63.6835 19.2206 63.6835 19.6693C63.6835 20.118 63.5692 20.516 63.3406 20.8631C63.1205 21.2018 62.8114 21.4685 62.4135 21.6632C62.024 21.8579 61.5668 21.9553 61.0419 21.9553ZM61.0419 20.7869C61.4229 20.7869 61.7319 20.6853 61.969 20.4821C62.2061 20.2704 62.3246 19.9995 62.3246 19.6693C62.3246 19.3391 62.2061 19.0724 61.969 18.8692C61.7319 18.666 61.4229 18.5644 61.0419 18.5644C60.6524 18.5644 60.3392 18.666 60.1021 18.8692C59.8735 19.0724 59.7592 19.3391 59.7592 19.6693C59.7592 19.9995 59.8735 20.2704 60.1021 20.4821C60.3392 20.6853 60.6524 20.7869 61.0419 20.7869ZM62.8961 18.5263L61.9817 18.0818C61.9817 17.7093 62.0537 17.3791 62.1976 17.0912C62.3415 16.8033 62.5363 16.579 62.7818 16.4181C63.0358 16.2488 63.3194 16.1641 63.6327 16.1641C63.7258 16.1641 63.8147 16.1683 63.8994 16.1768C63.9841 16.1768 64.0476 16.1853 64.0899 16.2022V17.4341L64.0264 17.5611C63.9417 17.5357 63.8359 17.523 63.7089 17.523C63.438 17.523 63.2348 17.6161 63.0993 17.8024C62.9638 17.9887 62.8961 18.23 62.8961 18.5263ZM65.0976 24V17.5865H66.4692V19.2248L66.1009 19.1994C66.2363 18.8269 66.4311 18.5094 66.6851 18.2469C66.9391 17.976 67.2354 17.7685 67.5741 17.6246C67.9127 17.4722 68.281 17.396 68.679 17.396C69.1362 17.396 69.5468 17.4976 69.9109 17.7008C70.2834 17.8955 70.5755 18.1876 70.7872 18.5771C71.0073 18.9581 71.1174 19.4365 71.1174 20.0122V24H69.6569V20.4567C69.6569 20.0503 69.6018 19.7201 69.4918 19.4661C69.3817 19.2121 69.2208 19.0258 69.0092 18.9073C68.806 18.7888 68.5689 18.7295 68.298 18.7295C68.044 18.7295 67.7815 18.793 67.5106 18.92C67.2481 19.047 67.0237 19.2587 66.8375 19.555C66.6512 19.8513 66.5581 20.2535 66.5581 20.7615V24H65.0976ZM74.6442 24.1905C74.2039 24.1905 73.8102 24.1058 73.4631 23.9365C73.1244 23.7672 72.8577 23.5301 72.663 23.2253C72.4683 22.9205 72.3709 22.5734 72.3709 22.1839C72.3709 21.5828 72.5783 21.1044 72.9932 20.7488C73.4081 20.3847 74.005 20.1731 74.7839 20.1138L77.2731 19.9106V21.1171L74.9998 21.3076C74.5934 21.3415 74.3013 21.4261 74.1235 21.5616C73.9457 21.6971 73.8568 21.8791 73.8568 22.1077C73.8568 22.3363 73.9584 22.5226 74.1616 22.6665C74.3648 22.8104 74.623 22.8824 74.9363 22.8824C75.2665 22.8824 75.5628 22.802 75.8253 22.6411C76.0962 22.4718 76.3121 22.2559 76.473 21.9934C76.6339 21.7309 76.7143 21.4473 76.7143 21.1425V20.0884C76.7143 19.682 76.5788 19.3476 76.3079 19.0851C76.037 18.8142 75.6814 18.6787 75.2411 18.6787C74.8686 18.6787 74.5595 18.7718 74.314 18.9581C74.0769 19.1359 73.9245 19.3603 73.8568 19.6312H73.7171L72.4725 19.3264C72.6249 18.7507 72.9424 18.285 73.425 17.9294C73.9161 17.5738 74.5257 17.396 75.2538 17.396C76.1597 17.396 76.8667 17.6585 77.3747 18.1834C77.8827 18.6999 78.1367 19.4322 78.1367 20.3805V24H76.8413V22.1331L77.362 22.2093C77.2604 22.5734 77.0784 22.9078 76.8159 23.2126C76.5534 23.5089 76.2359 23.746 75.8634 23.9238C75.4993 24.1016 75.0929 24.1905 74.6442 24.1905ZM81.8651 24C81.2386 24 80.7391 23.8053 80.3665 23.4158C79.994 23.0179 79.8077 22.4845 79.8077 21.8156V15.9228H81.2682V21.6632C81.2682 22.0019 81.3529 22.2559 81.5222 22.4252C81.7 22.5945 81.954 22.6792 82.2842 22.6792H82.9446L83.0081 22.8189V24H81.8651ZM78.7155 18.8946V17.5865H83.0081V18.8946H78.7155ZM90.0543 17.5865V24H88.6954V22.3617L89.0637 22.3871C88.9282 22.7596 88.7335 23.0814 88.4795 23.3523C88.2255 23.6148 87.9291 23.8222 87.5905 23.9746C87.2518 24.1185 86.8835 24.1905 86.4856 24.1905C86.0284 24.1905 85.6135 24.0931 85.241 23.8984C84.8769 23.6952 84.5848 23.3989 84.3647 23.0094C84.1445 22.6199 84.0345 22.1373 84.0345 21.5616V17.5865H85.495V21.1298C85.495 21.5277 85.55 21.8537 85.6601 22.1077C85.7786 22.3617 85.9395 22.5522 86.1427 22.6792C86.3543 22.7977 86.5956 22.857 86.8666 22.857C87.1206 22.857 87.3788 22.7935 87.6413 22.6665C87.9122 22.531 88.1366 22.3151 88.3144 22.0188C88.5006 21.7225 88.5938 21.3203 88.5938 20.8123V17.5865H90.0543ZM91.6634 24V17.5865H93.035V19.2248L92.6667 19.1994C92.8445 18.6999 93.1408 18.3062 93.5557 18.0183C93.9705 17.7304 94.4447 17.5865 94.9781 17.5865H95.6004V18.8946H94.7622C94.432 18.8946 94.1441 18.9708 93.8986 19.1232C93.653 19.2671 93.4625 19.4746 93.3271 19.7455C93.1916 20.0164 93.1239 20.3382 93.1239 20.7107V24H91.6634ZM99.1992 24.1905C98.5473 24.1905 97.9716 24.0466 97.472 23.7587C96.981 23.4708 96.5957 23.0729 96.3163 22.5649C96.0369 22.0569 95.8972 21.4642 95.8972 20.7869C95.8972 20.118 96.0327 19.5296 96.3036 19.0216C96.583 18.5051 96.964 18.1072 97.4466 17.8278C97.9377 17.5399 98.5007 17.396 99.1357 17.396C99.7707 17.396 100.321 17.5442 100.787 17.8405C101.261 18.1284 101.629 18.5348 101.892 19.0597C102.163 19.5846 102.298 20.1985 102.298 20.9012V21.1425L102.108 21.333H96.583V20.1138H101.638L100.863 20.4059C100.854 20.0503 100.77 19.7455 100.609 19.4915C100.457 19.229 100.253 19.0301 99.9993 18.8946C99.7538 18.7507 99.4744 18.6787 99.1611 18.6787C98.8225 18.6787 98.5134 18.7591 98.234 18.92C97.9546 19.0724 97.7387 19.2883 97.5863 19.5677C97.4339 19.8386 97.3577 20.1561 97.3577 20.5202V21.0282C97.3577 21.3753 97.4382 21.6928 97.599 21.9807C97.7684 22.2601 97.9927 22.4845 98.2721 22.6538C98.5515 22.8231 98.8606 22.9078 99.1992 22.9078C99.521 22.9078 99.8131 22.8231 100.076 22.6538C100.346 22.476 100.558 22.2389 100.711 21.9426H100.863L102.044 22.4506C101.79 23.0009 101.413 23.4285 100.914 23.7333C100.423 24.0381 99.8512 24.1905 99.1992 24.1905ZM104.408 19.3899C104.137 19.3899 103.904 19.2968 103.71 19.1105C103.523 18.9242 103.43 18.6956 103.43 18.4247C103.43 18.1622 103.523 17.9379 103.71 17.7516C103.904 17.5653 104.137 17.4722 104.408 17.4722C104.671 17.4722 104.895 17.5653 105.081 17.7516C105.267 17.9379 105.361 18.1622 105.361 18.4247C105.361 18.6956 105.267 18.9242 105.081 19.1105C104.895 19.2968 104.671 19.3899 104.408 19.3899ZM104.408 24.1143C104.137 24.1143 103.904 24.0212 103.71 23.8349C103.523 23.6486 103.43 23.42 103.43 23.1491C103.43 22.8866 103.523 22.6623 103.71 22.476C103.904 22.2897 104.137 22.1966 104.408 22.1966C104.671 22.1966 104.895 22.2897 105.081 22.476C105.267 22.6623 105.361 22.8866 105.361 23.1491C105.361 23.42 105.267 23.6486 105.081 23.8349C104.895 24.0212 104.671 24.1143 104.408 24.1143ZM111.484 24L111.509 23.111L113.719 17.6373H114.836V17.7389L112.258 24H111.484ZM111.204 24L108.626 17.7389V17.6373H109.744L111.954 23.111L111.992 24H111.204ZM115.584 18.8438V17.8024H121.311V18.8438H115.584ZM115.584 21.3076V20.2662H121.311V21.3076H115.584ZM124.026 24V15.6053L124.56 16.0625L122.413 17.777H122.312V16.5324L124.064 15.11H125.106V24H124.026ZM127.635 19.1232C127.406 19.1232 127.216 19.047 127.064 18.8946C126.911 18.7422 126.835 18.5559 126.835 18.3358C126.835 18.1072 126.911 17.9167 127.064 17.7643C127.216 17.6119 127.406 17.5357 127.635 17.5357C127.864 17.5357 128.05 17.6119 128.194 17.7643C128.346 17.9167 128.422 18.1072 128.422 18.3358C128.422 18.5559 128.346 18.7422 128.194 18.8946C128.05 19.047 127.864 19.1232 127.635 19.1232ZM126.886 25.7145V24.9398C127.165 24.8805 127.381 24.7578 127.533 24.5715C127.686 24.3937 127.762 24.182 127.762 23.9365C127.762 23.801 127.741 23.6656 127.699 23.5301L128.194 23.2634C128.211 23.3142 128.219 23.365 128.219 23.4158C128.228 23.4666 128.232 23.5174 128.232 23.5682C128.232 23.7206 128.19 23.8391 128.105 23.9238C128.029 24 127.94 24.0466 127.838 24.0635C127.745 24.0889 127.677 24.1016 127.635 24.1016C127.406 24.1016 127.216 24.0254 127.064 23.873C126.911 23.7206 126.835 23.5343 126.835 23.3142C126.835 23.0856 126.911 22.8951 127.064 22.7427C127.216 22.5903 127.406 22.5141 127.635 22.5141C127.838 22.5141 128.008 22.5734 128.143 22.6919C128.279 22.802 128.38 22.9501 128.448 23.1364C128.524 23.3227 128.562 23.5216 128.562 23.7333C128.562 23.9196 128.533 24.1185 128.473 24.3302C128.414 24.5419 128.317 24.7451 128.181 24.9398C128.054 25.1345 127.885 25.2996 127.673 25.4351C127.461 25.579 127.199 25.6722 126.886 25.7145ZM134.897 24.1651C134.457 24.1651 134.063 24.0804 133.716 23.9111C133.377 23.7418 133.11 23.5089 132.916 23.2126C132.721 22.9078 132.624 22.5607 132.624 22.1712C132.624 21.6124 132.823 21.1594 133.22 20.8123C133.627 20.4652 134.186 20.262 134.897 20.2027L137.348 20.0249V20.9901L135.113 21.1679C134.647 21.2018 134.3 21.3034 134.071 21.4727C133.851 21.6336 133.741 21.8622 133.741 22.1585C133.741 22.4379 133.86 22.6707 134.097 22.857C134.334 23.0433 134.639 23.1364 135.011 23.1364C135.392 23.1364 135.739 23.0475 136.053 22.8697C136.366 22.6919 136.611 22.4548 136.789 22.1585C136.975 21.8622 137.069 21.532 137.069 21.1679V20.1392C137.069 19.6566 136.916 19.2587 136.611 18.9454C136.315 18.6321 135.917 18.4755 135.418 18.4755C135.028 18.4755 134.694 18.5729 134.414 18.7676C134.135 18.9539 133.944 19.2163 133.843 19.555H133.703L132.763 19.2502C132.95 18.6829 133.275 18.2427 133.741 17.9294C134.207 17.6161 134.77 17.4595 135.43 17.4595C136.294 17.4595 136.958 17.7177 137.424 18.2342C137.898 18.7507 138.135 19.4788 138.135 20.4186V24H137.119V22.1458L137.5 22.349C137.399 22.6961 137.217 23.0094 136.954 23.2888C136.7 23.5597 136.395 23.7756 136.04 23.9365C135.693 24.0889 135.312 24.1651 134.897 24.1651ZM139.582 18.8438V17.8024H145.31V18.8438H139.582ZM139.582 21.3076V20.2662H145.31V21.3076H139.582ZM146.806 24V17.6373H147.847V19.428L147.542 19.2375C147.695 18.7464 147.978 18.357 148.393 18.0691C148.808 17.7812 149.274 17.6373 149.79 17.6373H150.438V18.6533H149.625C149.278 18.6533 148.973 18.738 148.711 18.9073C148.457 19.0682 148.253 19.2968 148.101 19.5931C147.957 19.881 147.885 20.2196 147.885 20.6091V24H146.806ZM153.528 24.1651C152.859 24.1651 152.296 24.0042 151.838 23.6825C151.381 23.3608 151.076 22.912 150.924 22.3363L151.915 22.095L152.054 22.1204C152.147 22.4421 152.334 22.6961 152.613 22.8824C152.901 23.0602 153.235 23.1491 153.616 23.1491C153.997 23.1491 154.319 23.0644 154.582 22.8951C154.853 22.7173 154.988 22.4887 154.988 22.2093C154.988 21.9807 154.908 21.7987 154.747 21.6632C154.594 21.5193 154.362 21.4134 154.048 21.3457L152.867 21.079C152.274 20.9435 151.834 20.7234 151.546 20.4186C151.267 20.1138 151.127 19.7497 151.127 19.3264C151.127 18.9623 151.225 18.6406 151.419 18.3612C151.623 18.0818 151.902 17.8659 152.258 17.7135C152.613 17.5526 153.015 17.4722 153.464 17.4722C154.116 17.4722 154.666 17.6331 155.115 17.9548C155.564 18.2765 155.86 18.7337 156.004 19.3264L155.013 19.5296L154.874 19.5042C154.798 19.1825 154.62 18.9327 154.34 18.7549C154.069 18.5771 153.769 18.4882 153.439 18.4882C153.092 18.4882 152.799 18.5644 152.562 18.7168C152.334 18.8607 152.219 19.0512 152.219 19.2883C152.219 19.483 152.291 19.6481 152.435 19.7836C152.588 19.9106 152.825 20.008 153.147 20.0757L154.34 20.3551C154.933 20.4906 155.373 20.7065 155.661 21.0028C155.949 21.2991 156.093 21.6801 156.093 22.1458C156.093 22.5607 155.979 22.9205 155.75 23.2253C155.53 23.5216 155.225 23.7545 154.836 23.9238C154.455 24.0847 154.019 24.1651 153.528 24.1651ZM159.379 24.1651C158.939 24.1651 158.545 24.0804 158.198 23.9111C157.859 23.7418 157.593 23.5089 157.398 23.2126C157.203 22.9078 157.106 22.5607 157.106 22.1712C157.106 21.6124 157.305 21.1594 157.703 20.8123C158.109 20.4652 158.668 20.262 159.379 20.2027L161.83 20.0249V20.9901L159.595 21.1679C159.129 21.2018 158.782 21.3034 158.554 21.4727C158.333 21.6336 158.223 21.8622 158.223 22.1585C158.223 22.4379 158.342 22.6707 158.579 22.857C158.816 23.0433 159.121 23.1364 159.493 23.1364C159.874 23.1364 160.222 23.0475 160.535 22.8697C160.848 22.6919 161.094 22.4548 161.271 22.1585C161.458 21.8622 161.551 21.532 161.551 21.1679V20.1392C161.551 19.6566 161.398 19.2587 161.094 18.9454C160.797 18.6321 160.399 18.4755 159.9 18.4755C159.51 18.4755 159.176 18.5729 158.896 18.7676C158.617 18.9539 158.427 19.2163 158.325 19.555H158.185L157.245 19.2502C157.432 18.6829 157.758 18.2427 158.223 17.9294C158.689 17.6161 159.252 17.4595 159.912 17.4595C160.776 17.4595 161.441 17.7177 161.906 18.2342C162.381 18.7507 162.618 19.4788 162.618 20.4186V24H161.602V22.1458L161.983 22.349C161.881 22.6961 161.699 23.0094 161.436 23.2888C161.182 23.5597 160.878 23.7756 160.522 23.9365C160.175 24.0889 159.794 24.1651 159.379 24.1651ZM163.988 20.8885V19.8471H168.471V20.8885H163.988ZM172.007 24.1651C171.338 24.1651 170.775 24.0042 170.318 23.6825C169.861 23.3608 169.556 22.912 169.404 22.3363L170.394 22.095L170.534 22.1204C170.627 22.4421 170.813 22.6961 171.093 22.8824C171.381 23.0602 171.715 23.1491 172.096 23.1491C172.477 23.1491 172.799 23.0644 173.061 22.8951C173.332 22.7173 173.468 22.4887 173.468 22.2093C173.468 21.9807 173.387 21.7987 173.226 21.6632C173.074 21.5193 172.841 21.4134 172.528 21.3457L171.347 21.079C170.754 20.9435 170.314 20.7234 170.026 20.4186C169.746 20.1138 169.607 19.7497 169.607 19.3264C169.607 18.9623 169.704 18.6406 169.899 18.3612C170.102 18.0818 170.381 17.8659 170.737 17.7135C171.093 17.5526 171.495 17.4722 171.944 17.4722C172.595 17.4722 173.146 17.6331 173.595 17.9548C174.043 18.2765 174.34 18.7337 174.484 19.3264L173.493 19.5296L173.353 19.5042C173.277 19.1825 173.099 18.9327 172.82 18.7549C172.549 18.5771 172.248 18.4882 171.918 18.4882C171.571 18.4882 171.279 18.5644 171.042 18.7168C170.813 18.8607 170.699 19.0512 170.699 19.2883C170.699 19.483 170.771 19.6481 170.915 19.7836C171.067 19.9106 171.304 20.008 171.626 20.0757L172.82 20.3551C173.413 20.4906 173.853 20.7065 174.141 21.0028C174.429 21.2991 174.572 21.6801 174.572 22.1458C174.572 22.5607 174.458 22.9205 174.23 23.2253C174.009 23.5216 173.705 23.7545 173.315 23.9238C172.934 24.0847 172.498 24.1651 172.007 24.1651ZM175.915 24V14.856L176.957 14.729L176.995 14.8306V19.428L176.652 19.2375C176.771 18.8734 176.957 18.5602 177.211 18.2977C177.465 18.0352 177.761 17.832 178.1 17.6881C178.447 17.5442 178.815 17.4722 179.205 17.4722C179.662 17.4722 180.068 17.5696 180.424 17.7643C180.788 17.959 181.072 18.2469 181.275 18.6279C181.478 19.0089 181.58 19.4873 181.58 20.063V24H180.5V20.3297C180.5 19.8725 180.432 19.5127 180.297 19.2502C180.162 18.9793 179.975 18.7888 179.738 18.6787C179.51 18.5686 179.247 18.5136 178.951 18.5136C178.629 18.5136 178.316 18.594 178.011 18.7549C177.715 18.9073 177.469 19.1401 177.274 19.4534C177.088 19.7667 176.995 20.1561 176.995 20.6218V24H175.915ZM185.25 24.1651C184.81 24.1651 184.416 24.0804 184.069 23.9111C183.731 23.7418 183.464 23.5089 183.269 23.2126C183.074 22.9078 182.977 22.5607 182.977 22.1712C182.977 21.6124 183.176 21.1594 183.574 20.8123C183.98 20.4652 184.539 20.262 185.25 20.2027L187.701 20.0249V20.9901L185.466 21.1679C185.001 21.2018 184.653 21.3034 184.425 21.4727C184.205 21.6336 184.095 21.8622 184.095 22.1585C184.095 22.4379 184.213 22.6707 184.45 22.857C184.687 23.0433 184.992 23.1364 185.365 23.1364C185.746 23.1364 186.093 23.0475 186.406 22.8697C186.719 22.6919 186.965 22.4548 187.143 22.1585C187.329 21.8622 187.422 21.532 187.422 21.1679V20.1392C187.422 19.6566 187.27 19.2587 186.965 18.9454C186.669 18.6321 186.271 18.4755 185.771 18.4755C185.382 18.4755 185.047 18.5729 184.768 18.7676C184.488 18.9539 184.298 19.2163 184.196 19.555H184.057L183.117 19.2502C183.303 18.6829 183.629 18.2427 184.095 17.9294C184.56 17.6161 185.123 17.4595 185.784 17.4595C186.647 17.4595 187.312 17.7177 187.778 18.2342C188.252 18.7507 188.489 19.4788 188.489 20.4186V24H187.473V22.1458L187.854 22.349C187.752 22.6961 187.57 23.0094 187.308 23.2888C187.054 23.5597 186.749 23.7756 186.393 23.9365C186.046 24.0889 185.665 24.1651 185.25 24.1651ZM190.075 24V23.0348L193.352 19.8344C193.682 19.4957 193.94 19.2079 194.127 18.9708C194.313 18.7337 194.444 18.5094 194.52 18.2977C194.597 18.086 194.635 17.8659 194.635 17.6373C194.635 17.3579 194.567 17.0954 194.431 16.8499C194.296 16.5959 194.097 16.3927 193.835 16.2403C193.581 16.0794 193.263 15.999 192.882 15.999C192.543 15.999 192.23 16.0794 191.942 16.2403C191.654 16.3927 191.422 16.6298 191.244 16.9515C191.074 17.2732 190.99 17.6754 190.99 18.158L190.85 18.1834L189.91 17.9675C189.91 17.341 190.046 16.8033 190.317 16.3546C190.588 15.9059 190.947 15.5587 191.396 15.3132C191.853 15.0677 192.353 14.9449 192.895 14.9449C193.445 14.9449 193.936 15.0677 194.368 15.3132C194.8 15.5503 195.134 15.8762 195.371 16.2911C195.617 16.6975 195.74 17.1589 195.74 17.6754C195.74 18.0141 195.685 18.3273 195.574 18.6152C195.473 18.8946 195.304 19.1867 195.066 19.4915C194.829 19.7963 194.508 20.1477 194.101 20.5456L191.282 23.3142L191.079 22.9586H196.019V24H190.075ZM200.005 24.1651C199.42 24.1651 198.904 24.055 198.455 23.8349C198.006 23.6148 197.642 23.3057 197.363 22.9078C197.084 22.5099 196.91 22.0442 196.842 21.5108L197.782 21.3076L197.922 21.333C197.99 21.6971 198.112 22.0146 198.29 22.2855C198.476 22.548 198.709 22.7512 198.989 22.8951C199.268 23.039 199.59 23.111 199.954 23.111C200.386 23.111 200.754 23.0263 201.059 22.857C201.363 22.6877 201.596 22.4548 201.757 22.1585C201.918 21.8537 201.998 21.5023 201.998 21.1044C201.998 20.7065 201.914 20.3551 201.744 20.0503C201.584 19.7455 201.347 19.5084 201.033 19.3391C200.728 19.1698 200.373 19.0851 199.966 19.0851C199.552 19.0851 199.188 19.174 198.874 19.3518C198.569 19.5296 198.315 19.7836 198.112 20.1138L196.969 19.9233L197.68 15.11H202.57V16.1514H198.188L198.684 15.745L198.074 19.4026L197.719 19.4153C197.871 19.1528 198.061 18.92 198.29 18.7168C198.519 18.5136 198.785 18.3527 199.09 18.2342C199.395 18.1072 199.742 18.0437 200.132 18.0437C200.673 18.0437 201.169 18.1707 201.617 18.4247C202.075 18.6787 202.439 19.0343 202.71 19.4915C202.981 19.9402 203.116 20.4694 203.116 21.079C203.116 21.6886 202.981 22.2262 202.71 22.6919C202.447 23.1576 202.083 23.5216 201.617 23.7841C201.152 24.0381 200.614 24.1651 200.005 24.1651ZM207.34 24.1651C206.654 24.1651 206.062 23.9873 205.562 23.6317C205.071 23.2676 204.694 22.7554 204.432 22.095C204.169 21.4261 204.038 20.643 204.038 19.7455C204.038 18.7888 204.182 17.9506 204.47 17.2309C204.758 16.5112 205.16 15.9524 205.676 15.5545C206.193 15.1481 206.798 14.9449 207.492 14.9449C207.992 14.9449 208.445 15.055 208.851 15.2751C209.258 15.4868 209.592 15.7831 209.855 16.1641C210.126 16.5366 210.303 16.9727 210.388 17.4722L209.436 17.6881L209.296 17.6627C209.177 17.1632 208.957 16.761 208.635 16.4562C208.322 16.1514 207.924 15.999 207.442 15.999C207.001 15.999 206.608 16.1472 206.261 16.4435C205.922 16.7314 205.651 17.1589 205.448 17.7262C205.245 18.285 205.139 18.9708 205.13 19.7836C205.13 19.8429 205.13 19.9064 205.13 19.9741C205.13 20.0334 205.13 20.0969 205.13 20.1646L204.902 20.063C205.029 19.6905 205.223 19.373 205.486 19.1105C205.757 18.8396 206.066 18.6321 206.413 18.4882C206.769 18.3443 207.141 18.2723 207.531 18.2723C208.081 18.2723 208.572 18.3993 209.004 18.6533C209.444 18.9073 209.791 19.2544 210.045 19.6947C210.299 20.1265 210.426 20.626 210.426 21.1933C210.426 21.769 210.291 22.2813 210.02 22.73C209.757 23.1787 209.393 23.5301 208.928 23.7841C208.462 24.0381 207.933 24.1651 207.34 24.1651ZM207.378 23.111C207.751 23.111 208.081 23.0306 208.369 22.8697C208.665 22.7088 208.894 22.4845 209.055 22.1966C209.224 21.9087 209.309 21.5828 209.309 21.2187C209.309 20.8377 209.224 20.5075 209.055 20.2281C208.894 19.9487 208.665 19.7286 208.369 19.5677C208.081 19.3984 207.751 19.3137 207.378 19.3137C206.997 19.3137 206.658 19.3984 206.362 19.5677C206.074 19.7286 205.85 19.9487 205.689 20.2281C205.528 20.5075 205.448 20.8377 205.448 21.2187C205.448 21.5828 205.528 21.9087 205.689 22.1966C205.85 22.4845 206.074 22.7088 206.362 22.8697C206.658 23.0306 206.997 23.111 207.378 23.111ZM212.653 19.1232C212.425 19.1232 212.234 19.047 212.082 18.8946C211.929 18.7422 211.853 18.5559 211.853 18.3358C211.853 18.1072 211.929 17.9167 212.082 17.7643C212.234 17.6119 212.425 17.5357 212.653 17.5357C212.882 17.5357 213.068 17.6119 213.212 17.7643C213.364 17.9167 213.441 18.1072 213.441 18.3358C213.441 18.5559 213.364 18.7422 213.212 18.8946C213.068 19.047 212.882 19.1232 212.653 19.1232ZM211.904 25.7145V24.9398C212.183 24.8805 212.399 24.7578 212.552 24.5715C212.704 24.3937 212.78 24.182 212.78 23.9365C212.78 23.801 212.759 23.6656 212.717 23.5301L213.212 23.2634C213.229 23.3142 213.237 23.365 213.237 23.4158C213.246 23.4666 213.25 23.5174 213.25 23.5682C213.25 23.7206 213.208 23.8391 213.123 23.9238C213.047 24 212.958 24.0466 212.856 24.0635C212.763 24.0889 212.695 24.1016 212.653 24.1016C212.425 24.1016 212.234 24.0254 212.082 23.873C211.929 23.7206 211.853 23.5343 211.853 23.3142C211.853 23.0856 211.929 22.8951 212.082 22.7427C212.234 22.5903 212.425 22.5141 212.653 22.5141C212.856 22.5141 213.026 22.5734 213.161 22.6919C213.297 22.802 213.398 22.9501 213.466 23.1364C213.542 23.3227 213.58 23.5216 213.58 23.7333C213.58 23.9196 213.551 24.1185 213.491 24.3302C213.432 24.5419 213.335 24.7451 213.199 24.9398C213.072 25.1345 212.903 25.2996 212.691 25.4351C212.48 25.579 212.217 25.6722 211.904 25.7145ZM220.563 24.1651C219.995 24.1651 219.483 24.0212 219.026 23.7333C218.569 23.4454 218.205 23.0517 217.934 22.5522C217.671 22.0442 217.54 21.4642 217.54 20.8123C217.54 20.1688 217.671 19.5973 217.934 19.0978C218.205 18.5898 218.569 18.1919 219.026 17.904C219.483 17.6161 219.995 17.4722 220.563 17.4722C221.003 17.4722 221.405 17.5611 221.769 17.7389C222.142 17.9167 222.455 18.1622 222.709 18.4755C222.971 18.7803 223.162 19.1359 223.28 19.5423V22.0823C223.162 22.4802 222.971 22.8358 222.709 23.1491C222.455 23.4624 222.142 23.7121 221.769 23.8984C221.405 24.0762 221.003 24.1651 220.563 24.1651ZM223.827 26.54H222.734V21.7267L222.976 20.8123L222.785 19.9106V17.6373H223.827V26.54ZM220.639 23.1364C221.054 23.1364 221.418 23.039 221.731 22.8443C222.044 22.6411 222.29 22.3659 222.468 22.0188C222.654 21.6717 222.747 21.2695 222.747 20.8123C222.747 20.3551 222.654 19.9529 222.468 19.6058C222.29 19.2587 222.044 18.9877 221.731 18.793C221.418 18.5983 221.054 18.5009 220.639 18.5009C220.258 18.5009 219.911 18.5983 219.597 18.793C219.293 18.9877 219.051 19.2587 218.874 19.6058C218.704 19.9529 218.62 20.3551 218.62 20.8123C218.62 21.2695 218.704 21.6717 218.874 22.0188C219.051 22.3659 219.293 22.6411 219.597 22.8443C219.911 23.039 220.258 23.1364 220.639 23.1364ZM225.32 18.8438V17.8024H231.047V18.8438H225.32ZM225.32 21.3076V20.2662H231.047V21.3076H225.32ZM235.197 24.1651C234.63 24.1651 234.118 24.0212 233.661 23.7333C233.203 23.4454 232.839 23.0517 232.568 22.5522C232.306 22.0442 232.175 21.4642 232.175 20.8123C232.175 20.1688 232.306 19.5973 232.568 19.0978C232.839 18.5898 233.203 18.1919 233.661 17.904C234.118 17.6161 234.63 17.4722 235.197 17.4722C235.638 17.4722 236.04 17.5611 236.404 17.7389C236.776 17.9167 237.09 18.1622 237.344 18.4755C237.606 18.7803 237.797 19.1359 237.915 19.5423V22.095C237.797 22.4929 237.606 22.8485 237.344 23.1618C237.09 23.4751 236.776 23.7206 236.404 23.8984C236.04 24.0762 235.638 24.1651 235.197 24.1651ZM235.274 23.1364C235.688 23.1364 236.053 23.039 236.366 22.8443C236.679 22.6411 236.925 22.3659 237.102 22.0188C237.289 21.6717 237.382 21.2695 237.382 20.8123C237.382 20.3551 237.289 19.9529 237.102 19.6058C236.925 19.2587 236.679 18.9877 236.366 18.793C236.053 18.5983 235.688 18.5009 235.274 18.5009C234.893 18.5009 234.545 18.5983 234.232 18.793C233.927 18.9877 233.686 19.2587 233.508 19.6058C233.339 19.9529 233.254 20.3551 233.254 20.8123C233.254 21.2695 233.339 21.6717 233.508 22.0188C233.686 22.3659 233.927 22.6411 234.232 22.8443C234.545 23.039 234.893 23.1364 235.274 23.1364ZM237.42 24V21.7267L237.61 20.8123L237.369 19.9106V14.856L238.423 14.729L238.461 14.8306V24H237.42ZM240.257 24V17.6373H241.299V19.428L240.994 19.2375C241.112 18.8734 241.299 18.5602 241.553 18.2977C241.807 18.0352 242.103 17.832 242.442 17.6881C242.789 17.5442 243.157 17.4722 243.547 17.4722C244.004 17.4722 244.41 17.5696 244.766 17.7643C245.13 17.959 245.414 18.2469 245.617 18.6279C245.82 19.0089 245.922 19.4873 245.922 20.063V24H244.842V20.3297C244.842 19.8725 244.774 19.5127 244.639 19.2502C244.503 18.9793 244.317 18.7888 244.08 18.6787C243.851 18.5686 243.589 18.5136 243.293 18.5136C242.971 18.5136 242.658 18.594 242.353 18.7549C242.057 18.9073 241.811 19.1401 241.616 19.4534C241.43 19.7667 241.337 20.1561 241.337 20.6218V24H240.257ZM249.695 24.1651C249.026 24.1651 248.463 24.0042 248.006 23.6825C247.549 23.3608 247.244 22.912 247.092 22.3363L248.082 22.095L248.222 22.1204C248.315 22.4421 248.502 22.6961 248.781 22.8824C249.069 23.0602 249.403 23.1491 249.784 23.1491C250.165 23.1491 250.487 23.0644 250.749 22.8951C251.02 22.7173 251.156 22.4887 251.156 22.2093C251.156 21.9807 251.075 21.7987 250.915 21.6632C250.762 21.5193 250.529 21.4134 250.216 21.3457L249.035 21.079C248.442 20.9435 248.002 20.7234 247.714 20.4186C247.435 20.1138 247.295 19.7497 247.295 19.3264C247.295 18.9623 247.392 18.6406 247.587 18.3612C247.79 18.0818 248.07 17.8659 248.425 17.7135C248.781 17.5526 249.183 17.4722 249.632 17.4722C250.284 17.4722 250.834 17.6331 251.283 17.9548C251.732 18.2765 252.028 18.7337 252.172 19.3264L251.181 19.5296L251.042 19.5042C250.965 19.1825 250.788 18.9327 250.508 18.7549C250.237 18.5771 249.937 18.4882 249.606 18.4882C249.259 18.4882 248.967 18.5644 248.73 18.7168C248.502 18.8607 248.387 19.0512 248.387 19.2883C248.387 19.483 248.459 19.6481 248.603 19.7836C248.756 19.9106 248.993 20.008 249.314 20.0757L250.508 20.3551C251.101 20.4906 251.541 20.7065 251.829 21.0028C252.117 21.2991 252.261 21.6801 252.261 22.1458C252.261 22.5607 252.146 22.9205 251.918 23.2253C251.698 23.5216 251.393 23.7545 251.003 23.9238C250.622 24.0847 250.186 24.1651 249.695 24.1651ZM252.677 25.2065L257.007 14.2972H258.163L253.832 25.2065H252.677ZM261.422 24C260.872 24 260.423 23.8264 260.076 23.4793C259.729 23.1237 259.555 22.6453 259.555 22.0442V15.9228H260.635V21.9553C260.635 22.3194 260.715 22.5818 260.876 22.7427C261.037 22.8951 261.295 22.9713 261.651 22.9713H262.413L262.476 23.111V24H261.422ZM258.463 18.6533V17.6373H262.476V18.6533H258.463ZM267.567 24L263.109 17.7389V17.6373H264.328L268.786 23.8984V24H267.567ZM263.083 24V23.8984L265.636 20.3297L266.284 21.1679L264.303 24H263.083ZM266.36 21.206L265.7 20.3424L267.579 17.6373H268.76V17.7389L266.36 21.206ZM272.101 24C271.55 24 271.102 23.8264 270.755 23.4793C270.407 23.1237 270.234 22.6453 270.234 22.0442V15.9228H271.313V21.9553C271.313 22.3194 271.394 22.5818 271.555 22.7427C271.716 22.8951 271.974 22.9713 272.329 22.9713H273.091L273.155 23.111V24H272.101ZM269.142 18.6533V17.6373H273.155V18.6533H269.142ZM275.248 19.1232C275.019 19.1232 274.829 19.047 274.676 18.8946C274.524 18.7422 274.448 18.5559 274.448 18.3358C274.448 18.1072 274.524 17.9167 274.676 17.7643C274.829 17.6119 275.019 17.5357 275.248 17.5357C275.476 17.5357 275.663 17.6119 275.807 17.7643C275.959 17.9167 276.035 18.1072 276.035 18.3358C276.035 18.5559 275.959 18.7422 275.807 18.8946C275.663 19.047 275.476 19.1232 275.248 19.1232ZM274.498 25.7145V24.9398C274.778 24.8805 274.994 24.7578 275.146 24.5715C275.299 24.3937 275.375 24.182 275.375 23.9365C275.375 23.801 275.354 23.6656 275.311 23.5301L275.807 23.2634C275.823 23.3142 275.832 23.365 275.832 23.4158C275.84 23.4666 275.845 23.5174 275.845 23.5682C275.845 23.7206 275.802 23.8391 275.718 23.9238C275.641 24 275.553 24.0466 275.451 24.0635C275.358 24.0889 275.29 24.1016 275.248 24.1016C275.019 24.1016 274.829 24.0254 274.676 23.873C274.524 23.7206 274.448 23.5343 274.448 23.3142C274.448 23.0856 274.524 22.8951 274.676 22.7427C274.829 22.5903 275.019 22.5141 275.248 22.5141C275.451 22.5141 275.62 22.5734 275.756 22.6919C275.891 22.802 275.993 22.9501 276.061 23.1364C276.137 23.3227 276.175 23.5216 276.175 23.7333C276.175 23.9196 276.145 24.1185 276.086 24.3302C276.027 24.5419 275.929 24.7451 275.794 24.9398C275.667 25.1345 275.497 25.2996 275.286 25.4351C275.074 25.579 274.812 25.6722 274.498 25.7145ZM283.348 24.1651C282.713 24.1651 282.154 24.0254 281.671 23.746C281.189 23.4581 280.812 23.0644 280.541 22.5649C280.27 22.0654 280.135 21.4812 280.135 20.8123C280.135 20.1519 280.27 19.5719 280.541 19.0724C280.812 18.5644 281.189 18.1707 281.671 17.8913C282.154 17.6119 282.713 17.4722 283.348 17.4722C283.83 17.4722 284.262 17.5611 284.643 17.7389C285.033 17.9082 285.363 18.1538 285.634 18.4755C285.913 18.7888 286.121 19.174 286.256 19.6312L285.316 19.8979H285.177C285.033 19.4661 284.796 19.1274 284.465 18.8819C284.144 18.6279 283.771 18.5009 283.348 18.5009C282.916 18.5009 282.539 18.5983 282.217 18.793C281.904 18.9877 281.659 19.2587 281.481 19.6058C281.303 19.9529 281.214 20.3551 281.214 20.8123C281.214 21.2695 281.303 21.6759 281.481 22.0315C281.659 22.3786 281.904 22.6496 282.217 22.8443C282.539 23.039 282.916 23.1364 283.348 23.1364C283.644 23.1364 283.915 23.0814 284.161 22.9713C284.406 22.8612 284.618 22.7004 284.796 22.4887C284.982 22.277 285.126 22.0273 285.227 21.7394H285.367L286.32 22.0061C286.167 22.4633 285.947 22.857 285.659 23.1872C285.371 23.5089 285.033 23.7545 284.643 23.9238C284.262 24.0847 283.83 24.1651 283.348 24.1651ZM287.381 18.8438V17.8024H293.109V18.8438H287.381ZM287.381 21.3076V20.2662H293.109V21.3076H287.381ZM294.604 24V17.6373H295.646V19.428L295.341 19.2375C295.493 18.7464 295.777 18.357 296.192 18.0691C296.607 17.7812 297.072 17.6373 297.589 17.6373H298.237V18.6533H297.424C297.077 18.6533 296.772 18.738 296.509 18.9073C296.255 19.0682 296.052 19.2968 295.9 19.5931C295.756 19.881 295.684 20.2196 295.684 20.6091V24H294.604ZM301.751 24.1651C301.133 24.1651 300.587 24.0254 300.113 23.746C299.639 23.4581 299.266 23.0644 298.995 22.5649C298.733 22.0654 298.602 21.4812 298.602 20.8123C298.602 20.1519 298.733 19.5719 298.995 19.0724C299.258 18.5644 299.622 18.1707 300.088 17.8913C300.562 17.6119 301.104 17.4722 301.713 17.4722C302.314 17.4722 302.839 17.6161 303.288 17.904C303.745 18.1834 304.101 18.5813 304.355 19.0978C304.609 19.6143 304.736 20.2154 304.736 20.9012V21.0536L304.545 21.2314H299.199V20.2281H304.152L303.644 20.4313C303.618 20.0249 303.517 19.6778 303.339 19.3899C303.161 19.102 302.932 18.8819 302.653 18.7295C302.374 18.5686 302.06 18.4882 301.713 18.4882C301.341 18.4882 300.998 18.5813 300.685 18.7676C300.371 18.9454 300.126 19.1994 299.948 19.5296C299.77 19.8598 299.681 20.2408 299.681 20.6726V20.9266C299.681 21.3499 299.77 21.7309 299.948 22.0696C300.126 22.3998 300.371 22.6623 300.685 22.857C300.998 23.0517 301.353 23.1491 301.751 23.1491C302.141 23.1491 302.479 23.056 302.767 22.8697C303.055 22.675 303.28 22.4125 303.44 22.0823H303.593L304.482 22.476C304.245 23.0009 303.885 23.4158 303.402 23.7206C302.928 24.0169 302.378 24.1651 301.751 24.1651ZM306.152 24V14.856L307.194 14.729L307.232 14.8306V24H306.152ZM311.047 24.1651C310.607 24.1651 310.213 24.0804 309.866 23.9111C309.528 23.7418 309.261 23.5089 309.066 23.2126C308.871 22.9078 308.774 22.5607 308.774 22.1712C308.774 21.6124 308.973 21.1594 309.371 20.8123C309.777 20.4652 310.336 20.262 311.047 20.2027L313.498 20.0249V20.9901L311.263 21.1679C310.798 21.2018 310.45 21.3034 310.222 21.4727C310.002 21.6336 309.892 21.8622 309.892 22.1585C309.892 22.4379 310.01 22.6707 310.247 22.857C310.484 23.0433 310.789 23.1364 311.162 23.1364C311.543 23.1364 311.89 23.0475 312.203 22.8697C312.516 22.6919 312.762 22.4548 312.94 22.1585C313.126 21.8622 313.219 21.532 313.219 21.1679V20.1392C313.219 19.6566 313.067 19.2587 312.762 18.9454C312.466 18.6321 312.068 18.4755 311.568 18.4755C311.179 18.4755 310.844 18.5729 310.565 18.7676C310.285 18.9539 310.095 19.2163 309.993 19.555H309.854L308.914 19.2502C309.1 18.6829 309.426 18.2427 309.892 17.9294C310.357 17.6161 310.92 17.4595 311.581 17.4595C312.444 17.4595 313.109 17.7177 313.575 18.2342C314.049 18.7507 314.286 19.4788 314.286 20.4186V24H313.27V22.1458L313.651 22.349C313.549 22.6961 313.367 23.0094 313.105 23.2888C312.851 23.5597 312.546 23.7756 312.19 23.9365C311.843 24.0889 311.462 24.1651 311.047 24.1651ZM319.632 24L315.174 17.7389V17.6373H316.393L320.851 23.8984V24H319.632ZM315.148 24V23.8984L317.701 20.3297L318.349 21.1679L316.368 24H315.148ZM318.425 21.206L317.765 20.3424L319.644 17.6373H320.825V17.7389L318.425 21.206ZM324.423 24.1651C323.805 24.1651 323.259 24.0254 322.785 23.746C322.31 23.4581 321.938 23.0644 321.667 22.5649C321.404 22.0654 321.273 21.4812 321.273 20.8123C321.273 20.1519 321.404 19.5719 321.667 19.0724C321.929 18.5644 322.293 18.1707 322.759 17.8913C323.233 17.6119 323.775 17.4722 324.385 17.4722C324.986 17.4722 325.511 17.6161 325.96 17.904C326.417 18.1834 326.772 18.5813 327.026 19.0978C327.28 19.6143 327.407 20.2154 327.407 20.9012V21.0536L327.217 21.2314H321.87V20.2281H326.823L326.315 20.4313C326.29 20.0249 326.188 19.6778 326.01 19.3899C325.833 19.102 325.604 18.8819 325.325 18.7295C325.045 18.5686 324.732 18.4882 324.385 18.4882C324.012 18.4882 323.669 18.5813 323.356 18.7676C323.043 18.9454 322.797 19.1994 322.619 19.5296C322.442 19.8598 322.353 20.2408 322.353 20.6726V20.9266C322.353 21.3499 322.442 21.7309 322.619 22.0696C322.797 22.3998 323.043 22.6623 323.356 22.857C323.669 23.0517 324.025 23.1491 324.423 23.1491C324.812 23.1491 325.151 23.056 325.439 22.8697C325.727 22.675 325.951 22.4125 326.112 22.0823H326.264L327.153 22.476C326.916 23.0009 326.556 23.4158 326.074 23.7206C325.6 24.0169 325.049 24.1651 324.423 24.1651ZM331.415 24.1651C330.848 24.1651 330.335 24.0212 329.878 23.7333C329.421 23.4454 329.057 23.0517 328.786 22.5522C328.523 22.0442 328.392 21.4642 328.392 20.8123C328.392 20.1688 328.523 19.5973 328.786 19.0978C329.057 18.5898 329.421 18.1919 329.878 17.904C330.335 17.6161 330.848 17.4722 331.415 17.4722C331.855 17.4722 332.257 17.5611 332.621 17.7389C332.994 17.9167 333.307 18.1622 333.561 18.4755C333.824 18.7803 334.014 19.1359 334.133 19.5423V22.095C334.014 22.4929 333.824 22.8485 333.561 23.1618C333.307 23.4751 332.994 23.7206 332.621 23.8984C332.257 24.0762 331.855 24.1651 331.415 24.1651ZM331.491 23.1364C331.906 23.1364 332.27 23.039 332.583 22.8443C332.896 22.6411 333.142 22.3659 333.32 22.0188C333.506 21.6717 333.599 21.2695 333.599 20.8123C333.599 20.3551 333.506 19.9529 333.32 19.6058C333.142 19.2587 332.896 18.9877 332.583 18.793C332.27 18.5983 331.906 18.5009 331.491 18.5009C331.11 18.5009 330.763 18.5983 330.45 18.793C330.145 18.9877 329.903 19.2587 329.726 19.6058C329.556 19.9529 329.472 20.3551 329.472 20.8123C329.472 21.2695 329.556 21.6717 329.726 22.0188C329.903 22.3659 330.145 22.6411 330.45 22.8443C330.763 23.039 331.11 23.1364 331.491 23.1364ZM333.637 24V21.7267L333.828 20.8123L333.586 19.9106V14.856L334.641 14.729L334.679 14.8306V24H333.637ZM335.611 25.2065L339.942 14.2972H341.098L336.767 25.2065H335.611ZM12.9718 44.1651C12.3029 44.1651 11.7399 44.0042 11.2827 43.6825C10.8255 43.3608 10.5207 42.912 10.3683 42.3363L11.3589 42.095L11.4986 42.1204C11.5917 42.4421 11.778 42.6961 12.0574 42.8824C12.3453 43.0602 12.6797 43.1491 13.0607 43.1491C13.4417 43.1491 13.7634 43.0644 14.0259 42.8951C14.2968 42.7173 14.4323 42.4887 14.4323 42.2093C14.4323 41.9807 14.3519 41.7987 14.191 41.6632C14.0386 41.5193 13.8058 41.4134 13.4925 41.3457L12.3114 41.079C11.7187 40.9435 11.2785 40.7234 10.9906 40.4186C10.7112 40.1138 10.5715 39.7497 10.5715 39.3264C10.5715 38.9623 10.6689 38.6406 10.8636 38.3612C11.0668 38.0818 11.3462 37.8659 11.7018 37.7135C12.0574 37.5526 12.4596 37.4722 12.9083 37.4722C13.5602 37.4722 14.1106 37.6331 14.5593 37.9548C15.008 38.2765 15.3044 38.7337 15.4483 39.3264L14.4577 39.5296L14.318 39.5042C14.2418 39.1825 14.064 38.9327 13.7846 38.7549C13.5137 38.5771 13.2131 38.4882 12.8829 38.4882C12.5358 38.4882 12.2437 38.5644 12.0066 38.7168C11.778 38.8607 11.6637 39.0512 11.6637 39.2883C11.6637 39.483 11.7357 39.6481 11.8796 39.7836C12.032 39.9106 12.2691 40.008 12.5908 40.0757L13.7846 40.3551C14.3773 40.4906 14.8175 40.7065 15.1054 41.0028C15.3933 41.2991 15.5372 41.6801 15.5372 42.1458C15.5372 42.5607 15.4229 42.9205 15.1943 43.2253C14.9742 43.5216 14.6694 43.7545 14.2799 43.9238C13.8989 44.0847 13.4629 44.1651 12.9718 44.1651ZM16.8167 44V37.6373H17.8962V44H16.8167ZM17.3628 36.4562C17.1512 36.4562 16.9734 36.3842 16.8294 36.2403C16.6855 36.0964 16.6135 35.9186 16.6135 35.7069C16.6135 35.4952 16.6855 35.3174 16.8294 35.1735C16.9734 35.0211 17.1512 34.9449 17.3628 34.9449C17.5745 34.9449 17.7523 35.0211 17.8962 35.1735C18.0486 35.3174 18.1248 35.4952 18.1248 35.7069C18.1248 35.9186 18.0486 36.0964 17.8962 36.2403C17.7523 36.3842 17.5745 36.4562 17.3628 36.4562ZM19.6321 44V37.6373H20.6735V39.4026L20.4068 39.1613C20.5253 38.8142 20.7073 38.5178 20.9529 38.2723C21.1984 38.0183 21.4863 37.8236 21.8165 37.6881C22.1467 37.5442 22.4938 37.4722 22.8579 37.4722C23.4082 37.4722 23.8866 37.6288 24.293 37.9421C24.6994 38.2554 24.9661 38.7083 25.0931 39.301L24.6486 39.2883C24.7586 38.9242 24.9407 38.6067 25.1947 38.3358C25.4571 38.0649 25.7704 37.8532 26.1345 37.7008C26.4985 37.5484 26.8922 37.4722 27.3156 37.4722C27.7474 37.4722 28.1368 37.5696 28.484 37.7643C28.8311 37.959 29.1063 38.2469 29.3095 38.6279C29.5127 39.0089 29.6143 39.4873 29.6143 40.063V44H28.5348V40.317C28.5348 39.8598 28.467 39.5 28.3316 39.2375C28.1961 38.975 28.0183 38.7888 27.7982 38.6787C27.578 38.5686 27.3283 38.5136 27.0489 38.5136C26.761 38.5136 26.4731 38.5898 26.1853 38.7422C25.8974 38.8946 25.6561 39.1274 25.4614 39.4407C25.2666 39.7455 25.1693 40.1392 25.1693 40.6218V44H24.0898V40.317C24.0898 39.8598 24.022 39.5 23.8866 39.2375C23.7511 38.975 23.5691 38.7888 23.3405 38.6787C23.1203 38.5686 22.8748 38.5136 22.6039 38.5136C22.316 38.5136 22.0239 38.594 21.7276 38.7549C21.4397 38.9073 21.1984 39.1401 21.0037 39.4534C20.8089 39.7582 20.7116 40.1477 20.7116 40.6218V44H19.6321ZM34.5542 44.1651C34.1139 44.1651 33.7075 44.0762 33.335 43.8984C32.9709 43.7121 32.6576 43.4624 32.3952 43.1491C32.1412 42.8358 31.9549 42.4802 31.8364 42.0823V39.5423C31.9549 39.1359 32.1412 38.7803 32.3952 38.4755C32.6576 38.1622 32.9709 37.9167 33.335 37.7389C33.7075 37.5611 34.1139 37.4722 34.5542 37.4722C35.1299 37.4722 35.6421 37.6161 36.0909 37.904C36.5396 38.1919 36.8994 38.5898 37.1704 39.0978C37.4413 39.5973 37.5768 40.1688 37.5768 40.8123C37.5768 41.4642 37.4413 42.0442 37.1704 42.5522C36.8994 43.0517 36.5396 43.4454 36.0909 43.7333C35.6421 44.0212 35.1299 44.1651 34.5542 44.1651ZM31.2903 46.54V37.6373H32.3317V39.9106L32.1412 40.8123L32.3698 41.7267V46.54H31.2903ZM34.478 43.1364C34.8674 43.1364 35.2146 43.039 35.5194 42.8443C35.8242 42.6411 36.0612 42.3659 36.2306 42.0188C36.4084 41.6717 36.4973 41.2695 36.4973 40.8123C36.4973 40.3551 36.4084 39.9529 36.2306 39.6058C36.0612 39.2587 35.8242 38.9877 35.5194 38.793C35.2146 38.5983 34.8674 38.5009 34.478 38.5009C34.0716 38.5009 33.7075 38.5983 33.3858 38.793C33.0725 38.9877 32.8227 39.2587 32.6365 39.6058C32.4587 39.9529 32.3698 40.3551 32.3698 40.8123C32.3698 41.2695 32.4587 41.6717 32.6365 42.0188C32.8227 42.3659 33.0725 42.6411 33.3858 42.8443C33.7075 43.039 34.0716 43.1364 34.478 43.1364ZM38.9936 44V34.856L40.035 34.729L40.0731 34.8306V44H38.9936ZM44.6632 44.1651C44.0451 44.1651 43.499 44.0254 43.0249 43.746C42.5507 43.4581 42.1782 43.0644 41.9073 42.5649C41.6448 42.0654 41.5136 41.4812 41.5136 40.8123C41.5136 40.1519 41.6448 39.5719 41.9073 39.0724C42.1697 38.5644 42.5338 38.1707 42.9995 37.8913C43.4736 37.6119 44.0155 37.4722 44.6251 37.4722C45.2262 37.4722 45.7511 37.6161 46.1999 37.904C46.6571 38.1834 47.0127 38.5813 47.2667 39.0978C47.5207 39.6143 47.6477 40.2154 47.6477 40.9012V41.0536L47.4572 41.2314H42.1105V40.2281H47.0635L46.5555 40.4313C46.5301 40.0249 46.4285 39.6778 46.2507 39.3899C46.0729 39.102 45.8443 38.8819 45.5649 38.7295C45.2855 38.5686 44.9722 38.4882 44.6251 38.4882C44.2525 38.4882 43.9096 38.5813 43.5964 38.7676C43.2831 38.9454 43.0376 39.1994 42.8598 39.5296C42.682 39.8598 42.5931 40.2408 42.5931 40.6726V40.9266C42.5931 41.3499 42.682 41.7309 42.8598 42.0696C43.0376 42.3998 43.2831 42.6623 43.5964 42.857C43.9096 43.0517 44.2652 43.1491 44.6632 43.1491C45.0526 43.1491 45.3913 43.056 45.6792 42.8697C45.967 42.675 46.1914 42.4125 46.3523 42.0823H46.5047L47.3937 42.476C47.1566 43.0009 46.7968 43.4158 46.3142 43.7206C45.84 44.0169 45.2897 44.1651 44.6632 44.1651ZM49.6739 39.1232C49.4453 39.1232 49.2548 39.047 49.1024 38.8946C48.95 38.7422 48.8738 38.5559 48.8738 38.3358C48.8738 38.1072 48.95 37.9167 49.1024 37.7643C49.2548 37.6119 49.4453 37.5357 49.6739 37.5357C49.9025 37.5357 50.0888 37.6119 50.2327 37.7643C50.3851 37.9167 50.4613 38.1072 50.4613 38.3358C50.4613 38.5559 50.3851 38.7422 50.2327 38.8946C50.0888 39.047 49.9025 39.1232 49.6739 39.1232ZM48.9246 45.7145V44.9398C49.204 44.8805 49.4199 44.7578 49.5723 44.5715C49.7247 44.3937 49.8009 44.182 49.8009 43.9365C49.8009 43.801 49.7797 43.6656 49.7374 43.5301L50.2327 43.2634C50.2496 43.3142 50.2581 43.365 50.2581 43.4158C50.2666 43.4666 50.2708 43.5174 50.2708 43.5682C50.2708 43.7206 50.2285 43.8391 50.1438 43.9238C50.0676 44 49.9787 44.0466 49.8771 44.0635C49.784 44.0889 49.7162 44.1016 49.6739 44.1016C49.4453 44.1016 49.2548 44.0254 49.1024 43.873C48.95 43.7206 48.8738 43.5343 48.8738 43.3142C48.8738 43.0856 48.95 42.8951 49.1024 42.7427C49.2548 42.5903 49.4453 42.5141 49.6739 42.5141C49.8771 42.5141 50.0464 42.5734 50.1819 42.6919C50.3174 42.802 50.419 42.9501 50.4867 43.1364C50.5629 43.3227 50.601 43.5216 50.601 43.7333C50.601 43.9196 50.5714 44.1185 50.5121 44.3302C50.4528 44.5419 50.3555 44.7451 50.22 44.9398C50.093 45.1345 49.9237 45.2996 49.712 45.4351C49.5003 45.579 49.2379 45.6722 48.9246 45.7145ZM57.0373 44.1651C56.3685 44.1651 55.8054 44.0042 55.3482 43.6825C54.891 43.3608 54.5862 42.912 54.4338 42.3363L55.4244 42.095L55.5641 42.1204C55.6573 42.4421 55.8435 42.6961 56.1229 42.8824C56.4108 43.0602 56.7452 43.1491 57.1262 43.1491C57.5072 43.1491 57.829 43.0644 58.0914 42.8951C58.3624 42.7173 58.4978 42.4887 58.4978 42.2093C58.4978 41.9807 58.4174 41.7987 58.2565 41.6632C58.1041 41.5193 57.8713 41.4134 57.558 41.3457L56.3769 41.079C55.7843 40.9435 55.344 40.7234 55.0561 40.4186C54.7767 40.1138 54.637 39.7497 54.637 39.3264C54.637 38.9623 54.7344 38.6406 54.9291 38.3612C55.1323 38.0818 55.4117 37.8659 55.7673 37.7135C56.1229 37.5526 56.5251 37.4722 56.9738 37.4722C57.6258 37.4722 58.1761 37.6331 58.6248 37.9548C59.0736 38.2765 59.3699 38.7337 59.5138 39.3264L58.5232 39.5296L58.3835 39.5042C58.3073 39.1825 58.1295 38.9327 57.8501 38.7549C57.5792 38.5771 57.2786 38.4882 56.9484 38.4882C56.6013 38.4882 56.3092 38.5644 56.0721 38.7168C55.8435 38.8607 55.7292 39.0512 55.7292 39.2883C55.7292 39.483 55.8012 39.6481 55.9451 39.7836C56.0975 39.9106 56.3346 40.008 56.6563 40.0757L57.8501 40.3551C58.4428 40.4906 58.8831 40.7065 59.1709 41.0028C59.4588 41.2991 59.6027 41.6801 59.6027 42.1458C59.6027 42.5607 59.4884 42.9205 59.2598 43.2253C59.0397 43.5216 58.7349 43.7545 58.3454 43.9238C57.9644 44.0847 57.5284 44.1651 57.0373 44.1651ZM60.6537 38.8438V37.8024H66.3814V38.8438H60.6537ZM60.6537 41.3076V40.2662H66.3814V41.3076H60.6537ZM70.722 44.1651C70.087 44.1651 69.5282 44.0254 69.0456 43.746C68.563 43.4581 68.1862 43.0644 67.9153 42.5649C67.6443 42.0654 67.5089 41.4812 67.5089 40.8123C67.5089 40.1519 67.6443 39.5719 67.9153 39.0724C68.1862 38.5644 68.563 38.1707 69.0456 37.8913C69.5282 37.6119 70.087 37.4722 70.722 37.4722C71.2046 37.4722 71.6364 37.5611 72.0174 37.7389C72.4068 37.9082 72.737 38.1538 73.008 38.4755C73.2874 38.7888 73.4948 39.174 73.6303 39.6312L72.6905 39.8979H72.5508C72.4068 39.4661 72.1698 39.1274 71.8396 38.8819C71.5178 38.6279 71.1453 38.5009 70.722 38.5009C70.2902 38.5009 69.9134 38.5983 69.5917 38.793C69.2784 38.9877 69.0329 39.2587 68.8551 39.6058C68.6773 39.9529 68.5884 40.3551 68.5884 40.8123C68.5884 41.2695 68.6773 41.6759 68.8551 42.0315C69.0329 42.3786 69.2784 42.6496 69.5917 42.8443C69.9134 43.039 70.2902 43.1364 70.722 43.1364C71.0183 43.1364 71.2892 43.0814 71.5348 42.9713C71.7803 42.8612 71.992 42.7004 72.1698 42.4887C72.356 42.277 72.5 42.0273 72.6016 41.7394H72.7413L73.6938 42.0061C73.5414 42.4633 73.3212 42.857 73.0334 43.1872C72.7455 43.5089 72.4068 43.7545 72.0174 43.9238C71.6364 44.0847 71.2046 44.1651 70.722 44.1651ZM75.5104 46.54V46.4384L76.5518 44L76.9328 43.1872L79.1807 37.6373H80.311V37.7389L76.6153 46.54H75.5104ZM76.5518 44L73.9864 37.7389V37.6373H75.104L77.3011 43.111V44H76.5518ZM86.8848 37.6373V44H85.8434V42.2093L86.1482 42.3998C86.0297 42.7554 85.8434 43.0687 85.5894 43.3396C85.3439 43.6021 85.0475 43.8053 84.7004 43.9492C84.3617 44.0931 83.9934 44.1651 83.5955 44.1651C83.1383 44.1651 82.7319 44.0677 82.3763 43.873C82.0207 43.6783 81.7371 43.3904 81.5254 43.0094C81.3222 42.6199 81.2206 42.1416 81.2206 41.5743V37.6373H82.3001V41.2949C82.3001 41.7521 82.3678 42.1162 82.5033 42.3871C82.6472 42.6496 82.8335 42.8401 83.0621 42.9586C83.2992 43.0687 83.5659 43.1237 83.8622 43.1237C84.1924 43.1237 84.5014 43.0433 84.7893 42.8824C85.0856 42.7215 85.3269 42.4845 85.5132 42.1712C85.7079 41.8579 85.8053 41.4727 85.8053 41.0155V37.6373H86.8848ZM91.2682 44.1651C90.7009 44.1651 90.1887 44.0212 89.7315 43.7333C89.2743 43.4454 88.9102 43.0517 88.6393 42.5522C88.3768 42.0442 88.2456 41.4642 88.2456 40.8123C88.2456 40.1688 88.3768 39.5973 88.6393 39.0978C88.9102 38.5898 89.2743 38.1919 89.7315 37.904C90.1887 37.6161 90.7009 37.4722 91.2682 37.4722C91.7085 37.4722 92.1106 37.5611 92.4747 37.7389C92.8472 37.9167 93.1605 38.1622 93.4145 38.4755C93.677 38.7803 93.8675 39.1359 93.986 39.5423V42.0823C93.8675 42.4802 93.677 42.8358 93.4145 43.1491C93.1605 43.4624 92.8472 43.7121 92.4747 43.8984C92.1106 44.0762 91.7085 44.1651 91.2682 44.1651ZM94.5321 46.54H93.4399V41.7267L93.6812 40.8123L93.4907 39.9106V37.6373H94.5321V46.54ZM91.3444 43.1364C91.7593 43.1364 92.1233 43.039 92.4366 42.8443C92.7499 42.6411 92.9954 42.3659 93.1732 42.0188C93.3595 41.6717 93.4526 41.2695 93.4526 40.8123C93.4526 40.3551 93.3595 39.9529 93.1732 39.6058C92.9954 39.2587 92.7499 38.9877 92.4366 38.793C92.1233 38.5983 91.7593 38.5009 91.3444 38.5009C90.9634 38.5009 90.6163 38.5983 90.303 38.793C89.9982 38.9877 89.7569 39.2587 89.5791 39.6058C89.4098 39.9529 89.3251 40.3551 89.3251 40.8123C89.3251 41.2695 89.4098 41.6717 89.5791 42.0188C89.7569 42.3659 89.9982 42.6411 90.303 42.8443C90.6163 43.039 90.9634 43.1364 91.3444 43.1364ZM98.3619 44L98.3873 43.111L100.597 37.6373H101.715V37.7389L99.1366 44H98.3619ZM98.0825 44L95.5044 37.7389V37.6373H96.622L98.8318 43.111L98.8699 44H98.0825ZM105.599 44.1651C104.998 44.1651 104.464 44.0466 103.999 43.8095C103.533 43.564 103.169 43.2253 102.906 42.7935C102.644 42.3532 102.509 41.841 102.5 41.2568L103.453 41.0409L103.592 41.0663C103.592 41.4896 103.673 41.8579 103.834 42.1712C103.994 42.476 104.223 42.7088 104.519 42.8697C104.816 43.0306 105.167 43.111 105.573 43.111C105.954 43.111 106.285 43.0475 106.564 42.9205C106.843 42.785 107.059 42.5988 107.212 42.3617C107.373 42.1162 107.453 41.8241 107.453 41.4854C107.453 40.9435 107.263 40.5287 106.882 40.2408C106.509 39.9445 106.026 39.7963 105.434 39.7963H104.773V38.7803H105.459C105.984 38.7803 106.412 38.6575 106.742 38.412C107.081 38.158 107.25 37.8066 107.25 37.3579C107.25 37.087 107.182 36.8499 107.047 36.6467C106.911 36.435 106.721 36.2742 106.475 36.1641C106.23 36.0456 105.942 35.9863 105.612 35.9863C105.247 35.9863 104.93 36.0625 104.659 36.2149C104.388 36.3673 104.176 36.579 104.024 36.8499C103.872 37.1208 103.791 37.4468 103.783 37.8278L103.643 37.8532L102.703 37.6373C102.712 37.1208 102.839 36.6636 103.084 36.2657C103.338 35.8593 103.685 35.5376 104.126 35.3005C104.566 35.0634 105.065 34.9449 105.624 34.9449C106.166 34.9449 106.64 35.0507 107.047 35.2624C107.462 35.4656 107.783 35.7408 108.012 36.0879C108.249 36.435 108.367 36.8287 108.367 37.269C108.367 37.9125 108.16 38.4162 107.745 38.7803C107.339 39.1444 106.805 39.356 106.145 39.4153V39.1486C106.644 39.1486 107.072 39.2502 107.428 39.4534C107.792 39.6566 108.071 39.9402 108.266 40.3043C108.469 40.6684 108.571 41.0917 108.571 41.5743C108.571 42.0738 108.448 42.5226 108.202 42.9205C107.965 43.31 107.622 43.6148 107.174 43.8349C106.733 44.055 106.208 44.1651 105.599 44.1651ZM111.491 44L109.421 37.7389V37.6373H110.501L112.241 43.1237L112.507 44H111.491ZM111.491 44L111.822 43.1237L113.65 37.6373H114.666L114.628 37.7389L112.507 44H111.491ZM115.809 44L113.701 37.7389L113.65 37.6373H114.666L116.495 43.1237L116.825 44H115.809ZM115.809 44L116.076 43.1237L117.803 37.6373H118.896V37.7389L116.825 44H115.809ZM122.539 44.1651C121.904 44.1651 121.345 44.0254 120.863 43.746C120.38 43.4581 120.003 43.0644 119.732 42.5649C119.461 42.0654 119.326 41.4812 119.326 40.8123C119.326 40.1519 119.461 39.5719 119.732 39.0724C120.003 38.5644 120.38 38.1707 120.863 37.8913C121.345 37.6119 121.904 37.4722 122.539 37.4722C123.022 37.4722 123.453 37.5611 123.834 37.7389C124.224 37.9082 124.554 38.1538 124.825 38.4755C125.104 38.7888 125.312 39.174 125.447 39.6312L124.507 39.8979H124.368C124.224 39.4661 123.987 39.1274 123.657 38.8819C123.335 38.6279 122.962 38.5009 122.539 38.5009C122.107 38.5009 121.73 38.5983 121.409 38.793C121.095 38.9877 120.85 39.2587 120.672 39.6058C120.494 39.9529 120.405 40.3551 120.405 40.8123C120.405 41.2695 120.494 41.6759 120.672 42.0315C120.85 42.3786 121.095 42.6496 121.409 42.8443C121.73 43.039 122.107 43.1364 122.539 43.1364C122.835 43.1364 123.106 43.0814 123.352 42.9713C123.597 42.8612 123.809 42.7004 123.987 42.4887C124.173 42.277 124.317 42.0273 124.419 41.7394H124.558L125.511 42.0061C125.358 42.4633 125.138 42.857 124.85 43.1872C124.563 43.5089 124.224 43.7545 123.834 43.9238C123.453 44.0847 123.022 44.1651 122.539 44.1651ZM129.709 44.1651C129.108 44.1651 128.574 44.0466 128.109 43.8095C127.643 43.564 127.279 43.2253 127.017 42.7935C126.754 42.3532 126.619 41.841 126.61 41.2568L127.563 41.0409L127.702 41.0663C127.702 41.4896 127.783 41.8579 127.944 42.1712C128.105 42.476 128.333 42.7088 128.63 42.8697C128.926 43.0306 129.277 43.111 129.684 43.111C130.065 43.111 130.395 43.0475 130.674 42.9205C130.954 42.785 131.17 42.5988 131.322 42.3617C131.483 42.1162 131.563 41.8241 131.563 41.4854C131.563 40.9435 131.373 40.5287 130.992 40.2408C130.619 39.9445 130.137 39.7963 129.544 39.7963H128.884V38.7803H129.569C130.094 38.7803 130.522 38.6575 130.852 38.412C131.191 38.158 131.36 37.8066 131.36 37.3579C131.36 37.087 131.292 36.8499 131.157 36.6467C131.021 36.435 130.831 36.2742 130.585 36.1641C130.34 36.0456 130.052 35.9863 129.722 35.9863C129.358 35.9863 129.04 36.0625 128.769 36.2149C128.498 36.3673 128.287 36.579 128.134 36.8499C127.982 37.1208 127.901 37.4468 127.893 37.8278L127.753 37.8532L126.813 37.6373C126.822 37.1208 126.949 36.6636 127.194 36.2657C127.448 35.8593 127.796 35.5376 128.236 35.3005C128.676 35.0634 129.176 34.9449 129.734 34.9449C130.276 34.9449 130.75 35.0507 131.157 35.2624C131.572 35.4656 131.893 35.7408 132.122 36.0879C132.359 36.435 132.478 36.8287 132.478 37.269C132.478 37.9125 132.27 38.4162 131.855 38.7803C131.449 39.1444 130.916 39.356 130.255 39.4153V39.1486C130.755 39.1486 131.182 39.2502 131.538 39.4534C131.902 39.6566 132.181 39.9402 132.376 40.3043C132.579 40.6684 132.681 41.0917 132.681 41.5743C132.681 42.0738 132.558 42.5226 132.313 42.9205C132.075 43.31 131.733 43.6148 131.284 43.8349C130.844 44.055 130.319 44.1651 129.709 44.1651ZM137.481 44.1651C137.041 44.1651 136.635 44.0762 136.262 43.8984C135.898 43.7121 135.585 43.4624 135.322 43.1491C135.068 42.8358 134.882 42.4802 134.763 42.0823V39.5423C134.882 39.1359 135.068 38.7803 135.322 38.4755C135.585 38.1622 135.898 37.9167 136.262 37.7389C136.635 37.5611 137.041 37.4722 137.481 37.4722C138.057 37.4722 138.569 37.6161 139.018 37.904C139.467 38.1919 139.826 38.5898 140.097 39.0978C140.368 39.5973 140.504 40.1688 140.504 40.8123C140.504 41.4642 140.368 42.0442 140.097 42.5522C139.826 43.0517 139.467 43.4454 139.018 43.7333C138.569 44.0212 138.057 44.1651 137.481 44.1651ZM134.217 46.54V37.6373H135.259V39.9106L135.068 40.8123L135.297 41.7267V46.54H134.217ZM137.405 43.1364C137.794 43.1364 138.142 43.039 138.446 42.8443C138.751 42.6411 138.988 42.3659 139.158 42.0188C139.335 41.6717 139.424 41.2695 139.424 40.8123C139.424 40.3551 139.335 39.9529 139.158 39.6058C138.988 39.2587 138.751 38.9877 138.446 38.793C138.142 38.5983 137.794 38.5009 137.405 38.5009C136.999 38.5009 136.635 38.5983 136.313 38.793C136 38.9877 135.75 39.2587 135.564 39.6058C135.386 39.9529 135.297 40.3551 135.297 40.8123C135.297 41.2695 135.386 41.6717 135.564 42.0188C135.75 42.3659 136 42.6411 136.313 42.8443C136.635 43.039 136.999 43.1364 137.405 43.1364ZM144.765 44.1651C144.164 44.1651 143.631 44.0466 143.165 43.8095C142.7 43.564 142.336 43.2253 142.073 42.7935C141.811 42.3532 141.675 41.841 141.667 41.2568L142.619 41.0409L142.759 41.0663C142.759 41.4896 142.839 41.8579 143 42.1712C143.161 42.476 143.39 42.7088 143.686 42.8697C143.982 43.0306 144.334 43.111 144.74 43.111C145.121 43.111 145.451 43.0475 145.731 42.9205C146.01 42.785 146.226 42.5988 146.378 42.3617C146.539 42.1162 146.62 41.8241 146.62 41.4854C146.62 40.9435 146.429 40.5287 146.048 40.2408C145.676 39.9445 145.193 39.7963 144.6 39.7963H143.94V38.7803H144.626C145.151 38.7803 145.578 38.6575 145.908 38.412C146.247 38.158 146.416 37.8066 146.416 37.3579C146.416 37.087 146.349 36.8499 146.213 36.6467C146.078 36.435 145.887 36.2742 145.642 36.1641C145.396 36.0456 145.108 35.9863 144.778 35.9863C144.414 35.9863 144.097 36.0625 143.826 36.2149C143.555 36.3673 143.343 36.579 143.191 36.8499C143.038 37.1208 142.958 37.4468 142.949 37.8278L142.81 37.8532L141.87 37.6373C141.878 37.1208 142.005 36.6636 142.251 36.2657C142.505 35.8593 142.852 35.5376 143.292 35.3005C143.733 35.0634 144.232 34.9449 144.791 34.9449C145.333 34.9449 145.807 35.0507 146.213 35.2624C146.628 35.4656 146.95 35.7408 147.178 36.0879C147.416 36.435 147.534 36.8287 147.534 37.269C147.534 37.9125 147.327 38.4162 146.912 38.7803C146.505 39.1444 145.972 39.356 145.312 39.4153V39.1486C145.811 39.1486 146.239 39.2502 146.594 39.4534C146.958 39.6566 147.238 39.9402 147.432 40.3043C147.636 40.6684 147.737 41.0917 147.737 41.5743C147.737 42.0738 147.614 42.5226 147.369 42.9205C147.132 43.31 146.789 43.6148 146.34 43.8349C145.9 44.055 145.375 44.1651 144.765 44.1651ZM149.512 44V43.8984L153.169 35.5418L153.525 36.1514H148.33V35.11H154.045V36.1006L150.667 44H149.512ZM157.677 44C157.126 44 156.678 43.8264 156.331 43.4793C155.983 43.1237 155.81 42.6453 155.81 42.0442V35.9228H156.889V41.9553C156.889 42.3194 156.97 42.5818 157.131 42.7427C157.292 42.8951 157.55 42.9713 157.905 42.9713H158.667L158.731 43.111V44H157.677ZM154.718 38.6533V37.6373H158.731V38.6533H154.718ZM160.151 44V37.6373H161.192V39.4026L160.925 39.1613C161.044 38.8142 161.226 38.5178 161.471 38.2723C161.717 38.0183 162.005 37.8236 162.335 37.6881C162.665 37.5442 163.012 37.4722 163.376 37.4722C163.927 37.4722 164.405 37.6288 164.812 37.9421C165.218 38.2554 165.485 38.7083 165.612 39.301L165.167 39.2883C165.277 38.9242 165.459 38.6067 165.713 38.3358C165.976 38.0649 166.289 37.8532 166.653 37.7008C167.017 37.5484 167.411 37.4722 167.834 37.4722C168.266 37.4722 168.655 37.5696 169.003 37.7643C169.35 37.959 169.625 38.2469 169.828 38.6279C170.031 39.0089 170.133 39.4873 170.133 40.063V44H169.053V40.317C169.053 39.8598 168.986 39.5 168.85 39.2375C168.715 38.975 168.537 38.7888 168.317 38.6787C168.097 38.5686 167.847 38.5136 167.567 38.5136C167.28 38.5136 166.992 38.5898 166.704 38.7422C166.416 38.8946 166.175 39.1274 165.98 39.4407C165.785 39.7455 165.688 40.1392 165.688 40.6218V44H164.608V40.317C164.608 39.8598 164.541 39.5 164.405 39.2375C164.27 38.975 164.088 38.7888 163.859 38.6787C163.639 38.5686 163.393 38.5136 163.122 38.5136C162.835 38.5136 162.542 38.594 162.246 38.7549C161.958 38.9073 161.717 39.1401 161.522 39.4534C161.327 39.7582 161.23 40.1477 161.23 40.6218V44H160.151ZM171.72 44V43.0348L174.997 39.8344C175.327 39.4957 175.585 39.2079 175.771 38.9708C175.957 38.7337 176.089 38.5094 176.165 38.2977C176.241 38.086 176.279 37.8659 176.279 37.6373C176.279 37.3579 176.211 37.0954 176.076 36.8499C175.941 36.5959 175.742 36.3927 175.479 36.2403C175.225 36.0794 174.908 35.999 174.527 35.999C174.188 35.999 173.875 36.0794 173.587 36.2403C173.299 36.3927 173.066 36.6298 172.888 36.9515C172.719 37.2732 172.634 37.6754 172.634 38.158L172.495 38.1834L171.555 37.9675C171.555 37.341 171.69 36.8033 171.961 36.3546C172.232 35.9059 172.592 35.5587 173.041 35.3132C173.498 35.0677 173.997 34.9449 174.539 34.9449C175.09 34.9449 175.581 35.0677 176.013 35.3132C176.444 35.5503 176.779 35.8762 177.016 36.2911C177.261 36.6975 177.384 37.1589 177.384 37.6754C177.384 38.0141 177.329 38.3273 177.219 38.6152C177.117 38.8946 176.948 39.1867 176.711 39.4915C176.474 39.7963 176.152 40.1477 175.746 40.5456L172.926 43.3142L172.723 42.9586H177.664V44H171.72ZM179.802 46.54V46.4384L180.843 44L181.224 43.1872L183.472 37.6373H184.602V37.7389L180.907 46.54H179.802ZM180.843 44L178.278 37.7389V37.6373H179.395L181.592 43.111V44H180.843ZM186.147 42.7427V41.3076L189.893 37.6373H191.189V37.7389L186.147 42.7427ZM185.639 44V34.856L186.68 34.729L186.718 34.8306V44H185.639ZM189.995 44L187.684 40.7107L188.408 39.9995L191.202 43.8984V44H189.995ZM193.895 44.1651C193.455 44.1651 193.061 44.0804 192.714 43.9111C192.375 43.7418 192.108 43.5089 191.914 43.2126C191.719 42.9078 191.622 42.5607 191.622 42.1712C191.622 41.6124 191.82 41.1594 192.218 40.8123C192.625 40.4652 193.184 40.262 193.895 40.2027L196.346 40.0249V40.9901L194.111 41.1679C193.645 41.2018 193.298 41.3034 193.069 41.4727C192.849 41.6336 192.739 41.8622 192.739 42.1585C192.739 42.4379 192.858 42.6707 193.095 42.857C193.332 43.0433 193.637 43.1364 194.009 43.1364C194.39 43.1364 194.737 43.0475 195.051 42.8697C195.364 42.6919 195.609 42.4548 195.787 42.1585C195.973 41.8622 196.067 41.532 196.067 41.1679V40.1392C196.067 39.6566 195.914 39.2587 195.609 38.9454C195.313 38.6321 194.915 38.4755 194.416 38.4755C194.026 38.4755 193.692 38.5729 193.412 38.7676C193.133 38.9539 192.942 39.2163 192.841 39.555H192.701L191.761 39.2502C191.947 38.6829 192.273 38.2427 192.739 37.9294C193.205 37.6161 193.768 37.4595 194.428 37.4595C195.292 37.4595 195.956 37.7177 196.422 38.2342C196.896 38.7507 197.133 39.4788 197.133 40.4186V44H196.117V42.1458L196.498 42.349C196.397 42.6961 196.215 43.0094 195.952 43.2888C195.698 43.5597 195.393 43.7756 195.038 43.9365C194.691 44.0889 194.31 44.1651 193.895 44.1651ZM200.815 44.1651C200.375 44.1651 199.981 44.0804 199.634 43.9111C199.296 43.7418 199.029 43.5089 198.834 43.2126C198.639 42.9078 198.542 42.5607 198.542 42.1712C198.542 41.6124 198.741 41.1594 199.139 40.8123C199.545 40.4652 200.104 40.262 200.815 40.2027L203.266 40.0249V40.9901L201.031 41.1679C200.566 41.2018 200.218 41.3034 199.99 41.4727C199.77 41.6336 199.66 41.8622 199.66 42.1585C199.66 42.4379 199.778 42.6707 200.015 42.857C200.252 43.0433 200.557 43.1364 200.93 43.1364C201.311 43.1364 201.658 43.0475 201.971 42.8697C202.284 42.6919 202.53 42.4548 202.708 42.1585C202.894 41.8622 202.987 41.532 202.987 41.1679V40.1392C202.987 39.6566 202.835 39.2587 202.53 38.9454C202.233 38.6321 201.836 38.4755 201.336 38.4755C200.947 38.4755 200.612 38.5729 200.333 38.7676C200.053 38.9539 199.863 39.2163 199.761 39.555H199.622L198.682 39.2502C198.868 38.6829 199.194 38.2427 199.66 37.9294C200.125 37.6161 200.688 37.4595 201.349 37.4595C202.212 37.4595 202.877 37.7177 203.343 38.2342C203.817 38.7507 204.054 39.4788 204.054 40.4186V44H203.038V42.1458L203.419 42.349C203.317 42.6961 203.135 43.0094 202.873 43.2888C202.619 43.5597 202.314 43.7756 201.958 43.9365C201.611 44.0889 201.23 44.1651 200.815 44.1651ZM208.384 44.1651C207.816 44.1651 207.304 44.0212 206.847 43.7333C206.39 43.4454 206.026 43.0517 205.755 42.5522C205.492 42.0442 205.361 41.4642 205.361 40.8123C205.361 40.1688 205.492 39.5973 205.755 39.0978C206.026 38.5898 206.39 38.1919 206.847 37.904C207.304 37.6161 207.816 37.4722 208.384 37.4722C208.824 37.4722 209.226 37.5611 209.59 37.7389C209.963 37.9167 210.276 38.1622 210.53 38.4755C210.792 38.7803 210.983 39.1359 211.101 39.5423V42.095C210.983 42.4929 210.792 42.8485 210.53 43.1618C210.276 43.4751 209.963 43.7206 209.59 43.8984C209.226 44.0762 208.824 44.1651 208.384 44.1651ZM208.46 43.1364C208.875 43.1364 209.239 43.039 209.552 42.8443C209.865 42.6411 210.111 42.3659 210.289 42.0188C210.475 41.6717 210.568 41.2695 210.568 40.8123C210.568 40.3551 210.475 39.9529 210.289 39.6058C210.111 39.2587 209.865 38.9877 209.552 38.793C209.239 38.5983 208.875 38.5009 208.46 38.5009C208.079 38.5009 207.732 38.5983 207.418 38.793C207.114 38.9877 206.872 39.2587 206.694 39.6058C206.525 39.9529 206.44 40.3551 206.44 40.8123C206.44 41.2695 206.525 41.6717 206.694 42.0188C206.872 42.3659 207.114 42.6411 207.418 42.8443C207.732 43.039 208.079 43.1364 208.46 43.1364ZM210.606 44V41.7267L210.797 40.8123L210.555 39.9106V34.856L211.609 34.729L211.647 34.8306V44H210.606ZM213.507 44V34.856L214.548 34.729L214.586 34.8306V39.428L214.244 39.2375C214.362 38.8734 214.548 38.5602 214.802 38.2977C215.056 38.0352 215.353 37.832 215.691 37.6881C216.039 37.5442 216.407 37.4722 216.796 37.4722C217.253 37.4722 217.66 37.5696 218.015 37.7643C218.38 37.959 218.663 38.2469 218.866 38.6279C219.07 39.0089 219.171 39.4873 219.171 40.063V44H218.092V40.3297C218.092 39.8725 218.024 39.5127 217.888 39.2502C217.753 38.9793 217.567 38.7888 217.33 38.6787C217.101 38.5686 216.839 38.5136 216.542 38.5136C216.221 38.5136 215.907 38.594 215.602 38.7549C215.306 38.9073 215.061 39.1401 214.866 39.4534C214.68 39.7667 214.586 40.1561 214.586 40.6218V44H213.507ZM224.569 44V35.9101L225.014 36.1768L221.191 41.5362L220.899 41.0536H226.728V42.1077H220.213V41.1044L224.493 35.11H225.649V44H224.569ZM229.899 44.1651C229.459 44.1651 229.065 44.0804 228.718 43.9111C228.379 43.7418 228.112 43.5089 227.918 43.2126C227.723 42.9078 227.626 42.5607 227.626 42.1712C227.626 41.6124 227.824 41.1594 228.222 40.8123C228.629 40.4652 229.188 40.262 229.899 40.2027L232.35 40.0249V40.9901L230.115 41.1679C229.649 41.2018 229.302 41.3034 229.073 41.4727C228.853 41.6336 228.743 41.8622 228.743 42.1585C228.743 42.4379 228.862 42.6707 229.099 42.857C229.336 43.0433 229.641 43.1364 230.013 43.1364C230.394 43.1364 230.741 43.0475 231.055 42.8697C231.368 42.6919 231.613 42.4548 231.791 42.1585C231.977 41.8622 232.071 41.532 232.071 41.1679V40.1392C232.071 39.6566 231.918 39.2587 231.613 38.9454C231.317 38.6321 230.919 38.4755 230.42 38.4755C230.03 38.4755 229.696 38.5729 229.416 38.7676C229.137 38.9539 228.946 39.2163 228.845 39.555H228.705L227.765 39.2502C227.951 38.6829 228.277 38.2427 228.743 37.9294C229.209 37.6161 229.772 37.4595 230.432 37.4595C231.296 37.4595 231.96 37.7177 232.426 38.2342C232.9 38.7507 233.137 39.4788 233.137 40.4186V44H232.121V42.1458L232.502 42.349C232.401 42.6961 232.219 43.0094 231.956 43.2888C231.702 43.5597 231.397 43.7756 231.042 43.9365C230.695 44.0889 230.314 44.1651 229.899 44.1651ZM238.077 44.1651C237.636 44.1651 237.23 44.0762 236.857 43.8984C236.493 43.7121 236.18 43.4624 235.918 43.1491C235.664 42.8358 235.477 42.4802 235.359 42.0823V39.5423C235.477 39.1359 235.664 38.7803 235.918 38.4755C236.18 38.1622 236.493 37.9167 236.857 37.7389C237.23 37.5611 237.636 37.4722 238.077 37.4722C238.652 37.4722 239.165 37.6161 239.613 37.904C240.062 38.1919 240.422 38.5898 240.693 39.0978C240.964 39.5973 241.099 40.1688 241.099 40.8123C241.099 41.4642 240.964 42.0442 240.693 42.5522C240.422 43.0517 240.062 43.4454 239.613 43.7333C239.165 44.0212 238.652 44.1651 238.077 44.1651ZM234.813 46.54V37.6373H235.854V39.9106L235.664 40.8123L235.892 41.7267V46.54H234.813ZM238 43.1364C238.39 43.1364 238.737 43.039 239.042 42.8443C239.347 42.6411 239.584 42.3659 239.753 42.0188C239.931 41.6717 240.02 41.2695 240.02 40.8123C240.02 40.3551 239.931 39.9529 239.753 39.6058C239.584 39.2587 239.347 38.9877 239.042 38.793C238.737 38.5983 238.39 38.5009 238 38.5009C237.594 38.5009 237.23 38.5983 236.908 38.793C236.595 38.9877 236.345 39.2587 236.159 39.6058C235.981 39.9529 235.892 40.3551 235.892 40.8123C235.892 41.2695 235.981 41.6717 236.159 42.0188C236.345 42.3659 236.595 42.6411 236.908 42.8443C237.23 43.039 237.594 43.1364 238 43.1364ZM245.107 44.1651C244.54 44.1651 244.027 44.0212 243.57 43.7333C243.113 43.4454 242.749 43.0517 242.478 42.5522C242.215 42.0442 242.084 41.4642 242.084 40.8123C242.084 40.1688 242.215 39.5973 242.478 39.0978C242.749 38.5898 243.113 38.1919 243.57 37.904C244.027 37.6161 244.54 37.4722 245.107 37.4722C245.547 37.4722 245.949 37.5611 246.313 37.7389C246.686 37.9167 246.999 38.1622 247.253 38.4755C247.516 38.7803 247.706 39.1359 247.825 39.5423V42.0823C247.706 42.4802 247.516 42.8358 247.253 43.1491C246.999 43.4624 246.686 43.7121 246.313 43.8984C245.949 44.0762 245.547 44.1651 245.107 44.1651ZM248.371 46.54H247.279V41.7267L247.52 40.8123L247.329 39.9106V37.6373H248.371V46.54ZM245.183 43.1364C245.598 43.1364 245.962 43.039 246.275 42.8443C246.589 42.6411 246.834 42.3659 247.012 42.0188C247.198 41.6717 247.291 41.2695 247.291 40.8123C247.291 40.3551 247.198 39.9529 247.012 39.6058C246.834 39.2587 246.589 38.9877 246.275 38.793C245.962 38.5983 245.598 38.5009 245.183 38.5009C244.802 38.5009 244.455 38.5983 244.142 38.793C243.837 38.9877 243.596 39.2587 243.418 39.6058C243.248 39.9529 243.164 40.3551 243.164 40.8123C243.164 41.2695 243.248 41.6717 243.418 42.0188C243.596 42.3659 243.837 42.6411 244.142 42.8443C244.455 43.039 244.802 43.1364 245.183 43.1364ZM252.886 44.1651C252.268 44.1651 251.722 44.0254 251.248 43.746C250.774 43.4581 250.401 43.0644 250.131 42.5649C249.86 42.0569 249.724 41.4727 249.724 40.8123C249.724 40.1519 249.86 39.5719 250.131 39.0724C250.401 38.5644 250.774 38.1707 251.248 37.8913C251.722 37.6119 252.268 37.4722 252.886 37.4722C253.513 37.4722 254.063 37.6119 254.537 37.8913C255.012 38.1707 255.384 38.5644 255.655 39.0724C255.926 39.5719 256.061 40.1519 256.061 40.8123C256.061 41.4727 255.926 42.0569 255.655 42.5649C255.384 43.0644 255.012 43.4581 254.537 43.746C254.063 44.0254 253.513 44.1651 252.886 44.1651ZM252.886 43.1364C253.301 43.1364 253.661 43.0433 253.966 42.857C254.279 42.6623 254.525 42.3913 254.703 42.0442C254.88 41.6886 254.969 41.278 254.969 40.8123C254.969 40.3382 254.88 39.9318 254.703 39.5931C254.525 39.246 254.279 38.9793 253.966 38.793C253.661 38.5983 253.301 38.5009 252.886 38.5009C252.48 38.5009 252.12 38.5983 251.807 38.793C251.494 38.9793 251.248 39.246 251.07 39.5931C250.893 39.9318 250.804 40.3382 250.804 40.8123C250.804 41.278 250.893 41.6886 251.07 42.0442C251.248 42.3913 251.494 42.6623 251.807 42.857C252.12 43.0433 252.48 43.1364 252.886 43.1364ZM259.432 46.54C258.602 46.54 257.954 46.3707 257.489 46.032C257.023 45.6933 256.79 45.2361 256.79 44.6604C256.79 44.2963 256.879 43.9746 257.057 43.6952C257.243 43.4073 257.514 43.1872 257.87 43.0348L258.416 43.5809C258.23 43.6656 258.086 43.7883 257.984 43.9492C257.882 44.1101 257.832 44.2836 257.832 44.4699C257.832 44.7916 257.959 45.0541 258.213 45.2573C258.475 45.469 258.843 45.5748 259.317 45.5748H260.206C260.698 45.5748 261.083 45.4901 261.362 45.3208C261.642 45.1599 261.781 44.9186 261.781 44.5969C261.781 44.3683 261.688 44.1863 261.502 44.0508C261.324 43.9153 261.057 43.8476 260.702 43.8476H258.987C258.649 43.8476 258.34 43.7883 258.06 43.6698C257.789 43.5428 257.573 43.3735 257.412 43.1618C257.252 42.9417 257.171 42.6877 257.171 42.3998C257.171 42.1204 257.256 41.8622 257.425 41.6251C257.595 41.388 257.857 41.2018 258.213 41.0663L258.809 41.5997C258.581 41.642 258.416 41.7267 258.314 41.8537C258.221 41.9722 258.174 42.1119 258.174 42.2728C258.174 42.4675 258.255 42.6199 258.416 42.73C258.577 42.8401 258.797 42.8951 259.076 42.8951H260.74C261.375 42.8951 261.879 43.0517 262.251 43.365C262.624 43.6783 262.81 44.0889 262.81 44.5969C262.81 45.198 262.573 45.6722 262.099 46.0193C261.625 46.3664 260.99 46.54 260.194 46.54H259.432ZM259.851 42.0061C259.351 42.0061 258.907 41.9087 258.517 41.714C258.136 41.5193 257.84 41.2526 257.628 40.9139C257.417 40.5668 257.311 40.1731 257.311 39.7328C257.311 39.2841 257.417 38.8904 257.628 38.5517C257.84 38.213 258.136 37.9506 258.517 37.7643C258.907 37.5696 259.351 37.4722 259.851 37.4722C260.359 37.4722 260.799 37.5696 261.172 37.7643C261.553 37.9506 261.849 38.213 262.061 38.5517C262.281 38.8904 262.391 39.2841 262.391 39.7328C262.391 40.1731 262.281 40.5668 262.061 40.9139C261.849 41.2526 261.553 41.5193 261.172 41.714C260.799 41.9087 260.359 42.0061 259.851 42.0061ZM259.851 41.0663C260.3 41.0663 260.664 40.9435 260.943 40.698C261.222 40.4525 261.362 40.1307 261.362 39.7328C261.362 39.3433 261.222 39.0258 260.943 38.7803C260.664 38.5348 260.3 38.412 259.851 38.412C259.394 38.412 259.025 38.5348 258.746 38.7803C258.475 39.0258 258.34 39.3433 258.34 39.7328C258.34 40.1307 258.475 40.4525 258.746 40.698C259.025 40.9435 259.394 41.0663 259.851 41.0663ZM261.591 38.4374L260.88 37.9929C260.88 37.6627 260.947 37.3664 261.083 37.1039C261.227 36.8414 261.413 36.6382 261.642 36.4943C261.87 36.3419 262.128 36.2657 262.416 36.2657C262.484 36.2657 262.556 36.2699 262.632 36.2784C262.717 36.2784 262.78 36.2869 262.823 36.3038V37.2817L262.759 37.4214C262.675 37.396 262.573 37.3833 262.454 37.3833C262.167 37.3833 261.951 37.4807 261.807 37.6754C261.663 37.8701 261.591 38.1241 261.591 38.4374ZM264.556 44V43.8984L268.213 35.5418L268.569 36.1514H263.375V35.11H269.09V36.1006L265.711 44H264.556ZM269.762 44V43.0221L274.143 38.0691L274.27 38.6533H269.8V37.6373H274.982V38.5898L270.6 43.5809L270.473 42.9713H274.982V44H269.762ZM278.258 44L278.283 43.111L280.493 37.6373H281.611V37.7389L279.033 44H278.258ZM277.979 44L275.4 37.7389V37.6373H276.518L278.728 43.111L278.766 44H277.979ZM285.914 44.1651C285.474 44.1651 285.067 44.0762 284.695 43.8984C284.331 43.7206 284.017 43.4751 283.755 43.1618C283.501 42.8485 283.315 42.4929 283.196 42.095V39.5423C283.315 39.1359 283.501 38.7803 283.755 38.4755C284.017 38.1622 284.331 37.9167 284.695 37.7389C285.067 37.5611 285.474 37.4722 285.914 37.4722C286.49 37.4722 287.002 37.6161 287.451 37.904C287.899 38.1919 288.259 38.5898 288.53 39.0978C288.801 39.5973 288.937 40.1688 288.937 40.8123C288.937 41.4642 288.801 42.0442 288.53 42.5522C288.259 43.0517 287.899 43.4454 287.451 43.7333C287.002 44.0212 286.49 44.1651 285.914 44.1651ZM282.65 44V34.856L283.691 34.729L283.73 34.8306V39.9106L283.501 40.8123L283.691 41.7267V44H282.65ZM285.838 43.1364C286.227 43.1364 286.574 43.039 286.879 42.8443C287.184 42.6411 287.421 42.3659 287.59 42.0188C287.768 41.6717 287.857 41.2695 287.857 40.8123C287.857 40.3551 287.768 39.9529 287.59 39.6058C287.421 39.2587 287.184 38.9877 286.879 38.793C286.574 38.5983 286.227 38.5009 285.838 38.5009C285.431 38.5009 285.067 38.5983 284.746 38.793C284.432 38.9877 284.182 39.2587 283.996 39.6058C283.818 39.9529 283.73 40.3551 283.73 40.8123C283.73 41.2695 283.818 41.6717 283.996 42.0188C284.182 42.3659 284.432 42.6411 284.746 42.8443C285.067 43.039 285.431 43.1364 285.838 43.1364ZM293.412 44.1651C292.726 44.1651 292.134 43.9873 291.634 43.6317C291.143 43.2676 290.766 42.7554 290.504 42.095C290.242 41.4261 290.11 40.643 290.11 39.7455C290.11 38.7888 290.254 37.9506 290.542 37.2309C290.83 36.5112 291.232 35.9524 291.749 35.5545C292.265 35.1481 292.87 34.9449 293.565 34.9449C294.064 34.9449 294.517 35.055 294.924 35.2751C295.33 35.4868 295.664 35.7831 295.927 36.1641C296.198 36.5366 296.376 36.9727 296.46 37.4722L295.508 37.6881L295.368 37.6627C295.25 37.1632 295.029 36.761 294.708 36.4562C294.394 36.1514 293.996 35.999 293.514 35.999C293.074 35.999 292.68 36.1472 292.333 36.4435C291.994 36.7314 291.723 37.1589 291.52 37.7262C291.317 38.285 291.211 38.9708 291.202 39.7836C291.202 39.8429 291.202 39.9064 291.202 39.9741C291.202 40.0334 291.202 40.0969 291.202 40.1646L290.974 40.063C291.101 39.6905 291.296 39.373 291.558 39.1105C291.829 38.8396 292.138 38.6321 292.485 38.4882C292.841 38.3443 293.213 38.2723 293.603 38.2723C294.153 38.2723 294.644 38.3993 295.076 38.6533C295.516 38.9073 295.863 39.2544 296.117 39.6947C296.371 40.1265 296.498 40.626 296.498 41.1933C296.498 41.769 296.363 42.2813 296.092 42.73C295.83 43.1787 295.465 43.5301 295 43.7841C294.534 44.0381 294.005 44.1651 293.412 44.1651ZM293.45 43.111C293.823 43.111 294.153 43.0306 294.441 42.8697C294.737 42.7088 294.966 42.4845 295.127 42.1966C295.296 41.9087 295.381 41.5828 295.381 41.2187C295.381 40.8377 295.296 40.5075 295.127 40.2281C294.966 39.9487 294.737 39.7286 294.441 39.5677C294.153 39.3984 293.823 39.3137 293.45 39.3137C293.069 39.3137 292.731 39.3984 292.434 39.5677C292.147 39.7286 291.922 39.9487 291.761 40.2281C291.6 40.5075 291.52 40.8377 291.52 41.2187C291.52 41.5828 291.6 41.9087 291.761 42.1966C291.922 42.4845 292.147 42.7088 292.434 42.8697C292.731 43.0306 293.069 43.111 293.45 43.111ZM298.725 39.1232C298.497 39.1232 298.306 39.047 298.154 38.8946C298.001 38.7422 297.925 38.5559 297.925 38.3358C297.925 38.1072 298.001 37.9167 298.154 37.7643C298.306 37.6119 298.497 37.5357 298.725 37.5357C298.954 37.5357 299.14 37.6119 299.284 37.7643C299.437 37.9167 299.513 38.1072 299.513 38.3358C299.513 38.5559 299.437 38.7422 299.284 38.8946C299.14 39.047 298.954 39.1232 298.725 39.1232ZM297.976 45.7145V44.9398C298.255 44.8805 298.471 44.7578 298.624 44.5715C298.776 44.3937 298.852 44.182 298.852 43.9365C298.852 43.801 298.831 43.6656 298.789 43.5301L299.284 43.2634C299.301 43.3142 299.31 43.365 299.31 43.4158C299.318 43.4666 299.322 43.5174 299.322 43.5682C299.322 43.7206 299.28 43.8391 299.195 43.9238C299.119 44 299.03 44.0466 298.929 44.0635C298.835 44.0889 298.768 44.1016 298.725 44.1016C298.497 44.1016 298.306 44.0254 298.154 43.873C298.001 43.7206 297.925 43.5343 297.925 43.3142C297.925 43.0856 298.001 42.8951 298.154 42.7427C298.306 42.5903 298.497 42.5141 298.725 42.5141C298.929 42.5141 299.098 42.5734 299.233 42.6919C299.369 42.802 299.47 42.9501 299.538 43.1364C299.614 43.3227 299.652 43.5216 299.652 43.7333C299.652 43.9196 299.623 44.1185 299.564 44.3302C299.504 44.5419 299.407 44.7451 299.271 44.9398C299.144 45.1345 298.975 45.2996 298.763 45.4351C298.552 45.579 298.289 45.6722 297.976 45.7145ZM13.5179 64.1651C12.9506 64.1651 12.4384 64.0212 11.9812 63.7333C11.524 63.4454 11.1599 63.0517 10.889 62.5522C10.6265 62.0442 10.4953 61.4642 10.4953 60.8123C10.4953 60.1688 10.6265 59.5973 10.889 59.0978C11.1599 58.5898 11.524 58.1919 11.9812 57.904C12.4384 57.6161 12.9506 57.4722 13.5179 57.4722C13.9582 57.4722 14.3603 57.5611 14.7244 57.7389C15.0969 57.9167 15.4102 58.1622 15.6642 58.4755C15.9267 58.7803 16.1172 59.1359 16.2357 59.5423V62.095C16.1172 62.4929 15.9267 62.8485 15.6642 63.1618C15.4102 63.4751 15.0969 63.7206 14.7244 63.8984C14.3603 64.0762 13.9582 64.1651 13.5179 64.1651ZM13.5941 63.1364C14.009 63.1364 14.373 63.039 14.6863 62.8443C14.9996 62.6411 15.2451 62.3659 15.4229 62.0188C15.6092 61.6717 15.7023 61.2695 15.7023 60.8123C15.7023 60.3551 15.6092 59.9529 15.4229 59.6058C15.2451 59.2587 14.9996 58.9877 14.6863 58.793C14.373 58.5983 14.009 58.5009 13.5941 58.5009C13.2131 58.5009 12.866 58.5983 12.5527 58.793C12.2479 58.9877 12.0066 59.2587 11.8288 59.6058C11.6595 59.9529 11.5748 60.3551 11.5748 60.8123C11.5748 61.2695 11.6595 61.6717 11.8288 62.0188C12.0066 62.3659 12.2479 62.6411 12.5527 62.8443C12.866 63.039 13.2131 63.1364 13.5941 63.1364ZM15.7404 64V61.7267L15.9309 60.8123L15.6896 59.9106V54.856L16.7437 54.729L16.7818 54.8306V64H15.7404ZM18.3493 58.8438V57.8024H24.077V58.8438H18.3493ZM18.3493 61.3076V60.2662H24.077V61.3076H18.3493ZM27.681 64L27.7064 63.111L29.9162 57.6373H31.0338V57.7389L28.4557 64H27.681ZM27.4016 64L24.8235 57.7389V57.6373H25.9411L28.1509 63.111L28.189 64H27.4016ZM34.5428 64.1651C33.9248 64.1651 33.3787 64.0254 32.9045 63.746C32.4304 63.4581 32.0579 63.0644 31.7869 62.5649C31.5245 62.0654 31.3932 61.4812 31.3932 60.8123C31.3932 60.1519 31.5245 59.5719 31.7869 59.0724C32.0494 58.5644 32.4135 58.1707 32.8791 57.8913C33.3533 57.6119 33.8951 57.4722 34.5047 57.4722C35.1059 57.4722 35.6308 57.6161 36.0795 57.904C36.5367 58.1834 36.8923 58.5813 37.1463 59.0978C37.4003 59.6143 37.5273 60.2154 37.5273 60.9012V61.0536L37.3368 61.2314H31.9901V60.2281H36.9431L36.4351 60.4313C36.4097 60.0249 36.3081 59.6778 36.1303 59.3899C35.9525 59.102 35.7239 58.8819 35.4445 58.7295C35.1651 58.5686 34.8519 58.4882 34.5047 58.4882C34.1322 58.4882 33.7893 58.5813 33.476 58.7676C33.1628 58.9454 32.9172 59.1994 32.7394 59.5296C32.5616 59.8598 32.4727 60.2408 32.4727 60.6726V60.9266C32.4727 61.3499 32.5616 61.7309 32.7394 62.0696C32.9172 62.3998 33.1628 62.6623 33.476 62.857C33.7893 63.0517 34.1449 63.1491 34.5428 63.1491C34.9323 63.1491 35.271 63.056 35.5588 62.8697C35.8467 62.675 36.0711 62.4125 36.2319 62.0823H36.3843L37.2733 62.476C37.0363 63.0009 36.6764 63.4158 36.1938 63.7206C35.7197 64.0169 35.1694 64.1651 34.5428 64.1651ZM38.8805 64V57.6373H39.9219V59.428L39.6171 59.2375C39.7695 58.7464 40.0531 58.357 40.468 58.0691C40.8829 57.7812 41.3485 57.6373 41.865 57.6373H42.5127V58.6533H41.6999C41.3528 58.6533 41.048 58.738 40.7855 58.9073C40.5315 59.0682 40.3283 59.2968 40.1759 59.5931C40.032 59.881 39.96 60.2196 39.96 60.6091V64H38.8805ZM46.0909 64.1651C45.4559 64.1651 44.8971 64.0254 44.4145 63.746C43.9319 63.4581 43.5552 63.0644 43.2842 62.5649C43.0133 62.0654 42.8778 61.4812 42.8778 60.8123C42.8778 60.1519 43.0133 59.5719 43.2842 59.0724C43.5552 58.5644 43.9319 58.1707 44.4145 57.8913C44.8971 57.6119 45.4559 57.4722 46.0909 57.4722C46.5735 57.4722 47.0053 57.5611 47.3863 57.7389C47.7758 57.9082 48.106 58.1538 48.3769 58.4755C48.6563 58.7888 48.8638 59.174 48.9992 59.6312L48.0594 59.8979H47.9197C47.7758 59.4661 47.5387 59.1274 47.2085 58.8819C46.8868 58.6279 46.5143 58.5009 46.0909 58.5009C45.6591 58.5009 45.2824 58.5983 44.9606 58.793C44.6474 58.9877 44.4018 59.2587 44.224 59.6058C44.0462 59.9529 43.9573 60.3551 43.9573 60.8123C43.9573 61.2695 44.0462 61.6759 44.224 62.0315C44.4018 62.3786 44.6474 62.6496 44.9606 62.8443C45.2824 63.039 45.6591 63.1364 46.0909 63.1364C46.3873 63.1364 46.6582 63.0814 46.9037 62.9713C47.1493 62.8612 47.3609 62.7004 47.5387 62.4887C47.725 62.277 47.8689 62.0273 47.9705 61.7394H48.1102L49.0627 62.0061C48.9103 62.4633 48.6902 62.857 48.4023 63.1872C48.1145 63.5089 47.7758 63.7545 47.3863 63.9238C47.0053 64.0847 46.5735 64.1651 46.0909 64.1651ZM53.134 64.1651C52.5159 64.1651 51.9698 64.0254 51.4957 63.746C51.0215 63.4581 50.649 63.0644 50.3781 62.5649C50.1156 62.0654 49.9844 61.4812 49.9844 60.8123C49.9844 60.1519 50.1156 59.5719 50.3781 59.0724C50.6405 58.5644 51.0046 58.1707 51.4703 57.8913C51.9444 57.6119 52.4863 57.4722 53.0959 57.4722C53.697 57.4722 54.2219 57.6161 54.6707 57.904C55.1279 58.1834 55.4835 58.5813 55.7375 59.0978C55.9915 59.6143 56.1185 60.2154 56.1185 60.9012V61.0536L55.928 61.2314H50.5813V60.2281H55.5343L55.0263 60.4313C55.0009 60.0249 54.8993 59.6778 54.7215 59.3899C54.5437 59.102 54.3151 58.8819 54.0357 58.7295C53.7563 58.5686 53.443 58.4882 53.0959 58.4882C52.7233 58.4882 52.3804 58.5813 52.0672 58.7676C51.7539 58.9454 51.5084 59.1994 51.3306 59.5296C51.1528 59.8598 51.0639 60.2408 51.0639 60.6726V60.9266C51.0639 61.3499 51.1528 61.7309 51.3306 62.0696C51.5084 62.3998 51.7539 62.6623 52.0672 62.857C52.3804 63.0517 52.736 63.1491 53.134 63.1491C53.5234 63.1491 53.8621 63.056 54.15 62.8697C54.4378 62.675 54.6622 62.4125 54.8231 62.0823H54.9755L55.8645 62.476C55.6274 63.0009 55.2676 63.4158 54.785 63.7206C54.3108 64.0169 53.7605 64.1651 53.134 64.1651ZM57.5351 64V54.856L58.5765 54.729L58.6146 54.8306V64H57.5351ZM61.0965 64.1016C60.8679 64.1016 60.6774 64.0254 60.525 63.873C60.3726 63.7206 60.2964 63.5343 60.2964 63.3142C60.2964 63.0856 60.3726 62.8951 60.525 62.7427C60.6774 62.5903 60.8679 62.5141 61.0965 62.5141C61.3251 62.5141 61.5113 62.5903 61.6553 62.7427C61.8077 62.8951 61.8839 63.0856 61.8839 63.3142C61.8839 63.5343 61.8077 63.7206 61.6553 63.873C61.5113 64.0254 61.3251 64.1016 61.0965 64.1016ZM66.3439 64.1651C65.7089 64.1651 65.1501 64.0254 64.6675 63.746C64.1849 63.4581 63.8082 63.0644 63.5372 62.5649C63.2663 62.0654 63.1308 61.4812 63.1308 60.8123C63.1308 60.1519 63.2663 59.5719 63.5372 59.0724C63.8082 58.5644 64.1849 58.1707 64.6675 57.8913C65.1501 57.6119 65.7089 57.4722 66.3439 57.4722C66.8265 57.4722 67.2583 57.5611 67.6393 57.7389C68.0288 57.9082 68.359 58.1538 68.6299 58.4755C68.9093 58.7888 69.1168 59.174 69.2522 59.6312L68.3124 59.8979H68.1727C68.0288 59.4661 67.7917 59.1274 67.4615 58.8819C67.1398 58.6279 66.7673 58.5009 66.3439 58.5009C65.9121 58.5009 65.5354 58.5983 65.2136 58.793C64.9004 58.9877 64.6548 59.2587 64.477 59.6058C64.2992 59.9529 64.2103 60.3551 64.2103 60.8123C64.2103 61.2695 64.2992 61.6759 64.477 62.0315C64.6548 62.3786 64.9004 62.6496 65.2136 62.8443C65.5354 63.039 65.9121 63.1364 66.3439 63.1364C66.6403 63.1364 66.9112 63.0814 67.1567 62.9713C67.4023 62.8612 67.6139 62.7004 67.7917 62.4887C67.978 62.277 68.1219 62.0273 68.2235 61.7394H68.3632L69.3157 62.0061C69.1633 62.4633 68.9432 62.857 68.6553 63.1872C68.3675 63.5089 68.0288 63.7545 67.6393 63.9238C67.2583 64.0847 66.8265 64.1651 66.3439 64.1651ZM73.3997 64.1651C72.7816 64.1651 72.2355 64.0254 71.7614 63.746C71.2873 63.4581 70.9147 63.0644 70.6438 62.5649C70.3729 62.0569 70.2374 61.4727 70.2374 60.8123C70.2374 60.1519 70.3729 59.5719 70.6438 59.0724C70.9147 58.5644 71.2873 58.1707 71.7614 57.8913C72.2355 57.6119 72.7816 57.4722 73.3997 57.4722C74.0262 57.4722 74.5766 57.6119 75.0507 57.8913C75.5248 58.1707 75.8974 58.5644 76.1683 59.0724C76.4392 59.5719 76.5747 60.1519 76.5747 60.8123C76.5747 61.4727 76.4392 62.0569 76.1683 62.5649C75.8974 63.0644 75.5248 63.4581 75.0507 63.746C74.5766 64.0254 74.0262 64.1651 73.3997 64.1651ZM73.3997 63.1364C73.8146 63.1364 74.1744 63.0433 74.4792 62.857C74.7925 62.6623 75.038 62.3913 75.2158 62.0442C75.3936 61.6886 75.4825 61.278 75.4825 60.8123C75.4825 60.3382 75.3936 59.9318 75.2158 59.5931C75.038 59.246 74.7925 58.9793 74.4792 58.793C74.1744 58.5983 73.8146 58.5009 73.3997 58.5009C72.9933 58.5009 72.6335 58.5983 72.3202 58.793C72.0069 58.9793 71.7614 59.246 71.5836 59.5931C71.4058 59.9318 71.3169 60.3382 71.3169 60.8123C71.3169 61.278 71.4058 61.6886 71.5836 62.0442C71.7614 62.3913 72.0069 62.6623 72.3202 62.857C72.6335 63.0433 72.9933 63.1364 73.3997 63.1364ZM77.9355 64V57.6373H78.9769V59.4026L78.7102 59.1613C78.8287 58.8142 79.0107 58.5178 79.2563 58.2723C79.5018 58.0183 79.7897 57.8236 80.1199 57.6881C80.4501 57.5442 80.7972 57.4722 81.1613 57.4722C81.7116 57.4722 82.19 57.6288 82.5964 57.9421C83.0028 58.2554 83.2695 58.7083 83.3965 59.301L82.952 59.2883C83.062 58.9242 83.2441 58.6067 83.4981 58.3358C83.7605 58.0649 84.0738 57.8532 84.4379 57.7008C84.8019 57.5484 85.1956 57.4722 85.619 57.4722C86.0508 57.4722 86.4402 57.5696 86.7874 57.7643C87.1345 57.959 87.4097 58.2469 87.6129 58.6279C87.8161 59.0089 87.9177 59.4873 87.9177 60.063V64H86.8382V60.317C86.8382 59.8598 86.7704 59.5 86.635 59.2375C86.4995 58.975 86.3217 58.7888 86.1016 58.6787C85.8814 58.5686 85.6317 58.5136 85.3523 58.5136C85.0644 58.5136 84.7765 58.5898 84.4887 58.7422C84.2008 58.8946 83.9595 59.1274 83.7648 59.4407C83.57 59.7455 83.4727 60.1392 83.4727 60.6218V64H82.3932V60.317C82.3932 59.8598 82.3254 59.5 82.19 59.2375C82.0545 58.975 81.8725 58.7888 81.6439 58.6787C81.4237 58.5686 81.1782 58.5136 80.9073 58.5136C80.6194 58.5136 80.3273 58.594 80.031 58.7549C79.7431 58.9073 79.5018 59.1401 79.3071 59.4534C79.1123 59.7582 79.015 60.1477 79.015 60.6218V64H77.9355ZM90.2668 59.1232C90.0382 59.1232 89.8477 59.047 89.6953 58.8946C89.5429 58.7422 89.4667 58.5559 89.4667 58.3358C89.4667 58.1072 89.5429 57.9167 89.6953 57.7643C89.8477 57.6119 90.0382 57.5357 90.2668 57.5357C90.4954 57.5357 90.6816 57.6119 90.8256 57.7643C90.978 57.9167 91.0542 58.1072 91.0542 58.3358C91.0542 58.5559 90.978 58.7422 90.8256 58.8946C90.6816 59.047 90.4954 59.1232 90.2668 59.1232ZM89.5175 65.7145V64.9398C89.7969 64.8805 90.0128 64.7578 90.1652 64.5715C90.3176 64.3937 90.3938 64.182 90.3938 63.9365C90.3938 63.801 90.3726 63.6656 90.3303 63.5301L90.8256 63.2634C90.8425 63.3142 90.851 63.365 90.851 63.4158C90.8594 63.4666 90.8637 63.5174 90.8637 63.5682C90.8637 63.7206 90.8213 63.8391 90.7367 63.9238C90.6605 64 90.5716 64.0466 90.47 64.0635C90.3768 64.0889 90.3091 64.1016 90.2668 64.1016C90.0382 64.1016 89.8477 64.0254 89.6953 63.873C89.5429 63.7206 89.4667 63.5343 89.4667 63.3142C89.4667 63.0856 89.5429 62.8951 89.6953 62.7427C89.8477 62.5903 90.0382 62.5141 90.2668 62.5141C90.47 62.5141 90.6393 62.5734 90.7748 62.6919C90.9102 62.802 91.0118 62.9501 91.0796 63.1364C91.1558 63.3227 91.1939 63.5216 91.1939 63.7333C91.1939 63.9196 91.1642 64.1185 91.105 64.3302C91.0457 64.5419 90.9483 64.7451 90.8129 64.9398C90.6859 65.1345 90.5165 65.2996 90.3049 65.4351C90.0932 65.579 89.8307 65.6722 89.5175 65.7145ZM97.9223 64C97.372 64 96.9232 63.8264 96.5761 63.4793C96.229 63.1237 96.0554 62.6453 96.0554 62.0442V55.9228H97.1349V61.9553C97.1349 62.3194 97.2153 62.5818 97.3762 62.7427C97.5371 62.8951 97.7953 62.9713 98.1509 62.9713H98.9129L98.9764 63.111V64H97.9223ZM94.9632 58.6533V57.6373H98.9764V58.6533H94.9632ZM100.168 58.8438V57.8024H105.895V58.8438H100.168ZM100.168 61.3076V60.2662H105.895V61.3076H100.168ZM108.61 64V55.6053L109.144 56.0625L106.997 57.777H106.896V56.5324L108.648 55.11H109.69V64H108.61ZM112.168 64V63.8984L115.826 55.5418L116.181 56.1514H110.987V55.11H116.702V56.1006L113.324 64H112.168ZM120.457 64.1651C119.856 64.1651 119.322 64.0466 118.857 63.8095C118.391 63.564 118.027 63.2253 117.764 62.7935C117.502 62.3532 117.367 61.841 117.358 61.2568L118.311 61.0409L118.45 61.0663C118.45 61.4896 118.531 61.8579 118.692 62.1712C118.852 62.476 119.081 62.7088 119.377 62.8697C119.674 63.0306 120.025 63.111 120.431 63.111C120.812 63.111 121.143 63.0475 121.422 62.9205C121.701 62.785 121.917 62.5988 122.07 62.3617C122.231 62.1162 122.311 61.8241 122.311 61.4854C122.311 60.9435 122.121 60.5287 121.74 60.2408C121.367 59.9445 120.884 59.7963 120.292 59.7963H119.631V58.7803H120.317C120.842 58.7803 121.27 58.6575 121.6 58.412C121.939 58.158 122.108 57.8066 122.108 57.3579C122.108 57.087 122.04 56.8499 121.905 56.6467C121.769 56.435 121.579 56.2742 121.333 56.1641C121.088 56.0456 120.8 55.9863 120.47 55.9863C120.105 55.9863 119.788 56.0625 119.517 56.2149C119.246 56.3673 119.034 56.579 118.882 56.8499C118.73 57.1208 118.649 57.4468 118.641 57.8278L118.501 57.8532L117.561 57.6373C117.57 57.1208 117.697 56.6636 117.942 56.2657C118.196 55.8593 118.543 55.5376 118.984 55.3005C119.424 55.0634 119.923 54.9449 120.482 54.9449C121.024 54.9449 121.498 55.0507 121.905 55.2624C122.32 55.4656 122.641 55.7408 122.87 56.0879C123.107 56.435 123.225 56.8287 123.225 57.269C123.225 57.9125 123.018 58.4162 122.603 58.7803C122.197 59.1444 121.663 59.356 121.003 59.4153V59.1486C121.502 59.1486 121.93 59.2502 122.286 59.4534C122.65 59.6566 122.929 59.9402 123.124 60.3043C123.327 60.6684 123.429 61.0917 123.429 61.5743C123.429 62.0738 123.306 62.5226 123.06 62.9205C122.823 63.31 122.48 63.6148 122.032 63.8349C121.591 64.055 121.066 64.1651 120.457 64.1651ZM128.699 64V55.9101L129.143 56.1768L125.321 61.5362L125.029 61.0536H130.858V62.1077H124.343V61.1044L128.623 55.11H129.778V64H128.699ZM133.241 64V55.6053L133.775 56.0625L131.628 57.777H131.527V56.5324L133.279 55.11H134.321V64H133.241ZM139.911 64V55.9101L140.355 56.1768L136.532 61.5362L136.24 61.0536H142.07V62.1077H135.555V61.1044L139.834 55.11H140.99V64H139.911ZM146.345 64.1651C145.66 64.1651 145.067 63.9873 144.567 63.6317C144.076 63.2676 143.699 62.7554 143.437 62.095C143.175 61.4261 143.043 60.643 143.043 59.7455C143.043 58.7888 143.187 57.9506 143.475 57.2309C143.763 56.5112 144.165 55.9524 144.682 55.5545C145.198 55.1481 145.803 54.9449 146.498 54.9449C146.997 54.9449 147.45 55.055 147.857 55.2751C148.263 55.4868 148.597 55.7831 148.86 56.1641C149.131 56.5366 149.309 56.9727 149.393 57.4722L148.441 57.6881L148.301 57.6627C148.183 57.1632 147.962 56.761 147.641 56.4562C147.327 56.1514 146.93 55.999 146.447 55.999C146.007 55.999 145.613 56.1472 145.266 56.4435C144.927 56.7314 144.656 57.1589 144.453 57.7262C144.25 58.285 144.144 58.9708 144.136 59.7836C144.136 59.8429 144.136 59.9064 144.136 59.9741C144.136 60.0334 144.136 60.0969 144.136 60.1646L143.907 60.063C144.034 59.6905 144.229 59.373 144.491 59.1105C144.762 58.8396 145.071 58.6321 145.418 58.4882C145.774 58.3443 146.146 58.2723 146.536 58.2723C147.086 58.2723 147.577 58.3993 148.009 58.6533C148.449 58.9073 148.796 59.2544 149.05 59.6947C149.304 60.1265 149.431 60.626 149.431 61.1933C149.431 61.769 149.296 62.2813 149.025 62.73C148.763 63.1787 148.398 63.5301 147.933 63.7841C147.467 64.0381 146.938 64.1651 146.345 64.1651ZM146.383 63.111C146.756 63.111 147.086 63.0306 147.374 62.8697C147.67 62.7088 147.899 62.4845 148.06 62.1966C148.229 61.9087 148.314 61.5828 148.314 61.2187C148.314 60.8377 148.229 60.5075 148.06 60.2281C147.899 59.9487 147.67 59.7286 147.374 59.5677C147.086 59.3984 146.756 59.3137 146.383 59.3137C146.002 59.3137 145.664 59.3984 145.367 59.5677C145.08 59.7286 144.855 59.9487 144.694 60.2281C144.533 60.5075 144.453 60.8377 144.453 61.2187C144.453 61.5828 144.533 61.9087 144.694 62.1966C144.855 62.4845 145.08 62.7088 145.367 62.8697C145.664 63.0306 146.002 63.111 146.383 63.111ZM151.223 64V63.8984L154.881 55.5418L155.236 56.1514H150.042V55.11H155.757V56.1006L152.379 64H151.223ZM157.61 64V63.8984L161.268 55.5418L161.624 56.1514H156.429V55.11H162.144V56.1006L158.766 64H157.61ZM164.594 64V55.6053L165.128 56.0625L162.982 57.777H162.88V56.5324L164.633 55.11H165.674V64H164.594ZM168.203 59.1232C167.974 59.1232 167.784 59.047 167.632 58.8946C167.479 58.7422 167.403 58.5559 167.403 58.3358C167.403 58.1072 167.479 57.9167 167.632 57.7643C167.784 57.6119 167.974 57.5357 168.203 57.5357C168.432 57.5357 168.618 57.6119 168.762 57.7643C168.914 57.9167 168.99 58.1072 168.99 58.3358C168.99 58.5559 168.914 58.7422 168.762 58.8946C168.618 59.047 168.432 59.1232 168.203 59.1232ZM167.454 65.7145V64.9398C167.733 64.8805 167.949 64.7578 168.101 64.5715C168.254 64.3937 168.33 64.182 168.33 63.9365C168.33 63.801 168.309 63.6656 168.267 63.5301L168.762 63.2634C168.779 63.3142 168.787 63.365 168.787 63.4158C168.796 63.4666 168.8 63.5174 168.8 63.5682C168.8 63.7206 168.758 63.8391 168.673 63.9238C168.597 64 168.508 64.0466 168.406 64.0635C168.313 64.0889 168.245 64.1016 168.203 64.1016C167.974 64.1016 167.784 64.0254 167.632 63.873C167.479 63.7206 167.403 63.5343 167.403 63.3142C167.403 63.0856 167.479 62.8951 167.632 62.7427C167.784 62.5903 167.974 62.5141 168.203 62.5141C168.406 62.5141 168.576 62.5734 168.711 62.6919C168.847 62.802 168.948 62.9501 169.016 63.1364C169.092 63.3227 169.13 63.5216 169.13 63.7333C169.13 63.9196 169.101 64.1185 169.041 64.3302C168.982 64.5419 168.885 64.7451 168.749 64.9398C168.622 65.1345 168.453 65.2996 168.241 65.4351C168.03 65.579 167.767 65.6722 167.454 65.7145Z" fill="black"/>
</svg>
