<svg width="16" height="16" viewBox="0 0 16 16" fill="none" xmlns="http://www.w3.org/2000/svg">
<g id="Iconset">
<path id="Vector" d="M15.0304 6.46996L10.0304 1.46997C9.92553 1.36499 9.7919 1.29348 9.6464 1.26447C9.50089 1.23547 9.35005 1.25027 9.21296 1.307C9.07587 1.36374 8.95868 1.45986 8.87623 1.58321C8.79378 1.70656 8.74977 1.8516 8.74976 1.99997V4.29622C7.13976 4.49121 5.39601 5.28934 3.95289 6.51309C2.13039 8.05934 0.995386 10.0562 0.756636 12.1381C0.732449 12.347 0.774745 12.5582 0.87751 12.7417C0.980274 12.9252 1.13828 13.0716 1.32904 13.1602C1.51981 13.2487 1.73364 13.2748 1.94012 13.2349C2.14659 13.1949 2.33521 13.0908 2.47914 12.9375C3.13289 12.2412 5.41664 10.0787 8.74976 9.78621V12C8.74989 12.1482 8.79395 12.2931 8.87637 12.4163C8.95879 12.5395 9.07588 12.6355 9.21284 12.6923C9.3498 12.749 9.5005 12.7638 9.6459 12.7349C9.7913 12.706 9.92488 12.6347 10.0298 12.53L15.0298 7.52996C15.1703 7.38942 15.2493 7.19884 15.2494 7.00009C15.2495 6.80134 15.1708 6.61067 15.0304 6.46996ZM10.2498 10.1875V8.99996C10.2498 8.80105 10.1707 8.61029 10.0301 8.46964C9.88944 8.32898 9.69868 8.24996 9.49976 8.24996C6.43726 8.24996 4.08914 9.59747 2.63789 10.7568C3.08351 9.62184 3.86476 8.55559 4.92351 7.65746C6.33101 6.46309 8.04164 5.74996 9.49976 5.74996C9.69868 5.74996 9.88944 5.67095 10.0301 5.53029C10.1707 5.38964 10.2498 5.19888 10.2498 4.99997V3.81247L13.4373 6.99996L10.2498 10.1875Z" fill="#F5F3EF"/>
</g>
</svg>
