<svg width="12" height="12" viewBox="0 0 12 12" fill="none" xmlns="http://www.w3.org/2000/svg">
<g id="Sparkle" clip-path="url(#clip0_1146_101)">
<path id="Vector" d="M9.748 6.75195C9.74895 6.90485 9.70249 7.05429 9.61503 7.1797C9.52756 7.30511 9.40337 7.40033 9.25956 7.45227L6.84175 8.3457L5.95112 10.7654C5.89838 10.9087 5.80296 11.0323 5.67773 11.1197C5.5525 11.207 5.40349 11.2539 5.25081 11.2539C5.09813 11.2539 4.94912 11.207 4.82389 11.1197C4.69866 11.0323 4.60324 10.9087 4.5505 10.7654L3.65425 8.3457L1.23456 7.45508C1.09128 7.40234 0.967621 7.30691 0.880274 7.18168C0.792927 7.05646 0.746094 6.90745 0.746094 6.75477C0.746094 6.60208 0.792927 6.45308 0.880274 6.32785C0.967621 6.20262 1.09128 6.10719 1.23456 6.05445L3.65425 5.1582L4.54487 2.73852C4.59762 2.59523 4.69304 2.47157 4.81827 2.38423C4.9435 2.29688 5.0925 2.25005 5.24519 2.25005C5.39787 2.25005 5.54688 2.29688 5.67211 2.38423C5.79733 2.47157 5.89276 2.59523 5.9455 2.73852L6.84175 5.1582L9.26144 6.04883C9.40535 6.10123 9.52945 6.19702 9.61661 6.32296C9.70376 6.44891 9.74967 6.5988 9.748 6.75195ZM7.123 2.25195H7.873V3.00195C7.873 3.10141 7.91251 3.19679 7.98283 3.26712C8.05316 3.33744 8.14854 3.37695 8.248 3.37695C8.34746 3.37695 8.44284 3.33744 8.51316 3.26712C8.58349 3.19679 8.623 3.10141 8.623 3.00195V2.25195H9.373C9.47246 2.25195 9.56784 2.21244 9.63816 2.14212C9.70849 2.07179 9.748 1.97641 9.748 1.87695C9.748 1.7775 9.70849 1.68211 9.63816 1.61179C9.56784 1.54146 9.47246 1.50195 9.373 1.50195H8.623V0.751953C8.623 0.652497 8.58349 0.557114 8.51316 0.486788C8.44284 0.416462 8.34746 0.376953 8.248 0.376953C8.14854 0.376953 8.05316 0.416462 7.98283 0.486788C7.91251 0.557114 7.873 0.652497 7.873 0.751953V1.50195H7.123C7.02354 1.50195 6.92816 1.54146 6.85783 1.61179C6.78751 1.68211 6.748 1.7775 6.748 1.87695C6.748 1.97641 6.78751 2.07179 6.85783 2.14212C6.92816 2.21244 7.02354 2.25195 7.123 2.25195ZM11.248 3.75195H10.873V3.37695C10.873 3.2775 10.8335 3.18211 10.7632 3.11179C10.6928 3.04146 10.5975 3.00195 10.498 3.00195C10.3985 3.00195 10.3032 3.04146 10.2328 3.11179C10.1625 3.18211 10.123 3.2775 10.123 3.37695V3.75195H9.748C9.64854 3.75195 9.55316 3.79146 9.48283 3.86179C9.41251 3.93211 9.373 4.0275 9.373 4.12695C9.373 4.22641 9.41251 4.32179 9.48283 4.39212C9.55316 4.46244 9.64854 4.50195 9.748 4.50195H10.123V4.87695C10.123 4.97641 10.1625 5.07179 10.2328 5.14212C10.3032 5.21244 10.3985 5.25195 10.498 5.25195C10.5975 5.25195 10.6928 5.21244 10.7632 5.14212C10.8335 5.07179 10.873 4.97641 10.873 4.87695V4.50195H11.248C11.3475 4.50195 11.4428 4.46244 11.5132 4.39212C11.5835 4.32179 11.623 4.22641 11.623 4.12695C11.623 4.0275 11.5835 3.93211 11.5132 3.86179C11.4428 3.79146 11.3475 3.75195 11.248 3.75195Z" fill="#9B23C5"/>
</g>
<defs>
<clipPath id="clip0_1146_101">
<rect width="12" height="12" fill="white"/>
</clipPath>
</defs>
</svg>
