<svg width="20" height="20" viewBox="0 0 20 20" fill="none" xmlns="http://www.w3.org/2000/svg">
<g id="SpinnerGap">
<path id="Vector" d="M10.625 2.5V5C10.625 5.16576 10.5592 5.32473 10.4419 5.44194C10.3247 5.55915 10.1658 5.625 10 5.625C9.83424 5.625 9.67527 5.55915 9.55806 5.44194C9.44085 5.32473 9.375 5.16576 9.375 5V2.5C9.375 2.33424 9.44085 2.17527 9.55806 2.05806C9.67527 1.94085 9.83424 1.875 10 1.875C10.1658 1.875 10.3247 1.94085 10.4419 2.05806C10.5592 2.17527 10.625 2.33424 10.625 2.5ZM17.5 9.375H15C14.8342 9.375 14.6753 9.44085 14.5581 9.55806C14.4408 9.67527 14.375 9.83424 14.375 10C14.375 10.1658 14.4408 10.3247 14.5581 10.4419C14.6753 10.5592 14.8342 10.625 15 10.625H17.5C17.6658 10.625 17.8247 10.5592 17.9419 10.4419C18.0592 10.3247 18.125 10.1658 18.125 10C18.125 9.83424 18.0592 9.67527 17.9419 9.55806C17.8247 9.44085 17.6658 9.375 17.5 9.375ZM13.9773 13.0938C13.8592 12.9815 13.7018 12.9198 13.5389 12.9219C13.3759 12.924 13.2202 12.9897 13.1049 13.1049C12.9897 13.2202 12.924 13.3759 12.9219 13.5389C12.9198 13.7018 12.9815 13.8592 13.0938 13.9773L14.8609 15.7453C14.9782 15.8626 15.1373 15.9285 15.3031 15.9285C15.469 15.9285 15.628 15.8626 15.7453 15.7453C15.8626 15.628 15.9285 15.469 15.9285 15.3031C15.9285 15.1373 15.8626 14.9782 15.7453 14.8609L13.9773 13.0938ZM10 14.375C9.83424 14.375 9.67527 14.4408 9.55806 14.5581C9.44085 14.6753 9.375 14.8342 9.375 15V17.5C9.375 17.6658 9.44085 17.8247 9.55806 17.9419C9.67527 18.0592 9.83424 18.125 10 18.125C10.1658 18.125 10.3247 18.0592 10.4419 17.9419C10.5592 17.8247 10.625 17.6658 10.625 17.5V15C10.625 14.8342 10.5592 14.6753 10.4419 14.5581C10.3247 14.4408 10.1658 14.375 10 14.375ZM6.02266 13.0938L4.25469 14.8609C4.13741 14.9782 4.07153 15.1373 4.07153 15.3031C4.07153 15.469 4.13741 15.628 4.25469 15.7453C4.37196 15.8626 4.53102 15.9285 4.69687 15.9285C4.86273 15.9285 5.02179 15.8626 5.13906 15.7453L6.90625 13.9773C7.01851 13.8592 7.08017 13.7018 7.07809 13.5389C7.076 13.3759 7.01033 13.2202 6.89508 13.1049C6.77983 12.9897 6.62412 12.924 6.46114 12.9219C6.29816 12.9198 6.14082 12.9815 6.02266 13.0938ZM5.625 10C5.625 9.83424 5.55915 9.67527 5.44194 9.55806C5.32473 9.44085 5.16576 9.375 5 9.375H2.5C2.33424 9.375 2.17527 9.44085 2.05806 9.55806C1.94085 9.67527 1.875 9.83424 1.875 10C1.875 10.1658 1.94085 10.3247 2.05806 10.4419C2.17527 10.5592 2.33424 10.625 2.5 10.625H5C5.16576 10.625 5.32473 10.5592 5.44194 10.4419C5.55915 10.3247 5.625 10.1658 5.625 10ZM5.13906 4.25469C5.02179 4.13741 4.86273 4.07153 4.69687 4.07153C4.53102 4.07153 4.37196 4.13741 4.25469 4.25469C4.13741 4.37196 4.07153 4.53102 4.07153 4.69687C4.07153 4.86273 4.13741 5.02179 4.25469 5.13906L6.02266 6.90625C6.14082 7.01851 6.29816 7.08017 6.46114 7.07809C6.62412 7.076 6.77983 7.01033 6.89508 6.89508C7.01033 6.77983 7.076 6.62412 7.07809 6.46114C7.08017 6.29816 7.01851 6.14082 6.90625 6.02266L5.13906 4.25469Z" fill="#D3B313"/>
</g>
</svg>
