<svg width="16" height="16" viewBox="0 0 16 16" fill="none" xmlns="http://www.w3.org/2000/svg">
<g id="Star">
<path id="Vector" d="M14.9483 6.07879C14.8858 5.88661 14.7678 5.71724 14.6092 5.59201C14.4506 5.46677 14.2585 5.39128 14.0571 5.37504L10.3696 5.07754L8.9458 1.63441C8.86881 1.4468 8.73776 1.28632 8.56932 1.17337C8.40088 1.06043 8.20267 1.00012 7.99987 1.00012C7.79707 1.00012 7.59885 1.06043 7.43041 1.17337C7.26197 1.28632 7.13093 1.4468 7.05393 1.63441L5.63143 5.07691L1.94205 5.37504C1.74029 5.3921 1.54805 5.46833 1.38941 5.59416C1.23078 5.72 1.11281 5.88986 1.05028 6.08245C0.987751 6.27503 0.983448 6.48179 1.03791 6.67682C1.09237 6.87184 1.20317 7.04646 1.35643 7.17879L4.16893 9.60566L3.31205 13.2344C3.26413 13.4316 3.27587 13.6385 3.34577 13.8289C3.41567 14.0194 3.54058 14.1848 3.70465 14.3041C3.86873 14.4235 4.06456 14.4914 4.26729 14.4992C4.47002 14.5071 4.67051 14.4545 4.8433 14.3482L7.99955 12.4057L11.1577 14.3482C11.3305 14.4532 11.5306 14.5048 11.7327 14.4964C11.9348 14.4879 12.1299 14.4199 12.2934 14.3008C12.4569 14.1817 12.5816 14.0169 12.6516 13.8272C12.7217 13.6374 12.734 13.4312 12.6871 13.2344L11.8271 9.60504L14.6396 7.17816C14.7941 7.04605 14.9059 6.87106 14.9608 6.67535C15.0158 6.47964 15.0114 6.27202 14.9483 6.07879ZM13.9896 6.42066L10.9458 9.04566C10.8764 9.10549 10.8248 9.18325 10.7965 9.27043C10.7683 9.35762 10.7646 9.45088 10.7858 9.54004L11.7158 13.465C11.7182 13.4704 11.7184 13.4766 11.7165 13.4822C11.7145 13.4877 11.7105 13.4923 11.7052 13.495C11.6939 13.5038 11.6908 13.5019 11.6814 13.495L8.26143 11.3919C8.18266 11.3435 8.09201 11.3178 7.99955 11.3178C7.90709 11.3178 7.81644 11.3435 7.73768 11.3919L4.31768 13.4963C4.3083 13.5019 4.3058 13.5038 4.29393 13.4963C4.28865 13.4936 4.28461 13.489 4.28263 13.4834C4.28066 13.4778 4.2809 13.4717 4.2833 13.4663L5.2133 9.54129C5.2345 9.45213 5.23078 9.35887 5.20257 9.27168C5.17435 9.1845 5.12272 9.10674 5.0533 9.04691L2.00955 6.42191C2.00205 6.41566 1.99518 6.41004 2.00143 6.39066C2.00768 6.37129 2.01268 6.37379 2.02205 6.37254L6.01705 6.05004C6.10868 6.04218 6.19637 6.0092 6.27047 5.95472C6.34457 5.90025 6.40221 5.8264 6.43705 5.74129L7.9758 2.01566C7.9808 2.00504 7.98268 2.00004 7.99768 2.00004C8.01268 2.00004 8.01455 2.00504 8.01955 2.01566L9.56205 5.74129C9.59722 5.82643 9.65523 5.9002 9.72967 5.95447C9.80412 6.00873 9.89211 6.04137 9.98393 6.04879L13.9789 6.37129C13.9883 6.37129 13.9939 6.37129 13.9996 6.38941C14.0052 6.40754 13.9996 6.41441 13.9896 6.42066Z" fill="black"/>
</g>
</svg>
