<svg width="16" height="16" viewBox="0 0 16 16" fill="none" xmlns="http://www.w3.org/2000/svg">
<g id="Trash">
<path id="Vector" d="M13.5 2.99805H11V2.49805C11 2.10022 10.842 1.71869 10.5607 1.43739C10.2794 1.15608 9.89782 0.998047 9.5 0.998047H6.5C6.10218 0.998047 5.72064 1.15608 5.43934 1.43739C5.15804 1.71869 5 2.10022 5 2.49805V2.99805H2.5C2.36739 2.99805 2.24021 3.05073 2.14645 3.14449C2.05268 3.23826 2 3.36544 2 3.49805C2 3.63066 2.05268 3.75783 2.14645 3.8516C2.24021 3.94537 2.36739 3.99805 2.5 3.99805H3V12.998C3 13.2633 3.10536 13.5176 3.29289 13.7052C3.48043 13.8927 3.73478 13.998 4 13.998H12C12.2652 13.998 12.5196 13.8927 12.7071 13.7052C12.8946 13.5176 13 13.2633 13 12.998V3.99805H13.5C13.6326 3.99805 13.7598 3.94537 13.8536 3.8516C13.9473 3.75783 14 3.63066 14 3.49805C14 3.36544 13.9473 3.23826 13.8536 3.14449C13.7598 3.05073 13.6326 2.99805 13.5 2.99805ZM6 2.49805C6 2.36544 6.05268 2.23826 6.14645 2.14449C6.24021 2.05073 6.36739 1.99805 6.5 1.99805H9.5C9.63261 1.99805 9.75979 2.05073 9.85355 2.14449C9.94732 2.23826 10 2.36544 10 2.49805V2.99805H6V2.49805ZM12 12.998H4V3.99805H12V12.998ZM7 6.49805V10.498C7 10.6307 6.94732 10.7578 6.85355 10.8516C6.75979 10.9454 6.63261 10.998 6.5 10.998C6.36739 10.998 6.24021 10.9454 6.14645 10.8516C6.05268 10.7578 6 10.6307 6 10.498V6.49805C6 6.36544 6.05268 6.23826 6.14645 6.14449C6.24021 6.05073 6.36739 5.99805 6.5 5.99805C6.63261 5.99805 6.75979 6.05073 6.85355 6.14449C6.94732 6.23826 7 6.36544 7 6.49805ZM10 6.49805V10.498C10 10.6307 9.94732 10.7578 9.85355 10.8516C9.75979 10.9454 9.63261 10.998 9.5 10.998C9.36739 10.998 9.24021 10.9454 9.14645 10.8516C9.05268 10.7578 9 10.6307 9 10.498V6.49805C9 6.36544 9.05268 6.23826 9.14645 6.14449C9.24021 6.05073 9.36739 5.99805 9.5 5.99805C9.63261 5.99805 9.75979 6.05073 9.85355 6.14449C9.94732 6.23826 10 6.36544 10 6.49805Z" fill="#C72C22"/>
</g>
</svg>
