<svg width="280" height="280" viewBox="0 0 280 280" fill="none" xmlns="http://www.w3.org/2000/svg">
<path fill-rule="evenodd" clip-rule="evenodd" d="M125.029 39.7025C154.517 35.5394 185.003 39.1233 208.366 54.8607C241.066 76.8874 277.632 104.338 273.078 139.428C268.189 177.106 265.151 210.725 224.73 227.279C184.121 243.909 77.4373 248.339 38.2113 229.494C0.976641 211.605 5.12817 169.532 7.95503 133.464C10.1306 105.706 46.6878 93.4636 70.6035 74.3101C87.9378 60.4275 101.455 43.0307 125.029 39.7025Z" fill="#EBF8FF"/>
<g clip-path="url(#clip0_257_6132)">
<path d="M16.8701 211.097C16.984 215.346 17.6959 219.559 18.9849 223.61C19.0135 223.704 19.0452 223.796 19.0761 223.89H26.9674C26.9591 223.806 26.9505 223.712 26.9423 223.61C26.4161 217.561 29.422 181.184 33.0491 174.889C32.7313 175.399 16.2583 191.877 16.8701 211.097Z" fill="#2962A5"/>
<path d="M17.4641 223.611C17.5301 223.705 17.5987 223.799 17.669 223.891H23.5892C23.5444 223.811 23.4923 223.717 23.432 223.611C22.4541 221.846 19.5594 216.569 16.8725 211.098C13.9861 205.219 11.3357 199.117 11.5589 196.908C11.4898 197.406 9.4916 212.591 17.4641 223.611Z" fill="#2962A5"/>
<path d="M202.379 223.32H52.6289L58.0588 117.295H81.4929L103.102 132.441H207.809L202.379 223.32Z" fill="#CCE0EA"/>
<path d="M165.724 190.985L79.1705 155.34C78.8679 155.215 78.6272 154.975 78.5013 154.673C78.3754 154.371 78.3745 154.031 78.4989 153.728L117.718 58.4966C117.843 58.194 118.083 57.9534 118.385 57.8275C118.687 57.7016 119.027 57.7007 119.33 57.825L205.883 93.4701C206.186 93.5951 206.427 93.8351 206.553 94.1373C206.678 94.4395 206.679 94.7794 206.555 95.0822L167.336 190.314C167.211 190.616 166.971 190.857 166.669 190.983C166.367 191.109 166.027 191.11 165.724 190.985Z" fill="white"/>
<path d="M165.724 190.985L79.1705 155.34C78.8679 155.215 78.6272 154.975 78.5013 154.673C78.3754 154.371 78.3745 154.031 78.4989 153.728L117.718 58.4966C117.843 58.194 118.083 57.9534 118.385 57.8275C118.687 57.7016 119.027 57.7007 119.33 57.825L205.883 93.4701C206.186 93.5951 206.427 93.8351 206.553 94.1373C206.678 94.4395 206.679 94.7794 206.555 95.0822L167.336 190.314C167.211 190.616 166.971 190.857 166.669 190.983C166.367 191.109 166.027 191.11 165.724 190.985ZM119.142 58.2818C118.96 58.2072 118.756 58.2077 118.575 58.2832C118.394 58.3588 118.25 58.5032 118.175 58.6847L78.9556 153.916C78.881 154.098 78.8815 154.302 78.9571 154.483C79.0326 154.665 79.177 154.809 79.3586 154.884L165.912 190.529C166.094 190.603 166.298 190.603 166.479 190.527C166.66 190.452 166.804 190.307 166.879 190.126L206.098 94.8941C206.173 94.7124 206.172 94.5085 206.097 94.3272C206.021 94.1458 205.877 94.0019 205.695 93.9269L119.142 58.2818Z" fill="#3F3D56"/>
<path d="M143.587 104.969L122.12 96.1286C121.817 96.0035 121.576 95.7636 121.451 95.4614C121.325 95.1591 121.324 94.8193 121.448 94.5164L130.289 73.0494C130.414 72.7468 130.654 72.5061 130.956 72.3802C131.258 72.2543 131.598 72.2534 131.901 72.3778L153.368 81.2185C153.671 81.3435 153.911 81.5835 154.037 81.8857C154.163 82.1879 154.164 82.5277 154.04 82.8306L145.199 104.298C145.074 104.6 144.834 104.841 144.532 104.967C144.229 105.093 143.89 105.094 143.587 104.969ZM131.713 72.8345C131.531 72.7599 131.327 72.7604 131.146 72.836C130.965 72.9115 130.821 73.0559 130.746 73.2375L121.905 94.7045C121.83 94.8863 121.831 95.0902 121.906 95.2715C121.982 95.4528 122.126 95.5968 122.308 95.6718L143.775 104.513C143.957 104.587 144.16 104.587 144.342 104.511C144.523 104.436 144.667 104.291 144.742 104.11L153.583 82.6425C153.657 82.4608 153.657 82.2569 153.581 82.0756C153.506 81.8942 153.361 81.7503 153.18 81.6752L131.713 72.8345Z" fill="#F2F2F2"/>
<path d="M136.338 105.054L114.871 96.2132C114.599 96.1007 114.382 95.8847 114.269 95.6127C114.156 95.3407 114.155 95.0349 114.267 94.7623L123.108 73.2952C123.22 73.0229 123.436 72.8063 123.708 72.693C123.98 72.5797 124.286 72.5789 124.559 72.6908L146.026 81.5315C146.298 81.644 146.515 81.86 146.628 82.132C146.741 82.404 146.742 82.7098 146.63 82.9824L137.789 104.449C137.677 104.722 137.461 104.938 137.189 105.052C136.917 105.165 136.611 105.166 136.338 105.054Z" fill="#2962A5"/>
<path d="M177.687 134.37L110.546 106.719C110.411 106.664 110.288 106.582 110.185 106.479C110.081 106.376 109.999 106.254 109.943 106.119C109.887 105.984 109.858 105.84 109.857 105.694C109.857 105.548 109.886 105.403 109.941 105.268C109.997 105.133 110.078 105.011 110.181 104.907C110.284 104.804 110.407 104.722 110.541 104.666C110.676 104.609 110.821 104.58 110.967 104.58C111.113 104.58 111.257 104.608 111.392 104.664L178.534 132.315C178.806 132.427 179.023 132.643 179.136 132.915C179.25 133.187 179.25 133.493 179.138 133.766C179.026 134.038 178.81 134.255 178.538 134.368C178.266 134.482 177.96 134.482 177.687 134.37Z" fill="#CCCCCC"/>
<path d="M158.557 134.772L107.63 113.799C107.495 113.744 107.372 113.662 107.269 113.559C107.165 113.456 107.083 113.334 107.027 113.199C106.971 113.064 106.942 112.92 106.941 112.774C106.941 112.628 106.97 112.483 107.025 112.348C107.081 112.213 107.162 112.091 107.265 111.987C107.368 111.884 107.491 111.802 107.625 111.746C107.76 111.69 107.905 111.66 108.051 111.66C108.197 111.66 108.341 111.688 108.476 111.744L159.403 132.717C159.676 132.829 159.893 133.045 160.006 133.317C160.119 133.589 160.12 133.895 160.008 134.168C159.895 134.441 159.68 134.657 159.407 134.771C159.135 134.884 158.829 134.885 158.557 134.772Z" fill="#CCCCCC"/>
<path d="M188.181 108.241L158.493 96.0141C158.358 95.9585 158.235 95.8769 158.132 95.7739C158.028 95.6709 157.946 95.5485 157.89 95.4138C157.834 95.2791 157.805 95.1346 157.805 94.9887C157.804 94.8427 157.833 94.6981 157.888 94.5632C157.944 94.4282 158.026 94.3055 158.129 94.2021C158.232 94.0987 158.354 94.0166 158.489 93.9605C158.623 93.9043 158.768 93.8753 158.914 93.875C159.06 93.8747 159.204 93.9032 159.339 93.9587L189.028 106.185C189.3 106.298 189.517 106.513 189.631 106.786C189.744 107.058 189.744 107.364 189.632 107.636C189.52 107.909 189.304 108.126 189.032 108.239C188.76 108.352 188.454 108.353 188.181 108.241Z" fill="#CCCCCC"/>
<path d="M177.856 112.269L155.577 103.094C155.304 102.982 155.088 102.766 154.974 102.494C154.861 102.222 154.86 101.916 154.972 101.643C155.085 101.371 155.301 101.154 155.573 101.041C155.845 100.927 156.151 100.927 156.423 101.039L178.703 110.214C178.975 110.326 179.192 110.542 179.305 110.814C179.419 111.086 179.419 111.392 179.307 111.665C179.195 111.937 178.979 112.154 178.707 112.268C178.435 112.381 178.129 112.382 177.856 112.269Z" fill="#CCCCCC"/>
<path d="M171.855 148.53L104.714 120.879C104.579 120.824 104.456 120.742 104.353 120.639C104.249 120.536 104.167 120.414 104.111 120.279C104.055 120.144 104.026 120 104.025 119.854C104.025 119.708 104.054 119.563 104.109 119.428C104.165 119.293 104.246 119.171 104.349 119.067C104.452 118.964 104.575 118.882 104.709 118.826C104.844 118.77 104.989 118.741 105.135 118.74C105.28 118.74 105.425 118.768 105.56 118.824L172.702 146.475C172.974 146.587 173.191 146.803 173.304 147.075C173.418 147.347 173.418 147.653 173.306 147.926C173.194 148.198 172.978 148.415 172.706 148.528C172.434 148.642 172.128 148.642 171.855 148.53Z" fill="#CCCCCC"/>
<path d="M152.727 148.931L101.8 127.957C101.665 127.902 101.542 127.82 101.438 127.717C101.335 127.614 101.253 127.492 101.197 127.357C101.141 127.222 101.112 127.078 101.111 126.932C101.111 126.786 101.139 126.641 101.195 126.507C101.251 126.372 101.332 126.249 101.435 126.145C101.538 126.042 101.661 125.96 101.795 125.904C101.93 125.848 102.075 125.819 102.22 125.818C102.366 125.818 102.511 125.847 102.646 125.902L153.573 146.875C153.708 146.931 153.831 147.013 153.934 147.116C154.038 147.219 154.12 147.341 154.176 147.476C154.232 147.61 154.261 147.755 154.261 147.901C154.262 148.047 154.233 148.191 154.178 148.326C154.122 148.461 154.04 148.584 153.937 148.687C153.834 148.791 153.712 148.873 153.577 148.929C153.443 148.985 153.298 149.014 153.152 149.014C153.006 149.015 152.862 148.986 152.727 148.931Z" fill="#CCCCCC"/>
<path d="M166.025 162.688L98.8835 135.038C98.6109 134.925 98.3941 134.709 98.2808 134.437C98.1674 134.165 98.1668 133.859 98.2791 133.587C98.3913 133.314 98.6072 133.097 98.8793 132.984C99.1514 132.871 99.4574 132.87 99.7299 132.982L166.872 160.633C167.144 160.745 167.361 160.961 167.474 161.233C167.588 161.505 167.588 161.811 167.476 162.084C167.364 162.356 167.148 162.573 166.876 162.687C166.604 162.8 166.298 162.801 166.025 162.688Z" fill="#CCCCCC"/>
<path d="M163.109 169.768L95.9675 142.118C95.6949 142.005 95.4781 141.789 95.3648 141.517C95.2514 141.245 95.2508 140.939 95.363 140.667C95.4753 140.394 95.6912 140.177 95.9633 140.064C96.2354 139.951 96.5414 139.95 96.8139 140.062L163.956 167.713C164.091 167.769 164.213 167.85 164.317 167.953C164.42 168.056 164.502 168.179 164.558 168.313C164.614 168.448 164.643 168.593 164.644 168.738C164.644 168.884 164.616 169.029 164.56 169.164C164.504 169.299 164.423 169.422 164.32 169.525C164.217 169.628 164.095 169.711 163.96 169.767C163.825 169.823 163.681 169.852 163.535 169.852C163.389 169.852 163.244 169.824 163.109 169.768Z" fill="#CCCCCC"/>
<path d="M130.354 169.241C131.698 169.312 133.045 169.271 134.382 169.118C135.586 168.977 136.84 168.784 137.895 168.151C138.352 167.89 138.74 167.526 139.029 167.087C139.318 166.648 139.5 166.148 139.559 165.626C139.605 165.129 139.493 164.63 139.237 164.202C138.982 163.774 138.596 163.438 138.137 163.243C137.671 163.047 137.161 162.98 136.66 163.051C136.16 163.121 135.687 163.325 135.293 163.642C134.872 164.007 134.539 164.463 134.319 164.975C134.099 165.488 133.997 166.043 134.022 166.6C134.077 168.887 135.887 171.147 137.897 172.098C140.16 173.17 143.251 172.259 143.831 169.62C143.952 169.071 143.204 168.88 142.892 169.233C142.465 169.703 142.234 170.319 142.246 170.954C142.258 171.589 142.512 172.196 142.956 172.65C143.4 173.104 144 173.371 144.635 173.397C145.27 173.424 145.89 173.206 146.37 172.79L145.529 172.444C145.773 173.469 146.283 174.411 147.008 175.176C147.732 175.941 148.645 176.501 149.655 176.802C150.153 176.951 150.67 177.03 151.19 177.035C151.822 177.037 152.471 177.355 153.076 177.552L157.432 178.971C158.073 179.18 158.48 178.207 157.834 177.996L153.888 176.711C153.231 176.497 152.575 176.277 151.915 176.068C151.444 175.919 150.928 176 150.436 175.912C149.516 175.738 148.664 175.306 147.98 174.666C147.296 174.026 146.808 173.205 146.573 172.298C146.558 172.208 146.521 172.123 146.464 172.052C146.408 171.98 146.334 171.924 146.249 171.889C146.165 171.855 146.073 171.842 145.982 171.853C145.891 171.864 145.805 171.898 145.731 171.952C145.456 172.214 145.088 172.357 144.707 172.349C144.327 172.341 143.965 172.184 143.7 171.91C143.435 171.637 143.29 171.27 143.294 170.89C143.299 170.509 143.453 170.146 143.725 169.879L142.785 169.492C142.411 171.194 140.334 171.833 138.837 171.341C137.163 170.79 135.724 169.188 135.225 167.51C135.092 167.107 135.043 166.681 135.081 166.258C135.12 165.835 135.246 165.424 135.45 165.052C135.632 164.712 135.916 164.438 136.263 164.269C136.609 164.099 136.999 164.043 137.379 164.107C137.719 164.155 138.026 164.333 138.237 164.603C138.447 164.873 138.545 165.215 138.508 165.556C138.452 165.939 138.303 166.303 138.074 166.615C137.844 166.927 137.541 167.178 137.192 167.346C136.25 167.852 135.122 167.978 134.075 168.092C132.882 168.222 131.681 168.256 130.482 168.195C129.809 168.161 129.674 169.207 130.354 169.241Z" fill="#68A3E9"/>
<path d="M202.379 139.586V223.32H52.6289V124.439H76.063L97.671 139.586H202.379Z" fill="white"/>
<path d="M122.933 207.602H61.7754V212.46H122.933V207.602Z" fill="#68A3E9"/>
<path d="M92.3541 198.172H61.7754V203.03H92.3541V198.172Z" fill="#68A3E9"/>
<path d="M202.665 223.605H52.3438V124.152H76.1539L97.763 139.299H202.665V223.605ZM52.9153 223.033H202.094V139.87H97.5827L75.9735 124.724H52.9153V223.033Z" fill="#3F3D56"/>
<path d="M277.095 224.177H5.60219C5.52639 224.177 5.4537 224.147 5.40011 224.093C5.34652 224.04 5.31641 223.967 5.31641 223.891C5.31641 223.815 5.34652 223.743 5.40011 223.689C5.4537 223.636 5.52639 223.605 5.60219 223.605H277.095C277.171 223.605 277.244 223.636 277.297 223.689C277.351 223.743 277.381 223.815 277.381 223.891C277.381 223.967 277.351 224.04 277.297 224.093C277.244 224.147 277.171 224.177 277.095 224.177Z" fill="#68A3E9"/>
</g>
<defs>
<clipPath id="clip0_257_6132">
<rect width="272.065" height="167.468" fill="white" transform="translate(3.54492 56.709)"/>
</clipPath>
</defs>
</svg>
