<svg width="16" height="16" viewBox="0 0 16 16" fill="none" xmlns="http://www.w3.org/2000/svg">
<g id="Users">
<path id="Vector" d="M7.3284 9.87006C7.99853 9.42393 8.50729 8.77398 8.77946 8.01634C9.05164 7.25869 9.07276 6.43357 8.83972 5.663C8.60668 4.89242 8.13184 4.21729 7.48542 3.73745C6.839 3.25761 6.05532 2.99854 5.25028 2.99854C4.44523 2.99854 3.66155 3.25761 3.01513 3.73745C2.36871 4.21729 1.89388 4.89242 1.66083 5.663C1.42779 6.43357 1.44892 7.25869 1.72109 8.01634C1.99326 8.77398 2.50202 9.42393 3.17215 9.87006C1.95996 10.3168 0.924716 11.1436 0.2209 12.2269C0.18391 12.2819 0.158217 12.3437 0.145313 12.4087C0.13241 12.4737 0.132555 12.5406 0.145738 12.6055C0.158922 12.6705 0.184882 12.7321 0.222109 12.787C0.259336 12.8418 0.307088 12.8886 0.362589 12.9248C0.41809 12.961 0.480233 12.9858 0.545405 12.9978C0.610578 13.0098 0.67748 13.0087 0.742223 12.9946C0.806966 12.9805 0.868258 12.9536 0.922537 12.9156C0.976815 12.8776 1.023 12.8292 1.0584 12.7732C1.51239 12.0749 2.13362 11.5011 2.86567 11.1039C3.59772 10.7067 4.4174 10.4987 5.25028 10.4987C6.08315 10.4987 6.90283 10.7067 7.63488 11.1039C8.36693 11.5011 8.98816 12.0749 9.44215 12.7732C9.51549 12.8822 9.62877 12.9579 9.75751 12.9841C9.88626 13.0102 10.0201 12.9846 10.1301 12.9129C10.2402 12.8411 10.3175 12.7289 10.3455 12.6005C10.3735 12.4722 10.3498 12.338 10.2797 12.2269C9.57583 11.1436 8.54059 10.3168 7.3284 9.87006ZM2.50028 6.75006C2.50028 6.20616 2.66156 5.67447 2.96373 5.22224C3.26591 4.77 3.6954 4.41753 4.1979 4.20939C4.70039 4.00125 5.25333 3.94679 5.78677 4.0529C6.32022 4.15901 6.81022 4.42092 7.19482 4.80551C7.57941 5.19011 7.84133 5.68011 7.94743 6.21356C8.05354 6.74701 7.99908 7.29994 7.79094 7.80244C7.5828 8.30493 7.23033 8.73442 6.77809 9.0366C6.32586 9.33877 5.79417 9.50006 5.25028 9.50006C4.52118 9.49923 3.82219 9.20923 3.30664 8.69369C2.7911 8.17814 2.5011 7.47915 2.50028 6.75006ZM15.634 12.9188C15.523 12.9912 15.3877 13.0166 15.2579 12.9893C15.1282 12.962 15.0146 12.8842 14.9422 12.7732C14.4887 12.0745 13.8676 11.5005 13.1354 11.1034C12.4032 10.7064 11.5832 10.4989 10.7503 10.5001C10.6177 10.5001 10.4905 10.4474 10.3967 10.3536C10.303 10.2598 10.2503 10.1327 10.2503 10.0001C10.2503 9.86745 10.303 9.74027 10.3967 9.6465C10.4905 9.55273 10.6177 9.50006 10.7503 9.50006C11.1553 9.49967 11.5552 9.40985 11.9214 9.237C12.2876 9.06416 12.6112 8.81255 12.8689 8.50017C13.1266 8.18778 13.3122 7.82233 13.4123 7.42992C13.5124 7.03751 13.5247 6.62783 13.4481 6.23015C13.3715 5.83247 13.2081 5.45661 12.9694 5.12943C12.7307 4.80225 12.4228 4.53181 12.0675 4.33745C11.7122 4.14309 11.3183 4.02961 10.9141 4.0051C10.5099 3.98059 10.1052 4.04567 9.72903 4.19568C9.66769 4.2222 9.60167 4.23615 9.53485 4.23671C9.46803 4.23728 9.40178 4.22444 9.34001 4.19897C9.27823 4.1735 9.22219 4.1359 9.1752 4.0884C9.1282 4.0409 9.0912 3.98447 9.06639 3.92243C9.04157 3.86039 9.02944 3.794 9.03071 3.72719C9.03199 3.66039 9.04664 3.59451 9.07381 3.53346C9.10097 3.47242 9.14009 3.41743 9.18887 3.37176C9.23764 3.32609 9.29508 3.29066 9.35778 3.26756C10.2187 2.92421 11.1763 2.91186 12.0457 3.23287C12.9152 3.55389 13.635 4.18553 14.0663 5.00594C14.4975 5.82635 14.6097 6.77741 14.3811 7.67563C14.1525 8.57385 13.5994 9.3556 12.8284 9.87006C14.0406 10.3168 15.0758 11.1436 15.7797 12.2269C15.8521 12.338 15.8774 12.4733 15.8501 12.603C15.8228 12.7328 15.7451 12.8464 15.634 12.9188Z" fill="black"/>
</g>
</svg>
