<svg width="16" height="16" viewBox="0 0 16 16" fill="none" xmlns="http://www.w3.org/2000/svg">
<g id="Iconset" clip-path="url(#clip0_1664_367)">
<path id="Vector" d="M14.2969 6.25313C14.0769 6.02375 13.85 5.78688 13.7756 5.6075C13.7094 5.4475 13.7044 5.11812 13.7 4.82812C13.6906 4.20312 13.6788 3.42562 13.1263 2.87375C12.5738 2.32187 11.7969 2.31125 11.1719 2.3C10.8819 2.29562 10.5525 2.29062 10.3925 2.22438C10.2131 2.15 9.97625 1.92313 9.74687 1.70312C9.30437 1.27875 8.75313 0.75 8 0.75C7.24687 0.75 6.69563 1.27875 6.25313 1.70312C6.02375 1.92313 5.78688 2.15 5.6075 2.22438C5.4475 2.29062 5.11812 2.29562 4.82812 2.3C4.20312 2.3125 3.42563 2.32125 2.875 2.875C2.32437 3.42875 2.3125 4.20312 2.3 4.82812C2.29562 5.11812 2.29062 5.4475 2.22438 5.6075C2.15 5.78688 1.92313 6.02375 1.70312 6.25313C1.27875 6.69563 0.75 7.25 0.75 8C0.75 8.75 1.27875 9.30437 1.70312 9.75C1.92313 9.97937 2.15 10.2163 2.22438 10.3956C2.29062 10.5556 2.29562 10.885 2.3 11.175C2.30937 11.8 2.32125 12.5775 2.87375 13.1294C3.42625 13.6813 4.20312 13.6919 4.82812 13.7031C5.11812 13.7075 5.4475 13.7125 5.6075 13.7788C5.78688 13.8531 6.02375 14.08 6.25313 14.3C6.69563 14.7213 7.25 15.25 8 15.25C8.75 15.25 9.30437 14.7212 9.74687 14.2969C9.97625 14.0769 10.2131 13.85 10.3925 13.7756C10.5525 13.7094 10.8819 13.7044 11.1719 13.7C11.7969 13.6906 12.5744 13.6788 13.1263 13.1263C13.6781 12.5738 13.6888 11.7969 13.7 11.1719C13.7044 10.8819 13.7094 10.5525 13.7756 10.3925C13.85 10.2131 14.0769 9.97625 14.2969 9.74687C14.7212 9.30437 15.25 8.75313 15.25 8C15.25 7.24687 14.7212 6.69563 14.2969 6.25313ZM13.2144 8.70875C12.9131 9.02125 12.5719 9.37875 12.39 9.81875C12.2137 10.2438 12.2069 10.7037 12.2025 11.1494C12.1975 11.4844 12.1906 11.9438 12.0681 12.0656C11.9456 12.1875 11.4869 12.195 11.1519 12.2C10.7062 12.2069 10.2463 12.2137 9.82125 12.3875C9.38375 12.5694 9.02563 12.9106 8.71125 13.2119C8.48625 13.4275 8.15 13.75 8 13.75C7.85 13.75 7.51375 13.4275 7.29125 13.2144C6.97875 12.9131 6.62125 12.5719 6.18125 12.39C5.75625 12.2137 5.29625 12.2069 4.85063 12.2025C4.51562 12.1975 4.05625 12.1906 3.93438 12.0681C3.8125 11.9456 3.805 11.4869 3.8 11.1519C3.79312 10.7062 3.78625 10.2463 3.6125 9.82125C3.43062 9.38375 3.08938 9.02563 2.78813 8.71125C2.5725 8.48625 2.25 8.15 2.25 8C2.25 7.85 2.5725 7.51375 2.78562 7.29125C3.08687 6.97875 3.42812 6.62125 3.61 6.18125C3.78625 5.75625 3.79312 5.29625 3.7975 4.85063C3.805 4.51562 3.8125 4.05625 3.9375 3.9375C4.0625 3.81875 4.51875 3.80813 4.85375 3.80312C5.29938 3.79625 5.75937 3.78937 6.18437 3.61562C6.62187 3.43375 6.98 3.0925 7.29437 2.79125C7.51375 2.5725 7.85 2.25 8 2.25C8.15 2.25 8.48625 2.5725 8.70875 2.78562C9.02125 3.08687 9.37875 3.42812 9.81875 3.61C10.2438 3.78625 10.7037 3.79312 11.1494 3.7975C11.4844 3.8025 11.9438 3.80938 12.0656 3.93187C12.1875 4.05437 12.195 4.51312 12.2 4.84812C12.2069 5.29375 12.2137 5.75375 12.3875 6.17875C12.5694 6.61625 12.9106 6.97438 13.2119 7.28875C13.425 7.51125 13.7475 7.8475 13.7475 7.9975C13.7475 8.1475 13.4275 8.48625 13.2144 8.70875ZM11.0306 5.96938C11.1005 6.03905 11.156 6.12185 11.1939 6.21301C11.2317 6.30417 11.2512 6.40191 11.2512 6.50063C11.2512 6.59934 11.2317 6.69708 11.1939 6.78824C11.156 6.8794 11.1005 6.9622 11.0306 7.03188L7.53062 10.5319C7.46095 10.6018 7.37815 10.6573 7.28699 10.6951C7.19583 10.733 7.09809 10.7525 6.99937 10.7525C6.90066 10.7525 6.80292 10.733 6.71176 10.6951C6.6206 10.6573 6.5378 10.6018 6.46812 10.5319L4.96812 9.03187C4.89836 8.96211 4.84302 8.87929 4.80526 8.78814C4.76751 8.69698 4.74807 8.59929 4.74807 8.50062C4.74807 8.40196 4.76751 8.30427 4.80526 8.21311C4.84302 8.12196 4.89836 8.03914 4.96812 7.96938C5.03789 7.89961 5.12071 7.84427 5.21186 7.80651C5.30302 7.76876 5.40071 7.74932 5.49937 7.74932C5.59804 7.74932 5.69573 7.76876 5.78689 7.80651C5.87804 7.84427 5.96086 7.89961 6.03062 7.96938L7 8.9375L9.96937 5.9675C10.0392 5.89789 10.122 5.84272 10.2131 5.80513C10.3042 5.76755 10.4018 5.7483 10.5004 5.74847C10.599 5.74865 10.6965 5.76825 10.7875 5.80615C10.8785 5.84405 10.9611 5.89952 11.0306 5.96938Z" fill="#606060"/>
</g>
<defs>
<clipPath id="clip0_1664_367">
<rect width="16" height="16" fill="white"/>
</clipPath>
</defs>
</svg>
