<svg width="240" height="180" viewBox="0 0 240 180" fill="none" xmlns="http://www.w3.org/2000/svg">
<g id="i_004 1">
<path id="Fill-2" opacity="0.3" fill-rule="evenodd" clip-rule="evenodd" d="M59.8794 108.869C84.7827 94.4915 125.219 94.4915 150.122 108.869C175.026 123.247 175.026 146.593 150.122 160.971C125.219 175.349 84.7827 175.349 59.8794 160.971C34.9761 146.593 34.9761 123.247 59.8794 108.869Z" fill="#3B3B3B"/>
<path id="Fill-3" fill-rule="evenodd" clip-rule="evenodd" d="M74.8779 89.5641C99.7812 75.1863 140.218 75.1863 165.121 89.5641C190.024 103.942 190.024 127.288 165.121 141.666C140.218 156.044 99.7812 156.044 74.8779 141.666C49.9746 127.288 49.9746 103.942 74.8779 89.5641Z" fill="#F5F3EF"/>
<path id="Stroke-4" fill-rule="evenodd" clip-rule="evenodd" d="M74.8779 89.5641C99.7812 75.1863 140.218 75.1863 165.121 89.5641C190.024 103.942 190.024 127.288 165.121 141.666C140.218 156.044 99.7812 156.044 74.8779 141.666C49.9746 127.288 49.9746 103.942 74.8779 89.5641Z" stroke="#606060" stroke-width="0.895" stroke-linecap="round" stroke-linejoin="round"/>
<path id="Fill-5" fill-rule="evenodd" clip-rule="evenodd" d="M90.2702 85.3398C106.679 75.8664 133.323 75.8664 149.731 85.3398C166.14 94.8135 166.14 110.196 149.731 119.67C133.323 129.143 106.679 129.143 90.2702 119.67C73.8614 110.196 73.8614 94.8135 90.2702 85.3398Z" fill="#F5F3EF"/>
<path id="Stroke-6" fill-rule="evenodd" clip-rule="evenodd" d="M90.2702 85.3398C106.679 75.8664 133.323 75.8664 149.731 85.3398C166.14 94.8135 166.14 110.196 149.731 119.67C133.323 129.143 106.679 129.143 90.2702 119.67C73.8614 110.196 73.8614 94.8135 90.2702 85.3398Z" stroke="#606060" stroke-width="0.895" stroke-linecap="round" stroke-linejoin="round"/>
<path id="Fill-7" fill-rule="evenodd" clip-rule="evenodd" d="M110.866 97.2305C115.907 94.3199 124.094 94.3199 129.135 97.2305C134.177 100.141 134.177 104.868 129.135 107.778C124.094 110.689 115.907 110.689 110.866 107.778C105.824 104.868 105.824 100.141 110.866 97.2305Z" fill="#3B3B3B"/>
<path id="Stroke-8" fill-rule="evenodd" clip-rule="evenodd" d="M110.866 97.2305C115.907 94.3199 124.094 94.3199 129.135 97.2305C134.177 100.141 134.177 104.868 129.135 107.778C124.094 110.689 115.907 110.689 110.866 107.778C105.824 104.868 105.824 100.141 110.866 97.2305Z" stroke="#606060" stroke-width="0.895" stroke-linecap="round" stroke-linejoin="round"/>
<path id="Fill-9" fill-rule="evenodd" clip-rule="evenodd" d="M108.169 105.504C108.796 104.679 109.695 103.905 110.865 103.229C115.907 100.318 124.093 100.318 129.135 103.229C130.305 103.905 131.204 104.679 131.831 105.504C131.204 106.33 130.305 107.104 129.135 107.779C124.093 110.69 115.907 110.69 110.865 107.779C109.695 107.104 108.796 106.33 108.169 105.504Z" fill="#3B3B3B"/>
<path id="Stroke-10" fill-rule="evenodd" clip-rule="evenodd" d="M108.169 105.504C108.796 104.679 109.695 103.905 110.865 103.229C115.907 100.318 124.093 100.318 129.135 103.229C130.305 103.905 131.204 104.679 131.831 105.504C131.204 106.33 130.305 107.104 129.135 107.779C124.093 110.69 115.907 110.69 110.865 107.779C109.695 107.104 108.796 106.33 108.169 105.504Z" stroke="#CCE0EA" stroke-width="0.895" stroke-linecap="round" stroke-linejoin="round"/>
<path id="Fill-11" fill-rule="evenodd" clip-rule="evenodd" d="M183.8 134.482H183.776C184.237 144.248 178.02 154.1 165.122 161.547C140.219 175.925 99.7826 175.925 74.8793 161.547C61.982 154.1 55.7642 144.248 56.2259 134.482H56.2019V115.615C56.2019 125.046 62.4278 134.477 74.8793 141.666C99.7826 156.044 140.219 156.044 165.122 141.666C177.574 134.477 183.8 125.046 183.8 115.615V134.482Z" fill="#3B3B3B"/>
<path id="Stroke-12" fill-rule="evenodd" clip-rule="evenodd" d="M183.8 134.482H183.776C184.237 144.248 178.02 154.1 165.122 161.547C140.219 175.925 99.7826 175.925 74.8793 161.547C61.982 154.1 55.7642 144.248 56.2259 134.482H56.2019V115.615C56.2019 125.046 62.4278 134.477 74.8793 141.666C99.7826 156.044 140.219 156.044 165.122 141.666C177.574 134.477 183.8 125.046 183.8 115.615V134.482Z" stroke="#606060" stroke-width="0.895" stroke-linecap="round" stroke-linejoin="round"/>
<path id="Fill-13" fill-rule="evenodd" clip-rule="evenodd" d="M162.038 112.565H162.022C162.326 119 158.23 125.491 149.731 130.397C133.323 139.871 106.679 139.871 90.2702 130.397C81.7721 125.491 77.6753 119 77.9795 112.565H77.9636V102.505C77.9636 108.719 82.0658 114.933 90.2702 119.67C106.679 129.143 133.323 129.143 149.731 119.67C157.936 114.933 162.038 108.719 162.038 102.505V112.565Z" fill="#3B3B3B"/>
<path id="Stroke-14" fill-rule="evenodd" clip-rule="evenodd" d="M162.038 112.565H162.022C162.326 119 158.23 125.491 149.731 130.397C133.323 139.871 106.679 139.871 90.2702 130.397C81.7721 125.491 77.6753 119 77.9795 112.565H77.9636V102.505C77.9636 108.719 82.0658 114.933 90.2702 119.67C106.679 129.143 133.323 129.143 149.731 119.67C157.936 114.933 162.038 108.719 162.038 102.505V112.565Z" stroke="#606060" stroke-width="0.895" stroke-linecap="round" stroke-linejoin="round"/>
<path id="Fill-15" fill-rule="evenodd" clip-rule="evenodd" d="M120 23.1527V75.4472L97.3074 62.3456L120 23.1527Z" fill="#3B3B3B"/>
<path id="Stroke-16" fill-rule="evenodd" clip-rule="evenodd" d="M120 23.1527V75.4472L97.3074 62.3456L120 23.1527Z" stroke="#606060" stroke-width="0.895" stroke-linecap="round" stroke-linejoin="round"/>
<path id="Fill-17" fill-rule="evenodd" clip-rule="evenodd" d="M142.693 67.7861L120 106.979V80.8877L142.693 67.7861Z" fill="#F5F3EF"/>
<path id="Stroke-18" fill-rule="evenodd" clip-rule="evenodd" d="M142.693 67.7861L120 106.979V80.8877L142.693 67.7861Z" stroke="#606060" stroke-width="0.895" stroke-linecap="round" stroke-linejoin="round"/>
<path id="Fill-19" fill-rule="evenodd" clip-rule="evenodd" d="M120 80.8877V106.979L97.3074 67.7861L120 80.8877Z" fill="#3B3B3B"/>
<path id="Stroke-20" fill-rule="evenodd" clip-rule="evenodd" d="M120 80.8877V106.979L97.3074 67.7861L120 80.8877Z" stroke="#606060" stroke-width="0.895" stroke-linecap="round" stroke-linejoin="round"/>
<path id="Fill-21" fill-rule="evenodd" clip-rule="evenodd" d="M120 54.6847L97.3074 67.786L120 80.8876L142.693 67.786L120 54.6847Z" fill="#3B3B3B"/>
<path id="Stroke-22" fill-rule="evenodd" clip-rule="evenodd" d="M120 54.6847L97.3074 67.786L120 80.8876L142.693 67.786L120 54.6847Z" stroke="#CCE0EA" stroke-width="0.895" stroke-linecap="round" stroke-linejoin="round"/>
<path id="Fill-23" fill-rule="evenodd" clip-rule="evenodd" d="M120 49.2436L97.3074 62.3452L120 75.4468L142.693 62.3452L120 49.2436Z" fill="#F5F3EF"/>
<path id="Stroke-24" fill-rule="evenodd" clip-rule="evenodd" d="M120 49.2436L97.3074 62.3452L120 75.4468L142.693 62.3452L120 49.2436Z" stroke="#606060" stroke-width="0.895" stroke-linecap="round" stroke-linejoin="round"/>
<path id="Stroke-25" fill-rule="evenodd" clip-rule="evenodd" d="M120 23.1527V75.4472L142.693 62.3456L120 23.1527Z" stroke="#606060" stroke-width="0.895" stroke-linecap="round" stroke-linejoin="round"/>
<path id="Fill-26" fill-rule="evenodd" clip-rule="evenodd" d="M102.354 14.4553C112.094 8.83205 127.908 8.83205 137.648 14.4553C147.387 20.0785 147.387 29.209 137.648 34.8322C127.908 40.4554 112.094 40.4554 102.354 34.8322C92.6147 29.209 92.6147 20.0785 102.354 14.4553ZM107.105 17.1979C114.222 13.0885 125.78 13.0885 132.897 17.1979C140.015 21.3073 140.015 27.9802 132.897 32.0896C125.78 36.199 114.222 36.199 107.105 32.0896C99.9869 27.9802 99.9869 21.3073 107.105 17.1979Z" fill="#F5F3EF"/>
<path id="Stroke-27" fill-rule="evenodd" clip-rule="evenodd" d="M102.354 14.4553C112.094 8.83205 127.908 8.83205 137.648 14.4553C147.387 20.0785 147.387 29.209 137.648 34.8322C127.908 40.4554 112.094 40.4554 102.354 34.8322C92.6147 29.209 92.6147 20.0785 102.354 14.4553ZM107.105 17.1979C114.222 13.0885 125.78 13.0885 132.897 17.1979C140.015 21.3073 140.015 27.9802 132.897 32.0896C125.78 36.199 114.222 36.199 107.105 32.0896C99.9869 27.9802 99.9869 21.3073 107.105 17.1979Z" stroke="#606060" stroke-width="0.895" stroke-linecap="round" stroke-linejoin="round"/>
<path id="Stroke-28" fill-rule="evenodd" clip-rule="evenodd" d="M102.398 27.3988C103.202 25.6804 104.771 24.0568 107.105 22.7089C114.223 18.5992 125.78 18.5992 132.898 22.7089C135.233 24.0568 136.802 25.6804 137.605 27.3988C136.802 29.1175 135.233 30.7411 132.898 32.089C125.78 36.1984 114.223 36.1984 107.105 32.089C104.771 30.7411 103.202 29.1175 102.398 27.3988Z" stroke="#606060" stroke-width="0.895" stroke-linecap="round" stroke-linejoin="round"/>
<path id="Fill-29" fill-rule="evenodd" clip-rule="evenodd" d="M144.953 30.6143H144.944C145.124 34.4339 142.692 38.2868 137.648 41.1992C127.909 46.8224 112.094 46.8224 102.354 41.1992C97.3101 38.2868 94.8783 34.4339 95.0589 30.6143H95.0496V24.6434C95.0496 28.3316 97.4844 32.0201 102.354 34.8317C112.094 40.4549 127.909 40.4549 137.648 34.8317C142.518 32.0201 144.953 28.3316 144.953 24.6434V30.6143Z" fill="#3B3B3B"/>
<path id="Stroke-30" fill-rule="evenodd" clip-rule="evenodd" d="M144.953 30.6143H144.944C145.124 34.4339 142.692 38.2868 137.648 41.1992C127.909 46.8224 112.094 46.8224 102.354 41.1992C97.3101 38.2868 94.8783 34.4339 95.0589 30.6143H95.0496V24.6434C95.0496 28.3316 97.4844 32.0201 102.354 34.8317C112.094 40.4549 127.909 40.4549 137.648 34.8317C142.518 32.0201 144.953 28.3316 144.953 24.6434V30.6143Z" stroke="#606060" stroke-width="0.895" stroke-linecap="round" stroke-linejoin="round"/>
<path id="Fill-31" fill-rule="evenodd" clip-rule="evenodd" d="M64.7083 112.483L68.6761 110.274C70.2943 109.357 72.5386 109.506 75.0175 110.937C79.9462 113.782 83.9479 120.63 83.9479 126.219C83.9479 128.956 82.9879 130.887 81.4288 131.811L77.2963 134.112C78.9115 133.212 79.9111 131.259 79.9111 128.465C79.9111 122.877 75.9094 116.029 70.9804 113.183C68.5372 111.773 66.3217 111.608 64.7083 112.483Z" fill="#F5F3EF"/>
<path id="Stroke-32" fill-rule="evenodd" clip-rule="evenodd" d="M64.7083 112.483L68.6761 110.274C70.2943 109.357 72.5386 109.506 75.0175 110.937C79.9462 113.782 83.9479 120.63 83.9479 126.219C83.9479 128.956 82.9879 130.887 81.4288 131.811L77.2963 134.112C78.9115 133.212 79.9111 131.259 79.9111 128.465C79.9111 122.877 75.9094 116.029 70.9804 113.183C68.5372 111.773 66.3217 111.608 64.7083 112.483Z" stroke="#606060" stroke-width="0.895" stroke-linecap="round" stroke-linejoin="round"/>
<path id="Fill-35" fill-rule="evenodd" clip-rule="evenodd" d="M70.98 113.184C75.909 116.029 79.9107 122.877 79.9107 128.466C79.9107 134.054 75.909 136.281 70.98 133.436C66.051 130.59 62.0496 123.742 62.0496 118.153C62.0496 112.565 66.051 110.338 70.98 113.184Z" fill="#F5F3EF"/>
<path id="Stroke-36" fill-rule="evenodd" clip-rule="evenodd" d="M70.98 113.184C75.909 116.029 79.9107 122.877 79.9107 128.466C79.9107 134.054 75.909 136.281 70.98 133.436C66.051 130.59 62.0496 123.742 62.0496 118.153C62.0496 112.565 66.051 110.338 70.98 113.184Z" stroke="#606060" stroke-width="0.895" stroke-linecap="round" stroke-linejoin="round"/>
</g>
</svg>
