<svg width="16" height="16" viewBox="0 0 16 16" fill="none" xmlns="http://www.w3.org/2000/svg">
<g id="WarningCircle">
<path id="Vector" d="M8.00196 1.5C6.71638 1.5 5.45967 1.88122 4.39075 2.59545C3.32183 3.30968 2.48871 4.32484 1.99674 5.51256C1.50477 6.70028 1.37605 8.00721 1.62685 9.26809C1.87766 10.529 2.49672 11.6872 3.40576 12.5962C4.3148 13.5052 5.47299 14.1243 6.73387 14.3751C7.99475 14.6259 9.30168 14.4972 10.4894 14.0052C11.6771 13.5132 12.6923 12.6801 13.4065 11.6112C14.1207 10.5423 14.502 9.28558 14.502 8C14.5001 6.27665 13.8147 4.62441 12.5961 3.40582C11.3775 2.18722 9.7253 1.50182 8.00196 1.5ZM7.50196 5C7.50196 4.86739 7.55463 4.74021 7.6484 4.64645C7.74217 4.55268 7.86935 4.5 8.00196 4.5C8.13456 4.5 8.26174 4.55268 8.35551 4.64645C8.44928 4.74021 8.50196 4.86739 8.50196 5V8.5C8.50196 8.63261 8.44928 8.75979 8.35551 8.85355C8.26174 8.94732 8.13456 9 8.00196 9C7.86935 9 7.74217 8.94732 7.6484 8.85355C7.55463 8.75979 7.50196 8.63261 7.50196 8.5V5ZM8.00196 11.5C7.85362 11.5 7.70862 11.456 7.58528 11.3736C7.46194 11.2912 7.36581 11.1741 7.30905 11.037C7.25228 10.9 7.23743 10.7492 7.26637 10.6037C7.29531 10.4582 7.36674 10.3246 7.47163 10.2197C7.57652 10.1148 7.71015 10.0434 7.85564 10.0144C8.00112 9.98547 8.15192 10.0003 8.28897 10.0571C8.42601 10.1139 8.54315 10.21 8.62556 10.3333C8.70797 10.4567 8.75196 10.6017 8.75196 10.75C8.75196 10.9489 8.67294 11.1397 8.53229 11.2803C8.39163 11.421 8.20087 11.5 8.00196 11.5Z" fill="#C72C22"/>
</g>
</svg>
