<svg width="16" height="16" viewBox="0 0 16 16" fill="none" xmlns="http://www.w3.org/2000/svg">
<path d="M13.7806 3.71938L11.2806 1.21938C11.2109 1.14975 11.1282 1.09454 11.0371 1.0569C10.9461 1.01926 10.8485 0.999923 10.75 1H5.75C5.41848 1 5.10054 1.1317 4.86612 1.36612C4.6317 1.60054 4.5 1.91848 4.5 2.25V3.5H3.5C3.16848 3.5 2.85054 3.6317 2.61612 3.86612C2.3817 4.10054 2.25 4.41848 2.25 4.75V13.5C2.25 13.8315 2.3817 14.1495 2.61612 14.3839C2.85054 14.6183 3.16848 14.75 3.5 14.75H10.25C10.5815 14.75 10.8995 14.6183 11.1339 14.3839C11.3683 14.1495 11.5 13.8315 11.5 13.5V12.25H12.75C13.0815 12.25 13.3995 12.1183 13.6339 11.8839C13.8683 11.6495 14 11.3315 14 11V4.25C14.0001 4.15148 13.9807 4.05391 13.9431 3.96286C13.9055 3.87182 13.8503 3.78908 13.7806 3.71938ZM10 13.25H3.75V5H7.9375L10 7.0625V13.25ZM12.5 10.75H11.5V6.75C11.5001 6.65148 11.4807 6.55391 11.4431 6.46286C11.4055 6.37182 11.3503 6.28908 11.2806 6.21938L8.78063 3.71938C8.71092 3.64975 8.62818 3.59454 8.53714 3.5569C8.44609 3.51926 8.34852 3.49992 8.25 3.5H6V2.5H10.4375L12.5 4.5625V10.75ZM9 9C9 9.19891 8.92098 9.38968 8.78033 9.53033C8.63968 9.67098 8.44891 9.75 8.25 9.75H5.5C5.30109 9.75 5.11032 9.67098 4.96967 9.53033C4.82902 9.38968 4.75 9.19891 4.75 9C4.75 8.80109 4.82902 8.61032 4.96967 8.46967C5.11032 8.32902 5.30109 8.25 5.5 8.25H8.25C8.44891 8.25 8.63968 8.32902 8.78033 8.46967C8.92098 8.61032 9 8.80109 9 9ZM9 11.5C9 11.6989 8.92098 11.8897 8.78033 12.0303C8.63968 12.171 8.44891 12.25 8.25 12.25H5.5C5.30109 12.25 5.11032 12.171 4.96967 12.0303C4.82902 11.8897 4.75 11.6989 4.75 11.5C4.75 11.3011 4.82902 11.1103 4.96967 10.9697C5.11032 10.829 5.30109 10.75 5.5 10.75H8.25C8.44891 10.75 8.63968 10.829 8.78033 10.9697C8.92098 11.1103 9 11.3011 9 11.5Z" fill="#3B3B3B"/>
</svg>
