<svg width="24" height="24" viewBox="0 0 24 24" fill="none" xmlns="http://www.w3.org/2000/svg">
<path d="M4.04365 14.0008C3.26824 14.0008 2.63965 13.3722 2.63965 12.5968V12.5968C2.63965 12.2832 2.74465 11.9786 2.93791 11.7316L8.91636 4.09091C9.15325 3.78816 9.63376 3.8834 9.73726 4.25362V4.25362C9.82084 4.55258 9.59609 4.84878 9.28566 4.84878H3.82365C3.25811 4.84878 2.79965 4.39032 2.79965 3.82478V3.82478C2.79965 3.25924 3.25811 2.80078 3.82365 2.80078H9.66765C10.4431 2.80078 11.0716 3.42937 11.0716 4.20478V4.20478C11.0716 4.51839 10.9666 4.82298 10.7734 5.06997L4.79136 12.7152C4.55437 13.0181 4.07402 12.9254 3.96679 12.5561V12.5561C3.87917 12.2543 4.10558 11.9528 4.41983 11.9528H10.1276C10.6932 11.9528 11.1516 12.4112 11.1516 12.9768V12.9768C11.1516 13.5423 10.6932 14.0008 10.1276 14.0008H4.04365Z" fill="#161819"/>
<path d="M14.9726 16.9163C14.3702 17.602 13.2396 17.1759 13.2396 16.2632V16.2632C13.2396 16.0268 13.3243 15.7981 13.4783 15.6187L17.9303 10.4315C18.2739 10.0312 18.7752 9.80078 19.3029 9.80078H21.0187C21.07 9.80078 21.1116 9.8424 21.1116 9.89374V9.89374C21.1116 9.91633 21.1034 9.93814 21.0885 9.9551L14.9726 16.9163ZM13.1996 21.0008C12.6032 21.0008 12.1196 20.5172 12.1196 19.9208V10.8808C12.1196 10.2843 12.6032 9.80078 13.1996 9.80078V9.80078C13.7961 9.80078 14.2796 10.2843 14.2796 10.8808V19.9208C14.2796 20.5173 13.7961 21.0008 13.1996 21.0008V21.0008ZM19.6804 21.0008C19.1449 21.0008 18.6446 20.7341 18.346 20.2895L15.618 16.2267C15.3195 15.7822 15.3984 15.185 15.8021 14.8332V14.8332C16.2847 14.4128 17.0268 14.5113 17.383 15.0431L21.271 20.848C21.2819 20.8642 21.2876 20.8832 21.2876 20.9026V20.9026C21.2876 20.9568 21.2437 21.0008 21.1895 21.0008H19.6804Z" fill="#161819"/>
</svg>
