<svg width="25" height="24" viewBox="0 0 25 24" fill="none" xmlns="http://www.w3.org/2000/svg">
<path fill-rule="evenodd" clip-rule="evenodd" d="M1.27893 8.94802C-0.426308 10.631 -0.42631 13.3596 1.27893 15.0425L9.06514 22.727C10.7704 24.41 13.5351 24.41 15.2403 22.727L23.0276 15.0415C24.7328 13.3586 24.7328 10.63 23.0276 8.94702L15.2414 1.26252C13.5361 -0.420433 10.7714 -0.420435 9.06615 1.26252L1.27893 8.94802ZM6.10235 9.72232C5.79549 10.5243 5.64207 11.3824 5.64207 12.2965H6.83539C6.83539 11.545 6.95756 10.8412 7.2019 10.185C7.44625 9.52884 7.79288 8.95119 8.2418 8.45206C8.69071 7.95292 9.22487 7.56315 9.84426 7.28274C10.4693 7.00233 11.1626 6.86212 11.924 6.86212C12.6855 6.86212 13.3986 7.00233 14.0635 7.28274C14.7283 7.56876 15.3108 7.96134 15.8109 8.46047C16.3166 8.9596 16.7115 9.53725 16.9956 10.1934C17.2798 10.8496 17.4218 11.5506 17.4218 12.2965C17.4218 13.0424 17.2798 13.7406 16.9956 14.3912C16.7115 15.0473 16.3166 15.625 15.8109 16.1241C15.3108 16.6233 14.7283 17.013 14.0635 17.2934C13.3986 17.5795 12.6855 17.7225 11.924 17.7225C11.5149 17.7225 11.0972 17.672 10.6711 17.571C10.2506 17.4701 9.8954 17.3131 9.60559 17.1C9.32147 16.8868 9.17941 16.612 9.17941 16.2755C9.17941 16.012 9.27033 15.7736 9.45216 15.5605C9.634 15.3474 9.8613 15.2408 10.1341 15.2408H14.9926L15.1375 14.2902H14.1658C14.5124 14.0659 14.788 13.7546 14.9926 13.3565C15.2028 12.9583 15.308 12.518 15.308 12.0357C15.308 11.4244 15.1545 10.8636 14.8477 10.3532C14.5465 9.84851 14.1402 9.44471 13.6288 9.14187C13.1174 8.84463 12.5491 8.69602 11.924 8.69602C11.299 8.69601 10.7279 8.84463 10.2108 9.14187C9.69935 9.44471 9.29021 9.84851 8.98336 10.3532C8.68219 10.8636 8.5316 11.4244 8.5316 12.0357C8.5316 12.5292 8.63673 12.9639 8.84698 13.3396C9.06291 13.7154 9.34988 14.0182 9.70788 14.2482C9.38398 14.2762 9.09133 14.394 8.82993 14.6015C8.56854 14.809 8.36113 15.067 8.2077 15.3754C8.05996 15.6895 7.98609 16.0092 7.98609 16.3344C7.98609 16.7438 8.09974 17.1056 8.32703 17.4196C8.56002 17.7393 8.86687 18.0085 9.24759 18.2272C9.634 18.4459 10.0602 18.6114 10.5262 18.7235C10.9921 18.8413 11.4581 18.9002 11.924 18.9002C12.8446 18.9002 13.7083 18.7292 14.5152 18.387C15.3222 18.0506 16.0325 17.5795 16.6462 16.9738C17.2599 16.3737 17.7401 15.6727 18.0867 14.8707C18.439 14.0743 18.6152 13.2163 18.6152 12.2965C18.6152 11.3824 18.4418 10.5243 18.0952 9.72232C17.7486 8.92595 17.2684 8.22492 16.6547 7.61923C16.041 7.01354 15.3278 6.53965 14.5152 6.19755C13.7083 5.85544 12.8446 5.68439 11.924 5.68439C11.0035 5.68439 10.1596 5.85544 9.3925 6.19755C8.62537 6.53965 7.96052 7.01354 7.39795 7.61923C6.84107 8.22492 6.4092 8.92595 6.10235 9.72232ZM9.8613 13.2555C9.61696 12.9358 9.49478 12.5545 9.49478 12.1114C9.49478 11.6796 9.60275 11.2814 9.81868 10.9169C10.0346 10.5523 10.3244 10.2607 10.6881 10.042C11.0575 9.82327 11.4694 9.71391 11.924 9.71391C12.373 9.71391 12.7793 9.82047 13.1429 10.0336C13.5123 10.2523 13.8049 10.5411 14.0209 10.9001C14.2368 11.2646 14.3448 11.6684 14.3448 12.1114C14.3448 12.5825 14.234 12.9779 14.0124 13.2976C13.7964 13.6172 13.5123 13.8556 13.16 14.0126C12.8077 14.1753 12.4298 14.2566 12.0263 14.2566C11.6058 14.2566 11.1995 14.1697 10.8074 13.9958C10.421 13.8219 10.1056 13.5752 9.8613 13.2555Z" fill="#F5F3EF"/>
</svg>
